<svg width="106" height="35" viewBox="0 0 106 35" fill="none" xmlns="http://www.w3.org/2000/svg">
<path d="M9.15729 9.29057C8.42127 8.06978 7.59555 7.11264 6.25576 6.85645C5.70259 6.75042 5.16495 6.82378 4.65951 7.10405C4.23458 7.33961 3.92464 7.6789 3.81079 8.19186C3.78376 8.31337 3.75214 8.43544 3.70729 8.55064C3.57906 8.87963 3.27257 9.07679 2.99657 9.01661C2.69296 8.9507 2.47043 8.64063 2.5032 8.27038C2.55035 7.7345 2.72919 7.24045 3.04084 6.81232C3.59976 6.04489 4.35821 5.6414 5.24143 5.49869C6.29428 5.32789 7.25629 5.60873 8.14641 6.1939C8.79388 6.61974 9.3275 7.17855 9.81913 7.90988C9.81568 7.75226 9.82718 7.67719 9.81051 7.61013C9.64375 6.92294 9.4149 6.26153 9.06874 5.65344C8.65128 4.91982 8.07856 4.38164 7.31551 4.08247C7.12116 4.00624 6.92278 3.93116 6.74337 3.82398C6.45989 3.65433 6.33741 3.3328 6.41849 3.05082C6.50474 2.75049 6.79512 2.56193 7.13208 2.59804C7.23386 2.60893 7.33506 2.64217 7.43339 2.67656C9.4701 3.39069 10.5299 4.98 10.9398 7.14818C10.9853 7.38947 11.0111 7.63477 11.129 7.93682C11.2009 7.84053 11.263 7.73163 11.347 7.6491C12.3889 6.62662 13.5999 5.97325 15.015 5.84945C17.0344 5.6735 18.1505 6.51887 19.0694 8.05144C19.1309 8.15403 19.1683 8.27783 19.1953 8.39762C19.2609 8.69221 19.1758 8.96617 18.9757 9.10258C18.7376 9.26535 18.4996 9.22007 18.2793 9.06475C18.1839 8.99712 18.1022 8.9037 18.0252 8.81142C17.9562 8.72946 17.8987 8.63604 17.8418 8.54377C17.119 7.37743 16.0828 7.01234 14.8264 7.23816C13.4883 7.47888 12.4447 8.25433 11.5775 9.33584C11.5626 9.35418 11.5637 9.38685 11.5545 9.42353C11.7374 9.48314 11.9254 9.53071 12.1031 9.60465C12.7178 9.86141 13.1916 10.3022 13.524 10.9051C13.9828 11.7367 14.2462 12.6509 14.4428 13.5868C14.4831 13.7788 14.4601 14.0086 14.402 14.1989C14.2749 14.6156 13.8419 14.7411 13.5642 14.4242C13.386 14.2207 13.2646 13.9439 13.1692 13.6791C12.988 13.1759 12.8753 12.6423 12.6729 12.1499C12.5188 11.7757 12.2917 11.4289 12.0582 11.1011C11.8662 10.8312 11.5821 10.6764 11.2561 10.6374C10.9375 10.5996 10.8237 10.7079 10.7024 11.0203C10.5431 11.4295 10.5218 11.8531 10.4931 12.2812C10.3274 14.7623 10.1176 17.2417 10.0031 19.7251C9.90079 21.9443 9.89274 24.1692 10.2239 26.3712C10.3062 26.9168 10.4321 27.4573 10.5793 27.9869C11.0226 29.5825 12.0646 30.4697 13.5705 30.7786C13.9017 30.8463 14.2393 30.8812 14.5739 30.9317C14.6769 30.9471 14.7821 30.9534 14.8822 30.9804C15.2714 31.083 15.498 31.3993 15.4428 31.7518C15.3847 32.1209 15.0949 32.3479 14.6895 32.3152C14.3526 32.2883 14.0127 32.2579 13.6821 32.1885C13.2623 32.1009 12.8403 32.0011 12.436 31.8556C11.0508 31.3569 10.0894 30.3706 9.5368 28.928C9.15499 27.9313 8.96926 26.8847 8.85828 25.8204C8.70993 24.3985 8.6806 22.9708 8.6898 21.5391C8.70475 19.105 8.86806 16.6789 9.07909 14.2574C9.18374 13.0567 9.42065 11.8685 9.59775 10.6747C9.6035 10.6357 9.60293 10.5956 9.60638 10.5308C9.35855 10.4495 9.11991 10.5348 8.88761 10.6025C8.25739 10.7853 7.72378 11.1613 7.23329 11.6095C6.71347 12.084 6.26208 12.6308 5.90097 13.2475C5.36161 14.1691 4.85962 15.1148 4.33118 16.0433C4.1765 16.3149 4.00169 16.5797 3.80331 16.8159C3.59918 17.0583 3.3387 17.099 3.13285 16.9683C2.89939 16.8204 2.83959 16.5826 2.89881 16.3189C2.95287 16.0771 3.01267 15.8278 3.1202 15.61C3.70384 14.4259 4.31738 13.259 5.0534 12.1712C5.21383 11.9339 5.38576 11.7046 5.56574 11.484C6.50877 10.3285 7.59152 9.42468 9.15844 9.28942L9.15729 9.29057Z" fill="#09A696"/>
<path d="M15.64 18.9416C15.6981 17.2004 15.8579 15.6856 16.1546 14.1897C16.1811 14.0573 16.2167 13.9203 16.2754 13.804C16.3944 13.5678 16.625 13.4756 16.8193 13.5627C17.0338 13.6584 17.1408 13.9106 17.1103 14.1897C17.0465 14.776 16.9746 15.3623 16.9412 15.9504C16.8682 17.2273 16.7866 18.506 16.763 19.7835C16.7141 22.4549 16.8165 25.1143 17.342 27.7123C17.4864 28.4264 17.7043 29.1222 17.9308 29.806C18.0332 30.1155 18.2172 30.3969 18.4029 30.6514C18.618 30.9459 18.8422 30.9723 19.1131 30.735C19.346 30.531 19.5806 30.2983 19.7444 30.0215C20.1004 29.4214 20.4454 28.8064 20.7346 28.1599C21.5253 26.3907 22.0738 24.5073 22.5925 22.6131C23.0928 20.7865 23.5798 18.9553 24.0939 17.1339C24.3681 16.163 24.7206 15.2265 25.1686 14.3427C25.5142 13.6601 25.9178 13.0331 26.452 12.5362C26.8936 12.1253 27.383 11.8438 27.9425 11.7636C28.6336 11.6645 29.2518 11.8794 29.809 12.3431C30.3886 12.8256 30.7894 13.483 31.0976 14.2287C31.4811 15.156 31.6887 16.1498 31.829 17.1671C32.0343 18.6573 32.1125 20.1641 32.1257 21.6754C32.1441 23.7215 32.1314 25.7682 32.1372 27.8149C32.1389 28.4052 32.151 28.9961 32.1751 29.5853C32.1843 29.8151 32.2326 30.0438 32.2775 30.2679C32.3523 30.6405 32.2234 30.9884 31.9474 31.1271C31.6565 31.2726 31.3166 31.1345 31.2005 30.7625C31.1102 30.4737 31.0573 30.1527 31.0504 29.8432C31.024 28.7044 31.0176 27.5644 31.0148 26.4245C31.0079 23.8293 31.0585 21.2307 30.8428 18.6464C30.756 17.6079 30.6324 16.5757 30.3299 15.5945C30.2 15.1738 30.0487 14.7519 29.8452 14.3783C29.6618 14.0413 29.4231 13.726 29.158 13.4767C28.6146 12.9661 27.9735 12.9603 27.372 13.3988C27.0069 13.6647 26.7205 14.0304 26.4681 14.4356C26.0691 15.0763 25.7729 15.7824 25.5119 16.5103C24.9897 17.965 24.6102 19.4746 24.2152 20.9779C23.6287 23.2074 23.0548 25.4427 22.2256 27.5719C21.8939 28.4247 21.5063 29.2512 21.1067 30.0639C20.9025 30.4794 20.63 30.8537 20.3603 31.2176C20.1843 31.4543 19.9722 31.6647 19.7508 31.8412C18.9808 32.4544 18.1793 32.3496 17.5479 31.5741C17.1994 31.146 16.9671 30.6296 16.7728 30.0862C16.3933 29.0242 16.1724 27.906 16.0091 26.7706C15.7366 24.8764 15.6158 22.9633 15.6245 21.0358C15.6279 20.2667 15.6371 19.497 15.6423 18.9404L15.64 18.9416Z" fill="#FD014F"/>
<path d="M27.4749 5.5542C28.5433 5.61323 29.1425 6.04939 29.292 6.76811C29.346 7.02888 29.3443 7.32118 29.2874 7.58139C29.0022 8.87381 27.4974 9.97996 26.1737 9.88139C25.4129 9.82464 24.8287 9.47159 24.5349 8.75059C24.2376 8.0227 24.3411 7.30571 24.8977 6.76237C25.6654 6.01156 26.6262 5.61782 27.4755 5.5542H27.4749ZM27.533 6.90107C27.307 6.89419 27.0189 7.01799 26.7412 7.17331C26.4307 7.34697 26.1167 7.51376 25.8154 7.70289C25.7413 7.74932 25.6688 7.8691 25.6705 7.95393C25.6774 8.32131 26.0121 8.59068 26.4181 8.53566C27.1432 8.43708 27.6509 8.02843 27.9407 7.36474C28.0689 7.07129 27.9637 6.93489 27.533 6.90165V6.90107Z" fill="#FDA201"/>
<path d="M21.4429 5.84813C21.6752 5.87278 21.8827 6.00001 22.0593 6.18285C22.3652 6.49979 22.6653 6.82247 22.9741 7.13597C23.1765 7.34173 23.3945 7.53316 23.5974 7.73777C23.8257 7.96817 23.8568 8.22035 23.6963 8.44215C23.5382 8.65995 23.2726 8.71554 22.996 8.57971C22.8976 8.53156 22.8005 8.47482 22.7171 8.40433C22.1915 7.96014 21.666 7.51596 21.149 7.06204C20.9334 6.8729 20.8046 6.63448 20.8454 6.33186C20.8857 6.03555 21.1157 5.83896 21.4429 5.84756V5.84813Z" fill="#FDA201"/>
<path d="M23.1767 3.96028C23.2584 4.01874 23.4245 4.11102 23.5557 4.2394C23.6385 4.32078 23.6781 4.45203 23.7213 4.56666C23.8846 5.00339 24.0456 5.44184 24.1997 5.88201C24.3026 6.17546 24.2146 6.42706 23.9783 6.55717C23.7402 6.68841 23.4452 6.64486 23.2963 6.3709C23.0088 5.84246 22.7345 5.2997 22.531 4.73516C22.3815 4.32136 22.6914 3.94309 23.1779 3.96028H23.1767Z" fill="#FDA201"/>
<path d="M25.0479 3.97913C25.0651 3.67594 25.0617 3.46789 25.0944 3.26558C25.1174 3.12115 25.1657 2.96984 25.2439 2.84776C25.3612 2.66378 25.5458 2.57265 25.7752 2.6036C26.0053 2.63455 26.1507 2.77497 26.2238 2.98015C26.2634 3.09249 26.2784 3.22316 26.2669 3.34238C26.2197 3.8198 26.1663 4.29665 26.0978 4.77178C26.0478 5.11968 25.8483 5.30251 25.5723 5.29506C25.3003 5.2876 25.1048 5.09274 25.0691 4.74312C25.0398 4.45827 25.0525 4.16884 25.0484 3.97913H25.0479Z" fill="#FDA201"/>
<path d="M30.3741 7.87316C30.7985 7.92131 31.224 7.95856 31.6455 8.0239C31.803 8.04854 31.9623 8.11961 32.1003 8.20329C32.2912 8.31964 32.37 8.50992 32.3435 8.73459C32.3159 8.96499 32.1756 9.11458 31.9646 9.17762C31.8243 9.21946 31.6621 9.24353 31.5213 9.2166C31.048 9.12604 30.5777 9.01944 30.1113 8.89908C29.7335 8.80164 29.5639 8.49616 29.6893 8.18896C29.791 7.93907 30.0239 7.82788 30.3753 7.87316H30.3741Z" fill="#FDA201"/>
<path d="M29.7466 3.17231C29.6932 3.27548 29.6403 3.43653 29.5408 3.56033C29.2648 3.90306 28.9732 4.23376 28.68 4.56275C28.5132 4.75016 28.3097 4.84989 28.0526 4.74672C27.7772 4.63611 27.6237 4.33349 27.7835 4.07214C28.0762 3.59357 28.404 3.13277 28.7553 2.69489C28.9146 2.49659 29.1774 2.43927 29.4355 2.57109C29.6587 2.68457 29.7317 2.88173 29.7455 3.17231H29.7466Z" fill="#FDA201"/>
<path d="M30.4829 6.32216C30.112 6.29293 29.9131 6.13188 29.863 5.90262C29.8142 5.6791 29.9223 5.4252 30.1718 5.33751C30.5847 5.19193 31.009 5.06756 31.438 4.97872C31.7313 4.91797 32.0107 5.12143 32.0837 5.37476C32.1625 5.64757 32.0153 5.97254 31.7037 6.06195C31.2701 6.1869 30.8199 6.25281 30.4829 6.32216Z" fill="#FDA201"/>
<path d="M27.5334 6.90099C27.9641 6.93366 28.0693 7.07064 27.9411 7.36409C27.6513 8.02778 27.1435 8.43643 26.4184 8.53501C26.0125 8.59003 25.6778 8.32065 25.6709 7.95327C25.6692 7.86845 25.7417 7.74924 25.8158 7.70224C26.1166 7.51368 26.4311 7.34632 26.7416 7.17266C27.0193 7.01734 27.3074 6.89354 27.5334 6.90042V6.90099Z" fill="#FDA201"/>
<path d="M43.4182 30.1402C42.7892 29.6861 42.3458 29.0561 42.0869 28.2504L42.6414 28.0582C42.8755 28.7616 43.255 29.3053 43.7788 29.6896C44.3026 30.0739 44.9162 30.2648 45.6185 30.2648C46.3823 30.2648 47.0053 30.0669 47.4865 29.6698C47.9677 29.2739 48.2077 28.7615 48.2077 28.1339C48.2077 27.674 48.0872 27.3025 47.8471 27.0207C47.6071 26.7389 47.3175 26.5189 46.9781 26.3582C46.6388 26.1987 46.1304 25.9972 45.453 25.7538C44.7743 25.5105 44.2328 25.2776 43.8249 25.0529C43.4182 24.8293 43.0942 24.544 42.8542 24.1993C42.6142 23.8535 42.4936 23.4192 42.4936 22.894C42.4936 22.1523 42.7738 21.5444 43.3354 21.0705C43.8959 20.5978 44.6147 20.3602 45.4896 20.3602C46.2167 20.3602 46.867 20.5559 47.4404 20.9459C48.0138 21.336 48.417 21.8647 48.6523 22.5295L48.1344 22.7403C47.937 22.1651 47.6012 21.7168 47.1271 21.3966C46.6518 21.0763 46.1068 20.9168 45.4908 20.9168C44.7637 20.9168 44.1772 21.0961 43.7339 21.4536C43.2905 21.8123 43.0682 22.285 43.0682 22.8742C43.0682 23.3097 43.1699 23.6649 43.3733 23.9397C43.5766 24.2145 43.8545 24.4415 44.2056 24.6209C44.5568 24.8002 45.0474 24.9981 45.6764 25.2159C46.3539 25.4592 46.9037 25.6863 47.3222 25.8971C47.7407 26.1078 48.0895 26.3954 48.3674 26.7611C48.6452 27.1255 48.7835 27.5901 48.7835 28.1526C48.7835 28.6649 48.6476 29.1214 48.3768 29.5242C48.1049 29.9271 47.7301 30.2439 47.2489 30.4744C46.7677 30.705 46.225 30.8203 45.622 30.8203C44.7838 30.8203 44.0496 30.5932 43.4217 30.1391L43.4182 30.1402Z" fill="#181E4C"/>
<path d="M45.6187 31.1019C44.7225 31.1019 43.9256 30.8539 43.2493 30.366C42.5742 29.8781 42.0907 29.1946 41.8152 28.3341L41.7324 28.0756L42.8225 27.6983L42.9136 27.9708C43.1276 28.6147 43.4763 29.1177 43.9504 29.4647C44.4281 29.8152 44.9743 29.9852 45.621 29.9852C46.3127 29.9852 46.8802 29.8071 47.3058 29.4554C47.7232 29.1119 47.9254 28.6799 47.9254 28.135C47.9254 27.7391 47.8296 27.434 47.631 27.2023C47.4182 26.9531 47.1581 26.7551 46.8566 26.6119C46.5255 26.4559 46.0207 26.2567 45.3562 26.018C44.6681 25.7723 44.1065 25.5301 43.6868 25.2984C43.2434 25.0551 42.884 24.7383 42.6203 24.3576C42.3484 23.9663 42.2101 23.4738 42.2101 22.8939C42.2101 22.0695 42.5269 21.3848 43.1512 20.8573C43.7625 20.3415 44.5499 20.0795 45.491 20.0795C46.2737 20.0795 46.9843 20.2926 47.6038 20.7141C48.2257 21.1368 48.6691 21.7166 48.9221 22.4363L49.0096 22.6866L47.962 23.114L47.8651 22.8298C47.6865 22.3082 47.3922 21.9158 46.9665 21.6282C46.5421 21.3429 46.0455 21.1973 45.491 21.1973C44.8348 21.1973 44.304 21.3568 43.915 21.6712C43.5366 21.9763 43.3534 22.3699 43.3534 22.8741C43.3534 23.2467 43.4373 23.5495 43.604 23.7742C43.7802 24.0129 44.0273 24.2132 44.3371 24.3715C44.6752 24.5439 45.1576 24.7395 45.7712 24.9514C46.4605 25.1983 47.0256 25.4323 47.4524 25.6477C47.9088 25.8771 48.2931 26.1962 48.5957 26.5933C48.9091 27.0055 49.0687 27.5306 49.0687 28.1524C49.0687 28.7172 48.9162 29.2318 48.6147 29.679C48.3155 30.1226 47.8982 30.4754 47.3732 30.727C46.8554 30.975 46.2666 31.1007 45.621 31.1007L45.6187 31.1019ZM42.4501 28.4214C42.6972 29.0455 43.0791 29.5474 43.5863 29.9142C43.8996 30.1413 44.246 30.3066 44.6196 30.4102C44.2543 30.3054 43.9162 30.1401 43.6076 29.9142C43.1075 29.5474 42.7244 29.0444 42.469 28.4144L42.4489 28.4214H42.4501ZM44.2921 24.977C44.6374 25.1424 45.0594 25.3147 45.5501 25.4906C46.2323 25.7351 46.7537 25.9412 47.1013 26.1054C47.4761 26.2824 47.8 26.5292 48.0661 26.8401C48.3498 27.1731 48.4941 27.6075 48.4941 28.1338C48.4941 28.5728 48.3888 28.9652 48.1784 29.3075C48.3924 28.964 48.4976 28.5856 48.4976 28.1524C48.4976 27.6541 48.377 27.243 48.1382 26.9286C47.8887 26.6002 47.5695 26.3371 47.1912 26.1461C46.7844 25.9412 46.2418 25.7164 45.5773 25.4789C45.0606 25.3007 44.6303 25.1319 44.2921 24.9759V24.977ZM42.8379 22.3606C42.7977 22.5283 42.7788 22.7064 42.7788 22.895C42.7788 23.3597 42.8828 23.7451 43.0897 24.042C43.2269 24.2388 43.3971 24.4158 43.5969 24.5707C43.4208 24.4333 43.2682 24.2772 43.1417 24.1072C42.9029 23.7847 42.7823 23.3713 42.7823 22.8776C42.7823 22.6971 42.8012 22.5248 42.8379 22.3629V22.3606Z" fill="#181E4C"/>
<path d="M51.2337 29.7756C50.5775 29.0781 50.25 28.1477 50.25 26.9833V20.5731H50.8731V26.9449C50.8731 27.9684 51.1486 28.7742 51.7007 29.3634C52.2528 29.9526 52.9894 30.246 53.9128 30.246C54.5489 30.246 55.1306 30.076 55.6567 29.7371C56.1828 29.3983 56.599 28.9349 56.9041 28.3457C57.2091 27.7576 57.3616 27.1114 57.3616 26.4069V20.5731H57.9847V30.6105H57.3805L57.3616 28.3841C57.0365 29.1258 56.5565 29.7173 55.9192 30.1598C55.2819 30.6011 54.5749 30.8224 53.7946 30.8224C52.7423 30.8224 51.8875 30.4742 51.2325 29.7767L51.2337 29.7756Z" fill="#181E4C"/>
<path d="M53.797 31.1087C52.6643 31.1087 51.7303 30.7256 51.0197 29.9711C50.3151 29.2224 49.958 28.2175 49.958 26.9832V20.2854H51.1663V26.9447C51.1663 27.8891 51.4193 28.6367 51.9171 29.1676C52.416 29.6998 53.0687 29.9583 53.914 29.9583C54.4898 29.9583 55.023 29.8034 55.4983 29.4972C55.9783 29.1874 56.365 28.7566 56.6452 28.2163C56.9277 27.6713 57.0708 27.0635 57.0708 26.4091V20.2866H58.2791V30.9003H57.0933L57.0803 29.4471C56.8024 29.8151 56.4714 30.1318 56.0895 30.3973C55.4049 30.8712 54.6341 31.1122 53.797 31.1122V31.1087ZM50.5433 20.8606V26.9832C50.5433 28.0672 50.8483 28.9406 51.4489 29.5798C52.0519 30.2214 52.8204 30.5335 53.797 30.5335C53.8159 30.5335 53.8348 30.5335 53.8537 30.5335C52.8783 30.5207 52.0826 30.1923 51.4879 29.5589C50.8873 28.9184 50.5823 28.0393 50.5823 26.9459V20.8618H50.5433V20.8606ZM57.6726 30.3216H57.6951V20.8595H57.656V26.4056C57.656 26.6432 57.6395 26.8749 57.6064 27.1008L57.6442 27.0146L57.6726 30.3204V30.3216Z" fill="#181E4C"/>
<path d="M65.9435 21.8199C65.3914 21.2319 64.6477 20.9373 63.7125 20.9373C63.0764 20.9373 62.4947 21.1073 61.9686 21.4461C61.4425 21.785 61.0263 22.2496 60.7213 22.8376C60.4162 23.4268 60.2637 24.0731 60.2637 24.7764V30.6113H59.6406V20.574H60.2637V22.819C60.5888 22.0773 61.0724 21.4822 61.7156 21.0339C62.3588 20.5868 63.0693 20.3621 63.8497 20.3621C64.9019 20.3621 65.7555 20.7114 66.4117 21.4077C67.0679 22.1052 67.3954 23.0356 67.3954 24.2V30.6102H66.7723V24.2384C66.7723 23.2149 66.4957 22.4091 65.9447 21.8199H65.9435Z" fill="#181E4C"/>
<path d="M67.6889 30.8982H66.4806V24.2389C66.4806 23.2957 66.2275 22.547 65.7298 22.016C65.2308 21.4838 64.5711 21.2253 63.7128 21.2253C63.137 21.2253 62.6049 21.3802 62.1285 21.6865C61.6473 21.9962 61.2618 22.4282 60.9816 22.9685C60.699 23.5134 60.556 24.1213 60.556 24.7757V30.8982H59.3477V20.2845H60.556V21.7458C60.8338 21.3814 61.1649 21.0647 61.5468 20.798C62.2372 20.3171 63.0128 20.0737 63.8499 20.0737C64.9814 20.0737 65.9166 20.4568 66.6272 21.2114C67.3318 21.9613 67.6889 22.9662 67.6889 24.1993V30.8971V30.8982ZM67.0646 30.3218H67.1036V24.1993C67.1036 23.1152 66.7986 22.2419 66.1968 21.6026C65.5926 20.961 64.8253 20.649 63.8487 20.649C63.8274 20.649 63.805 20.649 63.7837 20.649C64.7662 20.6641 65.5643 20.9913 66.1578 21.6236C66.7584 22.2652 67.0634 23.1443 67.0634 24.2377V30.3218H67.0646ZM59.9329 30.3218H59.9719V24.7757C59.9719 24.5498 59.9873 24.3274 60.0168 24.1108L59.9719 24.2144V20.8609H59.9329V30.323V30.3218Z" fill="#181E4C"/>
<path d="M71.4542 30.14C70.655 29.6858 70.0248 29.0594 69.5637 28.2594C69.1026 27.4595 68.8721 26.5675 68.8721 25.5824C68.8721 24.5973 69.0991 23.7077 69.5543 22.9147C70.0083 22.1217 70.6384 21.4976 71.4448 21.0435C72.2499 20.5893 73.1461 20.3623 74.1345 20.3623C75.1998 20.3623 76.1539 20.6243 76.9993 21.1494C77.8435 21.6746 78.4807 22.3779 78.9087 23.2605V16.6012H79.5318V30.6116H78.9276V27.867C78.5115 28.7753 77.8789 29.4949 77.0277 30.0258C76.1764 30.5568 75.2116 30.8223 74.1334 30.8223C73.1461 30.8223 72.2523 30.5952 71.4542 30.1411V30.14ZM76.6375 29.6404C77.3587 29.2375 77.9239 28.6809 78.3329 27.9706C78.742 27.2603 78.9466 26.4639 78.9466 25.5812C78.9466 24.6986 78.742 23.9056 78.3329 23.2012C77.9239 22.4978 77.3587 21.9436 76.6375 21.5407C75.9163 21.1378 75.1076 20.9364 74.2114 20.9364C73.3152 20.9364 72.4899 21.1355 71.7758 21.5314C71.0617 21.9284 70.5025 22.4815 70.1005 23.1918C69.6973 23.9021 69.4963 24.6986 69.4963 25.5812C69.4963 26.4639 69.7009 27.2603 70.1099 27.9706C70.519 28.6809 71.0806 29.2375 71.7959 29.6404C72.51 30.0433 73.3164 30.2448 74.2126 30.2448C75.1088 30.2448 75.9175 30.0433 76.6387 29.6404H76.6375Z" fill="#181E4C"/>
<path d="M74.1324 31.1087C73.0979 31.1087 72.1473 30.8665 71.3067 30.389C70.4661 29.9116 69.7933 29.2421 69.3086 28.4014C68.8238 27.5618 68.5791 26.6128 68.5791 25.5823C68.5791 24.5518 68.8215 23.6063 69.2991 22.7737C69.778 21.9388 70.4507 21.2728 71.2984 20.7942C72.145 20.3168 73.0991 20.0746 74.1324 20.0746C75.2485 20.0746 76.2653 20.354 77.1532 20.906C77.7302 21.2646 78.2197 21.7071 78.6146 22.2288V16.3135H79.8229V30.8991H78.6347V28.9358C78.2457 29.4633 77.7598 29.9093 77.184 30.2691C76.2901 30.8269 75.2639 31.1098 74.1336 31.1098L74.1324 31.1087ZM74.1324 20.6486C73.2019 20.6486 72.3459 20.8652 71.5881 21.2926C70.8326 21.7187 70.2332 22.3114 69.8075 23.0555C69.3795 23.8007 69.1632 24.6508 69.1632 25.5811C69.1632 26.5115 69.3831 27.365 69.817 28.1161C70.2497 28.8671 70.8491 29.4633 71.5987 29.8895C72.3483 30.3157 73.2008 30.5323 74.1324 30.5323C74.1466 30.5323 74.1596 30.5323 74.1738 30.5323C73.2445 30.5264 72.3944 30.311 71.6496 29.8895C70.8917 29.4622 70.2887 28.8648 69.8548 28.1126C69.4221 27.3615 69.2034 26.5103 69.2034 25.5811C69.2034 24.6519 69.4185 23.8019 69.8442 23.0508C70.271 22.2975 70.8728 21.7013 71.6318 21.2809C72.3779 20.8664 73.2327 20.6545 74.1738 20.6486C74.1608 20.6486 74.1466 20.6486 74.1336 20.6486H74.1324ZM79.2187 30.3215H79.2376V16.8875H79.1986V24.5285L79.0851 24.2944C79.1868 24.7032 79.2376 25.1328 79.2376 25.5811C79.2376 25.9898 79.1951 26.3846 79.1111 26.7607L79.2187 26.5255V30.3203V30.3215ZM74.2105 21.225C73.3568 21.225 72.5848 21.4125 71.918 21.7828C71.2547 22.1519 70.7274 22.6724 70.3537 23.3326C69.9778 23.9963 69.7862 24.7532 69.7862 25.5811C69.7862 26.409 69.9801 27.1659 70.362 27.8285C70.7427 28.4899 71.2736 29.015 71.9392 29.39C72.6049 29.7661 73.3698 29.9559 74.2105 29.9559C75.0511 29.9559 75.8196 29.7649 76.4923 29.3888C77.1639 29.0139 77.6971 28.4887 78.0778 27.8273C78.4597 27.1647 78.6536 26.4079 78.6536 25.58C78.6536 24.7521 78.4597 23.9998 78.079 23.3431C77.6983 22.6875 77.1639 22.1647 76.4935 21.7898C75.8208 21.4137 75.0523 21.2227 74.2116 21.2227L74.2105 21.225Z" fill="#181E4C"/>
<path d="M88.1492 29.0558C87.8371 29.6066 87.3855 30.0374 86.7943 30.3518C86.2032 30.6651 85.5304 30.8223 84.7773 30.8223C84.0242 30.8223 83.3963 30.6756 82.8194 30.381C82.2412 30.0864 81.7896 29.6811 81.4656 29.1618C81.1405 28.6436 80.9785 28.0649 80.9785 27.4245C80.9785 26.784 81.144 26.1902 81.4751 25.6778C81.8061 25.1667 82.2613 24.7661 82.8395 24.4785C83.4176 24.1909 84.0643 24.0465 84.7785 24.0465C85.5316 24.0465 86.2008 24.2002 86.786 24.5076C87.3701 24.815 87.8194 25.2365 88.1303 25.7745V23.951C88.1303 23.0299 87.8442 22.2975 87.2731 21.7537C86.7009 21.2099 85.9289 20.9386 84.9546 20.9386C84.3824 20.9386 83.8172 21.0376 83.2592 21.2367C82.7 21.4347 82.1738 21.7258 81.6808 22.11L81.3687 21.6105C81.9149 21.2006 82.499 20.8909 83.122 20.6801C83.7451 20.4694 84.3564 20.3634 84.9535 20.3634C86.0967 20.3634 87.0154 20.6894 87.7106 21.3427C88.4058 21.9948 88.7534 22.8658 88.7534 23.9522V30.6115H88.1883L88.1492 29.057V29.0558ZM87.214 29.468C87.8241 28.9371 88.1303 28.2559 88.1303 27.4245C88.1303 26.5931 87.8253 25.9119 87.214 25.3809C86.6028 24.8499 85.8177 24.5844 84.8565 24.5844C83.8953 24.5844 83.1126 24.8464 82.5084 25.3716C81.9043 25.8967 81.6028 26.5803 81.6028 27.4256C81.6028 28.271 81.9078 28.9382 82.5191 29.4692C83.1291 30.0002 83.9095 30.2657 84.8577 30.2657C85.8059 30.2657 86.6051 30.0002 87.2152 29.4692L87.214 29.468Z" fill="#181E4C"/>
<path d="M84.7795 31.1084C84.0074 31.1084 83.304 30.9489 82.6868 30.6345C82.0637 30.3178 81.5695 29.873 81.2184 29.3117C80.866 28.7505 80.6875 28.1147 80.6875 27.4242C80.6875 26.7337 80.8696 26.0793 81.2302 25.5227C81.5884 24.9684 82.0862 24.5306 82.7093 24.2209C83.3252 23.9135 84.0228 23.7586 84.7795 23.7586C85.5775 23.7586 86.2999 23.9251 86.9242 24.2535C87.2718 24.4363 87.578 24.6587 87.8393 24.9207V23.9507C87.8393 23.103 87.5875 22.4521 87.0708 21.9607C86.5506 21.4658 85.8589 21.226 84.9545 21.226C84.4189 21.226 83.8821 21.3203 83.3583 21.5066C82.8322 21.6941 82.3285 21.9724 81.8615 22.3345L81.6038 22.5348L80.9807 21.538L81.1912 21.3797C81.7599 20.9535 82.377 20.6251 83.0273 20.4062C83.6787 20.1861 84.3278 20.0743 84.9545 20.0743C86.1699 20.0743 87.1654 20.4307 87.9138 21.1328C88.6657 21.8384 89.0465 22.7875 89.0465 23.9507V30.8988H87.9043L87.8795 29.9021C87.6123 30.1781 87.2966 30.4133 86.9348 30.6054C86.3035 30.9408 85.5775 31.1096 84.7795 31.1096V31.1084ZM82.0684 25.3934C81.9396 25.5285 81.8249 25.6741 81.7232 25.8313C81.4241 26.2935 81.2727 26.8292 81.2727 27.423C81.2727 28.0169 81.4217 28.5397 81.7161 29.009C82.0105 29.4806 82.4279 29.8543 82.9552 30.1233C83.0817 30.1874 83.2129 30.2444 83.3477 30.2945C82.9694 30.1501 82.6277 29.9463 82.325 29.6843C81.6523 29.0986 81.3106 28.3394 81.3106 27.4242C81.3106 26.6207 81.5648 25.9396 82.0684 25.3946V25.3934ZM84.8575 24.8706C83.9743 24.8706 83.2484 25.1116 82.7022 25.5856C82.1595 26.0572 81.8946 26.6592 81.8946 27.423C81.8946 28.1869 82.1618 28.7738 82.7116 29.2512C83.272 29.7391 83.9731 29.9754 84.8563 29.9754C85.7395 29.9754 86.4607 29.7379 87.0212 29.2512C87.5709 28.7726 87.8381 28.1752 87.8381 27.423C87.8381 26.6708 87.5709 26.0735 87.0212 25.5949C86.4678 25.114 85.7395 24.8706 84.8563 24.8706H84.8575ZM88.4163 27.9948L88.4624 29.8276V23.9484C88.4624 22.9342 88.1514 22.1482 87.5106 21.5473C86.8745 20.95 86.015 20.6484 84.9545 20.6484C84.9367 20.6484 84.919 20.6484 84.9013 20.6484C85.9689 20.6403 86.8403 20.9395 87.4763 21.545C88.1041 22.1435 88.4234 22.9516 88.4234 23.9495V26.8571L88.3524 26.736C88.3997 26.9549 88.4234 27.1843 88.4234 27.4242C88.4234 27.6641 88.3997 27.8888 88.3548 28.1054L88.4163 27.9959V27.9948ZM81.7599 21.6836L81.7622 21.6871C81.9313 21.5683 82.1051 21.46 82.2824 21.361C82.1039 21.4588 81.9301 21.566 81.7599 21.6824V21.6836Z" fill="#181E4C"/>
<path d="M93.7571 29.9954L89.7432 20.5717H90.4053L92.7829 26.1563L94.0882 29.3037L95.3544 26.2134L97.693 20.5706H98.3752L92.6658 34.2933H91.9836L93.7571 29.9942V29.9954Z" fill="#181E4C"/>
<path d="M92.8625 34.5821H91.5501L93.4418 29.9966L89.3037 20.2842H90.6007L93.0528 26.0458L94.0874 28.5399L95.084 26.1075L97.4971 20.2853H98.8119L92.8625 34.5833V34.5821ZM92.4191 34.0069H92.4711L97.9417 20.8606H97.892L95.6279 26.324L94.0921 30.0712L94.0684 30.0129L92.4203 34.0081L92.4191 34.0069ZM90.1834 20.8606L93.5068 28.6622L92.5125 26.2658L90.2117 20.8606H90.1834Z" fill="#181E4C"/>
<path d="M100.183 30.1402C99.5539 29.6861 99.1105 29.0561 98.8516 28.2504L99.4061 28.0582C99.6402 28.7616 100.02 29.3053 100.543 29.6896C101.067 30.0739 101.681 30.2648 102.383 30.2648C103.147 30.2648 103.77 30.0669 104.251 29.6698C104.732 29.2739 104.972 28.7615 104.972 28.1339C104.972 27.674 104.852 27.3025 104.612 27.0207C104.372 26.7389 104.082 26.5189 103.743 26.3582C103.403 26.1987 102.895 25.9972 102.218 25.7538C101.539 25.5105 100.997 25.2776 100.59 25.0529C100.183 24.8293 99.8589 24.544 99.6189 24.1993C99.3789 23.8535 99.2583 23.4192 99.2583 22.894C99.2583 22.1523 99.5385 21.5444 100.1 21.0705C100.661 20.5978 101.379 20.3602 102.254 20.3602C102.981 20.3602 103.632 20.5559 104.205 20.9459C104.778 21.336 105.182 21.8647 105.417 22.5295L104.899 22.7403C104.702 22.1651 104.366 21.7168 103.892 21.3966C103.416 21.0763 102.871 20.9168 102.255 20.9168C101.528 20.9168 100.942 21.0961 100.499 21.4536C100.055 21.8123 99.8329 22.285 99.8329 22.8742C99.8329 23.3097 99.9346 23.6649 100.138 23.9397C100.341 24.2145 100.619 24.4415 100.97 24.6209C101.321 24.8002 101.812 24.9981 102.441 25.2159C103.119 25.4592 103.668 25.6863 104.087 25.8971C104.505 26.1078 104.854 26.3954 105.132 26.7611C105.41 27.1255 105.548 27.5901 105.548 28.1526C105.548 28.6649 105.412 29.1214 105.141 29.5242C104.87 29.9271 104.495 30.2439 104.014 30.4744C103.532 30.705 102.99 30.8203 102.387 30.8203C101.548 30.8203 100.814 30.5932 100.186 30.1391L100.183 30.1402Z" fill="#181E4C"/>
<path d="M102.384 31.1019C101.488 31.1019 100.691 30.8539 100.015 30.366C99.3399 29.8781 98.8563 29.1946 98.5808 28.3341L98.498 28.0756L99.5881 27.6983L99.6792 27.9708C99.8932 28.6147 100.242 29.1177 100.716 29.4647C101.194 29.8152 101.74 29.9852 102.387 29.9852C103.078 29.9852 103.646 29.8071 104.071 29.4554C104.489 29.1119 104.691 28.6799 104.691 28.135C104.691 27.7391 104.595 27.434 104.397 27.2023C104.184 26.9531 103.924 26.7551 103.622 26.6119C103.291 26.4559 102.787 26.2567 102.122 26.018C101.434 25.7723 100.872 25.5301 100.452 25.2984C100.009 25.0551 99.6496 24.7383 99.386 24.3576C99.114 23.9663 98.9757 23.4738 98.9757 22.8939C98.9757 22.0695 99.2926 21.3848 99.9168 20.8573C100.528 20.3415 101.315 20.0795 102.257 20.0795C103.039 20.0795 103.75 20.2926 104.369 20.7141C104.991 21.1368 105.435 21.7166 105.688 22.4363L105.775 22.6866L104.728 23.114L104.631 22.8298C104.452 22.3082 104.158 21.9158 103.732 21.6282C103.308 21.3429 102.811 21.1973 102.257 21.1973C101.6 21.1973 101.07 21.3568 100.681 21.6712C100.302 21.9763 100.119 22.3699 100.119 22.8741C100.119 23.2467 100.203 23.5495 100.37 23.7742C100.546 24.0129 100.793 24.2132 101.103 24.3715C101.441 24.5439 101.923 24.7395 102.537 24.9514C103.226 25.1983 103.791 25.4323 104.218 25.6477C104.674 25.8771 105.059 26.1962 105.361 26.5933C105.675 27.0055 105.834 27.5306 105.834 28.1524C105.834 28.7172 105.682 29.2318 105.38 29.679C105.081 30.1226 104.664 30.4754 104.139 30.727C103.621 30.975 103.032 31.1007 102.387 31.1007L102.384 31.1019ZM99.2145 28.4214C99.4616 29.0455 99.8435 29.5474 100.351 29.9142C100.664 30.1413 101.01 30.3066 101.384 30.4102C101.019 30.3054 100.681 30.1401 100.372 29.9142C99.8719 29.5474 99.4888 29.0444 99.2334 28.4144L99.2133 28.4214H99.2145ZM101.058 24.977C101.403 25.1424 101.825 25.3147 102.316 25.4906C102.998 25.7351 103.519 25.9423 103.867 26.1054C104.242 26.2824 104.566 26.5292 104.832 26.8401C105.115 27.1731 105.26 27.6075 105.26 28.1338C105.26 28.5728 105.154 28.9652 104.944 29.3075C105.158 28.964 105.263 28.5856 105.263 28.1524C105.263 27.6541 105.143 27.243 104.904 26.9286C104.654 26.6002 104.335 26.3371 103.957 26.1461C103.55 25.9412 103.007 25.7164 102.343 25.4789C101.826 25.3007 101.396 25.1319 101.058 24.9759V24.977ZM99.6035 22.3606C99.5633 22.5283 99.5444 22.7064 99.5444 22.895C99.5444 23.3597 99.6484 23.7451 99.8553 24.042C99.9925 24.2388 100.163 24.4158 100.363 24.5707C100.186 24.4333 100.034 24.2772 99.9074 24.1072C99.6685 23.7847 99.5479 23.3713 99.5479 22.8776C99.5479 22.6971 99.5669 22.5248 99.6035 22.3629V22.3606Z" fill="#181E4C"/>
<path d="M79.8245 15.892H78.6162V18.7297H79.8245V15.892Z" fill="#181E4C"/>
<path d="M43.3344 16.4601C42.6901 15.9268 42.268 15.1536 42.0693 14.1405L42.5565 14.0439C42.735 14.9382 43.098 15.6147 43.6489 16.0723C44.1987 16.5299 44.83 16.7593 45.5418 16.7593C46.4002 16.7593 47.0965 16.5008 47.6309 15.9838C48.1653 15.4668 48.4325 14.7926 48.4325 13.9635C48.4325 13.4034 48.3013 12.9016 48.04 12.4603C47.7775 12.0178 47.4063 11.6766 46.9251 11.4332C46.4427 11.191 45.8929 11.0699 45.2758 11.0699H44.6633V10.7148L47.8213 6.26901H42.4796V5.76831H48.5283V6.10832L45.3077 10.603C45.9993 10.603 46.6224 10.7462 47.1769 11.0315C47.7314 11.3168 48.1665 11.7139 48.481 12.2204C48.7955 12.7269 48.9528 13.3091 48.9528 13.9659C48.9528 14.6226 48.8085 15.1699 48.5212 15.6717C48.2327 16.1724 47.8296 16.5637 47.3117 16.8443C46.7939 17.1249 46.2039 17.2647 45.5442 17.2647C44.7165 17.2647 43.9811 16.998 43.3368 16.4647L43.3344 16.4601Z" fill="#181E4C"/>
<path d="M45.5414 17.5899C44.6322 17.5899 43.8129 17.293 43.1059 16.7084C42.4048 16.1274 41.9413 15.2832 41.7285 14.2014L41.667 13.8859L42.8316 13.6542L42.8966 13.9837C43.0586 14.8 43.3884 15.4206 43.8767 15.827C44.3662 16.2345 44.9101 16.4325 45.5414 16.4325C46.3099 16.4325 46.9129 16.2112 47.3835 15.7548C47.8564 15.2972 48.0858 14.7115 48.0858 13.9639C48.0858 13.4632 47.9687 13.0114 47.737 12.6213C47.5064 12.2324 47.1872 11.9378 46.7616 11.7235C46.3324 11.5081 45.8323 11.3987 45.2742 11.3987H44.3154V10.6139L47.1683 6.59659H42.1316V5.43799H48.8732V6.20651L45.9328 10.3099C46.4388 10.374 46.9106 10.5172 47.3409 10.7396C47.9498 11.0528 48.4334 11.4942 48.7786 12.0496C49.1227 12.605 49.2976 13.2489 49.2976 13.9627C49.2976 14.6765 49.138 15.2774 48.8235 15.8258C48.5055 16.3801 48.0538 16.8167 47.4816 17.1265C46.9129 17.4339 46.2603 17.5899 45.5426 17.5899H45.5414Z" fill="#181E4C"/>
<path d="M52.2036 16.7702C51.6278 16.3394 51.1738 15.685 50.8392 14.8058C50.5058 13.9278 50.3379 12.8519 50.3379 11.5804C50.3379 10.3088 50.5046 9.23404 50.8392 8.3549C51.1726 7.47692 51.6278 6.82135 52.2036 6.39052C52.7794 5.95968 53.4261 5.74426 54.1449 5.74426C54.8638 5.74426 55.5117 5.95968 56.0863 6.39052C56.6621 6.82135 57.1161 7.47692 57.4507 8.3549C57.7841 9.23404 57.952 10.3088 57.952 11.5804C57.952 12.8519 57.7853 13.9278 57.4507 14.8058C57.1173 15.685 56.6621 16.3394 56.0863 16.7702C55.5105 17.201 54.8638 17.4165 54.1449 17.4165C53.4261 17.4165 52.7782 17.201 52.2036 16.7702ZM55.8487 16.3417C56.3464 15.9586 56.7401 15.3659 57.0274 14.5636C57.3147 13.7613 57.459 12.7669 57.459 11.5804C57.459 10.3938 57.3147 9.40056 57.0274 8.5971C56.7401 7.79481 56.3464 7.20096 55.8487 6.81902C55.3497 6.43709 54.7822 6.24496 54.1461 6.24496C53.51 6.24496 52.9413 6.43593 52.4436 6.81902C51.9447 7.20212 51.5521 7.79481 51.2648 8.5971C50.9775 9.40056 50.8333 10.395 50.8333 11.5804C50.8333 12.7657 50.9775 13.7602 51.2648 14.5636C51.5521 15.3671 51.9458 15.9598 52.4436 16.3417C52.9413 16.7248 53.5089 16.9158 54.1461 16.9158C54.7834 16.9158 55.3509 16.7248 55.8487 16.3417Z" fill="#181E4C"/>
<path d="M54.1456 17.7455C53.3451 17.7455 52.6156 17.5033 51.9772 17.0248C51.3529 16.5567 50.8564 15.8464 50.5017 14.9148C50.1564 14.0066 49.9814 12.8841 49.9814 11.5811C49.9814 10.2781 50.1564 9.15676 50.5017 8.24734C50.8564 7.31464 51.3529 6.6055 51.9772 6.1374C52.6156 5.65882 53.3451 5.41663 54.1456 5.41663C54.946 5.41663 55.6755 5.65882 56.3139 6.1374C56.9382 6.6055 57.4347 7.3158 57.7894 8.24734C58.1347 9.15676 58.3108 10.2781 58.3108 11.5811C58.3108 12.8841 58.1359 14.0054 57.7894 14.9148C57.4347 15.8475 56.9382 16.5578 56.3139 17.0248C55.6755 17.5033 54.946 17.7455 54.1456 17.7455ZM54.1456 6.57406C53.5899 6.57406 53.1087 6.73708 52.6724 7.07127C52.2278 7.41245 51.8684 7.95973 51.6036 8.7003C51.3293 9.46649 51.1898 10.4353 51.1898 11.5811C51.1898 12.7269 51.3293 13.6957 51.6036 14.4607C51.8684 15.2013 52.2278 15.7486 52.6724 16.0897C53.1087 16.4239 53.5899 16.5869 54.1456 16.5869C54.7012 16.5869 55.1824 16.4239 55.6187 16.0897C56.0621 15.7486 56.4215 15.2013 56.6875 14.4607C56.9618 13.6945 57.1013 12.7257 57.1013 11.5811C57.1013 10.4365 56.9618 9.46766 56.6875 8.7003C56.4227 7.96089 56.0633 7.41245 55.6187 7.07127C55.1824 6.73708 54.7012 6.57406 54.1456 6.57406Z" fill="#181E4C"/>
</svg>
