<svg width="40" height="48" viewBox="0 0 40 48" fill="none" xmlns="http://www.w3.org/2000/svg">
<path d="M4.86166 37.4036V36.0586C4.86166 35.2061 4.36354 34.7339 3.42398 34.7339C2.60969 34.7339 2.04297 35.175 2.04297 36.0586V36.5715C2.04297 37.7839 2.57539 38.2967 3.07351 38.7798C3.52689 39.2114 3.94447 39.6214 3.94447 40.5145V41.0274C3.94447 41.3873 3.78639 41.5916 3.44635 41.5916C3.10632 41.5916 2.94823 41.386 2.94823 41.0274V39.8055L2.04297 39.6715V41.0057C2.04297 41.8271 2.52916 42.3507 3.44635 42.3507C4.29494 42.3507 4.86166 41.8893 4.86166 41.0057V40.4929C4.86166 39.3021 4.32924 38.7879 3.84305 38.3062C3.38968 37.8651 2.94972 37.4537 2.94972 36.5498V36.0573C2.94972 35.6973 3.11974 35.493 3.44784 35.493C3.77594 35.493 3.94596 35.6987 3.94596 36.0573V37.2589L4.86316 37.4023L4.86166 37.4036Z" fill="#CEA261"/>
<path d="M9.48832 42.291V35.5455H10.4965V34.7959H7.56445V35.5455H8.57262V42.291H9.48832Z" fill="#CEA261"/>
<path d="M13.2305 34.7959V41.0177C13.2305 41.8498 13.7062 42.3519 14.6339 42.3519C15.5615 42.3519 16.0372 41.8485 16.0372 41.0177V34.7959H15.12V41.0177C15.12 41.3668 14.962 41.5928 14.6339 41.5928C14.3057 41.5928 14.1477 41.3668 14.1477 41.0177V34.7959H13.2305Z" fill="#CEA261"/>
<path d="M18.8789 34.7959V42.291H20.2927C21.1756 42.291 21.708 41.7984 21.708 40.9554V36.1301C21.708 35.2884 21.1756 34.7959 20.2927 34.7959H18.8789ZM20.7908 36.172V40.9162C20.7908 41.3478 20.6104 41.5427 20.2137 41.5427H19.7946V35.5455H20.2137C20.6104 35.5455 20.7908 35.7404 20.7908 36.172Z" fill="#CEA261"/>
<path d="M25.4563 34.7959H24.5391V42.291H25.4563V34.7959Z" fill="#CEA261"/>
<path d="M29.6907 34.7354C28.7631 34.7354 28.2754 35.2279 28.2754 36.0696V41.018C28.2754 41.8597 28.7616 42.3522 29.6907 42.3522C30.6198 42.3522 31.1165 41.8597 31.1165 41.018V36.0696C31.1165 35.2279 30.6303 34.7354 29.6907 34.7354ZM30.2008 41.0194C30.2008 41.3793 30.0427 41.5944 29.6907 41.5944C29.3387 41.5944 29.1807 41.3793 29.1807 41.0194V36.0709C29.1807 35.711 29.3387 35.4958 29.6907 35.4958C30.0427 35.4958 30.2008 35.711 30.2008 36.0709V41.0194Z" fill="#CEA261"/>
<path d="M36.746 37.4036V36.0586C36.746 35.2061 36.2479 34.7339 35.3083 34.7339C34.494 34.7339 33.9273 35.175 33.9273 36.0586V36.5715C33.9273 37.7839 34.4597 38.2967 34.9563 38.7798C35.4097 39.2114 35.8273 39.6214 35.8273 40.5145V41.0274C35.8273 41.3873 35.6692 41.5916 35.3292 41.5916C34.9891 41.5916 34.831 41.386 34.831 41.0274V39.8055L33.9258 39.6715V41.0057C33.9258 41.8271 34.412 42.3507 35.3292 42.3507C36.1778 42.3507 36.7445 41.8893 36.7445 41.0057V40.4929C36.7445 39.3021 36.2121 38.7879 35.7259 38.3062C35.2725 37.8651 34.8325 37.4537 34.8325 36.5498V36.0573C34.8325 35.6973 35.0026 35.493 35.3307 35.493C35.6588 35.493 35.8288 35.6987 35.8288 36.0573V37.2589L36.746 37.4023V37.4036Z" fill="#CEA261"/>
<path d="M36.813 43.9531H2.0625V44.3144H36.813V43.9531Z" fill="#CEA261"/>
<path d="M2.53242 45.9702L2 47.9702H2.2416L2.40267 47.3355H2.97536L3.13791 47.9702H3.39443L2.8471 45.9702H2.53391H2.53242ZM2.4489 47.1407C2.55777 46.7117 2.64725 46.3518 2.67708 46.1772H2.68454C2.71437 46.3369 2.79639 46.6495 2.92465 47.1407H2.4489Z" fill="#CEA261"/>
<path d="M4.97631 47.4641C4.97631 47.184 4.91367 47.0203 4.70935 46.954C4.84208 46.9134 5.00465 46.7848 5.00465 46.4871C5.00465 46.161 4.81077 45.9702 4.44091 45.9702H3.86523V47.9702H4.10535V47.05H4.37231C4.66909 47.05 4.73322 47.1867 4.73322 47.4709V47.5385C4.73322 47.7009 4.73471 47.8781 4.76603 47.9702H5.00614C4.98079 47.8619 4.97482 47.7293 4.97482 47.5439V47.4641H4.97631ZM4.38722 46.8633H4.10535V46.1569H4.41108C4.65566 46.1569 4.75708 46.2923 4.75708 46.4925C4.75708 46.7253 4.65566 46.8619 4.38722 46.8619" fill="#CEA261"/>
<path d="M5.36719 46.1664H5.85785V47.9702H6.09945V46.1664H6.5916V45.9702H5.36719V46.1664Z" fill="#CEA261"/>
<path d="M7.30215 45.9702H7.06055V47.9702H7.30215V45.9702Z" fill="#CEA261"/>
<path d="M8.49647 46.8202C8.22057 46.7011 8.12661 46.6105 8.12661 46.4197C8.12661 46.26 8.21609 46.1274 8.42787 46.1274C8.70228 46.1274 8.7336 46.3588 8.74553 46.4548H8.98415C8.97818 46.2208 8.86335 45.9434 8.43682 45.9434C8.0774 45.9434 7.88352 46.1626 7.88352 46.4373C7.88352 46.7268 8.03563 46.8649 8.38163 47.0151C8.6814 47.1463 8.77536 47.2586 8.77536 47.4684C8.77536 47.6984 8.65903 47.8134 8.42787 47.8134C8.1967 47.8134 8.07739 47.6497 8.0595 47.444H7.81641C7.83281 47.7349 7.97896 47.9974 8.42041 47.9974C8.82606 47.9974 9.02293 47.766 9.02293 47.4508C9.02293 47.1531 8.88125 46.9866 8.49647 46.8202Z" fill="#CEA261"/>
<path d="M9.35938 46.1664H9.85153V47.9702H10.0931V46.1664H10.5838V45.9702H9.35938V46.1664Z" fill="#CEA261"/>
<path d="M14.5266 46.8822C14.6548 46.8416 14.798 46.7253 14.798 46.4573C14.798 46.1502 14.5952 45.9702 14.2656 45.9702H13.6914V47.9688H14.2477C14.6295 47.9688 14.8696 47.7428 14.8696 47.3829C14.8696 47.0744 14.6936 46.935 14.5266 46.8809M13.93 46.1515H14.2134C14.4446 46.1515 14.5609 46.2747 14.5609 46.4749C14.5609 46.6901 14.4595 46.8024 14.1836 46.8024H13.93V46.1515ZM14.2268 47.7875H13.93V46.9824H14.1791C14.4744 46.9824 14.625 47.115 14.625 47.3829C14.625 47.6508 14.4848 47.7875 14.2253 47.7875" fill="#CEA261"/>
<path d="M16.549 47.4641C16.549 47.184 16.4864 47.0203 16.2821 46.954C16.4148 46.9134 16.5774 46.7848 16.5774 46.4871C16.5774 46.161 16.3835 45.9702 16.0136 45.9702H15.4395V47.9702H15.6796V47.05H15.9465C16.2433 47.05 16.3074 47.1867 16.3074 47.4709V47.5385C16.3074 47.7009 16.3089 47.8781 16.3402 47.9702H16.5804C16.555 47.8619 16.549 47.7293 16.549 47.5439V47.4641ZM15.9599 46.8633H15.6781V46.1569H15.9823C16.2269 46.1569 16.3283 46.2923 16.3283 46.4925C16.3283 46.7253 16.2269 46.8619 15.9584 46.8619" fill="#CEA261"/>
<path d="M17.5402 45.9702L17.0078 47.9702H17.2494L17.4105 47.3355H17.9832L18.1457 47.9702H18.4022L17.8549 45.9702H17.5417H17.5402ZM17.4567 47.1407C17.5656 46.7117 17.6551 46.3518 17.6849 46.1772H17.6924C17.7222 46.3369 17.8042 46.6495 17.9325 47.1407H17.4567Z" fill="#CEA261"/>
<path d="M19.8782 46.7351C19.8782 47.0599 19.8827 47.3603 19.8976 47.6296H19.8946C19.8663 47.5429 19.7813 47.3549 19.1713 45.9706H18.873V47.9692H19.0982V47.1898C19.0982 46.8298 19.0968 46.5024 19.0804 46.252H19.0833C19.1087 46.3305 19.1862 46.5146 19.8186 47.9678H20.1034V45.9692H19.8767V46.7338L19.8782 46.7351Z" fill="#CEA261"/>
<path d="M21.2431 45.9702H20.7539V47.9702H21.2088C21.774 47.9702 21.9798 47.5967 21.9798 46.9174C21.9798 46.2923 21.7516 45.9702 21.2431 45.9702ZM21.1983 47.7821H20.997V46.1597H21.2028C21.5801 46.1597 21.7308 46.3937 21.7308 46.9242C21.7308 47.4911 21.6025 47.7807 21.1998 47.7807" fill="#CEA261"/>
<path d="M25.7809 47.806C25.4483 47.806 25.3961 47.3798 25.3961 46.9576C25.3961 46.5679 25.4498 46.1376 25.7973 46.1376C26.106 46.1376 26.1194 46.4475 26.1239 46.5151H26.367C26.361 46.3934 26.3312 45.9414 25.8003 45.9414C25.3111 45.9414 25.1426 46.3744 25.1426 46.9549C25.1426 47.4353 25.1873 47.9982 25.7734 47.9982C26.3073 47.9982 26.3625 47.5313 26.373 47.415H26.1284C26.1179 47.5165 26.0747 47.8047 25.7809 47.8047" fill="#CEA261"/>
<path d="M27.4833 45.9414C27.0508 45.9414 26.8301 46.2743 26.8301 46.9563C26.8301 47.6383 27.018 47.9995 27.4714 47.9995C27.9486 47.9995 28.1276 47.6342 28.1276 46.9522C28.1276 46.2702 27.9382 45.9414 27.4833 45.9414ZM27.4803 47.8087C27.2074 47.8087 27.0806 47.5219 27.0806 46.9509C27.0806 46.3798 27.2089 46.1336 27.4788 46.1336C27.7488 46.1336 27.88 46.3731 27.88 46.9549C27.88 47.5368 27.7622 47.8087 27.4818 47.8087" fill="#CEA261"/>
<path d="M29.7122 46.7351C29.7122 47.0599 29.7167 47.3603 29.7316 47.6296H29.7286C29.7003 47.5429 29.6153 47.3549 29.0053 45.9706H28.707V47.9692H28.9322V47.1898C28.9322 46.8298 28.9307 46.5024 28.9143 46.252H28.9173C28.9427 46.3305 29.0202 46.5146 29.6526 47.9678H29.9374V45.9692H29.7107V46.7338L29.7122 46.7351Z" fill="#CEA261"/>
<path d="M30.4062 46.1664H30.8969V47.9702H31.1385V46.1664H31.6307V45.9702H30.4062V46.1664Z" fill="#CEA261"/>
<path d="M32.3358 47.0108H33.0711V46.8159H32.3358V46.1664H33.1069V45.9702H32.0957V47.9702H33.1188L33.1516 47.7753H32.3358V47.0108Z" fill="#CEA261"/>
<path d="M34.6321 46.7351C34.6321 47.0599 34.6366 47.3603 34.6515 47.6296H34.6485C34.6202 47.5429 34.5352 47.3549 33.9252 45.9706H33.627V47.9692H33.8522V47.1898C33.8522 46.8298 33.8507 46.5024 33.8343 46.252H33.8372C33.8626 46.3305 33.9401 46.5146 34.5725 47.9678H34.8573V45.9692H34.6307V46.7338L34.6321 46.7351Z" fill="#CEA261"/>
<path d="M35.3262 46.1664H35.8168V47.9702H36.0584V46.1664H36.5506V45.9702H35.3262V46.1664Z" fill="#CEA261"/>
<path d="M12.3521 46.6623L12.1045 46.209L11.8584 46.6623L11.3066 46.7354L11.7063 47.0885L11.6124 47.5865L12.1045 47.3524L12.5982 47.5865L12.5042 47.0885L12.9039 46.7354L12.3521 46.6623Z" fill="#CEA261"/>
<path d="M23.9751 46.6623L23.7291 46.209L23.4815 46.6623L22.9297 46.7354L23.3294 47.0885L23.2354 47.5865L23.7291 47.3524L24.2227 47.5865L24.1273 47.0885L24.5269 46.7354L23.9751 46.6623Z" fill="#CEA261"/>
<path d="M35.5961 1.19618V0.140727H35.1621V0H36.2061V0.140727H35.7706V1.19618H35.5961Z" fill="#CEA261"/>
<path d="M36.5156 1.19618V0H36.7781L37.0898 0.847069C37.1181 0.925552 37.139 0.98509 37.1524 1.02433C37.1674 0.98103 37.1912 0.917433 37.2225 0.832185L37.5387 0H37.7743V1.19618H37.6058V0.194853L37.2225 1.19618H37.0659L36.6842 0.177262V1.19618H36.5156Z" fill="#CEA261"/>
<path d="M36.7558 13.369V5.82254C36.7558 4.43286 36.1592 3.12843 35.0794 2.15011C33.9997 1.16772 32.5605 0.626465 31.0289 0.626465C27.8716 0.626465 25.302 2.95794 25.302 5.82254V5.89561C23.7912 2.79556 20.37 0.626465 16.4015 0.626465H14.1719C14.3016 6.44228 14.6253 19.6246 16.1271 23.2524C15.3337 24.998 14.8937 26.91 14.8937 28.9153C14.8937 30.3524 15.1189 31.742 15.538 33.0559H16.4015C16.4999 33.0559 16.5954 33.0519 16.6923 33.0492C16.6923 33.0492 16.6923 33.0492 16.6923 33.0505C16.7176 33.0505 16.743 33.0478 16.7684 33.0478C16.8474 33.0451 16.9279 33.0424 17.007 33.037C17.0726 33.0329 17.1382 33.0275 17.2038 33.0235C17.3351 33.014 17.4663 33.0018 17.5961 32.9869C17.6602 32.9802 17.7258 32.9734 17.7899 32.9639C17.869 32.9531 17.948 32.9423 18.0256 32.9301C18.0852 32.9206 18.1434 32.9112 18.2031 32.9017C18.2821 32.8882 18.3597 32.8746 18.4387 32.8597C18.4954 32.8489 18.5505 32.8367 18.6072 32.8246C18.7444 32.7948 18.8801 32.7637 19.0159 32.7298C19.0681 32.7163 19.1217 32.7028 19.1739 32.6892C19.253 32.6676 19.332 32.6459 19.4096 32.6229C19.4588 32.6081 19.5065 32.5932 19.5557 32.5783C19.7138 32.5282 19.8704 32.4754 20.0255 32.42C20.0524 32.4105 20.0792 32.401 20.1046 32.3916C20.1866 32.3604 20.2656 32.3293 20.3462 32.2968C20.3864 32.2806 20.4282 32.263 20.4685 32.2468C20.549 32.2129 20.6295 32.1791 20.7101 32.1426C20.7324 32.1331 20.7548 32.1223 20.7772 32.1115C20.9412 32.0357 21.1023 31.9572 21.2619 31.8733C21.2857 31.8598 21.3111 31.8476 21.3349 31.8354C21.417 31.7921 21.4975 31.7461 21.578 31.7014C21.6034 31.6866 21.6287 31.6717 21.6541 31.6568C21.9121 31.5052 22.1627 31.3442 22.4043 31.1724C22.4207 31.1615 22.4356 31.1494 22.452 31.1385C22.795 30.8909 23.1186 30.623 23.4229 30.3361L23.4393 30.3212C24.2118 29.5865 24.8471 28.7326 25.3065 27.7909V27.8626C25.3065 30.7272 27.8761 33.0587 31.0333 33.0587C34.1906 33.0587 36.7602 30.7285 36.7602 27.8626V20.3161H33.5851V27.8626C33.5851 29.1386 32.4412 30.1765 31.0348 30.1765C29.6285 30.1765 28.4831 29.1386 28.4831 27.8626V5.82525C28.4831 4.54923 29.627 3.51002 31.0348 3.51002C31.7164 3.51002 32.3562 3.75088 32.8394 4.19065C33.3211 4.62636 33.5851 5.20686 33.5851 5.82525V13.3717H36.7602L36.7558 13.369ZM25.302 13.0118V20.6693C24.5369 19.101 23.2842 17.7722 21.7182 16.8399C23.2842 15.9089 24.5369 14.5801 25.302 13.0105M17.8526 3.6521C20.7697 4.25289 22.9546 6.62496 22.9546 9.45168C22.9546 12.2784 20.7697 14.6505 17.8526 15.2513V3.6521ZM22.9546 24.2267C22.9546 25.6394 22.4087 26.9397 21.4975 27.9614C20.5863 28.983 19.3111 29.7259 17.8526 30.0263V18.4271C20.7697 19.0279 22.9546 21.4 22.9546 24.2267Z" fill="#CEA261"/>
<path d="M13.4577 0.626465H7.73078C4.57354 0.626465 2.00391 2.95794 2.00391 5.82254V33.0573H5.17904V18.2823H10.281V20.4054V33.0573H12.5867C13.0058 31.7434 13.231 30.3537 13.231 28.9167C13.231 26.9113 12.7925 24.9993 11.9991 23.2538C13.5009 19.6273 13.8245 6.44364 13.9543 0.627818H13.4577V0.626465ZM5.18053 15.4015V5.82254C5.18053 4.54653 6.32442 3.50866 7.73078 3.50866C9.13715 3.50866 10.2825 4.54653 10.2825 5.82254V15.4015H5.18053Z" fill="#CEA261"/>
</svg>
