<svg width="116" height="48" viewBox="0 0 116 48" fill="none" xmlns="http://www.w3.org/2000/svg">
<g clip-path="url(#clip0_924_641)">
<path fill-rule="evenodd" clip-rule="evenodd" d="M96.4727 39.5483C96.4727 38.2628 96.4727 37.2851 96.4727 36.3273C96.5986 36.2757 96.6786 36.2091 96.7466 36.2196C99.899 36.7151 101.391 35.52 101.311 32.2762C101.23 28.9723 100.922 25.6734 100.716 22.372C100.585 20.2806 100.459 18.1893 100.327 16.0239C102.146 16.0239 103.836 16.0239 105.733 16.0239C105.733 19.8452 105.733 23.6545 105.733 27.4638C105.846 27.4847 105.958 27.506 106.071 27.5269C106.73 26.1307 107.394 24.7374 108.047 23.3382C109.043 21.2012 110.058 19.0716 111.01 16.9147C111.315 16.2225 111.677 15.8918 112.486 15.936C113.808 16.0085 115.137 15.9554 116.675 15.9554C116.104 17.0219 115.627 17.9246 115.139 18.8218C112.133 24.3506 109.152 29.8933 106.102 35.3978C104.992 37.4018 103.481 39.1297 101.071 39.5056C99.589 39.7364 98.0416 39.5483 96.4727 39.5483Z" fill="#002A4F"/>
<path fill-rule="evenodd" clip-rule="evenodd" d="M59.2934 32.4713C57.487 32.4713 55.7506 32.4713 53.8457 32.4713C54.4937 30.0036 55.1226 27.6233 55.7436 25.2414C56.4531 22.5205 57.194 19.807 57.84 17.0711C58.0525 16.1719 58.445 15.881 59.3579 15.9346C60.7183 16.015 62.0868 15.9554 63.5227 15.9554C63.4287 16.5314 63.3582 16.9659 63.2562 17.5885C63.7047 17.3358 63.9937 17.1471 64.3031 17.0036C65.1286 16.6203 65.9321 16.1382 66.8005 15.9033C70.7363 14.8392 72.9877 16.9356 72.0662 20.8675C71.1613 24.7275 70.1053 28.5528 69.1014 32.4485C67.276 32.4485 65.5081 32.4485 63.5912 32.4485C64.2476 29.9177 64.8901 27.4544 65.5236 24.9897C65.8946 23.5478 66.3415 22.1168 66.571 20.6526C66.665 20.0528 66.4655 19.0547 66.0591 18.8194C65.5486 18.5245 64.5111 18.582 64.0207 18.9306C63.3012 19.4415 62.6002 20.2677 62.3532 21.0955C61.3473 24.4614 60.5178 27.88 59.6224 31.2787C59.5189 31.6719 59.4054 32.0637 59.2934 32.4713Z" fill="#002A4F"/>
<path fill-rule="evenodd" clip-rule="evenodd" d="M14.6039 32.6353C13.2035 32.6353 11.5526 32.7227 9.92165 32.5802C9.45267 32.5395 9.0427 31.8349 8.52122 31.3577C7.1373 32.4516 5.31939 33.1174 3.22501 32.9541C0.714141 32.7574 -0.621788 31.172 -0.305805 28.6924C0.0411768 25.971 1.58859 24.184 4.22495 23.5335C6.19385 23.0474 8.24024 22.8627 10.2576 22.5842C11.3551 22.4322 12.121 21.0504 11.8745 19.5559C11.7156 18.5931 10.8226 18.0886 9.66416 18.322C8.52672 18.5504 7.82576 19.3101 7.49628 20.3419C7.28079 21.0161 6.9823 21.249 6.27134 21.2192C4.86142 21.1601 3.44699 21.2018 1.92458 21.2018C2.34705 18.9382 3.59699 17.4312 5.59738 16.6085C8.34523 15.4784 11.2111 15.4039 14.0519 16.1884C16.6038 16.893 17.6047 18.6323 16.9648 21.2331C16.2538 24.1214 15.3479 26.963 14.6359 29.8518C14.4309 30.681 14.6039 31.6025 14.6039 32.6353ZM10.7756 24.2227C9.23668 24.6224 8.01025 24.817 6.88481 25.2649C5.57138 25.7872 4.72293 27.3855 5.1389 28.601C5.31889 29.1279 6.01536 29.7018 6.57683 29.8319C7.80126 30.1164 9.15019 29.185 9.66016 27.8424C10.0531 26.8086 10.3186 25.7277 10.7756 24.2227Z" fill="#002A4F"/>
<path fill-rule="evenodd" clip-rule="evenodd" d="M45.6589 9.5616C45.4254 10.4449 45.2059 11.2741 44.9909 12.0874C41.6631 12.0477 40.8401 12.7895 40.6746 16.0134C41.4586 16.0134 42.239 16.0134 43.146 16.0134C42.946 16.8104 42.777 17.4802 42.5805 18.2622C41.7086 18.2622 40.8541 18.2622 39.9112 18.2622C39.0587 21.504 38.2298 24.6535 37.4033 27.8034C37.0573 29.1227 36.7498 30.4544 36.3494 31.7572C36.2564 32.0601 35.8629 32.4752 35.5914 32.4876C34.0255 32.5576 32.4551 32.5214 30.7012 32.5214C31.9476 27.7334 33.1505 23.1137 34.3855 18.3719C33.6455 18.3243 33.0075 18.2835 32.2291 18.2339C32.4321 17.4524 32.6141 16.7543 32.8081 16.007C33.559 16.007 34.2185 16.007 34.9824 16.007C35.7169 13.2711 36.2429 10.4067 39.4077 9.30192C41.2056 8.67382 43.794 8.7329 45.6589 9.5616Z" fill="#002A4F"/>
<path fill-rule="evenodd" clip-rule="evenodd" d="M33.9892 9.46055C33.7477 10.4183 33.5292 11.2858 33.3752 11.8955C32.2243 12.0877 30.9223 11.9253 30.3529 12.4903C29.5199 13.3171 29.2124 14.6656 28.574 16.0191C29.7489 16.0191 30.5274 16.0191 31.3103 16.0191C31.1808 18.2277 31.1543 18.3007 29.1604 18.2744C28.355 18.2639 28.1115 18.5817 27.9335 19.2883C26.9235 23.2937 25.8671 27.2878 24.8227 31.2853C24.7202 31.6775 24.5937 32.0638 24.4702 32.4779C22.6763 32.4779 20.9399 32.4779 19.043 32.4779C20.2689 27.7465 21.4748 23.0921 22.7138 18.3096C21.9468 18.3096 21.3353 18.3096 20.5444 18.3096C20.7489 17.4864 20.9209 16.7947 21.1049 16.0544C21.8518 16.0196 22.5493 15.9874 23.3197 15.9511C24.0362 13.2664 24.5512 10.4218 27.6685 9.3394C29.7419 8.61944 31.8158 8.72421 33.9892 9.46055Z" fill="#002A4F"/>
<path fill-rule="evenodd" clip-rule="evenodd" d="M91.748 9.86377C93.1624 11.407 94.4578 12.7352 95.6298 14.1632C95.9018 14.4944 95.7523 15.1662 95.8088 15.8245C96.3862 15.8598 97.0657 15.9015 97.9132 15.9536C97.6927 16.7372 97.4952 17.4377 97.2757 18.2183C96.6522 18.2183 96.0413 18.2183 95.3228 18.2183C94.6743 21.0892 94.0394 23.9 93.4054 26.7113C93.1599 27.8002 92.8444 28.8806 92.7014 29.9829C92.6049 30.7247 92.7534 31.4983 92.8024 32.4467C91.218 32.4467 89.3326 32.5445 87.4637 32.408C86.4333 32.3325 86.5558 31.4248 86.7448 30.6542C87.6432 27.0018 88.5397 23.3484 89.4321 19.6945C89.5381 19.26 89.6181 18.8191 89.7331 18.2719C88.7981 18.2719 87.9762 18.2719 86.8897 18.2719C87.2907 17.3787 87.4302 16.3519 87.9907 16.0137C88.5942 15.6498 89.5926 15.9313 90.5041 15.9313C90.9135 13.9358 91.3005 12.0465 91.748 9.86377Z" fill="#002A4F"/>
<path fill-rule="evenodd" clip-rule="evenodd" d="M52.6786 15.9559C51.2591 21.3978 49.9017 26.6317 48.5063 31.8556C48.4353 32.1197 48.0393 32.4757 47.7833 32.4852C46.2124 32.5438 44.638 32.515 42.8926 32.515C43.507 30.1098 44.082 27.8481 44.664 25.588C45.4054 22.7076 46.1664 19.8318 46.8864 16.946C47.0589 16.2543 47.3213 15.8968 48.1298 15.936C49.5762 16.0065 51.0281 15.9559 52.6786 15.9559Z" fill="#002A4F"/>
<path fill-rule="evenodd" clip-rule="evenodd" d="M84.0777 15.9576C82.6488 21.395 81.2803 26.6309 79.8754 31.8568C79.8049 32.119 79.4219 32.476 79.1729 32.4849C77.6005 32.5425 76.0256 32.5147 74.2832 32.5147C74.9187 30.0266 75.5101 27.6815 76.1161 25.3404C76.8521 22.4988 77.5815 19.6562 78.3665 16.8285C78.46 16.4914 78.8745 16.0117 79.1609 15.9968C80.7314 15.9144 82.3098 15.9576 84.0777 15.9576Z" fill="#002A4F"/>
<path fill-rule="evenodd" clip-rule="evenodd" d="M49.0117 9.66553C50.6236 9.66553 52.551 9.66553 54.6619 9.66553C54.2184 11.244 53.8 12.735 53.395 14.1755C51.8726 12.6089 50.3841 11.0776 49.0117 9.66553Z" fill="#65924E"/>
<path fill-rule="evenodd" clip-rule="evenodd" d="M80.0918 9.64551C81.9042 9.64551 83.8351 9.64551 85.8945 9.64551C85.4385 11.2498 85.013 12.7448 84.6021 14.1917C83.0571 12.6341 81.5612 11.1266 80.0918 9.64551Z" fill="#65924E"/>
</g>
<defs>
<clipPath id="clip0_924_641">
<rect width="116" height="48" fill="white"/>
</clipPath>
</defs>
</svg>
