<svg width="144" height="23" viewBox="0 0 144 23" fill="none" xmlns="http://www.w3.org/2000/svg">
<path d="M73.2757 14.4718V4.28909H74.9389V17.4669H73.5086L65.4881 7.48374V17.4669H63.7583V4.28909H65.0556L73.0884 14.3597L73.2757 14.4718Z" fill="#7AA433"/>
<path d="M95.5719 7.74986L98.0015 15.1371L100.405 7.74493L101.863 7.81516L104.324 15.1383L106.787 7.74986H108.351L104.925 17.4718L103.499 17.4595L101.13 10.0784L98.7604 17.4595L97.245 17.4582L93.9087 7.74986H95.5719Z" fill="#7BA433"/>
<path d="M78.6004 13.2077C78.6509 16.427 83.0579 17.7132 84.5917 14.8044L85.9876 15.2048C84.7322 17.9843 80.7577 18.4229 78.5326 16.5022C74.6394 13.1412 77.8168 6.37983 83.1256 7.78311C84.8283 8.2328 86.6541 10.1548 86.6541 11.9757V13.1067L86.5544 13.2065H78.6004V13.2077ZM78.5339 12.009H85.0229C85.1646 11.9153 85.0735 11.6221 85.0377 11.4619C84.8172 10.48 84.0583 9.50179 83.1256 9.11493C80.9289 8.20693 78.6743 9.67551 78.5351 12.009H78.5339Z" fill="#7BA433"/>
<path d="M112.73 7.6365C119.452 6.97983 120.052 17.1465 113.775 17.6664C107.123 18.2159 106.591 8.23649 112.73 7.6365ZM112.996 9.03361C108.892 9.41431 109.248 16.5884 113.509 16.2668C117.757 15.9465 117.329 8.63074 112.996 9.03361Z" fill="#7AA332"/>
<path d="M57.0275 16.0784C57.0718 16.1461 57.0533 17.4496 56.9733 17.505C55.74 17.7145 54.9872 17.2648 55.1043 15.9367C53.8476 17.5013 51.4205 18.2209 49.602 17.2131C47.6641 16.1375 47.5273 13.4899 49.453 12.3157C51.0435 11.3461 53.1885 11.6073 54.9047 12.078C54.9527 10.9075 54.7864 9.56463 53.5729 9.05088C52.1536 8.44965 50.4361 9.05704 49.2805 9.94779C49.1745 9.76915 48.6374 8.97572 48.7236 8.82788C50.3856 7.78312 52.4973 7.18066 54.3959 7.96177C57.4562 9.22213 56.2488 12.8862 56.5026 15.4389C56.5149 15.5609 56.5581 15.8221 56.6295 15.9108C56.7269 16.0315 56.9991 16.0414 57.025 16.0808L57.0275 16.0784ZM54.8961 13.0833C53.3634 12.3675 49.3815 12.2283 49.6476 14.7724C49.8953 17.149 53.7453 16.7079 54.7199 15.0521C55.0501 14.4915 54.8628 13.7104 54.8961 13.0845V13.0833Z" fill="#7BA433"/>
<path d="M33.0094 17.4669H31.2119L29.5844 13.602L24.1548 13.6377L22.6271 17.4669H20.8296L26.3183 4.28418L27.6526 4.35441L33.0094 17.4669ZM29.2825 12.3416L26.8875 6.28499L24.4912 12.3416H29.2838H29.2825Z" fill="#7AA332"/>
<path d="M34.0403 7.74985L37.4678 15.9367L40.4973 7.74985H41.9277L41.8636 8.11822L37.0144 20.5075C36.3688 21.6114 35.1195 21.8048 33.9405 21.5929V20.1293C35.1959 20.3831 35.3955 20.0615 35.8821 19.0426C36.0361 18.721 36.5031 17.6677 36.4674 17.3732L32.5766 8.21432L32.4756 7.74985H34.0403Z" fill="#7AA433"/>
<path d="M128.45 3.88992V12.8073L133.476 7.8164H135.172L131.444 11.8414L135.372 17.4669H133.676L130.34 12.811L128.45 14.5051V17.4669H126.853V3.98972L126.952 3.88992H128.45Z" fill="#7AA332"/>
<path d="M143.026 9.8788L142.931 9.87634C141.866 8.64062 137.817 8.10838 137.899 10.4468C137.926 11.2032 138.417 11.4077 139.049 11.6283C140.387 12.0965 143.65 12.37 143.943 14.1207C144.672 18.4574 138.17 18.3145 135.916 16.326C135.823 16.1658 136.49 15.4315 136.541 15.1999C136.673 15.179 137.426 15.7309 137.635 15.8369C138.742 16.4012 140.407 16.7412 141.566 16.1708C142.583 15.6693 142.732 14.356 141.675 13.793C140.302 13.0611 136.658 13.0291 136.39 11.1589C135.973 8.25745 138.796 7.28292 141.18 7.70058C141.697 7.79175 143.281 8.35478 143.565 8.77614C143.794 9.11618 143.096 9.52891 143.027 9.8788H143.026Z" fill="#7BA433"/>
<path d="M90.4475 4.55521V7.71659L90.5473 7.81638H92.6443V8.98065L92.5445 9.08044H90.4475V15.2369C90.4475 15.3108 90.588 15.6213 90.6471 15.7038C90.9514 16.1289 91.602 16.1473 92.0726 16.0623C92.372 16.0081 92.6147 15.8233 92.8426 15.7642C92.9202 15.7432 92.9572 15.7112 93.0102 15.8036C93.0718 16.0352 93.4106 16.8903 93.3022 17.059C92.0517 17.6751 89.6061 18.0878 88.974 16.4467C88.894 16.2385 88.7855 15.7728 88.7855 15.5695V9.08044H87.5215V7.81638H88.7855V4.655L88.8853 4.55521H90.45H90.4475Z" fill="#7AA332"/>
<path d="M44.9226 14.9708C44.9498 15.2467 45.0348 15.5917 45.2208 15.8049C45.822 16.4948 46.9481 15.8652 47.0504 15.9379L47.3066 17.1157L47.2549 17.234C46.1288 17.6554 44.4767 17.9597 43.6574 16.8348C43.56 16.7005 43.3247 16.1695 43.3247 16.0365V3.98972L43.4245 3.88992H44.8216L44.9214 3.98972V14.972L44.9226 14.9708Z" fill="#7AA332"/>
<path d="M124.924 7.74985V9.2135C123.815 9.26031 122.628 9.68413 121.93 10.5798C121.847 10.6858 121.396 11.4546 121.396 11.51V17.4668H119.798V7.81638H121.329V9.94655L121.929 9.04963C122.243 8.66401 123.338 7.74985 123.823 7.74985H124.921H124.924Z" fill="#7AA332"/>
<path d="M9.91369 0.494446C9.61554 1.1388 9.10302 1.66117 8.78269 2.29197C8.58557 2.2624 8.6213 2.44598 8.5831 2.49156C6.67223 4.8164 5.43774 7.1745 5.18887 10.2459C4.99791 12.6065 5.77285 16.3482 4.24514 18.2874C4.13056 18.4328 3.88908 18.7494 3.70674 18.7235C3.5244 18.6976 2.22461 17.4841 2.02626 17.2685C-0.558535 14.4484 -0.574552 10.3815 1.43365 7.22378C2.77656 5.11085 5.93425 2.94741 8.0558 1.59957C8.556 1.28171 9.39378 0.682947 9.91369 0.495679V0.494446Z" fill="#C1D730"/>
<path d="M13.9079 0.961395L13.7699 2.79219C13.6529 6.18396 15.6463 9.20612 15.3716 12.5732C15.1264 15.572 11.4685 18.0989 8.91699 19.1301L8.99831 18.9096C11.0817 17.696 13.1515 15.9662 13.8229 13.5539C14.9022 9.67552 11.8184 6.05459 11.1248 2.39671C11.8147 2.0234 12.4739 1.54045 13.1749 1.19178C13.409 1.07474 13.632 0.918273 13.9079 0.960162V0.961395Z" fill="#C2D832"/>
<path d="M9.914 0.494455C9.99038 0.46735 10.052 0.382343 10.1801 0.427928C10.2085 1.56755 10.4241 2.72812 10.7468 3.82216C11.608 6.74946 13.9193 9.96382 13.1973 13.1289C12.4754 16.2952 8.75836 18.3983 5.95303 19.4627L3.05777 22.5601C2.85079 22.6894 1.95757 22.2878 1.79371 22.0931C1.23806 21.4352 1.84792 21.3859 2.26927 21.1026C3.98056 19.9519 5.42449 18.1703 6.08486 16.1991C6.79697 14.0739 6.31401 11.6012 6.521 9.38107C6.71196 7.33467 7.72961 4.32237 8.64994 2.49157C8.66349 2.46447 8.73002 2.3967 8.783 2.29198C9.10332 1.66242 9.61585 1.14004 9.914 0.494455Z" fill="#79A331"/>
<path d="M8.7826 2.29196C8.72962 2.39668 8.66309 2.46445 8.64954 2.49155H8.58301C8.6212 2.44597 8.58547 2.26239 8.7826 2.29196Z" fill="#C7D893"/>
</svg>
