<svg width="110" height="48" viewBox="0 0 110 48" fill="none" xmlns="http://www.w3.org/2000/svg">
<g clip-path="url(#clip0_1365_1242)">
<path d="M25.4357 23.983C20.3099 18.8572 11.9682 18.8572 6.84242 23.983L2.20229 28.6232C-0.361701 31.1872 -0.361701 35.3416 2.20229 37.9056C4.76628 40.4696 8.92074 40.4696 11.4847 37.9056L25.4379 23.983H25.4357Z" fill="#0143FF"/>
<path d="M25.4357 23.9842C20.3099 29.11 11.9682 29.11 6.84242 23.9842L2.20229 19.3441C-0.361701 16.7801 -0.361701 12.6257 2.20229 10.0617C4.76628 7.49767 8.92074 7.49767 11.4847 10.0617L25.4379 23.9842H25.4357Z" fill="#20CEFE"/>
<path d="M6.99805 23.9819C12.0606 19.0032 20.1843 19.0036 25.2471 23.9819C20.1841 28.9611 12.0608 28.9615 6.99805 23.9819Z" fill="#01FFFF" stroke="#01FFFF" stroke-width="0.218771"/>
</g>
<path d="M108.789 26.7336H100.913C101.132 28.3087 102.335 28.9213 104.26 28.9213C105.332 28.9213 106.558 28.6806 107.739 28.0462V30.8246C106.47 31.3278 105.026 31.5465 103.56 31.5465C99.7975 31.5465 96.9316 29.337 96.9316 25.5741C96.9316 21.8112 99.4912 19.6235 103.035 19.6235C107.258 19.6235 108.789 22.6207 108.789 26.0116V26.7336ZM100.87 24.5021H105.245C105.245 23.1895 104.632 22.1175 103.057 22.1175C101.635 22.1175 100.957 23.1895 100.87 24.5021Z" fill="#181010"/>
<path d="M90.8848 31.547L90.8848 16.4517H94.8226V31.547H90.8848Z" fill="#181010"/>
<path d="M88.5503 31.5465H84.9406C84.9187 30.934 84.8531 30.0808 84.8531 29.4901H84.8094C83.9124 30.9121 82.8185 31.5465 81.1996 31.5465C78.9463 31.5465 76.9336 30.4308 76.9336 27.9587C76.9336 24.4802 80.7183 24.0646 82.8185 24.0646C83.453 24.0646 84.153 24.1302 84.6562 24.2177C84.6343 22.6644 83.4749 22.2488 82.0528 22.2488C80.784 22.2488 79.5151 22.4894 78.4213 23.102L78.3556 20.433C79.7558 19.8642 81.2215 19.6235 82.9061 19.6235C85.8157 19.6235 88.3316 20.8705 88.3316 24.349V28.5931C88.3316 29.4901 88.3753 30.6496 88.5503 31.5465ZM80.609 27.6743C80.609 28.4619 81.309 28.9213 82.2279 28.9213C83.7155 28.9213 84.6562 27.5649 84.6562 26.2304C84.153 26.2085 83.5842 26.1648 82.9936 26.1648C81.6591 26.1648 80.609 26.5804 80.609 27.6743Z" fill="#181010"/>
<path d="M66.3242 22.6425V19.8859H68.6432L68.6432 16.4731H72.5154L72.5154 19.8859H75.2719V22.6425H72.5154V26.8429C72.5154 28.2211 72.8436 28.9212 74.0906 28.9212C74.4844 28.9212 74.9 28.8337 75.2938 28.768L75.4251 31.3276C74.6813 31.4152 73.9374 31.5464 72.953 31.5464C69.4308 31.5464 68.5776 29.9931 68.5776 27.2804V22.6425H66.3242Z" fill="#181010"/>
<path d="M58.5799 31.5465C54.8171 31.5465 51.9512 29.3588 51.9512 25.596C51.9512 21.8112 54.8171 19.6235 58.5799 19.6235C62.3428 19.6235 65.2087 21.8112 65.2087 25.596C65.2087 29.3588 62.3428 31.5465 58.5799 31.5465ZM58.5799 28.79C60.3957 28.79 61.1395 27.2805 61.1395 25.596C61.1395 23.8896 60.3957 22.38 58.5799 22.38C56.7641 22.38 56.0203 23.8896 56.0203 25.596C56.0203 27.2805 56.7641 28.79 58.5799 28.79Z" fill="#181010"/>
<path d="M45.6523 31.5468V20.3239H49.5902V31.5468H45.6523ZM47.6213 16.4517L49.5902 19.3394H45.6523L47.6213 16.4517Z" fill="#181010"/>
<path d="M30.6875 31.5468V16.4517L37.7975 16.4517C40.6416 16.4517 42.7636 17.6112 42.7636 20.2364C42.7636 22.1616 41.7792 23.2336 40.0728 23.8024V23.8461C42.1073 24.2618 43.1574 25.3556 43.1574 27.2152C43.1574 30.8687 39.9415 31.5468 37.2069 31.5468H30.6875ZM34.8441 25.1588V28.7466H36.0474C37.535 28.7466 39.0883 28.5278 39.0883 26.9745C39.0883 25.3119 37.4913 25.1588 36.0911 25.1588H34.8441ZM34.8441 19.2519V22.4022H35.9817C37.3162 22.4022 38.6945 22.0741 38.6945 20.7833C38.6945 19.3832 37.3819 19.2519 36.0255 19.2519H34.8441Z" fill="#181010"/>
<defs>
<clipPath id="clip0_1365_1242">
<rect width="25.1586" height="31.7217" fill="white" transform="translate(0.279297 8.13867)"/>
</clipPath>
</defs>
</svg>
