<svg width="112" height="48" viewBox="0 0 112 48" fill="none" xmlns="http://www.w3.org/2000/svg">
<g clip-path="url(#clip0_1371_1372)">
<g clip-path="url(#clip1_1371_1372)">
<g clip-path="url(#clip2_1371_1372)">
<g clip-path="url(#clip3_1371_1372)">
<g clip-path="url(#clip4_1371_1372)">
<g clip-path="url(#clip5_1371_1372)">
<path d="M42.6285 22.6229C43.2741 22.732 43.7969 22.9593 44.197 23.3048C44.597 23.6503 44.7971 24.1867 44.7971 24.9141C44.7971 26.6962 43.556 27.5873 41.0737 27.5873H38.4824V18.1903H40.7055C41.8966 18.1903 42.8086 18.3858 43.4414 18.7768C44.0724 19.1678 44.3879 19.7633 44.3879 20.5634C44.3879 21.109 44.2179 21.5636 43.8778 21.9273C43.536 22.291 43.1195 22.5228 42.6285 22.6229ZM40.8419 19.2132H39.7781V22.1728H41.1965C41.742 22.1728 42.1903 22.0409 42.5413 21.7773C42.8904 21.5136 43.065 21.1408 43.065 20.6589C43.065 20.1134 42.8813 19.736 42.514 19.5269C42.1448 19.3178 41.5875 19.2132 40.8419 19.2132ZM41.0737 26.5508C41.8375 26.5508 42.4221 26.4371 42.8277 26.2098C43.2314 25.9825 43.4332 25.5506 43.4332 24.9141C43.4332 24.2958 43.2377 23.8503 42.8468 23.5776C42.4558 23.3048 41.9466 23.1684 41.3192 23.1684H39.7781V26.5508H41.0737ZM49.8297 20.2361C50.0843 20.2361 50.3207 20.2634 50.5389 20.3179L50.307 21.5454C50.0888 21.4909 49.8797 21.4636 49.6797 21.4636C49.2341 21.4636 48.875 21.6272 48.6022 21.9546C48.3295 22.2819 48.1158 22.7911 47.9612 23.4821V27.5873H46.7065V20.3998H47.7839L47.9067 21.8591C48.0976 21.3226 48.3567 20.918 48.6841 20.6453C49.0114 20.3725 49.3933 20.2361 49.8297 20.2361ZM51.9709 20.3998H53.2257V27.5873H51.9709V20.3998ZM52.5847 16.9492C52.8484 16.9492 53.062 17.0311 53.2257 17.1947C53.3894 17.3584 53.4712 17.563 53.4712 17.8084C53.4712 18.0539 53.3894 18.2558 53.2257 18.414C53.062 18.574 52.8484 18.654 52.5847 18.654C52.3301 18.654 52.121 18.574 51.9573 18.414C51.7936 18.2558 51.7118 18.0539 51.7118 17.8084C51.7118 17.563 51.7936 17.3584 51.9573 17.1947C52.121 17.0311 52.3301 16.9492 52.5847 16.9492ZM61.2424 19.5951L61.6107 20.7271C61.3379 20.818 61.0378 20.8771 60.7105 20.9044C60.3832 20.9317 59.9831 20.9453 59.5103 20.9453C60.3559 21.3272 60.7787 21.9318 60.7787 22.7592C60.7787 23.4775 60.5332 24.064 60.0422 24.5186C59.5512 24.9732 58.883 25.2005 58.0374 25.2005C57.71 25.2005 57.4054 25.1551 57.1236 25.0642C57.0145 25.1369 56.9281 25.2342 56.8645 25.356C56.8008 25.4797 56.769 25.6051 56.769 25.7324C56.769 26.1234 57.0827 26.3189 57.71 26.3189H58.8557C59.3376 26.3189 59.7649 26.4053 60.1377 26.578C60.5105 26.7508 60.7996 26.9872 61.0051 27.2872C61.2088 27.5873 61.3106 27.9282 61.3106 28.3101C61.3106 29.0102 61.0242 29.5494 60.4514 29.9277C59.8786 30.3041 59.0421 30.4923 57.9419 30.4923C57.169 30.4923 56.558 30.4132 56.1089 30.255C55.6579 30.095 55.3369 29.8558 55.146 29.5376C54.9551 29.2194 54.8596 28.8102 54.8596 28.3101H55.9916C55.9916 28.6011 56.0461 28.8311 56.1552 29.0002C56.2644 29.1675 56.4598 29.2948 56.7417 29.3821C57.0236 29.4676 57.4236 29.5103 57.9419 29.5103C58.6966 29.5103 59.2357 29.4176 59.5594 29.2321C59.8813 29.0448 60.0422 28.7647 60.0422 28.392C60.0422 28.0555 59.9149 27.801 59.6604 27.6282C59.4058 27.4554 59.0512 27.3691 58.5965 27.3691H57.4645C56.8554 27.3691 56.3944 27.239 56.0816 26.979C55.767 26.7208 55.6097 26.3962 55.6097 26.0052C55.6097 25.7688 55.6779 25.5415 55.8143 25.3233C55.9507 25.1051 56.1462 24.9096 56.4007 24.7368C55.9825 24.5186 55.6761 24.2477 55.4815 23.924C55.2851 23.6021 55.1869 23.2093 55.1869 22.7456C55.1869 22.2637 55.3078 21.8318 55.5497 21.4499C55.7897 21.0681 56.1216 20.7698 56.5453 20.5553C56.9672 20.3425 57.4373 20.2361 57.9555 20.2361C58.5193 20.2452 58.9921 20.2243 59.3739 20.1734C59.7558 20.1243 60.0722 20.0561 60.3232 19.9688C60.5723 19.8833 60.8787 19.7588 61.2424 19.5951ZM57.9555 21.1363C57.4827 21.1363 57.1172 21.2835 56.859 21.5781C56.599 21.8746 56.4689 22.2637 56.4689 22.7456C56.4689 23.2366 56.6008 23.6294 56.8645 23.924C57.1281 24.2204 57.5009 24.3686 57.9828 24.3686C58.4738 24.3686 58.8493 24.2249 59.1094 23.9376C59.3676 23.6521 59.4967 23.2502 59.4967 22.732C59.4967 21.6682 58.983 21.1363 57.9555 21.1363ZM66.2887 20.2361C66.9433 20.2361 67.4552 20.4316 67.8244 20.8226C68.1917 21.2135 68.3754 21.75 68.3754 22.4319V27.5873H67.1206V22.6092C67.1206 22.1 67.0233 21.7409 66.8288 21.5318C66.6324 21.3226 66.3478 21.2181 65.975 21.2181C65.6022 21.2181 65.2703 21.3272 64.9794 21.5454C64.6884 21.7636 64.4157 22.0728 64.1611 22.4728V27.5873H62.9063V17.522L64.1611 17.3857V21.3954C64.7248 20.6225 65.434 20.2361 66.2887 20.2361ZM74.049 26.428L74.5264 27.26C74.0536 27.5873 73.5171 27.7509 72.917 27.7509C72.3078 27.7509 71.8323 27.5755 71.4904 27.2245C71.1504 26.8754 70.9803 26.3689 70.9803 25.7052V21.3681H69.7256V20.3998H70.9803V18.7768L72.2351 18.6268V20.3998H73.9399L73.8035 21.3681H72.2351V25.6506C72.2351 26.0234 72.3006 26.2934 72.4315 26.4607C72.5642 26.6299 72.7852 26.7144 73.0943 26.7144C73.3762 26.7144 73.6944 26.6189 74.049 26.428ZM81.2502 23.7821C81.2502 23.9913 81.2411 24.2049 81.2229 24.4231H76.6403C76.6949 25.2142 76.8949 25.7961 77.2404 26.1689C77.5859 26.5417 78.0315 26.7281 78.577 26.7281C78.9225 26.7281 79.2408 26.678 79.5317 26.578C79.8227 26.478 80.1273 26.3189 80.4455 26.1007L80.991 26.8508C80.2273 27.4509 79.3908 27.7509 78.4815 27.7509C77.4814 27.7509 76.7013 27.4236 76.1412 26.769C75.5829 26.1143 75.3038 25.2142 75.3038 24.0685C75.3038 23.323 75.4238 22.661 75.6638 22.0828C75.9057 21.5063 76.2512 21.0544 76.7004 20.7271C77.1513 20.3998 77.6814 20.2361 78.2906 20.2361C79.2453 20.2361 79.9772 20.5498 80.4864 21.1772C80.9956 21.8045 81.2502 22.6729 81.2502 23.7821ZM80.0091 23.4957V23.4139C80.0091 22.7047 79.8681 22.1637 79.5863 21.7909C79.3044 21.4181 78.8816 21.2317 78.3179 21.2317C77.2904 21.2317 76.7313 21.9864 76.6403 23.4957H80.0091ZM86.3755 20.2361C86.6301 20.2361 86.8665 20.2634 87.0847 20.3179L86.8529 21.5454C86.6347 21.4909 86.4255 21.4636 86.2255 21.4636C85.78 21.4636 85.4208 21.6272 85.1481 21.9546C84.8753 22.2819 84.6616 22.7911 84.5071 23.4821V27.5873H83.2523V20.3998H84.3298L84.4525 21.8591C84.6434 21.3226 84.9026 20.918 85.2299 20.6453C85.5572 20.3725 85.9391 20.2361 86.3755 20.2361ZM95.527 20.3998H96.7272L95.0906 27.5873H93.3857L92.131 21.5318L90.8353 27.5873H89.1714L87.4939 20.3998H88.7486L90.0443 26.7144L91.4627 20.3998H92.8675L94.2177 26.7144L95.527 20.3998ZM103.137 25.9097C103.137 26.2007 103.187 26.4162 103.287 26.5562C103.387 26.6981 103.537 26.8053 103.737 26.8781L103.451 27.7509C103.078 27.7055 102.778 27.6009 102.551 27.4373C102.324 27.2736 102.155 27.019 102.046 26.6735C101.564 27.3918 100.851 27.7509 99.905 27.7509C99.1958 27.7509 98.6366 27.5509 98.2274 27.1509C97.8183 26.7508 97.6137 26.228 97.6137 25.5824C97.6137 24.8187 97.8883 24.2322 98.4375 23.823C98.9885 23.4139 99.7686 23.2093 100.778 23.2093H101.883V22.6774C101.883 22.1682 101.76 21.8045 101.514 21.5863C101.269 21.3681 100.891 21.259 100.382 21.259C99.855 21.259 99.2094 21.3863 98.4456 21.6409L98.132 20.7271C99.023 20.3998 99.8504 20.2361 100.614 20.2361C101.46 20.2361 102.092 20.4425 102.51 20.8553C102.928 21.2699 103.137 21.8591 103.137 22.6229V25.9097ZM100.191 26.8099C100.91 26.8099 101.473 26.4371 101.883 25.6915V24.0413H100.941C99.614 24.0413 98.9503 24.5323 98.9503 25.5142C98.9503 25.9416 99.0548 26.2643 99.264 26.4826C99.4731 26.7008 99.7822 26.8099 100.191 26.8099ZM110.993 20.3998L108.593 27.6282C108.311 28.4647 107.917 29.1266 107.412 29.614C106.908 30.0995 106.188 30.3923 105.251 30.4923L105.115 29.5103C105.588 29.4285 105.965 29.3103 106.247 29.1557C106.529 29.0011 106.753 28.8038 106.921 28.5638C107.09 28.3219 107.247 27.9964 107.393 27.5873H106.97L104.556 20.3998H105.892L107.815 26.6735L109.697 20.3998H110.993Z" fill="#EC4A0A"/>
</g>
</g>
</g>
</g>
<g clip-path="url(#clip6_1371_1372)">
<g clip-path="url(#clip7_1371_1372)">
<path d="M-0.5 23.7205C-0.5 14.7216 6.79507 7.42676 15.7938 7.42676C24.7926 7.42676 32.0875 14.7218 32.0877 23.7205C32.0877 32.7194 24.7926 40.0143 15.7938 40.0145C6.79488 40.0145 -0.5 32.7194 -0.5 23.7205ZM15.7938 38.793C24.1181 38.793 30.8663 32.0449 30.8663 23.7205C30.8663 15.3962 24.1181 8.64801 15.7938 8.64801C7.4694 8.64801 0.721253 15.3962 0.721253 23.7205C0.721253 32.0449 7.4694 38.793 15.7938 38.793Z" fill="#E8772E"/>
<path d="M15.793 39.8512C24.7019 39.8512 31.9239 32.6291 31.9239 23.7203C31.9239 14.8114 24.7019 7.58936 15.793 7.58936C6.88416 7.58936 -0.337891 14.8114 -0.337891 23.7203C-0.337891 32.6291 6.88416 39.8512 15.793 39.8512Z" fill="#EC4A0A"/>
<g clip-path="url(#clip8_1371_1372)">
<g clip-path="url(#clip9_1371_1372)">
<path d="M15.3926 14.647H16.207V17.7422H15.3926V14.647Z" fill="white"/>
<path d="M15.3457 29.6987H16.16V32.7941H15.3457V29.6987Z" fill="white"/>
<path d="M21.8027 23.1221H24.8976V23.934H21.8027V23.1221Z" fill="white"/>
<path d="M6.68945 23.0718H9.78467V23.8862H6.68945V23.0718Z" fill="white"/>
<path d="M7.86914 19.2722L8.26426 18.561L10.9687 20.0605L10.5734 20.7739L7.86914 19.2722Z" fill="white"/>
<path d="M11.1152 15.9624L11.8044 15.5298L13.4464 18.1552L12.7571 18.5855L11.1152 15.9624Z" fill="white"/>
<path d="M18.4766 29.0163L19.1787 28.6123L20.7262 31.2927L20.0239 31.6986L18.4766 29.0163Z" fill="white"/>
<path d="M20.8418 26.8517L21.2369 26.1406L23.9456 27.6401L23.5483 28.3535L20.8418 26.8517Z" fill="white"/>
<path d="M11.6231 31.7356L10.9121 31.3405L12.4116 28.6318L13.125 29.025L11.6231 31.7356Z" fill="white"/>
<path d="M8.02787 28.2962L7.59961 27.607L10.2229 25.9648L10.6531 26.6544L8.02787 28.2962Z" fill="white"/>
<path d="M21.1346 21.0327L20.7266 20.326L23.4066 18.7783L23.815 19.4852L21.1346 21.0327Z" fill="white"/>
<path d="M19.063 18.7124L18.3496 18.3153L19.8511 15.6108L20.5625 16.0061L19.063 18.7124Z" fill="white"/>
<path d="M10.7754 23.7108C10.7754 20.934 13.0276 18.6816 15.8043 18.6816C18.5789 18.6816 20.8292 20.934 20.8292 23.7108C20.8292 26.4875 18.5791 28.7371 15.8043 28.7371C13.0276 28.7377 10.7754 26.4875 10.7754 23.7108Z" fill="white"/>
</g>
</g>
</g>
</g>
</g>
</g>
<defs>
<clipPath id="clip0_1371_1372">
<rect width="112" height="48" fill="white"/>
</clipPath>
<clipPath id="clip1_1371_1372">
<rect width="111.498" height="32.5877" fill="white" transform="translate(-0.5 7.37061)"/>
</clipPath>
<clipPath id="clip2_1371_1372">
<rect width="72.5161" height="13.5431" fill="white" transform="translate(38.4805 16.9492)"/>
</clipPath>
<clipPath id="clip3_1371_1372">
<rect width="72.5161" height="13.5431" fill="white" transform="translate(38.4805 16.9492)"/>
</clipPath>
<clipPath id="clip4_1371_1372">
<rect width="72.5161" height="13.5431" fill="white" transform="translate(38.4805 16.9492)"/>
</clipPath>
<clipPath id="clip5_1371_1372">
<rect width="72.5161" height="13.5431" fill="white" transform="translate(38.4805 16.9492)"/>
</clipPath>
<clipPath id="clip6_1371_1372">
<rect width="32.5877" height="32.5877" fill="white" transform="translate(-0.5 7.42676)"/>
</clipPath>
<clipPath id="clip7_1371_1372">
<rect width="32.5877" height="32.5877" fill="white" transform="translate(-0.5 7.42676)"/>
</clipPath>
<clipPath id="clip8_1371_1372">
<rect width="18.2082" height="18.1469" fill="white" transform="translate(6.68945 14.647)"/>
</clipPath>
<clipPath id="clip9_1371_1372">
<rect width="18.2082" height="18.1469" fill="white" transform="translate(6.68945 14.647)"/>
</clipPath>
</defs>
</svg>
