<svg width="122" height="36" viewBox="0 0 122 36" fill="none" xmlns="http://www.w3.org/2000/svg">
<g clip-path="url(#clip0_1719_5817)">
<g clip-path="url(#clip1_1719_5817)">
<g clip-path="url(#clip2_1719_5817)">
<g clip-path="url(#clip3_1719_5817)">
<g clip-path="url(#clip4_1719_5817)">
<path d="M46.8063 16.6142C47.507 16.7326 48.0744 16.9793 48.5085 17.3542C48.9427 17.7292 49.1598 18.3114 49.1598 19.1008C49.1598 21.0349 47.8129 22.002 45.119 22.002H42.3066V11.8036H44.7193C46.012 11.8036 47.0017 12.0158 47.6885 12.4401C48.3733 12.8644 48.7158 13.5107 48.7158 14.3791C48.7158 14.9712 48.5312 15.4646 48.1622 15.8593C47.7912 16.254 47.3392 16.5056 46.8063 16.6142ZM44.8673 12.9137H43.7128V16.1257H45.2522C45.8442 16.1257 46.3307 15.9826 46.7116 15.6965C47.0905 15.4103 47.28 15.0057 47.28 14.4827C47.28 13.8907 47.0807 13.4811 46.682 13.2542C46.2814 13.0272 45.6765 12.9137 44.8673 12.9137ZM45.119 20.877C45.9478 20.877 46.5823 20.7537 47.0224 20.507C47.4606 20.2603 47.6796 19.7916 47.6796 19.1008C47.6796 18.4298 47.4675 17.9463 47.0432 17.6503C46.6189 17.3542 46.0663 17.2062 45.3854 17.2062H43.7128V20.877H45.119ZM54.6216 14.0239C54.8979 14.0239 55.1545 14.0535 55.3913 14.1127L55.1397 15.4448C54.9029 15.3856 54.6759 15.356 54.4588 15.356C53.9753 15.356 53.5855 15.5336 53.2895 15.8889C52.9934 16.2441 52.7615 16.7967 52.5938 17.5467V22.002H51.232V14.2015H52.4014L52.5346 15.7853C52.7418 15.2031 53.023 14.7639 53.3783 14.4679C53.7335 14.1719 54.148 14.0239 54.6216 14.0239ZM56.9455 14.2015H58.3072V22.002H56.9455V14.2015ZM57.6116 10.4567C57.8977 10.4567 58.1296 10.5455 58.3072 10.7231C58.4849 10.9007 58.5737 11.1227 58.5737 11.3892C58.5737 11.6556 58.4849 11.8747 58.3072 12.0464C58.1296 12.22 57.8977 12.3069 57.6116 12.3069C57.3353 12.3069 57.1083 12.22 56.9307 12.0464C56.7531 11.8747 56.6643 11.6556 56.6643 11.3892C56.6643 11.1227 56.7531 10.9007 56.9307 10.7231C57.1083 10.5455 57.3353 10.4567 57.6116 10.4567ZM67.0077 13.3282L67.4073 14.5567C67.1113 14.6554 66.7856 14.7195 66.4304 14.7491C66.0751 14.7788 65.641 14.7936 65.1278 14.7936C66.0455 15.208 66.5044 15.8642 66.5044 16.7622C66.5044 17.5417 66.238 18.1782 65.7051 18.6716C65.1722 19.165 64.447 19.4117 63.5293 19.4117C63.174 19.4117 62.8435 19.3623 62.5375 19.2637C62.4191 19.3426 62.3254 19.4482 62.2563 19.5804C62.1872 19.7146 62.1527 19.8508 62.1527 19.9889C62.1527 20.4133 62.4931 20.6254 63.174 20.6254H64.4174C64.9404 20.6254 65.4041 20.7192 65.8087 20.9066C66.2133 21.0941 66.5271 21.3507 66.7501 21.6763C66.9711 22.002 67.0817 22.372 67.0817 22.7865C67.0817 23.5463 66.7708 24.1314 66.1492 24.5419C65.5275 24.9505 64.6197 25.1547 63.4256 25.1547C62.5869 25.1547 61.9238 25.0689 61.4363 24.8972C60.9469 24.7235 60.5985 24.464 60.3913 24.1186C60.1841 23.7732 60.0805 23.3292 60.0805 22.7865H61.309C61.309 23.1022 61.3682 23.3519 61.4866 23.5354C61.605 23.717 61.8172 23.8551 62.1231 23.9499C62.429 24.0426 62.8632 24.089 63.4256 24.089C64.2447 24.089 64.8298 23.9883 65.1811 23.787C65.5304 23.5838 65.7051 23.2798 65.7051 22.8753C65.7051 22.5102 65.567 22.2339 65.2907 22.0464C65.0144 21.8589 64.6295 21.7651 64.1361 21.7651H62.9076C62.2465 21.7651 61.7462 21.624 61.4067 21.3418C61.0653 21.0616 60.8946 20.7093 60.8946 20.285C60.8946 20.0284 60.9686 19.7817 61.1166 19.5449C61.2646 19.3081 61.4768 19.0959 61.7531 18.9084C61.2991 18.6716 60.9666 18.3775 60.7554 18.0262C60.5423 17.6769 60.4357 17.2506 60.4357 16.7474C60.4357 16.2244 60.567 15.7557 60.8294 15.3412C61.0899 14.9268 61.4501 14.6031 61.91 14.3702C62.3678 14.1393 62.878 14.0239 63.4405 14.0239C64.0523 14.0337 64.5654 14.011 64.9798 13.9558C65.3943 13.9025 65.7377 13.8285 66.01 13.7338C66.2804 13.641 66.6129 13.5058 67.0077 13.3282ZM63.4405 15.0008C62.9273 15.0008 62.5306 15.1606 62.2504 15.4803C61.9682 15.802 61.8271 16.2244 61.8271 16.7474C61.8271 17.2802 61.9702 17.7065 62.2563 18.0262C62.5425 18.3479 62.9471 18.5088 63.4701 18.5088C64.0029 18.5088 64.4105 18.3529 64.6927 18.041C64.9729 17.7312 65.113 17.295 65.113 16.7326C65.113 15.578 64.5555 15.0008 63.4405 15.0008ZM72.4843 14.0239C73.1947 14.0239 73.7503 14.236 74.1509 14.6603C74.5496 15.0847 74.7489 15.6669 74.7489 16.4069V22.002H73.3872V16.5994C73.3872 16.0468 73.2816 15.657 73.0704 15.43C72.8573 15.2031 72.5484 15.0896 72.1438 15.0896C71.7393 15.0896 71.3791 15.208 71.0633 15.4448C70.7475 15.6817 70.4515 16.0172 70.1752 16.4513V22.002H68.8135V11.0783L70.1752 10.9303V15.282C70.787 14.4432 71.5567 14.0239 72.4843 14.0239ZM80.9064 20.7438L81.4245 21.6467C80.9113 22.002 80.3292 22.1796 79.6779 22.1796C79.0167 22.1796 78.5007 21.9891 78.1296 21.6082C77.7606 21.2293 77.576 20.6797 77.576 19.9593V15.2524H76.2143V14.2015H77.576V12.4401L78.9378 12.2773V14.2015H80.788L80.64 15.2524H78.9378V19.9001C78.9378 20.3047 79.0088 20.5978 79.1509 20.7793C79.295 20.9629 79.5348 21.0547 79.8703 21.0547C80.1762 21.0547 80.5216 20.951 80.9064 20.7438ZM88.7217 17.8723C88.7217 18.0993 88.7118 18.3311 88.6921 18.568H83.7187C83.7779 19.4265 83.995 20.058 84.37 20.4626C84.745 20.8672 85.2285 21.0695 85.8206 21.0695C86.1955 21.0695 86.5409 21.0152 86.8567 20.9066C87.1725 20.7981 87.503 20.6254 87.8484 20.3886L88.4405 21.2027C87.6116 21.8539 86.7037 22.1796 85.717 22.1796C84.6315 22.1796 83.7848 21.8243 83.177 21.1139C82.5711 20.4034 82.2682 19.4265 82.2682 18.1831C82.2682 17.374 82.3984 16.6556 82.6589 16.028C82.9214 15.4024 83.2964 14.912 83.7839 14.5567C84.2733 14.2015 84.8486 14.0239 85.5097 14.0239C86.5458 14.0239 87.3402 14.3643 87.8928 15.0452C88.4454 15.7261 88.7217 16.6684 88.7217 17.8723ZM87.3747 17.5615V17.4727C87.3747 16.703 87.2218 16.1158 86.9159 15.7113C86.61 15.3067 86.1511 15.1044 85.5393 15.1044C84.4243 15.1044 83.8174 15.9234 83.7187 17.5615H87.3747ZM94.2842 14.0239C94.5605 14.0239 94.817 14.0535 95.0538 14.1127L94.8022 15.4448C94.5654 15.3856 94.3384 15.356 94.1213 15.356C93.6378 15.356 93.248 15.5336 92.952 15.8889C92.656 16.2441 92.4241 16.7967 92.2563 17.5467V22.002H90.8946V14.2015H92.0639L92.1971 15.7853C92.4043 15.2031 92.6856 14.7639 93.0408 14.4679C93.3961 14.1719 93.8105 14.0239 94.2842 14.0239ZM104.216 14.2015H105.519L103.742 22.002H101.892L100.53 15.43L99.1243 22.002H97.3185L95.4979 14.2015H96.8596L98.2658 21.0547L99.8052 14.2015H101.33L102.795 21.0547L104.216 14.2015ZM112.475 20.1814C112.475 20.4971 112.53 20.731 112.638 20.883C112.747 21.0369 112.91 21.1533 113.127 21.2323L112.816 22.1796C112.411 22.1302 112.086 22.0168 111.839 21.8391C111.592 21.6615 111.41 21.3852 111.291 21.0103C110.768 21.7898 109.994 22.1796 108.967 22.1796C108.198 22.1796 107.591 21.9625 107.147 21.5283C106.703 21.0941 106.481 20.5267 106.481 19.8261C106.481 18.9972 106.779 18.3608 107.375 17.9167C107.973 17.4727 108.819 17.2506 109.915 17.2506H111.114V16.6734C111.114 16.1208 110.98 15.7261 110.714 15.4892C110.448 15.2524 110.038 15.134 109.485 15.134C108.913 15.134 108.213 15.2721 107.384 15.5484L107.043 14.5567C108.01 14.2015 108.908 14.0239 109.737 14.0239C110.655 14.0239 111.341 14.2479 111.795 14.6959C112.248 15.1458 112.475 15.7853 112.475 16.6142V20.1814ZM109.278 21.1583C110.058 21.1583 110.67 20.7537 111.114 19.9445V18.1535H110.092C108.652 18.1535 107.931 18.6864 107.931 19.7521C107.931 20.2159 108.045 20.5662 108.272 20.803C108.499 21.0399 108.834 21.1583 109.278 21.1583ZM121.001 14.2015L118.396 22.0464C118.09 22.9542 117.663 23.6726 117.114 24.2015C116.568 24.7284 115.786 25.0462 114.77 25.1547L114.622 24.089C115.135 24.0002 115.544 23.8719 115.85 23.7042C116.156 23.5364 116.4 23.3223 116.581 23.0618C116.765 22.7993 116.936 22.446 117.094 22.002H116.635L114.015 14.2015H115.465L117.552 21.0103L119.595 14.2015H121.001Z" fill="#EC4A0A"/>
</g>
</g>
</g>
</g>
<g clip-path="url(#clip5_1719_5817)">
<g clip-path="url(#clip6_1719_5817)">
<path d="M0 17.8055C0 8.0392 7.9172 0.122192 17.6833 0.122192C27.4496 0.122192 35.3666 8.03939 35.3668 17.8055C35.3668 27.5718 27.4496 35.4888 17.6833 35.489C7.917 35.489 0 27.5718 0 17.8055ZM17.6833 34.1634C26.7176 34.1634 34.0412 26.8398 34.0412 17.8055C34.0412 8.77124 26.7176 1.4476 17.6833 1.4476C8.64905 1.4476 1.3254 8.77124 1.3254 17.8055C1.3254 26.8398 8.64905 34.1634 17.6833 34.1634Z" fill="#E8772E"/>
<path d="M17.6824 35.3119C27.351 35.3119 35.1889 27.4739 35.1889 17.8053C35.1889 8.13667 27.351 0.298706 17.6824 0.298706C8.01374 0.298706 0.175781 8.13667 0.175781 17.8053C0.175781 27.4739 8.01374 35.3119 17.6824 35.3119Z" fill="#EC4A0A"/>
<g clip-path="url(#clip7_1719_5817)">
<g clip-path="url(#clip8_1719_5817)">
<path d="M17.248 7.95813H18.132V11.3173H17.248V7.95813Z" fill="white"/>
<path d="M17.1973 24.2935H18.081V27.6528H17.1973V24.2935Z" fill="white"/>
<path d="M24.2051 17.156H27.5639V18.0372H24.2051V17.156Z" fill="white"/>
<path d="M7.80273 17.1014H11.1619V17.9854H7.80273V17.1014Z" fill="white"/>
<path d="M9.08301 12.9778L9.51182 12.2059L12.4469 13.8333L12.0179 14.6075L9.08301 12.9778Z" fill="white"/>
<path d="M12.6055 9.38566L13.3534 8.91614L15.1355 11.7655L14.3873 12.2324L12.6055 9.38566Z" fill="white"/>
<path d="M20.5947 23.553L21.3567 23.1145L23.0362 26.0235L22.274 26.464L20.5947 23.553Z" fill="white"/>
<path d="M23.1621 21.2038L23.5909 20.4321L26.5306 22.0595L26.0994 22.8337L23.1621 21.2038Z" fill="white"/>
<path d="M13.1574 26.5041L12.3857 26.0753L14.0131 23.1356L14.7873 23.5623L13.1574 26.5041Z" fill="white"/>
<path d="M9.25482 22.7714L8.79004 22.0235L11.637 20.2412L12.104 20.9896L9.25482 22.7714Z" fill="white"/>
<path d="M23.48 14.8884L23.0371 14.1215L25.9457 12.4418L26.389 13.2089L23.48 14.8884Z" fill="white"/>
<path d="M21.2313 12.3702L20.457 11.9393L22.0865 9.00415L22.8586 9.43316L21.2313 12.3702Z" fill="white"/>
<path d="M12.2373 17.7949C12.2373 14.7814 14.6815 12.3369 17.6951 12.3369C20.7063 12.3369 23.1486 14.7814 23.1486 17.7949C23.1486 20.8085 20.7065 23.25 17.6951 23.25C14.6815 23.2505 12.2373 20.8085 12.2373 17.7949Z" fill="white"/>
</g>
</g>
</g>
</g>
</g>
<defs>
<clipPath id="clip0_1719_5817">
<rect width="121.007" height="35.3668" fill="white" transform="translate(0 0.0611572)"/>
</clipPath>
<clipPath id="clip1_1719_5817">
<rect width="78.7004" height="14.6981" fill="white" transform="translate(42.3047 10.4567)"/>
</clipPath>
<clipPath id="clip2_1719_5817">
<rect width="78.7004" height="14.6981" fill="white" transform="translate(42.3047 10.4567)"/>
</clipPath>
<clipPath id="clip3_1719_5817">
<rect width="78.7004" height="14.6981" fill="white" transform="translate(42.3047 10.4567)"/>
</clipPath>
<clipPath id="clip4_1719_5817">
<rect width="78.7004" height="14.6981" fill="white" transform="translate(42.3047 10.4567)"/>
</clipPath>
<clipPath id="clip5_1719_5817">
<rect width="35.3668" height="35.3668" fill="white" transform="translate(0 0.122192)"/>
</clipPath>
<clipPath id="clip6_1719_5817">
<rect width="35.3668" height="35.3668" fill="white" transform="translate(0 0.122192)"/>
</clipPath>
<clipPath id="clip7_1719_5817">
<rect width="19.761" height="19.6945" fill="white" transform="translate(7.80273 7.95813)"/>
</clipPath>
<clipPath id="clip8_1719_5817">
<rect width="19.761" height="19.6945" fill="white" transform="translate(7.80273 7.95813)"/>
</clipPath>
</defs>
</svg>
