<svg width="98" height="48" viewBox="0 0 98 48" fill="none" xmlns="http://www.w3.org/2000/svg">
<g clip-path="url(#clip0_924_498)">
<path fill-rule="evenodd" clip-rule="evenodd" d="M50.5694 22.1957C50.6739 22.3015 50.7784 22.4074 50.8823 22.5132C50.9145 22.4309 50.9757 22.3487 50.9759 22.2663C50.9811 20.3647 50.9767 18.4629 50.9833 16.5614C50.984 16.3472 51.0402 16.1332 51.0706 15.9192C51.1944 15.8223 51.3087 15.6668 51.4442 15.6406C51.7353 15.5841 52.0392 15.5641 52.3343 15.5856C52.6152 15.606 52.9211 15.6038 53.1341 15.8738C53.1658 15.9877 53.1976 16.1015 53.2294 16.2154C53.2288 22.4924 53.2283 28.7694 53.2277 35.0463C53.2133 35.0648 53.1912 35.0809 53.1855 35.1021C53.0676 35.5373 52.7686 35.6489 52.3946 35.6387C52.14 35.6318 51.8851 35.6399 51.6304 35.6367C51.3691 35.6333 51.103 35.4226 51.0328 35.1494C51.0142 35.0769 51.0571 34.9882 51.0542 34.9076C51.0466 34.6948 51.0343 34.4819 51.0132 34.2703C51.0066 34.2051 50.9739 34.0983 50.9388 34.0909C50.87 34.0763 50.7502 34.091 50.7225 34.1406C50.4009 34.7163 49.8604 35.0042 49.3775 35.3631C49.2067 35.49 48.9937 35.5495 48.7998 35.6392C48.732 35.6706 48.6659 35.7142 48.5951 35.7286C48.2488 35.7985 47.903 35.8963 47.5536 35.9176C46.8839 35.9585 46.2054 35.9852 45.5538 35.7762C45.0716 35.6216 44.6076 35.3995 44.1341 35.2119C44.0927 35.1954 44.0407 35.2109 43.9936 35.2117C43.957 35.1724 43.9203 35.1331 43.8839 35.094C43.6262 34.8809 43.3684 34.6677 43.1106 34.4546C42.8958 34.1899 42.6571 33.9434 42.4715 33.6564C42.1651 33.1827 41.8618 32.7009 41.6923 32.142C41.5165 31.5624 41.3184 30.9883 41.1851 30.3972C41.099 30.0155 41.0923 29.6078 41.0844 29.211C41.07 28.484 41.0712 27.7562 41.086 27.0292C41.092 26.7347 41.1247 26.4343 41.1912 26.1493C41.3164 25.6124 41.4749 25.0846 41.6196 24.5529C41.6509 24.4822 41.681 24.4107 41.7138 24.3406C41.8383 24.0746 41.9343 23.784 42.1004 23.5534C42.1916 23.4266 42.2734 23.3367 42.246 23.173L42.2441 23.1753C42.5256 22.9823 42.74 22.7234 42.8878 22.3988C43.194 22.1508 43.4865 21.8791 43.8091 21.66C44.4271 21.2404 45.0992 20.9444 45.8213 20.8312C46.2836 20.7587 46.7562 20.7258 47.2229 20.7373C47.6267 20.7473 48.0336 20.8195 48.4298 20.9121C48.7288 20.9822 49.0186 21.1138 49.3016 21.2459C49.4453 21.3129 49.565 21.4412 49.7153 21.5571C49.715 21.5571 49.7756 21.5363 49.8033 21.5604C49.9997 21.731 50.1874 21.9135 50.3826 22.0858C50.4365 22.1335 50.5066 22.1596 50.5694 22.1957ZM49.742 32.5727L49.7477 32.5655C49.8172 32.5389 49.9055 32.5332 49.9529 32.4822C50.141 32.28 50.2865 32.0426 50.428 31.7972C50.7198 31.2912 50.8774 30.7314 50.964 30.1582C51.0447 29.6235 51.0565 29.073 51.0611 28.529C51.0646 28.1084 50.9902 27.6874 50.9867 27.2661C50.9826 26.7719 50.947 26.2911 50.802 25.8171C50.6341 25.2684 50.4139 24.7668 50.0544 24.3256C49.8566 24.0829 49.6583 23.8663 49.4201 23.6677C48.99 23.3088 48.5118 23.0556 47.9941 23.003C47.284 22.9309 46.5574 22.9299 45.8655 23.1842C45.5413 23.3034 45.2066 23.4371 44.9297 23.6474C44.6534 23.8573 44.4342 24.1624 44.2092 24.444C44.1291 24.5444 44.1054 24.6984 44.056 24.828L44.0542 24.837C44.0003 24.8768 43.9259 24.9032 43.8955 24.9584C43.5944 25.5057 43.4344 26.1158 43.344 26.7332C43.2599 27.3077 43.2512 27.899 43.249 28.4831C43.2471 28.9689 43.2971 29.4555 43.3362 29.9406C43.3508 30.1226 43.3725 30.314 43.4377 30.4792C43.6433 30.9994 43.8713 31.5091 44.09 32.0231C44.1324 32.1227 44.1515 32.2465 44.218 32.3192C44.3736 32.4891 44.5548 32.6306 44.7196 32.7909C45.2294 33.2872 45.8511 33.5691 46.5028 33.6481C47.0931 33.7197 47.704 33.6152 48.3034 33.5576C48.5 33.5388 48.704 33.4528 48.8777 33.3458C49.1462 33.1803 49.3949 32.9751 49.6441 32.775C49.6947 32.7344 49.7103 32.6415 49.742 32.5727Z" fill="#6000E5"/>
<path fill-rule="evenodd" clip-rule="evenodd" d="M65.637 34.5045L65.618 34.5105C65.4942 34.5901 65.3702 34.6692 65.2467 34.7494C65.1975 34.7813 65.1473 34.847 65.1014 34.8432C64.946 34.8305 64.9166 34.9396 64.89 35.0621L64.8958 35.06C64.7052 34.9817 64.6131 35.1711 64.4777 35.2428C64.067 35.3827 63.6599 35.5373 63.2446 35.6579C62.8692 35.7671 62.488 35.877 62.1032 35.9172C61.6725 35.9622 61.2348 35.9345 60.8003 35.9288C60.2392 35.9214 59.6959 35.7832 59.1806 35.5607C58.7188 35.3613 58.2733 35.1256 57.8662 34.7869C57.3653 34.3701 56.9331 33.891 56.5644 33.3477C56.2387 32.8677 55.9667 32.3473 55.8202 31.7578C55.6928 31.2446 55.5062 30.7473 55.4015 30.2295C55.322 29.8369 55.3008 29.4228 55.3053 29.0188C55.3141 28.2387 55.2842 27.461 55.3668 26.6766C55.4353 26.0245 55.5733 25.3984 55.7776 24.8027C56.0398 24.0381 56.4593 23.3502 56.9358 22.7122C56.9731 22.6623 56.9802 22.5858 57.0014 22.5216C57.0126 22.5098 57.0238 22.4979 57.035 22.486C57.078 22.4802 57.1334 22.4912 57.1623 22.4661C57.504 22.1678 57.8418 21.8642 58.1806 21.562C58.5344 21.4036 58.8944 21.2598 59.2405 21.0833C59.6999 20.8491 60.1945 20.7683 60.6833 20.7402C61.3556 20.7016 62.028 20.7047 62.7002 20.8973C63.0203 20.9891 63.3272 21.1174 63.644 21.2141C63.7835 21.2567 63.9139 21.3391 64.0438 21.413C64.2429 21.5263 64.4651 21.616 64.6247 21.7776C64.7224 21.8764 64.7822 21.9241 64.9006 21.8809L64.8845 21.8842C64.8845 21.8842 64.9007 21.8823 64.9007 21.8824C64.9045 21.9059 64.9008 21.9366 64.9131 21.9516C65.1098 22.1916 65.3021 22.4367 65.5098 22.6649C65.6042 22.7686 65.7301 22.838 65.8418 22.923C65.8418 22.923 65.8445 22.9221 65.8444 22.9221C65.8115 23.0784 65.9007 23.1363 66.0153 23.1736L66.0144 23.1731C66.0925 23.373 66.1633 23.577 66.2509 23.7718C66.3403 23.9704 66.4872 24.1483 66.5369 24.3556C66.6568 24.856 66.8755 25.3162 66.9379 25.847C66.9888 26.2796 67.101 26.7062 67.0905 27.1505C67.0903 27.6909 67.0902 28.2311 67.09 28.7715C67.0601 28.8372 67.0301 28.9029 67.0001 28.9685C66.9699 29.001 66.9397 29.0334 66.9096 29.0659C66.8796 29.0986 66.8496 29.1314 66.8196 29.1641C66.7878 29.195 66.756 29.2259 66.7243 29.2568C66.6817 29.2593 66.6391 29.2617 66.5965 29.2641C66.08 29.263 65.5635 29.261 65.0469 29.2609C62.6289 29.2606 60.2108 29.2599 57.7929 29.2649C57.7114 29.2651 57.6301 29.3239 57.5487 29.3554L57.5462 29.3581C57.4214 29.4942 57.4208 29.9196 57.5452 30.1448C57.5474 30.307 57.5497 30.4691 57.5519 30.6313C57.5803 30.6985 57.6087 30.7658 57.6372 30.833C57.6381 30.8641 57.6391 30.8952 57.6401 30.9263C57.6682 30.9938 57.6962 31.0612 57.7244 31.1286C57.727 31.1917 57.7295 31.2548 57.7321 31.3179C57.7607 31.3522 57.7893 31.3865 57.8178 31.4209C57.8782 31.5505 57.9386 31.6801 57.9989 31.8097C58.1032 32.0001 58.1779 32.2235 58.3185 32.3733C58.5427 32.6125 58.7935 32.8359 59.0647 33.0055C59.4176 33.226 59.7875 33.4455 60.1763 33.5574C60.5569 33.6671 60.97 33.6534 61.3696 33.6724C62.171 33.7104 62.9265 33.5228 63.6191 33.0729C63.736 32.997 63.8349 32.8883 63.9422 32.7947C63.9968 32.7546 64.0612 32.7241 64.1044 32.6725C64.2331 32.5192 64.3534 32.3577 64.477 32.1994L64.4751 32.2015C64.6395 32.1038 64.7951 31.9553 64.9702 31.9191C65.3047 31.8502 65.6509 31.8174 65.991 31.8254C66.1689 31.8296 66.3634 31.9202 66.5167 32.0285C66.7983 32.2274 66.7469 32.5442 66.6922 32.8468C66.6762 32.8969 66.6601 32.947 66.6442 32.997C66.5895 33.1461 66.5349 33.2952 66.4801 33.4444L66.4698 33.4343C66.4698 33.4343 66.4783 33.4462 66.4782 33.4462C66.4418 33.469 66.3971 33.4837 66.3706 33.5162C66.1393 33.7993 65.9101 34.0846 65.6838 34.3726C65.6573 34.4064 65.6521 34.4601 65.637 34.5045ZM57.9043 25.1861C57.8901 25.2028 57.8758 25.2196 57.8617 25.2362C57.788 25.4176 57.7144 25.5989 57.6408 25.7803C57.6085 26.0235 57.5762 26.2667 57.5438 26.5099C57.5303 26.6094 57.5168 26.709 57.5033 26.8086C57.4903 26.8406 57.4774 26.8727 57.4645 26.9047C57.4917 26.9387 57.5191 26.9726 57.5463 27.0065C57.5546 27.066 57.5629 27.1254 57.5772 27.2284C57.6134 27.1526 57.6258 27.1265 57.6382 27.1004C59.9699 27.1011 62.3016 27.1025 64.6332 27.0987C64.7009 27.0985 64.7685 27.044 64.8361 27.0148C64.867 26.9428 64.9202 26.8727 64.9252 26.7987C64.9536 26.3685 64.8824 25.9562 64.7605 25.5435C64.6242 25.0818 64.4701 24.6451 64.1273 24.3124C63.9189 24.1101 63.7495 23.8455 63.5166 23.6909C63.0394 23.3741 62.541 23.1084 61.9596 23.0481C61.4393 22.9941 60.9339 22.9512 60.4113 23.0651C59.7724 23.2041 59.221 23.5112 58.7204 23.9418C58.4414 24.1817 58.1823 24.4502 58.0781 24.8436C57.9316 24.9043 57.8967 25.0324 57.9043 25.1861Z" fill="#6000E5"/>
<path fill-rule="evenodd" clip-rule="evenodd" d="M90.6111 35.5428C90.5508 35.4934 90.4905 35.444 90.4302 35.3946C90.4419 35.354 90.4754 35.2932 90.4619 35.276C90.2924 35.0598 90.3037 34.8029 90.3089 34.5451C90.3124 34.3666 90.3192 34.1872 90.3075 34.0097C90.3002 33.8995 90.2608 33.792 90.2358 33.6832C90.145 33.7585 90.0525 33.8314 89.9647 33.9107C89.9445 33.9289 89.9478 33.9768 89.9282 33.9975C89.7879 34.1472 89.6394 34.2882 89.5047 34.4435C89.4568 34.4986 89.4401 34.5857 89.4092 34.6583L89.4108 34.6565C89.3489 34.6742 89.2757 34.6744 89.227 34.7123C88.8014 35.0426 88.3479 35.2883 87.8419 35.4612C87.1954 35.6822 86.5394 35.7482 85.8754 35.7799C85.3192 35.8065 84.7674 35.7447 84.2363 35.5459C83.807 35.3853 83.3347 35.3135 83.035 34.874C83.0169 34.8474 82.967 34.8492 82.9356 34.8304C82.8107 34.7556 82.6838 34.6838 82.5641 34.5999C82.4116 34.4931 82.2652 34.3756 82.1162 34.2627L82.1175 34.2643C82.0893 34.1856 82.0794 34.0879 82.0299 34.0312C81.5725 33.507 81.3132 32.8657 81.233 32.1702C81.1338 31.3096 81.2439 30.4694 81.6867 29.7079C81.9662 29.2272 82.3428 28.8598 82.7513 28.5249C82.9499 28.3621 83.1692 28.2293 83.3791 28.0829C83.7897 27.9106 84.1938 27.7162 84.6126 27.5722C85.0486 27.4222 85.4968 27.3112 85.9436 27.2021C86.1807 27.1442 86.4266 27.1308 86.6674 27.0896C87.0023 27.032 87.3357 26.9633 87.6707 26.9067C87.9495 26.8596 88.2299 26.8235 88.5095 26.7816C88.8835 26.7256 89.2577 26.6712 89.6311 26.6113C89.7972 26.5846 89.9618 26.5461 90.127 26.5129C90.2587 26.5308 90.3131 26.4765 90.3093 26.3237C90.3008 25.9841 90.3122 25.6439 90.3024 25.3043C90.2998 25.2147 90.2493 25.1268 90.2208 25.038C90.2189 24.9418 90.2171 24.8456 90.2152 24.7494C90.1872 24.6817 90.1591 24.6141 90.131 24.5464C90.128 24.4833 90.125 24.4202 90.1221 24.3571C90.0952 24.3221 90.0683 24.2871 90.0414 24.2521C90.0398 24.2216 90.0381 24.191 90.0365 24.1605C90.009 24.1247 89.9814 24.089 89.9539 24.0532C89.9518 24.0235 89.9497 23.9937 89.9476 23.9638C89.9321 23.9325 89.9166 23.9011 89.9012 23.8697C89.8264 23.7705 89.7516 23.6712 89.6768 23.572C89.6473 23.5392 89.6179 23.5064 89.5885 23.4736L89.5872 23.4721C89.557 23.4404 89.5268 23.4086 89.4966 23.3768C89.4645 23.379 89.4323 23.3811 89.4001 23.3832L89.4007 23.3843C89.3075 23.1202 89.1015 23.0314 88.8716 22.9799C88.8249 22.9492 88.7782 22.9186 88.7315 22.888C88.6586 22.8833 88.5857 22.8787 88.5128 22.874C88.4957 22.846 88.4785 22.818 88.4614 22.79C87.9776 22.7242 87.4951 22.6369 87.0095 22.6015C86.7623 22.5834 86.5094 22.6585 86.259 22.6915C86.1967 22.7215 86.1343 22.7516 86.072 22.7817C86.0144 22.7843 85.9568 22.7869 85.8992 22.7895C85.8375 22.8201 85.7757 22.8508 85.714 22.8815C85.6858 22.8836 85.6575 22.8856 85.6292 22.8876C85.5971 22.918 85.565 22.9484 85.5329 22.9788C85.5049 22.9806 85.4768 22.9824 85.4487 22.9842C85.0604 23.1944 84.7223 23.4758 84.4453 23.8397C84.4091 23.8872 84.4041 23.963 84.3847 24.0257L84.3816 24.0235C84.3219 24.051 84.2352 24.06 84.2071 24.109C84.0708 24.3464 83.9502 24.5946 83.824 24.8389C83.3271 24.8274 82.8301 24.8157 82.3331 24.8042C82.3201 24.8039 82.3073 24.8016 82.295 24.7972C82.2884 24.758 82.2947 24.7036 82.2733 24.6818C82.0133 24.417 82.0855 24.0953 82.1748 23.8002C82.4167 23.0011 82.9062 22.4004 83.5185 21.9066C83.5857 21.8524 83.6304 21.7651 83.6856 21.6932L83.6812 21.6943C83.7585 21.6819 83.8446 21.6891 83.9113 21.6533C84.1073 21.5483 84.2871 21.4013 84.4895 21.3175C84.7295 21.2182 85.0244 21.2289 85.2268 21.0807C85.4914 20.8869 85.7843 20.8767 86.0549 20.8445C86.5763 20.7826 87.1079 20.8235 87.6352 20.821C88.2376 20.8181 88.8208 20.8782 89.4072 21.0908C89.7985 21.2327 90.1786 21.3729 90.5368 21.5931C90.6201 21.6443 90.724 21.6556 90.8184 21.6853L90.8166 21.687C90.8684 21.7625 90.9149 21.8433 90.9732 21.9122C91.1072 22.0706 91.2435 22.2273 91.3864 22.3762C91.436 22.4278 91.5076 22.454 91.5692 22.4918L91.5677 22.4902C91.5787 22.5522 91.5754 22.6233 91.6033 22.6744C91.7081 22.8671 91.8342 23.0467 91.9316 23.2434C92.0625 23.5079 92.1743 23.7837 92.2942 24.0545C92.3236 24.1829 92.353 24.3113 92.3824 24.4397C92.4106 24.819 92.4625 25.1983 92.4634 25.5777C92.4699 28.6707 92.4686 31.7637 92.4622 34.8567C92.4618 35.0091 92.4123 35.1736 92.346 35.3096C92.3003 35.4033 92.1864 35.4575 92.1029 35.5292C91.6056 35.5338 91.1084 35.5383 90.6111 35.5428ZM88.001 33.4763C88.1035 33.4657 88.2265 33.4909 88.3049 33.4379C88.5357 33.2816 88.7601 33.1087 88.9669 32.9166C89.5862 32.3414 89.9493 31.5951 90.1236 30.7397C90.2696 30.0239 90.3435 29.2988 90.3083 28.5622C90.2923 28.2246 90.2835 28.2051 89.9876 28.2694C89.9296 28.282 89.8677 28.2716 89.8084 28.2794C89.5364 28.315 89.2638 28.3464 88.9932 28.392C88.469 28.4803 87.9453 28.573 87.4228 28.6717C86.9708 28.7572 86.518 28.8409 86.0704 28.9491C85.7137 29.0353 85.3559 29.1327 85.0141 29.2709C84.7208 29.3896 84.423 29.5348 84.1764 29.7389C83.9392 29.9351 83.7494 30.2088 83.5668 30.4716C83.1661 31.048 83.2309 31.6874 83.4416 32.3079C83.6501 32.9222 84.0997 33.3162 84.6361 33.5658C85.0383 33.7529 85.4618 33.8618 85.9123 33.8881C86.4303 33.9182 86.9415 33.9319 87.4353 33.7609C87.6168 33.6981 87.8684 33.7516 87.9694 33.4878L87.9834 33.4761L88.001 33.4763Z" fill="#6000E5"/>
<path fill-rule="evenodd" clip-rule="evenodd" d="M26.9554 21.1842C27.0667 21.1119 27.1779 21.0396 27.2889 20.9673C27.638 20.9854 27.987 21.0121 28.3363 21.0196C28.7932 21.0293 29.0206 21.2703 29.0206 21.77C29.0207 26.129 29.0206 30.4878 29.0205 34.8467C29.0205 35.4079 28.8117 35.6345 28.2956 35.6353C28.041 35.6357 27.7858 35.6465 27.5319 35.6315C27.3969 35.6235 27.2641 35.5705 27.1302 35.5377C26.9388 35.4173 26.8618 35.2286 26.8598 34.9962C26.8578 34.7515 26.8573 34.5068 26.8561 34.262C26.83 34.175 26.804 34.088 26.778 34.001C26.7536 33.9975 26.7293 33.994 26.7049 33.9906C26.5952 34.1442 26.5023 34.3179 26.3723 34.4473C26.0943 34.7241 25.7971 34.978 25.5078 35.2413C25.3419 35.3362 25.1804 35.4425 25.0089 35.5237C24.5311 35.75 24.0271 35.8861 23.51 35.9205C23.0396 35.9519 22.5659 35.9254 22.0937 35.9244C21.7431 35.8283 21.3802 35.7675 21.0451 35.6275C20.624 35.4517 20.2103 35.2393 19.8224 34.9892C19.5257 34.798 19.2756 34.5215 19.0001 34.2895C18.9646 34.2597 18.9008 34.2699 18.8501 34.2616L18.8515 34.2634C18.8131 34.1721 18.7856 34.0725 18.734 33.991C18.5966 33.7743 18.4272 33.5786 18.3095 33.3506C18.014 32.7782 17.7478 32.19 17.6592 31.5272C17.6129 31.1794 17.5097 30.834 17.5078 30.487C17.494 27.938 17.4994 25.389 17.4987 22.84C17.4986 22.4642 17.5061 22.0881 17.4965 21.7126C17.4836 21.2078 17.786 21.0135 18.1349 21.0194C18.4347 21.0244 18.7346 21.0195 19.0344 21.0204C19.4116 21.0216 19.6596 21.2945 19.6597 21.7108C19.6603 24.1373 19.6648 26.5637 19.6577 28.9902C19.6554 29.7838 19.6993 30.5683 19.9381 31.323C19.9974 31.5104 20.1212 31.6735 20.2153 31.8478L20.212 31.8598L20.2162 31.848C20.3104 32.0579 20.3678 32.3041 20.506 32.4706C20.8588 32.8958 21.2791 33.2185 21.7906 33.4142C22.1645 33.5572 22.5426 33.6507 22.9278 33.6633C23.4321 33.6797 23.9343 33.7112 24.4373 33.5024C24.7197 33.3852 24.9862 33.2584 25.2411 33.0899C25.3482 33.0205 25.4674 32.9663 25.5605 32.8791C26.002 32.4658 26.3348 31.9874 26.534 31.3655C26.7261 30.7658 26.8331 30.152 26.8454 29.5415C26.8841 27.6301 26.8461 25.7171 26.8662 23.805C26.8755 22.9317 26.7578 22.0507 26.9554 21.1842Z" fill="#6000E5"/>
<path fill-rule="evenodd" clip-rule="evenodd" d="M39.0076 16.0263C39.0158 16.035 39.0178 16.0452 39.0136 16.0568C39.0118 16.0894 39.0083 16.122 39.0083 16.1545C39.0088 19.6912 39.0096 23.2279 39.01 26.7646C39.0104 29.5743 39.0103 32.3839 39.0104 35.1935C38.825 35.5974 38.5365 35.7874 38.1128 35.7455C37.8677 35.7213 37.6185 35.7512 37.3722 35.7366C37.0935 35.72 36.8705 35.5937 36.7659 35.2878C36.7641 35.0753 36.7608 34.8629 36.7608 34.6504C36.7606 28.8482 36.7608 23.046 36.7608 17.2438C36.7608 16.9006 36.7579 16.5573 36.7618 16.2142C36.7643 15.988 36.935 15.682 37.1151 15.6446C37.5126 15.5619 37.911 15.4422 38.3215 15.597C38.4732 15.6542 38.6396 15.665 38.7993 15.6968L38.8116 15.7072C38.8595 15.8285 38.9076 15.9496 38.9555 16.0709C38.9729 16.0561 38.9902 16.0412 39.0076 16.0263Z" fill="#6000E5"/>
<path fill-rule="evenodd" clip-rule="evenodd" d="M76.3594 23.1249C76.3074 23.1605 76.2554 23.1959 76.2036 23.2314C76.1174 23.2464 76.0311 23.2735 75.9447 23.2744C75.3346 23.2801 74.7246 23.2805 74.1145 23.2826C73.7793 23.3456 73.4366 23.3798 73.1111 23.4804C72.8406 23.564 72.5403 23.6669 72.3429 23.8666C72.057 24.1556 71.7191 24.4286 71.6086 24.8797C71.5412 25.1546 71.4757 25.43 71.4071 25.7045C71.3634 25.8794 71.3141 26.0527 71.2705 26.2277C71.2579 26.2783 71.2458 26.3341 71.2527 26.3844C71.2685 26.5003 71.3152 26.6142 71.3159 26.7291C71.3215 27.5782 71.3189 28.4274 71.3189 29.2765C71.3189 31.1054 71.3219 32.9343 71.3154 34.7632C71.3145 35.0112 71.3071 35.2882 71.1039 35.4528C70.983 35.5508 70.8168 35.6093 70.665 35.6286C70.4358 35.6577 70.2013 35.637 69.9691 35.6374C69.8787 35.6367 69.7883 35.6361 69.6979 35.6354C69.6402 35.6336 69.5824 35.6316 69.5245 35.6297C69.4923 35.5666 69.4744 35.4747 69.4252 35.4455C69.2361 35.3333 69.154 35.184 69.1543 34.9393C69.16 30.678 69.1582 26.4167 69.159 22.1554C69.159 22.009 69.1674 21.8625 69.1739 21.7162C69.1943 21.2628 69.3814 21.0755 69.7744 21.1121C69.7959 21.1141 69.8198 21.1095 69.8399 21.1007C70.2327 20.9284 70.6236 21.0102 71.0019 21.1438C71.0978 21.1777 71.1967 21.3341 71.2205 21.4519C71.2767 21.7306 71.2843 22.0207 71.3217 22.3045C71.3303 22.3692 71.3804 22.4274 71.4114 22.4886C71.4886 22.3985 71.5605 22.3021 71.644 22.2195C71.854 22.0115 72.0692 21.8097 72.2822 21.6054C72.2935 21.6008 72.3023 21.5927 72.3086 21.5812L72.315 21.5659C72.315 21.5659 72.3303 21.5644 72.3303 21.5644C72.4974 21.503 72.6817 21.4721 72.8286 21.3744C73.2562 21.0901 73.7366 21.063 74.207 21.0309C74.7658 20.9927 75.3286 21.0151 75.8895 21.025C76.0157 21.0273 76.1411 21.0865 76.2668 21.1195L76.2685 21.1209C76.2991 21.1527 76.3297 21.1846 76.3603 21.2165C76.3907 21.2158 76.421 21.2153 76.4513 21.2147L76.4508 21.2146C76.4794 21.3352 76.5409 21.459 76.5311 21.5757C76.4876 22.0936 76.6896 22.6456 76.3594 23.1249Z" fill="#6000E5"/>
<path fill-rule="evenodd" clip-rule="evenodd" d="M33.8008 21.0738C34.0366 21.2489 34.0967 21.508 34.0966 21.7986C34.0956 23.2025 34.0958 24.6063 34.0958 26.0101C34.0958 28.9484 34.0953 31.8866 34.0974 34.8249C34.0977 35.1161 34.041 35.3761 33.8234 35.5669C33.7715 35.6124 33.7129 35.6682 33.6517 35.6785C33.1425 35.7644 32.6326 35.81 32.1263 35.6527C32.1362 35.6326 32.1574 35.5976 32.1545 35.595C32.0399 35.4933 31.9231 35.3945 31.8066 35.2954L31.8086 35.2969C31.8106 35.2562 31.8143 35.2155 31.8143 35.1748C31.8138 30.7163 31.8131 26.2578 31.8124 21.7994C31.8124 21.7259 31.8097 21.6521 31.8144 21.579C31.8333 21.289 32.0492 21.0168 32.3105 21.029C32.7742 21.0507 33.2475 20.9132 33.7028 21.1134C33.7267 21.1239 33.7677 21.0881 33.8008 21.0738Z" fill="#6000E5"/>
<path fill-rule="evenodd" clip-rule="evenodd" d="M31.6353 15.7891C31.8018 15.5439 32.0327 15.4758 32.3011 15.4813C32.7266 15.4899 33.1525 15.4808 33.5783 15.4844C34.0679 15.4886 34.3556 15.8036 34.3571 16.3379C34.3584 16.8345 34.3554 17.3311 34.3506 17.8276C34.3473 18.1606 34.2401 18.4302 33.9426 18.5744C33.2655 18.5707 32.5885 18.5669 31.9113 18.5632C31.88 18.5191 31.8554 18.4654 31.8161 18.4324C31.588 18.2408 31.5188 17.9903 31.5383 17.6835C31.5783 17.0526 31.4628 16.4123 31.6353 15.7891Z" fill="#6000E5"/>
<path fill-rule="evenodd" clip-rule="evenodd" d="M94.8984 15.8152C94.991 15.5345 95.1849 15.4052 95.4477 15.402C95.9487 15.3961 96.4499 15.3927 96.9507 15.4036C97.3416 15.4121 97.5878 15.6936 97.5928 16.1228C97.5983 16.5955 97.5988 17.0683 97.5926 17.5409C97.5874 17.9443 97.3428 18.2138 96.9697 18.2204C96.4688 18.2292 95.9676 18.2279 95.4667 18.2217C95.2088 18.2185 95.0051 18.1034 94.9004 17.8285C94.8998 17.1574 94.8991 16.4863 94.8984 15.8152Z" fill="#6000E5"/>
<path fill-rule="evenodd" clip-rule="evenodd" d="M9.61487 35.678C9.21224 35.7062 8.8096 35.7578 8.40693 35.7587C5.53231 35.7654 2.65765 35.7619 -0.216961 35.7599C-0.288506 35.7599 -0.360096 35.7398 -0.431641 35.7291C-0.422866 35.6495 -0.406487 35.5699 -0.406487 35.4903C-0.405183 31.4047 -0.405633 27.3192 -0.405183 23.2336C-0.404778 19.622 -0.403518 16.0104 -0.402663 12.3987C-0.223081 12.3976 -0.043499 12.3965 0.136083 12.3955C0.222387 12.4095 0.308645 12.4357 0.394949 12.4358C2.98874 12.4379 5.58249 12.4377 8.17623 12.4358C8.25579 12.4358 8.33534 12.4128 8.41489 12.4005C8.64303 12.4149 8.87111 12.4294 9.09938 12.4439C9.09083 12.4512 9.0821 12.4585 9.07342 12.4657C9.10807 12.4624 9.14272 12.4591 9.17732 12.4558C9.51709 12.5175 9.85686 12.5793 10.1966 12.641C10.1877 12.6553 10.1787 12.6696 10.1698 12.684C10.0648 12.6825 9.95851 12.6925 9.85524 12.6775C9.44982 12.6185 9.04561 12.4985 8.64051 12.4963C5.71653 12.4802 2.79233 12.4883 -0.131828 12.4845C-0.29962 12.4842 -0.362706 12.5616 -0.361671 12.7313C-0.360456 12.9313 -0.361716 13.1314 -0.361716 13.3315C-0.361716 20.4818 -0.361716 27.6322 -0.361716 34.7825C-0.361716 34.9826 -0.360501 35.1826 -0.361671 35.3827C-0.362976 35.6056 -0.238695 35.7117 -0.0205506 35.6829C0.141798 35.6615 0.305541 35.6398 0.468654 35.6397C3.25782 35.637 6.04703 35.6407 8.8362 35.6336C9.1626 35.6328 9.49099 35.5925 9.81474 35.542C10.1268 35.4934 10.4375 35.4225 10.7423 35.3345C11.0423 35.2479 11.3463 35.1562 11.6259 35.0138C11.8888 34.8798 12.1193 34.6716 12.3698 34.5064C12.4686 34.4413 12.6082 34.4317 12.6848 34.3484C12.8658 34.1514 13.0631 33.9824 13.2596 33.8068C13.5151 33.5787 13.7225 33.2687 13.8999 32.9594C14.1106 32.5922 14.2839 32.1959 14.4416 31.7973C14.5359 31.559 14.5691 31.292 14.6301 31.038C14.6374 31.0072 14.6399 30.9714 14.6563 30.9472C14.8789 30.6205 14.8597 30.214 14.8756 29.8562C14.9121 29.0305 14.9423 28.2021 14.735 27.3762C14.6202 26.9192 14.4051 26.5252 14.2587 26.0927C14.204 25.931 14.0964 25.7864 13.997 25.6477C13.7882 25.3566 13.601 25.0331 13.3461 24.799C12.9996 24.4809 12.5999 24.2308 12.2194 23.9576C11.9454 23.7608 11.9323 23.7433 12.2383 23.5687C12.8021 23.247 13.2164 22.7438 13.6137 22.2316C13.8443 21.9342 13.9957 21.5619 14.1727 21.2171C14.4593 20.659 14.5483 20.0271 14.6032 19.4153C14.6581 18.8033 14.5614 18.175 14.5259 17.5542C14.5223 17.493 14.4778 17.4357 14.4595 17.3741C14.4223 17.248 14.3656 17.1215 14.36 16.993C14.3406 16.5419 14.1176 16.1758 13.9529 15.787C13.8693 15.5896 13.7473 15.4108 13.6378 15.2271C13.5076 15.0088 13.4037 14.7562 13.232 14.5864C12.9419 14.2996 12.6291 14.0404 12.3732 13.7132C12.3731 13.6946 12.3729 13.676 12.3728 13.6575C13.5828 14.54 14.2739 15.7979 14.5627 17.3263C14.8289 18.7353 14.7925 20.1234 14.1788 21.4384C13.7371 22.385 13.1108 23.1485 12.2584 23.68C12.2152 23.707 12.1773 23.7442 12.1832 23.7395C12.6528 24.1349 13.1603 24.4909 13.588 24.9376C14.4141 25.8003 14.8325 26.9 14.9603 28.1306C15.1099 29.5718 14.9653 30.9732 14.3742 32.2848C13.5586 34.0943 12.1629 35.0885 10.4014 35.5359C10.176 35.5931 9.94429 35.6203 9.71548 35.6614C9.68191 35.667 9.64839 35.6725 9.61487 35.678Z" fill="#6000E5"/>
<path fill-rule="evenodd" clip-rule="evenodd" d="M20.2168 31.848C20.1226 31.6737 19.9989 31.5105 19.9396 31.3231C19.7007 30.5684 19.6569 29.7838 19.6592 28.9903C19.6664 26.5638 19.6619 24.1374 19.6612 21.7109C19.6611 21.2946 19.413 21.0217 19.0359 21.0206C18.7361 21.0195 18.4362 21.0245 18.1364 21.0195C17.7875 21.0136 17.4851 21.2079 17.498 21.7127C17.5076 22.0882 17.5 22.4643 17.5002 22.8401C17.5009 25.3891 17.4955 27.9382 17.5093 30.4871C17.5112 30.8341 17.6143 31.1796 17.6607 31.5273C17.7492 32.1902 18.0155 32.7783 18.311 33.3507C18.4287 33.5787 18.5981 33.7744 18.7355 33.9912C18.787 34.0726 18.8145 34.1721 18.853 34.2635C18.3049 33.6885 17.9622 32.9794 17.7299 32.2015C17.4867 31.3874 17.3744 30.5502 17.375 29.6935C17.3768 27.0866 17.3755 24.4796 17.3756 21.8726C17.3757 21.1876 17.6353 20.905 18.2627 20.9048C18.4952 20.9047 18.7276 20.9035 18.9601 20.9053C19.4696 20.9093 19.7539 21.2172 19.7542 21.7735C19.7554 24.1925 19.7612 26.6115 19.7513 29.0306C19.7473 30.0043 19.8576 30.9488 20.2168 31.848Z" fill="#6000E5"/>
<path fill-rule="evenodd" clip-rule="evenodd" d="M71.4127 22.4885C71.3817 22.4273 71.3316 22.369 71.323 22.3043C71.2855 22.0205 71.278 21.7305 71.2218 21.4518C71.198 21.334 71.0991 21.1775 71.0032 21.1436C70.6248 21.01 70.234 20.9282 69.8411 21.1006C69.8211 21.1094 69.7971 21.1139 69.7757 21.1119C69.3827 21.0754 69.1955 21.2626 69.1752 21.7161C69.1686 21.8623 69.1603 22.0088 69.1603 22.1552C69.1594 26.4165 69.1612 30.6778 69.1556 34.9391C69.1553 35.1838 69.2373 35.3332 69.4265 35.4453C69.4757 35.4745 69.4935 35.5665 69.5258 35.6296C69.5003 35.635 69.4748 35.6404 69.4494 35.6458C69.1822 35.5254 69.0786 35.2863 69.061 34.9924C69.0513 34.8298 69.057 34.666 69.0571 34.5026C69.0576 30.2652 69.0613 26.0276 69.0547 21.7901C69.0539 21.3162 69.2714 20.9053 69.8712 20.9078C70.1333 20.9089 70.3959 20.9174 70.6577 20.9055C71.0991 20.8853 71.4463 21.2991 71.4224 21.7299C71.4084 21.982 71.4152 22.2355 71.4127 22.4885Z" fill="#6000E5"/>
<path fill-rule="evenodd" clip-rule="evenodd" d="M57.0031 22.5215C56.9819 22.5856 56.9748 22.6621 56.9375 22.712C56.461 23.3501 56.0415 24.038 55.7793 24.8025C55.575 25.3982 55.4371 26.0243 55.3685 26.6764C55.2859 27.4609 55.3158 28.2385 55.307 29.0187C55.3024 29.4226 55.3237 29.8367 55.4032 30.2294C55.5079 30.7471 55.6945 31.2445 55.8219 31.7576C55.9684 32.3472 56.2404 32.8675 56.5661 33.3476C56.9347 33.8908 57.367 34.37 57.8679 34.7868C58.275 35.1254 58.7205 35.3611 59.1823 35.5605C59.6976 35.7831 60.2409 35.9212 60.802 35.9287C61.2365 35.9344 61.6742 35.9621 62.1049 35.917C62.4897 35.8769 62.8709 35.7669 63.2463 35.6578C63.6616 35.5371 64.0687 35.3825 64.4794 35.2427C64.4907 35.2579 64.5019 35.273 64.5132 35.2882C63.7055 35.7395 62.8352 35.9292 61.9405 36.0082C60.4023 36.1439 58.9684 35.8366 57.7153 34.7941C56.7262 33.9714 56.0289 32.9072 55.6558 31.6223C55.002 29.3711 54.9802 27.1032 55.6787 24.856C55.9523 23.9752 56.3947 23.1871 57.0031 22.5215Z" fill="#6000E5"/>
<path fill-rule="evenodd" clip-rule="evenodd" d="M43.9941 35.2116C44.0412 35.2109 44.0932 35.1954 44.1346 35.2118C44.6081 35.3995 45.0721 35.6215 45.5543 35.7761C46.206 35.9851 46.8845 35.9584 47.5541 35.9175C47.9035 35.8962 48.2493 35.7984 48.5956 35.7285C48.6664 35.7142 48.7325 35.6705 48.8003 35.6391C48.9942 35.5494 49.2072 35.49 49.378 35.363C49.8609 35.0042 50.4014 34.7163 50.723 34.1406C50.7507 34.0909 50.8704 34.0762 50.9393 34.0908C50.9744 34.0983 51.0072 34.2051 51.0137 34.2702C51.0348 34.4818 51.0472 34.6947 51.0548 34.9075C51.0576 34.9881 51.0147 35.0768 51.0333 35.1494C51.1036 35.4225 51.3696 35.6332 51.6309 35.6366C51.8856 35.6399 52.1405 35.6317 52.3951 35.6387C52.7691 35.6488 53.0681 35.5373 53.186 35.1021C53.1917 35.0808 53.2138 35.0648 53.2282 35.0463C53.2353 35.0491 53.2425 35.0544 53.2493 35.0539C53.2549 35.0535 53.2646 35.0467 53.2649 35.0422C53.2684 34.9778 53.2729 34.9134 53.2729 34.849C53.2732 28.7227 53.2734 22.5964 53.2714 16.4702C53.2713 16.3852 53.2444 16.3003 53.23 16.2154C53.1982 16.1015 53.1664 15.9876 53.1347 15.8737L53.1562 15.8735L53.1777 15.874C53.2142 16.0451 53.2825 16.2162 53.2827 16.3873C53.2887 21.3567 53.2879 26.3262 53.288 31.2955C53.2881 32.4888 53.2886 33.6821 53.2871 34.8755C53.2864 35.4306 53.0037 35.7413 52.4963 35.7461C52.2114 35.7487 51.9263 35.7509 51.6415 35.744C51.2167 35.7336 50.9246 35.415 50.9141 34.9527C50.9085 34.7091 50.9131 34.4652 50.9131 34.1861C50.8569 34.2227 50.8229 34.2342 50.8031 34.2593C49.914 35.3794 48.7806 35.9296 47.433 36.0134C46.3025 36.0837 45.2207 35.9099 44.2031 35.3482C44.1308 35.3083 44.0637 35.2574 43.9941 35.2116Z" fill="#6000E5"/>
<path fill-rule="evenodd" clip-rule="evenodd" d="M27.1309 35.5377C27.2647 35.5704 27.3975 35.6234 27.5325 35.6314C27.7864 35.6464 28.0416 35.6355 28.2962 35.6352C28.8123 35.6344 29.0211 35.4078 29.0211 34.8466C29.0213 30.4877 29.0214 26.1288 29.0212 21.7699C29.0212 21.2703 28.7938 21.0292 28.337 21.0195C27.9876 21.012 27.6386 20.9853 27.2896 20.9672C27.3513 20.9477 27.4126 20.9126 27.4744 20.9113C27.7891 20.9052 28.1041 20.9001 28.4186 20.9094C28.8297 20.9214 29.114 21.236 29.1306 21.6843C29.1352 21.8066 29.1315 21.9293 29.1315 22.0518C29.1315 26.3155 29.1308 30.5793 29.1329 34.8431C29.133 35.098 29.1067 35.3491 28.9163 35.51C28.7875 35.6188 28.6176 35.7121 28.4589 35.7278C28.1244 35.7611 27.7851 35.7475 27.4483 35.7345C27.3419 35.7304 27.2375 35.6673 27.1322 35.6312C27.1318 35.6001 27.1313 35.5689 27.1309 35.5377Z" fill="#6000E5"/>
<path fill-rule="evenodd" clip-rule="evenodd" d="M69.9683 35.6376C70.2005 35.6371 70.4351 35.6578 70.6642 35.6287C70.8161 35.6094 70.9822 35.5509 71.1031 35.453C71.3064 35.2883 71.3138 35.0113 71.3146 34.7633C71.3212 32.9344 71.3182 31.1055 71.3182 29.2766C71.3182 28.4275 71.3208 27.5783 71.3151 26.7293C71.3144 26.6143 71.2677 26.5004 71.2519 26.3845C71.2451 26.3342 71.2572 26.2784 71.2698 26.2278C71.3133 26.0528 71.3626 25.8795 71.4064 25.7046C71.4749 25.4301 71.5404 25.1547 71.6078 24.8799C71.7183 24.4287 72.0563 24.1557 72.3422 23.8667C72.5396 23.6671 72.8399 23.5642 73.1104 23.4805C73.4358 23.38 73.7785 23.3457 74.1137 23.2827C74.1851 23.2962 74.2565 23.321 74.328 23.3214C74.9204 23.3247 75.5129 23.3235 76.1053 23.3236C75.9956 23.3387 75.8861 23.3632 75.7761 23.3671C75.0581 23.3927 74.3338 23.3573 73.6233 23.4489C72.4527 23.5998 71.7319 24.3762 71.5113 25.6329C71.4498 25.9834 71.4262 26.3465 71.4253 26.704C71.4186 29.3902 71.4219 32.0765 71.4217 34.7628C71.4217 34.8607 71.4238 34.9594 71.4137 35.0563C71.3758 35.4222 71.117 35.7138 70.7796 35.7348C70.4817 35.7532 70.1819 35.7344 69.8828 35.732C69.9113 35.7005 69.9398 35.669 69.9683 35.6376Z" fill="#6000E5"/>
<path fill-rule="evenodd" clip-rule="evenodd" d="M38.7998 15.6963C38.6401 15.6644 38.4737 15.6537 38.322 15.5965C37.9115 15.4416 37.5131 15.5614 37.1156 15.6441C36.9355 15.6816 36.7648 15.9874 36.7622 16.2137C36.7584 16.5568 36.7613 16.9001 36.7613 17.2433C36.7613 23.0455 36.7611 28.8477 36.7613 34.6499C36.7613 34.8623 36.7646 35.0747 36.7664 35.2872C36.7368 35.1571 36.6813 35.0269 36.6812 34.8967C36.6771 28.7078 36.6773 22.5189 36.6785 16.33C36.6786 15.8084 36.9732 15.487 37.4455 15.4827C37.7376 15.48 38.0321 15.4579 38.321 15.4917C38.4855 15.5109 38.6405 15.625 38.7998 15.6963Z" fill="#6000E5"/>
<path fill-rule="evenodd" clip-rule="evenodd" d="M97.3698 21.5124C97.3755 21.5932 97.3861 21.674 97.3862 21.7548C97.387 26.0926 97.387 30.4303 97.3867 34.7682C97.3867 35.411 97.2013 35.6117 96.6049 35.6146C96.2901 35.6161 95.9751 35.6202 95.6605 35.6124C95.2628 35.6026 95.0306 35.3501 95.0305 34.9207C95.0287 30.5013 95.028 26.0818 95.0349 21.6623C95.0351 21.5126 95.118 21.363 95.1623 21.2134L95.1761 21.2195C95.1438 21.4001 95.0835 21.5806 95.0833 21.7612C95.0781 26.115 95.0777 30.4688 95.0817 34.8226C95.0821 35.2751 95.3118 35.5522 95.7438 35.5412C96.0584 35.5331 96.3733 35.5395 96.6881 35.5377C97.063 35.5356 97.2226 35.4007 97.33 34.9985C97.3416 34.9038 97.3633 34.8093 97.3633 34.7146C97.365 30.4132 97.3649 26.1118 97.3644 21.8105C97.3644 21.7128 97.358 21.6151 97.3546 21.5173L97.3698 21.5124Z" fill="#6000E5"/>
<path fill-rule="evenodd" clip-rule="evenodd" d="M33.7995 21.0739C33.7664 21.0882 33.7254 21.124 33.7014 21.1135C33.2462 20.9133 32.7728 21.0508 32.3091 21.0291C32.0479 21.0169 31.832 21.2891 31.8131 21.5791C31.8083 21.6522 31.811 21.726 31.8111 21.7995C31.8117 26.2579 31.8125 30.7164 31.813 35.1749C31.813 35.2156 31.8093 35.2563 31.8072 35.297C31.7779 35.1661 31.7229 35.0352 31.7227 34.9043C31.7182 30.5174 31.7181 26.1306 31.7197 21.7438C31.7199 21.2291 32.0024 20.914 32.47 20.9071C32.7911 20.9024 33.1125 20.9182 33.4337 20.9248C33.4299 20.9373 33.4262 20.9498 33.4225 20.9624C33.454 20.9533 33.4855 20.9443 33.517 20.9353C33.6112 20.9815 33.7053 21.0277 33.7995 21.0739Z" fill="#6000E5"/>
<path fill-rule="evenodd" clip-rule="evenodd" d="M41.6194 24.5529C41.4747 25.0845 41.3162 25.6123 41.191 26.1493C41.1245 26.4343 41.0918 26.7347 41.0858 27.0291C41.071 27.7561 41.0698 28.484 41.0842 29.2109C41.0921 29.6077 41.0988 30.0154 41.1848 30.3971C41.3182 30.9883 41.5163 31.5624 41.692 32.1419C41.8616 32.7008 42.1649 33.1827 42.4713 33.6564C42.6569 33.9435 42.8956 34.1898 43.1103 34.4546C43.0962 34.4633 43.0821 34.472 43.068 34.4808C42.3203 33.7723 41.823 32.8816 41.4745 31.8818C41.007 30.5412 40.9294 29.1452 40.9674 27.7308C40.995 26.702 41.1383 25.6981 41.4694 24.7307C41.5007 24.6395 41.5406 24.5518 41.5765 24.4624C41.5909 24.4926 41.6052 24.5228 41.6194 24.5529Z" fill="#6000E5"/>
<path fill-rule="evenodd" clip-rule="evenodd" d="M78.1853 35.6124C77.8854 35.6124 77.5853 35.6194 77.2857 35.6107C76.9248 35.6001 76.6922 35.358 76.6858 34.9647C76.6752 34.3112 76.6751 33.6572 76.6851 33.0038C76.6914 32.5877 76.9504 32.3174 77.329 32.314C77.9063 32.3089 78.4836 32.3082 79.0608 32.3152C79.4359 32.3197 79.6861 32.5808 79.6923 32.9885C79.7026 33.6502 79.7014 34.3123 79.693 34.9741C79.6884 35.3454 79.4516 35.599 79.1074 35.6114C78.8003 35.6226 78.4927 35.6138 78.1853 35.6138C78.1853 35.6134 78.1853 35.6129 78.1853 35.6124ZM79.1491 35.5319C79.1936 35.4995 79.2346 35.4578 79.2832 35.436C79.4878 35.3443 79.5977 35.1813 79.5986 34.9407C79.601 34.3205 79.603 33.7001 79.5975 33.0799C79.5939 32.6654 79.3722 32.4076 79.005 32.4018C78.4435 32.3928 77.8817 32.3948 77.3202 32.4027C77.0613 32.4063 76.8363 32.6226 76.8084 32.9015C76.7879 33.1067 76.8051 33.3163 76.8052 33.5239C76.8054 34.0136 76.8123 34.5035 76.8024 34.993C76.7976 35.2249 76.9094 35.3468 77.0776 35.4423C77.1122 35.462 77.1376 35.5008 77.1673 35.5308C77.172 35.5371 77.1766 35.549 77.1814 35.549C77.8501 35.5567 78.5187 35.5634 79.1874 35.5703C79.1818 35.5598 79.1776 35.5479 79.1702 35.5393C79.1658 35.5342 79.1563 35.5342 79.1491 35.5319Z" fill="#6000E5"/>
<path fill-rule="evenodd" clip-rule="evenodd" d="M26.9564 21.1841C26.7588 22.0505 26.8764 22.9315 26.8672 23.805C26.8472 25.717 26.8852 27.6301 26.8465 29.5414C26.8342 30.152 26.7272 30.7657 26.5351 31.3654C26.3358 31.9873 26.0031 32.4658 25.5616 32.8791C25.4685 32.9662 25.3493 33.0205 25.2422 33.0898C25.2423 33.0628 25.2425 33.0358 25.2426 33.0089C26.1176 32.3958 26.5277 31.4744 26.6764 30.3934C26.7327 29.9835 26.7599 29.5651 26.7612 29.1504C26.7689 26.7022 26.7651 24.2538 26.7649 21.8055C26.7649 21.5747 26.7729 21.3475 26.9564 21.1841Z" fill="#6000E5"/>
<path fill-rule="evenodd" clip-rule="evenodd" d="M50.5692 22.1959C50.5065 22.1598 50.4364 22.1336 50.3823 22.0859C50.1871 21.9136 49.9995 21.7311 49.8031 21.5605C49.7753 21.5364 49.7147 21.5572 49.715 21.5572C49.5647 21.4414 49.445 21.313 49.3013 21.246C49.0183 21.114 48.7286 20.9823 48.4295 20.9123C48.0334 20.8196 47.6264 20.7474 47.2227 20.7375C46.756 20.726 46.2834 20.7588 45.8211 20.8313C45.0989 20.9446 44.4269 21.2406 43.8089 21.6601C43.4863 21.8793 43.1937 22.151 42.8875 22.3989C42.8716 22.3979 42.8557 22.397 42.8398 22.3961C43.4062 21.7392 44.0942 21.2857 44.8698 20.9945C46.2261 20.4852 47.593 20.4687 48.9524 20.9729C49.5193 21.1832 50.0061 21.5563 50.4415 22.0039C50.4933 22.0572 50.5271 22.1314 50.5692 22.1959Z" fill="#6000E5"/>
<path fill-rule="evenodd" clip-rule="evenodd" d="M90.1213 24.3574C90.1243 24.4206 90.1273 24.4836 90.1303 24.5468C90.1583 24.6145 90.1865 24.6821 90.2145 24.7497C90.2164 24.8459 90.2182 24.9422 90.2201 25.0384C90.2195 25.4365 90.2247 25.8349 90.2143 26.2327C90.2118 26.3271 90.1571 26.4198 90.1263 26.5133C89.9611 26.5465 89.7966 26.585 89.6305 26.6116C89.257 26.6716 88.8828 26.726 88.5088 26.782C88.2292 26.8239 87.9489 26.86 87.6701 26.9071C87.335 26.9637 87.0017 27.0324 86.6667 27.0899C86.4259 27.1312 86.18 27.1446 85.943 27.2025C85.4962 27.3116 85.048 27.4225 84.612 27.5726C84.1932 27.7166 83.789 27.911 83.3785 28.0833C83.3545 28.0682 83.3306 28.0532 83.3066 28.0382C84.0331 27.5747 84.8261 27.2962 85.6463 27.1473C87.064 26.8901 88.4897 26.6863 89.912 26.4597C89.9994 26.4458 90.0864 26.4293 90.1823 26.4125C90.2123 25.637 90.2279 24.8812 89.9462 24.1607L89.9546 24.1519C89.9817 24.1549 90.0087 24.1579 90.0357 24.1609C90.0374 24.1915 90.0391 24.222 90.0406 24.2526C90.0676 24.2875 90.0944 24.3225 90.1213 24.3574Z" fill="#6000E5"/>
<path fill-rule="evenodd" clip-rule="evenodd" d="M92.1035 35.5295C92.1869 35.4577 92.301 35.4035 92.3466 35.3098C92.4128 35.1739 92.4624 35.0094 92.4627 34.857C92.4693 31.764 92.4706 28.6709 92.4639 25.5779C92.4631 25.1985 92.4112 24.8192 92.383 24.4399C92.4121 24.5096 92.4594 24.577 92.4672 24.6494C92.5049 24.9976 92.5578 25.3472 92.5586 25.6963C92.5657 28.7511 92.5629 31.8059 92.5625 34.8607C92.5624 35.2461 92.4589 35.4237 92.1702 35.5445C92.1481 35.5395 92.1258 35.5345 92.1035 35.5295Z" fill="#6000E5"/>
<path fill-rule="evenodd" clip-rule="evenodd" d="M90.8189 21.6856C90.7244 21.6559 90.6205 21.6446 90.5373 21.5934C90.1791 21.3732 89.799 21.233 89.4077 21.0911C88.8213 20.8785 88.2381 20.8184 87.6357 20.8213C87.1083 20.8238 86.5767 20.7829 86.0554 20.8448C85.7847 20.877 85.4919 20.8872 85.2273 21.081C85.0248 21.2293 84.73 21.2185 84.4899 21.3178C84.2875 21.4016 84.1079 21.5486 83.9118 21.6536C83.845 21.6894 83.7589 21.6823 83.6816 21.6947C84.2485 21.2454 84.887 20.9697 85.5693 20.8341C87.0529 20.5391 88.5238 20.5799 89.9513 21.1616C90.2576 21.2864 90.5305 21.5084 90.8189 21.6856Z" fill="#6000E5"/>
<path fill-rule="evenodd" clip-rule="evenodd" d="M82.1172 34.2632C82.2663 34.3761 82.4125 34.4935 82.5651 34.6004C82.6848 34.6843 82.8117 34.7561 82.9366 34.8308C82.968 34.8496 83.0179 34.8479 83.036 34.8744C83.3357 35.3139 83.808 35.3857 84.2373 35.5464C84.7684 35.7452 85.3201 35.807 85.8764 35.7804C86.5404 35.7487 87.1964 35.6826 87.8429 35.4617C88.3489 35.2888 88.8023 35.043 89.228 34.7127C89.2767 34.6749 89.3499 34.6747 89.4118 34.657C88.9189 35.1309 88.3455 35.4462 87.7128 35.6137C86.493 35.9367 85.2677 36.0186 84.0504 35.5913C83.3851 35.3577 82.7931 34.98 82.2788 34.4621C82.2195 34.4023 82.1708 34.3298 82.1172 34.2632Z" fill="#6000E5"/>
<path fill-rule="evenodd" clip-rule="evenodd" d="M64.9001 21.8806C64.7818 21.9237 64.7219 21.8761 64.6243 21.7773C64.4646 21.6157 64.2425 21.526 64.0434 21.4127C63.9134 21.3388 63.783 21.2564 63.6435 21.2138C63.3267 21.1171 63.0198 20.9888 62.6997 20.897C62.0275 20.7044 61.3551 20.7012 60.6828 20.7399C60.194 20.768 59.6994 20.8487 59.24 21.083C58.894 21.2595 58.534 21.4033 58.1801 21.5617C58.167 21.5459 58.1538 21.5302 58.1406 21.5145C58.7109 21.0978 59.3469 20.8544 60.0162 20.7343C61.6375 20.4433 63.1846 20.65 64.6004 21.6283C64.7065 21.7016 64.8005 21.796 64.9001 21.8806Z" fill="#6000E5"/>
<path fill-rule="evenodd" clip-rule="evenodd" d="M39.0099 35.1934C39.0098 32.3837 39.0099 29.5741 39.0095 26.7645C39.0091 23.2278 39.0083 19.6911 39.0078 16.1544C39.0078 16.1218 39.0113 16.0893 39.0131 16.0566C39.028 16.1591 39.0559 16.2617 39.056 16.3642C39.0581 22.5384 39.0582 28.7126 39.056 34.8868C39.056 34.9891 39.0259 35.0912 39.0099 35.1934Z" fill="#6000E5"/>
<path fill-rule="evenodd" clip-rule="evenodd" d="M83.3088 28.0381C83.3328 28.0531 83.3567 28.0681 83.3806 28.0833C83.1707 28.2296 82.9514 28.3623 82.7528 28.5252C82.3444 28.8601 81.9677 29.2275 81.6882 29.7082C81.2454 30.4697 81.1353 31.3099 81.2345 32.1705C81.3148 32.866 81.574 33.5073 82.0315 34.0315C82.081 34.0882 82.0908 34.1859 82.1191 34.2646C81.3355 33.4264 81.0317 32.3994 81.1346 31.2246C81.2542 29.8607 81.9661 28.9224 82.994 28.2225C83.0948 28.1538 83.2037 28.0992 83.3088 28.0381Z" fill="#6000E5"/>
<path fill-rule="evenodd" clip-rule="evenodd" d="M63.9433 32.7941C63.836 32.8877 63.7371 32.9963 63.6202 33.0723C62.9276 33.5222 62.1721 33.7097 61.3707 33.6718C60.9711 33.6528 60.558 33.6665 60.1774 33.5568C59.7886 33.4449 59.4187 33.2254 59.0658 33.0049C58.7946 32.8353 58.5438 32.6118 58.3196 32.3727C58.179 32.2228 58.1043 31.9995 58 31.8091C58.0271 31.8101 58.0541 31.811 58.0813 31.812C58.9814 33.2073 60.2469 33.6776 61.7572 33.5597C62.5285 33.4995 63.244 33.2888 63.872 32.7808C63.8958 32.7852 63.9195 32.7897 63.9433 32.7941Z" fill="#6000E5"/>
<path fill-rule="evenodd" clip-rule="evenodd" d="M25.2422 33.0092C25.242 33.0361 25.2418 33.0631 25.2417 33.09C24.9868 33.2586 24.7203 33.3854 24.4379 33.5026C23.9349 33.7114 23.4327 33.6798 22.9284 33.6634C22.5432 33.6509 22.1651 33.5574 21.7912 33.4144C21.2796 33.2187 20.8594 32.896 20.5066 32.4708C20.3684 32.3042 20.311 32.058 20.2168 31.8481C20.492 32.3232 20.8153 32.744 21.2642 33.042C21.644 33.2942 22.0567 33.435 22.4896 33.5028C23.4529 33.6537 24.3848 33.5717 25.2422 33.0092Z" fill="#6000E5"/>
<path fill-rule="evenodd" clip-rule="evenodd" d="M66.9997 28.9686C67.0297 28.9029 67.0597 28.8373 67.0896 28.7716C67.1185 28.7709 67.1474 28.7702 67.1763 28.7695C67.0943 29.1609 66.8403 29.3781 66.4564 29.3789C65.6776 29.3803 64.899 29.379 64.1202 29.379C62.0386 29.3792 59.957 29.3794 57.8754 29.3797C57.7866 29.3797 57.6979 29.3797 57.5537 29.3797C57.5867 29.7773 57.6162 30.1502 57.6494 30.5228C57.6616 30.6591 57.683 30.7944 57.7002 30.9302C57.68 30.929 57.6599 30.9277 57.6397 30.9264C57.6388 30.8953 57.6378 30.8642 57.6369 30.8331C57.6085 30.7659 57.58 30.6986 57.5516 30.6314C57.5493 30.4692 57.5471 30.3071 57.5449 30.145C57.5453 29.8827 57.5456 29.6205 57.5459 29.3582L57.5484 29.3555C57.6681 29.3551 57.7878 29.3544 57.9076 29.3544C60.7211 29.3543 63.5347 29.355 66.3482 29.3504C66.4309 29.3503 66.5135 29.2942 66.5962 29.2643C66.6387 29.2618 66.6813 29.2594 66.7239 29.257C66.7557 29.2261 66.7874 29.1951 66.8192 29.1642C66.8492 29.1315 66.8792 29.0987 66.9092 29.066C66.9393 29.0335 66.9695 29.0011 66.9997 28.9686Z" fill="#6000E5"/>
<path fill-rule="evenodd" clip-rule="evenodd" d="M51.0711 15.9194C51.0406 16.1334 50.9845 16.3474 50.9838 16.5616C50.9772 18.4632 50.9816 20.3649 50.9764 22.2665C50.9762 22.3489 50.915 22.4311 50.8828 22.5135C50.8949 22.4102 50.9163 22.3068 50.9164 22.2034C50.9187 20.2553 50.9158 18.3073 50.9234 16.3593C50.924 16.1969 50.9908 16.0348 51.0269 15.8726C51.0416 15.8882 51.0563 15.9037 51.0711 15.9194Z" fill="#6000E5"/>
<path fill-rule="evenodd" clip-rule="evenodd" d="M76.2686 21.1192C76.1428 21.0863 76.0175 21.027 75.8913 21.0248C75.3304 21.0149 74.7676 20.9924 74.2088 21.0306C73.7384 21.0628 73.258 21.0899 72.8304 21.3742C72.6835 21.4719 72.4992 21.5028 72.332 21.5642C72.5548 21.4249 72.7635 21.2265 73.0032 21.1594C73.4479 21.0349 73.9083 20.9537 74.3664 20.9165C74.864 20.876 75.3665 20.8976 75.8664 20.9109C76.0011 20.9144 76.1343 20.9859 76.2682 21.0262C76.2683 21.0572 76.2685 21.0883 76.2686 21.1192Z" fill="#6000E5"/>
<path fill-rule="evenodd" clip-rule="evenodd" d="M67.0898 27.1502C67.1002 26.7059 66.9881 26.2794 66.9372 25.8468C66.8748 25.3159 66.6561 24.8557 66.5362 24.3554C66.4864 24.148 66.3395 23.9701 66.2502 23.7716C66.1626 23.5768 66.0918 23.3728 66.0137 23.1729C66.4164 23.7234 66.653 24.3628 66.8452 25.0254C67.1865 26.2025 67.2388 27.4146 67.2091 28.6363C67.2082 28.6669 67.1905 28.6971 67.1807 28.7275C67.1785 28.2874 67.1809 27.8472 67.1706 27.4073C67.1686 27.321 67.118 27.2359 67.0898 27.1502Z" fill="#6000E5"/>
<path fill-rule="evenodd" clip-rule="evenodd" d="M18.8516 34.2617C18.9022 34.2701 18.9661 34.2599 19.0015 34.2897C19.2771 34.5216 19.5271 34.7981 19.8239 34.9894C20.2118 35.2395 20.6254 35.4518 21.0465 35.6277C21.3817 35.7676 21.7446 35.8285 22.0952 35.9246C22.0853 35.94 22.0754 35.9554 22.0656 35.9708C20.8748 35.8212 19.8286 35.3287 18.9619 34.4127C18.9199 34.3682 18.8881 34.3123 18.8516 34.2617Z" fill="#6000E5"/>
<path fill-rule="evenodd" clip-rule="evenodd" d="M83.6846 21.6934C83.6294 21.7653 83.5847 21.8525 83.5174 21.9067C82.9052 22.4006 82.4157 23.0012 82.1738 23.8004C82.0845 24.0955 82.0123 24.4171 82.2723 24.6819C82.2938 24.7038 82.2874 24.7582 82.2939 24.7973C82.0906 24.7165 82.0123 24.529 82.02 24.3236C82.0286 24.0988 82.0582 23.8628 82.1335 23.6554C82.4411 22.8095 82.9495 22.1426 83.6846 21.6934Z" fill="#6000E5"/>
<path fill-rule="evenodd" clip-rule="evenodd" d="M8.41358 12.4009C8.33402 12.4132 8.25447 12.4362 8.17491 12.4362C5.58117 12.4381 2.98738 12.4383 0.393632 12.4362C0.307328 12.4361 0.221069 12.4099 0.134766 12.3959C0.194296 12.392 0.253827 12.3847 0.313358 12.3847C2.93163 12.3841 5.54994 12.3841 8.16825 12.385C8.25001 12.385 8.33182 12.3953 8.41358 12.4009Z" fill="#6000E5"/>
<path fill-rule="evenodd" clip-rule="evenodd" d="M22.0664 35.971C22.0762 35.9556 22.0861 35.9402 22.0959 35.9248C22.5682 35.9258 23.0418 35.9523 23.5122 35.9209C24.0293 35.8865 24.5333 35.7504 25.0112 35.5241C25.1827 35.4429 25.3441 35.3365 25.5101 35.2417C25.5211 35.257 25.5321 35.2724 25.5432 35.2877C25.0922 35.6487 24.576 35.8337 24.0322 35.9296C23.3799 36.0448 22.7238 36.0752 22.0664 35.971Z" fill="#6000E5"/>
<path fill-rule="evenodd" clip-rule="evenodd" d="M66.6936 32.8466C66.7484 32.5439 66.7997 32.2271 66.5182 32.0283C66.3649 31.92 66.1703 31.8293 65.9925 31.8251C65.6523 31.8171 65.3061 31.8499 64.9717 31.9189C64.7965 31.9549 64.6409 32.1035 64.4766 32.2013C64.6539 31.9267 64.8928 31.7603 65.2031 31.7497C65.523 31.7387 65.8443 31.7331 66.1636 31.753C66.6838 31.7855 66.9559 32.2698 66.7584 32.7883C66.749 32.8133 66.7158 32.8274 66.6936 32.8466Z" fill="#6000E5"/>
<path fill-rule="evenodd" clip-rule="evenodd" d="M89.4102 34.6582C89.4411 34.5857 89.4579 34.4985 89.5056 34.4434C89.6404 34.2881 89.7888 34.1471 89.9292 33.9975C89.9488 33.9766 89.9455 33.9289 89.9657 33.9106C90.0535 33.8314 90.146 33.7584 90.2368 33.6831C90.2618 33.7919 90.3012 33.8994 90.3085 34.0096C90.3203 34.1872 90.3134 34.3665 90.3099 34.545C90.3047 34.8028 90.2934 35.0598 90.4628 35.2759C90.4763 35.2931 90.4429 35.354 90.4312 35.3945C90.2548 35.2849 90.2388 35.0968 90.2369 34.9068C90.2334 34.5502 90.2359 34.1935 90.2359 33.8238C89.9482 34.1146 89.6792 34.3864 89.4102 34.6582Z" fill="#6000E5"/>
<path fill-rule="evenodd" clip-rule="evenodd" d="M86.258 22.6914C86.5084 22.6584 86.7613 22.5833 87.0086 22.6014C87.4942 22.6369 87.9767 22.7241 88.4605 22.7899C88.4637 22.8182 88.4669 22.8465 88.4701 22.8748L88.4636 22.8822C87.6075 22.6781 86.7513 22.6513 85.8952 22.8824L85.8887 22.875C85.8918 22.8465 85.8951 22.818 85.8983 22.7895C85.9559 22.7869 86.0135 22.7843 86.0711 22.7817C86.1335 22.7516 86.1958 22.7215 86.258 22.6914Z" fill="#6000E5"/>
<path fill-rule="evenodd" clip-rule="evenodd" d="M51.0696 15.9189C51.0548 15.9033 51.0401 15.8877 51.0254 15.8721C51.1508 15.6026 51.367 15.4944 51.6294 15.4867C51.9062 15.4786 52.1836 15.493 52.4603 15.4832C52.7675 15.4724 53.0157 15.5734 53.1761 15.874L53.1546 15.8734L53.1331 15.8736C52.9202 15.6036 52.6142 15.6059 52.3333 15.5854C52.0381 15.5639 51.7343 15.5839 51.4432 15.6404C51.3077 15.6666 51.1934 15.822 51.0696 15.9189Z" fill="#6000E5"/>
<path fill-rule="evenodd" clip-rule="evenodd" d="M31.6347 15.7891C31.4622 16.4122 31.5777 17.0526 31.5377 17.6834C31.5182 17.9903 31.5874 18.2407 31.8155 18.4323C31.8548 18.4653 31.8794 18.519 31.9107 18.5631C31.8946 18.565 31.8785 18.5669 31.8625 18.5687C31.5874 18.4477 31.4697 18.2022 31.463 17.9023C31.4507 17.3495 31.4474 16.7957 31.4679 16.2435C31.4737 16.0898 31.5764 15.9405 31.6347 15.7891Z" fill="#6000E5"/>
<path fill-rule="evenodd" clip-rule="evenodd" d="M95.1621 21.2138C95.2713 21.0217 95.4407 20.9551 95.6358 20.9536C96.015 20.9506 96.3943 20.9483 96.7734 20.9551C97.1107 20.9612 97.2986 21.1432 97.3696 21.5129C97.3696 21.5129 97.3543 21.5178 97.3544 21.5178C97.3458 21.5147 97.3367 21.513 97.3274 21.5128C97.2402 21.277 97.1052 21.0861 96.8641 21.0424C96.704 21.0133 96.5367 21.0123 96.374 21.0235C95.9922 21.05 95.5841 20.9032 95.2418 21.2144C95.228 21.227 95.1982 21.2186 95.1758 21.2198L95.1621 21.2138Z" fill="#6000E5"/>
<path fill-rule="evenodd" clip-rule="evenodd" d="M10.168 12.6846C10.1769 12.6703 10.1859 12.656 10.1948 12.6416C10.9758 12.8156 11.6949 13.1487 12.3528 13.639C12.3439 13.6471 12.3355 13.6556 12.3275 13.6648C12.2856 13.6528 12.2382 13.6509 12.2025 13.6275C11.7134 13.3074 11.2051 13.0364 10.6523 12.8702C10.4877 12.8207 10.3292 12.7472 10.168 12.6846Z" fill="#6000E5"/>
<path fill-rule="evenodd" clip-rule="evenodd" d="M25.5428 35.2875C25.5318 35.2721 25.5208 35.2568 25.5098 35.2415C25.799 34.9782 26.0962 34.7242 26.3742 34.4474C26.5041 34.318 26.5971 34.1444 26.7068 33.9907C26.7312 33.9942 26.7555 33.9977 26.7798 34.0012C26.8059 34.0882 26.8319 34.1752 26.858 34.2621C26.8299 34.2935 26.8018 34.3248 26.7736 34.3561C26.7605 34.3126 26.7473 34.2691 26.739 34.2417C26.3347 34.5952 25.9388 34.9413 25.5428 35.2875Z" fill="#6000E5"/>
<path fill-rule="evenodd" clip-rule="evenodd" d="M31.8613 18.5691C31.8773 18.5672 31.8934 18.5653 31.9095 18.5635C32.5866 18.5672 33.2637 18.5709 33.9408 18.5747C33.8353 18.605 33.7302 18.6595 33.6243 18.6616C33.1492 18.6709 32.6738 18.6714 32.1988 18.6609C32.0857 18.6584 31.9738 18.6011 31.8613 18.5691Z" fill="#6000E5"/>
<path fill-rule="evenodd" clip-rule="evenodd" d="M41.6189 24.5523C41.6047 24.5222 41.5904 24.492 41.5762 24.4619C41.7992 24.032 42.0223 23.6022 42.2454 23.1724C42.2727 23.3361 42.191 23.426 42.0997 23.5527C41.9337 23.7834 41.8376 24.074 41.7131 24.34C41.6803 24.41 41.6503 24.4815 41.6189 24.5523Z" fill="#6000E5"/>
<path fill-rule="evenodd" clip-rule="evenodd" d="M92.293 24.0545C92.173 23.7837 92.0613 23.5079 91.9303 23.2434C91.8329 23.0467 91.7069 22.8671 91.602 22.6744C91.5742 22.6233 91.5774 22.5522 91.5664 22.4902C91.9136 22.9538 92.2019 23.4497 92.293 24.0545Z" fill="#6000E5"/>
<path fill-rule="evenodd" clip-rule="evenodd" d="M58.1413 21.5142C58.1544 21.5299 58.1676 21.5456 58.1808 21.5613C57.842 21.8635 57.5042 22.1672 57.1625 22.4655C57.1336 22.4906 57.0782 22.4796 57.0352 22.4854C57.4039 22.1617 57.7726 21.8379 58.1413 21.5142Z" fill="#6000E5"/>
<path fill-rule="evenodd" clip-rule="evenodd" d="M76.3594 23.1246C76.6897 22.6453 76.4876 22.0933 76.5311 21.5754C76.541 21.4587 76.4795 21.3349 76.4509 21.2144C76.4676 21.2293 76.4893 21.2408 76.5005 21.2597C76.7078 21.6084 76.6748 22.751 76.4458 23.0824C76.4292 23.1065 76.3888 23.111 76.3594 23.1246Z" fill="#6000E5"/>
<path fill-rule="evenodd" clip-rule="evenodd" d="M84.3848 24.0263C84.4042 23.9636 84.4092 23.8879 84.4453 23.8403C84.7224 23.4765 85.0605 23.1951 85.4488 22.9849C85.4482 23.0159 85.4476 23.0469 85.447 23.0778C85.0929 23.394 84.7388 23.7102 84.3848 24.0263Z" fill="#6000E5"/>
<path fill-rule="evenodd" clip-rule="evenodd" d="M94.8984 15.8145C94.8992 16.4856 94.8999 17.1567 94.9006 17.8279C94.8999 17.1567 94.8992 16.4855 94.8984 15.8145Z" fill="#6000E5"/>
<path fill-rule="evenodd" clip-rule="evenodd" d="M65.8415 22.9234C65.7299 22.8385 65.6039 22.769 65.5095 22.6653C65.3018 22.4371 65.1095 22.192 64.9128 21.952C64.9005 21.9369 64.9042 21.9063 64.9004 21.8828C65.2142 22.2297 65.5278 22.5766 65.8415 22.9234Z" fill="#6000E5"/>
<path fill-rule="evenodd" clip-rule="evenodd" d="M82.332 24.8052C82.829 24.8167 83.326 24.8284 83.823 24.84C83.8263 24.8552 83.828 24.8705 83.8279 24.8861C83.3652 24.8943 82.9025 24.9049 82.4398 24.9061C82.4039 24.9063 82.3679 24.8404 82.332 24.8052Z" fill="#6000E5"/>
<path fill-rule="evenodd" clip-rule="evenodd" d="M67.0903 27.1504C67.1186 27.2361 67.1692 27.3211 67.1712 27.4075C67.1815 27.8474 67.1791 28.2876 67.1812 28.7277C67.1874 28.7426 67.1859 28.7565 67.1766 28.7694C67.1477 28.7701 67.1188 28.7707 67.0898 28.7715C67.09 28.2311 67.0902 27.6908 67.0903 27.1504Z" fill="#6000E5"/>
<path fill-rule="evenodd" clip-rule="evenodd" d="M65.6367 34.5041C65.6518 34.4597 65.6571 34.406 65.6836 34.3722C65.9099 34.0843 66.1391 33.799 66.3704 33.5158C66.3969 33.4834 66.4416 33.4687 66.478 33.4458C66.2725 33.8694 66.0028 34.2322 65.6367 34.5041Z" fill="#6000E5"/>
<path fill-rule="evenodd" clip-rule="evenodd" d="M92.1011 35.5298C92.1233 35.5348 92.1456 35.5398 92.1678 35.5448C91.8819 35.5627 91.596 35.5933 91.31 35.5947C91.0766 35.5957 90.8429 35.5617 90.6094 35.5433C91.1066 35.5388 91.6039 35.5342 92.1011 35.5298Z" fill="#6000E5"/>
<path fill-rule="evenodd" clip-rule="evenodd" d="M26.7734 34.3562C26.8016 34.3249 26.8297 34.2936 26.8578 34.2622C26.8589 34.507 26.8595 34.7517 26.8615 34.9965C26.8634 35.2289 26.9405 35.4176 27.1319 35.538C27.1324 35.5692 27.1329 35.6004 27.1333 35.6316C26.8775 35.4854 26.7677 35.2491 26.7747 34.9407C26.7745 34.9131 26.7743 34.8855 26.7742 34.8579C26.7739 34.6906 26.7737 34.5235 26.7734 34.3562Z" fill="#6000E5"/>
<path fill-rule="evenodd" clip-rule="evenodd" d="M43.0664 34.4803C43.0805 34.4716 43.0946 34.4629 43.1087 34.4541C43.3665 34.6672 43.6244 34.8804 43.882 35.0935C43.7265 34.9989 43.5642 34.9154 43.4178 34.8066C43.2913 34.7127 43.1829 34.5902 43.0664 34.4803Z" fill="#6000E5"/>
<path fill-rule="evenodd" clip-rule="evenodd" d="M91.5671 22.4923C91.5055 22.4545 91.4338 22.4282 91.3843 22.3766C91.2414 22.2278 91.1051 22.0712 90.971 21.9126C90.9128 21.8437 90.8663 21.763 90.8145 21.6875C91.0654 21.9557 91.3163 22.224 91.5671 22.4923Z" fill="#6000E5"/>
<path fill-rule="evenodd" clip-rule="evenodd" d="M42.8402 22.3965C42.856 22.3974 42.8719 22.3983 42.8878 22.3992C42.7401 22.7239 42.5256 22.9828 42.2441 23.1758C42.4428 22.916 42.6415 22.6563 42.8402 22.3965Z" fill="#6000E5"/>
<path fill-rule="evenodd" clip-rule="evenodd" d="M83.8292 24.885C83.8293 24.8695 83.8276 24.8541 83.8242 24.8389C83.9503 24.5945 84.0709 24.3463 84.2073 24.1089C84.2354 24.0599 84.3221 24.0509 84.3817 24.0234C84.26 24.2588 84.1441 24.4981 84.0129 24.7269C83.9739 24.7948 83.8916 24.8331 83.8292 24.885Z" fill="#6000E5"/>
<path fill-rule="evenodd" clip-rule="evenodd" d="M76.1049 23.3235C75.5125 23.3233 74.92 23.3246 74.3276 23.3213C74.2561 23.3209 74.1847 23.296 74.1133 23.2826C74.7234 23.2805 75.3335 23.2801 75.9436 23.2744C76.03 23.2735 76.1163 23.2464 76.2025 23.2314C76.1699 23.2621 76.1374 23.2928 76.1049 23.3235Z" fill="#6000E5"/>
<path fill-rule="evenodd" clip-rule="evenodd" d="M88.8699 22.9808C89.0998 23.0323 89.3058 23.1211 89.399 23.3852C89.0869 23.2178 88.7749 23.0505 88.4629 22.8832L88.4693 22.8759C88.4693 22.876 88.4903 22.8784 88.4903 22.8784L88.5112 22.875C88.5841 22.8797 88.657 22.8843 88.7299 22.8889C88.7766 22.9195 88.8232 22.9501 88.8699 22.9808Z" fill="#6000E5"/>
<path fill-rule="evenodd" clip-rule="evenodd" d="M64.8906 35.0614C64.9172 34.9389 64.9466 34.8298 65.102 34.8425C65.148 34.8463 65.1981 34.7806 65.2474 34.7486C65.3708 34.6685 65.4948 34.5894 65.6186 34.5098C65.376 34.6936 65.1333 34.8775 64.8906 35.0614Z" fill="#6000E5"/>
<path fill-rule="evenodd" clip-rule="evenodd" d="M58.0804 31.8129C58.0532 31.8119 58.0262 31.811 57.9991 31.8099C57.9387 31.6803 57.8784 31.5507 57.8181 31.421C57.7895 31.3868 57.7609 31.3525 57.7323 31.3182C57.7297 31.255 57.7272 31.192 57.7246 31.1288C57.7282 31.0766 57.7318 31.0243 57.7354 30.9722C57.8503 31.2524 57.9653 31.5327 58.0804 31.8129Z" fill="#6000E5"/>
<path fill-rule="evenodd" clip-rule="evenodd" d="M89.677 23.5722C89.7519 23.6714 89.8267 23.7707 89.9015 23.8698C89.917 23.9012 89.9324 23.9326 89.9479 23.964C89.95 23.9938 89.9521 24.0237 89.9541 24.0535C89.9547 24.0862 89.9551 24.1189 89.9556 24.1516L89.9472 24.1604C89.7649 23.9015 89.5826 23.6424 89.4004 23.3834C89.4326 23.3812 89.4647 23.3791 89.4969 23.377C89.5271 23.4087 89.5573 23.4405 89.5875 23.4722L89.5888 23.4737C89.6182 23.5066 89.6476 23.5394 89.677 23.5722Z" fill="#6000E5"/>
<path fill-rule="evenodd" clip-rule="evenodd" d="M63.9442 32.795C63.9205 32.7906 63.8968 32.7861 63.873 32.7817C64.075 32.5877 64.2771 32.3937 64.4792 32.1997C64.3555 32.3581 64.2352 32.5196 64.1065 32.6728C64.0632 32.7244 63.9989 32.7549 63.9442 32.795Z" fill="#6000E5"/>
<path fill-rule="evenodd" clip-rule="evenodd" d="M64.5124 35.2879C64.5011 35.2727 64.4898 35.2576 64.4785 35.2424C64.6139 35.1707 64.706 34.9814 64.8966 35.0596C64.7686 35.1357 64.6405 35.2118 64.5124 35.2879Z" fill="#6000E5"/>
<path fill-rule="evenodd" clip-rule="evenodd" d="M66.4805 33.4439C66.5352 33.2948 66.5899 33.1457 66.6445 32.9966C66.5898 33.1457 66.5351 33.2949 66.4805 33.4439Z" fill="#6000E5"/>
<path fill-rule="evenodd" clip-rule="evenodd" d="M31.8066 35.2949C31.9231 35.394 32.0399 35.4928 32.1545 35.5945C32.1574 35.5971 32.1362 35.6321 32.1263 35.6522C32.0198 35.5332 31.9132 35.414 31.8066 35.2949Z" fill="#6000E5"/>
<path fill-rule="evenodd" clip-rule="evenodd" d="M39.0066 16.0266C38.9892 16.0415 38.9719 16.0564 38.9545 16.0713C38.9065 15.95 38.8585 15.8288 38.8105 15.7075C38.8759 15.8138 38.9413 15.9203 39.0066 16.0266Z" fill="#6000E5"/>
<path fill-rule="evenodd" clip-rule="evenodd" d="M69.4492 35.6456C69.4746 35.6402 69.5001 35.6348 69.5256 35.6294C69.5834 35.6313 69.6412 35.6332 69.699 35.6351C69.7275 35.6669 69.7561 35.6988 69.7845 35.7307C69.6728 35.7023 69.561 35.6739 69.4492 35.6456Z" fill="#6000E5"/>
<path fill-rule="evenodd" clip-rule="evenodd" d="M66.0157 23.1735C65.9011 23.1361 65.8119 23.0783 65.8448 22.9219C65.9019 23.0057 65.9588 23.0896 66.0157 23.1735Z" fill="#6000E5"/>
<path fill-rule="evenodd" clip-rule="evenodd" d="M69.7848 35.7308C69.7562 35.699 69.7277 35.6671 69.6992 35.6353C69.7896 35.6359 69.88 35.6365 69.9703 35.6372C69.9418 35.6687 69.9133 35.7001 69.8849 35.7316C69.8515 35.7313 69.8181 35.7311 69.7848 35.7308Z" fill="#6000E5"/>
<path fill-rule="evenodd" clip-rule="evenodd" d="M85.6301 22.8886C85.6584 22.8865 85.6867 22.8845 85.715 22.8824C85.7735 22.8803 85.832 22.8781 85.8905 22.876L85.8971 22.8834C85.8077 22.9173 85.7183 22.9513 85.6289 22.9851C85.6294 22.953 85.6298 22.9208 85.6301 22.8886Z" fill="#6000E5"/>
<path fill-rule="evenodd" clip-rule="evenodd" d="M57.7358 30.9714C57.7322 31.0236 57.7286 31.0758 57.725 31.128C57.6968 31.0606 57.6687 30.9932 57.6406 30.9258C57.6608 30.927 57.6809 30.9283 57.7011 30.9296C57.7126 30.9435 57.7242 30.9575 57.7358 30.9714Z" fill="#6000E5"/>
<path fill-rule="evenodd" clip-rule="evenodd" d="M85.4453 23.0779C85.4459 23.0469 85.4465 23.0159 85.4471 22.9849C85.4751 22.9831 85.5032 22.9813 85.5313 22.9795C85.5553 22.9849 85.5793 22.9903 85.6033 22.9957C85.5506 23.0231 85.4979 23.0505 85.4453 23.0779Z" fill="#6000E5"/>
<path fill-rule="evenodd" clip-rule="evenodd" d="M85.6059 22.9965C85.5817 22.9911 85.5575 22.9856 85.5332 22.9802C85.5655 22.9495 85.5979 22.9188 85.6304 22.8882C85.6299 22.9207 85.6295 22.9532 85.6291 22.9857L85.6201 22.9976L85.6059 22.9965Z" fill="#6000E5"/>
<path fill-rule="evenodd" clip-rule="evenodd" d="M76.2661 21.1202C76.2659 21.089 76.2658 21.0576 76.2656 21.0264C76.2999 21.0538 76.3341 21.0811 76.3683 21.1086L76.3538 21.1251C76.3251 21.124 76.2965 21.1229 76.2678 21.1217L76.2661 21.1202Z" fill="#6000E5"/>
<path fill-rule="evenodd" clip-rule="evenodd" d="M76.452 21.2157C76.4214 21.2163 76.3907 21.2169 76.3601 21.2176C76.3579 21.1865 76.3557 21.1555 76.3535 21.1245L76.368 21.1079C76.3961 21.1438 76.424 21.1797 76.452 21.2157Z" fill="#6000E5"/>
<path fill-rule="evenodd" clip-rule="evenodd" d="M9.17709 12.4563C9.14213 12.4597 9.10718 12.463 9.07227 12.4664C9.08103 12.459 9.08984 12.4517 9.09846 12.4443C9.12457 12.4483 9.15081 12.4524 9.17709 12.4563Z" fill="#6000E5"/>
<path fill-rule="evenodd" clip-rule="evenodd" d="M33.5192 20.9349C33.4874 20.944 33.4557 20.9531 33.4238 20.9622C33.4276 20.9496 33.4313 20.9369 33.4351 20.9243C33.4632 20.9278 33.4912 20.9313 33.5192 20.9349Z" fill="#6000E5"/>
<path fill-rule="evenodd" clip-rule="evenodd" d="M72.3076 21.5812C72.3013 21.5925 72.2925 21.6004 72.2812 21.6049C72.2826 21.5878 72.2914 21.5799 72.3076 21.5812Z" fill="#6000E5"/>
<path fill-rule="evenodd" clip-rule="evenodd" d="M12.3718 13.6586C12.372 13.6773 12.3721 13.696 12.3723 13.7148C12.3575 13.6982 12.3428 13.6817 12.3281 13.6652C12.3361 13.6559 12.3446 13.6473 12.3536 13.6392C12.3646 13.6401 12.3707 13.6466 12.3718 13.6586Z" fill="#6000E5"/>
<path fill-rule="evenodd" clip-rule="evenodd" d="M49.7484 32.5655C50.257 32.0007 50.6385 31.3515 50.78 30.5683C50.8593 30.1296 50.9093 29.6792 50.9211 29.2325C50.949 28.1715 50.9951 27.1037 50.7518 26.0619C50.4214 24.6469 49.6585 23.589 48.3432 23.2284C47.0952 22.8861 45.8433 22.9929 44.7875 23.9463C44.5105 24.1963 44.2985 24.5318 44.0566 24.8281C44.1061 24.6985 44.1298 24.5445 44.2099 24.4441C44.4349 24.1625 44.654 23.8574 44.9304 23.6475C45.2072 23.4372 45.542 23.3035 45.8662 23.1843C46.558 22.9299 47.2846 22.931 47.9948 23.0031C48.5125 23.0556 48.9907 23.3088 49.4208 23.6678C49.6589 23.8664 49.8572 24.083 50.055 24.3257C50.4145 24.7669 50.6348 25.2685 50.8026 25.8172C50.9477 26.2912 50.9833 26.772 50.9874 27.2662C50.9908 27.6875 51.0653 28.1085 51.0617 28.5291C51.0571 29.0731 51.0454 29.6235 50.9646 30.1583C50.8781 30.7315 50.7204 31.2913 50.4286 31.7973C50.2871 32.0427 50.1417 32.2801 49.9536 32.4823C49.9062 32.5332 49.8179 32.5389 49.7484 32.5655Z" fill="#6000E5"/>
<path fill-rule="evenodd" clip-rule="evenodd" d="M44.0553 24.8364C43.1768 26.6232 43.2274 28.5153 43.5574 30.424C43.7108 31.3114 44.1239 32.0817 44.7451 32.6831C45.3413 33.2602 46.0733 33.5137 46.8644 33.5591C47.8606 33.6162 48.7859 33.4038 49.5747 32.6884C49.6254 32.6424 49.6869 32.6106 49.7433 32.5721C49.7114 32.6409 49.6959 32.7337 49.6452 32.7745C49.396 32.9746 49.1473 33.1797 48.8788 33.3452C48.7051 33.4523 48.5011 33.5383 48.3045 33.5571C47.7052 33.6147 47.0942 33.7192 46.5039 33.6476C45.8522 33.5685 45.2305 33.2866 44.7207 32.7904C44.5559 32.63 44.3747 32.4885 44.2191 32.3186C44.1526 32.246 44.1336 32.1222 44.0911 32.0226C43.8724 31.5086 43.6444 30.9988 43.4388 30.4786C43.3736 30.3134 43.3519 30.122 43.3373 29.94C43.2982 29.4549 43.2482 28.9684 43.2501 28.4826C43.2523 27.8985 43.261 27.3072 43.3451 26.7326C43.4355 26.1152 43.5954 25.5051 43.8966 24.9579C43.9269 24.9026 44.0014 24.8762 44.0553 24.8364Z" fill="#6000E5"/>
<path fill-rule="evenodd" clip-rule="evenodd" d="M53.2303 16.2153C53.2447 16.3003 53.2716 16.3852 53.2717 16.4702C53.2736 22.5964 53.2735 28.7227 53.2732 34.849C53.2732 34.9134 53.2687 34.9778 53.2651 35.0421C53.2649 35.0466 53.2552 35.0535 53.2496 35.0539C53.2428 35.0543 53.2356 35.049 53.2285 35.0463C53.2291 28.7693 53.2297 22.4923 53.2303 16.2153Z" fill="#6000E5"/>
<path fill-rule="evenodd" clip-rule="evenodd" d="M58.0783 24.8434C58.1826 24.4501 58.4418 24.1816 58.7207 23.9416C59.2214 23.5111 59.7727 23.204 60.4117 23.0649C60.9343 22.9511 61.4396 22.994 61.96 23.0479C62.5414 23.1083 63.0397 23.374 63.517 23.6908C63.7498 23.8453 63.9193 24.1099 64.1277 24.3122C64.4704 24.645 64.6246 25.0816 64.7609 25.5434C64.8827 25.956 64.954 26.3683 64.9255 26.7986C64.9206 26.8725 64.8674 26.9427 64.8365 27.0146C64.5783 27.0124 64.32 27.0086 64.0618 27.0086C61.9799 27.008 59.8982 27.0075 57.8164 27.0121C57.7571 27.0122 57.6979 27.0696 57.6386 27.1003C57.6262 27.1264 57.6137 27.1524 57.5776 27.2282C57.5633 27.1252 57.555 27.0658 57.5467 27.0064C57.5195 26.9724 57.4921 26.9385 57.4648 26.9046C57.4778 26.8725 57.4907 26.8405 57.5036 26.8084C57.5172 26.7089 57.5308 26.6093 57.5442 26.5098C57.5766 26.2666 57.6089 26.0234 57.6411 25.7802C57.6586 25.781 57.6761 25.7818 57.6936 25.7826C57.6472 26.1699 57.6008 26.5572 57.5526 26.9597C60.0133 26.9597 62.4227 26.9597 64.8326 26.9597C64.8421 26.9225 64.8526 26.8998 64.8529 26.877C64.8763 25.4553 64.2837 24.1566 63.0204 23.4928C61.2833 22.5801 59.3341 23.1207 58.0955 24.853L58.0783 24.8434Z" fill="#6000E5"/>
<path fill-rule="evenodd" clip-rule="evenodd" d="M66.5966 29.2637C66.5139 29.2937 66.4313 29.3497 66.3486 29.3498C63.5351 29.3544 60.7215 29.3537 57.908 29.3538C57.7883 29.3538 57.6686 29.3546 57.5488 29.355C57.6302 29.3234 57.7115 29.2646 57.793 29.2645C60.211 29.2595 62.629 29.2602 65.047 29.2604C65.5636 29.2605 66.0801 29.2625 66.5966 29.2637Z" fill="#6000E5"/>
<path fill-rule="evenodd" clip-rule="evenodd" d="M57.6387 27.1004C57.6979 27.0697 57.7571 27.0123 57.8165 27.0121C59.8982 27.0075 61.98 27.0081 64.0618 27.0087C64.3201 27.0087 64.5783 27.0125 64.8366 27.0146C64.7689 27.0439 64.7013 27.0985 64.6336 27.0986C62.3019 27.1024 59.9703 27.101 57.6387 27.1004Z" fill="#6000E5"/>
<path fill-rule="evenodd" clip-rule="evenodd" d="M57.5452 29.3574C57.5448 29.6197 57.5445 29.8819 57.5442 30.1442C57.4197 29.9189 57.4203 29.4936 57.5452 29.3574Z" fill="#6000E5"/>
<path fill-rule="evenodd" clip-rule="evenodd" d="M57.6931 25.7829C57.6756 25.7821 57.6581 25.7813 57.6406 25.7804C57.7143 25.5991 57.7879 25.4177 57.8615 25.2363C57.8725 25.2469 57.8835 25.2573 57.8946 25.2677C57.8275 25.4394 57.7603 25.6112 57.6931 25.7829Z" fill="#6000E5"/>
<path fill-rule="evenodd" clip-rule="evenodd" d="M57.9053 25.1858C57.8977 25.0322 57.9326 24.9041 58.0789 24.8433C58.0788 24.8433 58.0961 24.8529 58.0961 24.8529C58.0377 24.9687 57.9793 25.0845 57.9209 25.2003L57.9053 25.1858Z" fill="#6000E5"/>
<path fill-rule="evenodd" clip-rule="evenodd" d="M57.5527 30.6313C57.5812 30.6986 57.6097 30.7658 57.638 30.8331C57.6096 30.7658 57.5811 30.6986 57.5527 30.6313Z" fill="#6000E5"/>
<path fill-rule="evenodd" clip-rule="evenodd" d="M57.5445 26.5103C57.531 26.6098 57.5175 26.7094 57.5039 26.8089C57.5174 26.7093 57.5309 26.6098 57.5445 26.5103Z" fill="#6000E5"/>
<path fill-rule="evenodd" clip-rule="evenodd" d="M67.0015 28.9692C66.971 29.0019 66.9406 29.0347 66.9102 29.0674C66.9406 29.0347 66.971 29.002 67.0015 28.9692Z" fill="#6000E5"/>
<path fill-rule="evenodd" clip-rule="evenodd" d="M57.4648 26.9048C57.4924 26.939 57.52 26.9733 57.5475 27.0075C57.5199 26.9732 57.4924 26.939 57.4648 26.9048Z" fill="#6000E5"/>
<path fill-rule="evenodd" clip-rule="evenodd" d="M66.8207 29.1641C66.7887 29.1952 66.7567 29.2265 66.7246 29.2576C66.7566 29.2264 66.7887 29.1952 66.8207 29.1641Z" fill="#6000E5"/>
<path fill-rule="evenodd" clip-rule="evenodd" d="M57.8633 25.2362C57.8776 25.2193 57.892 25.2024 57.9063 25.1855L57.9221 25.2001C57.9136 25.2227 57.9052 25.2452 57.8967 25.2678C57.8856 25.2573 57.8744 25.2468 57.8633 25.2362Z" fill="#6000E5"/>
<path fill-rule="evenodd" clip-rule="evenodd" d="M88.0001 33.4772C88.5626 33.1577 89.0982 32.786 89.4289 32.1819C89.6632 31.7539 89.8604 31.2895 90.0017 30.8157C90.2386 30.0218 90.2058 29.1903 90.1885 28.3517C90.151 28.3471 90.1231 28.3373 90.0971 28.3416C88.7949 28.5586 87.4894 28.7554 86.1922 29.0033C85.4671 29.1418 84.7683 29.4036 84.1686 29.8975C83.0735 30.7994 83.1234 32.4363 84.2904 33.2241C85.3837 33.9622 86.5582 33.9656 87.7563 33.566C87.8276 33.5422 87.8977 33.5146 87.9684 33.4888C87.8674 33.7526 87.6159 33.6991 87.4344 33.7619C86.9405 33.9329 86.4294 33.9192 85.9114 33.8891C85.4608 33.8628 85.0374 33.7539 84.6352 33.5668C84.0988 33.3171 83.6492 32.9232 83.4406 32.3089C83.23 31.6884 83.1652 31.049 83.5658 30.4726C83.7485 30.2098 83.9383 29.9361 84.1755 29.7399C84.4221 29.5358 84.7199 29.3906 85.0132 29.2719C85.3549 29.1337 85.7128 29.0362 86.0694 28.9501C86.517 28.8419 86.9699 28.7582 87.4219 28.6727C87.9444 28.574 88.4681 28.4813 88.9922 28.393C89.2629 28.3474 89.5355 28.3159 89.8075 28.2803C89.8668 28.2726 89.9286 28.283 89.9866 28.2704C90.2826 28.206 90.2913 28.2256 90.3074 28.5632C90.3425 29.2998 90.2686 30.0249 90.1227 30.7407C89.9483 31.596 89.5853 32.3424 88.966 32.9176C88.7592 33.1097 88.5348 33.2826 88.304 33.4389C88.2256 33.4918 88.1027 33.4666 88.0001 33.4772Z" fill="#6000E5"/>
<path fill-rule="evenodd" clip-rule="evenodd" d="M90.127 26.5134C90.1577 26.42 90.2124 26.3273 90.2149 26.2329C90.2253 25.8351 90.2201 25.4368 90.2207 25.0386C90.2492 25.1273 90.2997 25.2152 90.3023 25.3048C90.3122 25.6444 90.3007 25.9846 90.3092 26.3242C90.3131 26.4771 90.2587 26.5314 90.127 26.5134Z" fill="#6000E5"/>
<path fill-rule="evenodd" clip-rule="evenodd" d="M90.2151 24.7493C90.187 24.6817 90.1589 24.6141 90.1309 24.5464C90.1589 24.614 90.187 24.6816 90.2151 24.7493Z" fill="#6000E5"/>
<path fill-rule="evenodd" clip-rule="evenodd" d="M86.2592 22.6919C86.1969 22.722 86.1346 22.7521 86.0723 22.7822C86.1345 22.7521 86.1969 22.722 86.2592 22.6919Z" fill="#6000E5"/>
<path fill-rule="evenodd" clip-rule="evenodd" d="M85.8884 22.8751C85.8299 22.8772 85.7714 22.8794 85.7129 22.8815C85.7745 22.8509 85.8363 22.8202 85.898 22.7896C85.8948 22.8181 85.8916 22.8466 85.8884 22.8751Z" fill="#6000E5"/>
<path fill-rule="evenodd" clip-rule="evenodd" d="M88.8705 22.9801C88.8238 22.9494 88.7772 22.9188 88.7305 22.8882C88.7771 22.9188 88.8238 22.9494 88.8705 22.9801Z" fill="#6000E5"/>
<path fill-rule="evenodd" clip-rule="evenodd" d="M90.1224 24.3588C90.0953 24.3235 90.0682 24.2883 90.041 24.2529C90.0682 24.2882 90.0953 24.3235 90.1224 24.3588Z" fill="#6000E5"/>
<path fill-rule="evenodd" clip-rule="evenodd" d="M89.9547 24.1521C89.9541 24.1192 89.9537 24.0862 89.9531 24.0532C89.981 24.0892 90.0087 24.1252 90.0365 24.1613C90.0092 24.1582 89.9819 24.1552 89.9547 24.1521Z" fill="#6000E5"/>
<path fill-rule="evenodd" clip-rule="evenodd" d="M88.5128 22.8749L88.4918 22.8784C88.4918 22.8784 88.4706 22.8759 88.4706 22.8758C88.4674 22.8472 88.4642 22.8186 88.4609 22.79C88.4783 22.8183 88.4955 22.8466 88.5128 22.8749Z" fill="#6000E5"/>
<path fill-rule="evenodd" clip-rule="evenodd" d="M89.9472 23.9652C89.9316 23.9335 89.916 23.9018 89.9004 23.8701C89.916 23.9018 89.9316 23.9336 89.9472 23.9652Z" fill="#6000E5"/>
<path fill-rule="evenodd" clip-rule="evenodd" d="M76.3555 21.124C76.3576 21.155 76.3599 21.1861 76.3621 21.2171C76.3312 21.1849 76.3004 21.1527 76.2695 21.1206C76.2982 21.1217 76.3269 21.1229 76.3555 21.124Z" fill="#6000E5"/>
<path fill-rule="evenodd" clip-rule="evenodd" d="M12.3279 13.664C12.3425 13.6804 12.3571 13.6967 12.3716 13.7132C12.6275 14.0403 12.9403 14.2995 13.2304 14.5863C13.4022 14.7562 13.506 15.0087 13.6362 15.227C13.7458 15.4107 13.8677 15.5895 13.9513 15.7869C14.116 16.1757 14.339 16.5418 14.3585 16.9929C14.3641 17.1214 14.4207 17.2479 14.458 17.374C14.4762 17.4356 14.5208 17.4929 14.5243 17.5541C14.5598 18.1749 14.6565 18.8033 14.6016 19.4152C14.5467 20.0271 14.4577 20.6589 14.1711 21.2171C13.9941 21.5617 13.8428 21.934 13.6121 22.2315C13.2148 22.7436 12.8006 23.2469 12.2367 23.5686C11.9307 23.7432 11.9438 23.7607 12.2178 23.9575C12.5983 24.2308 12.998 24.4808 13.3446 24.7989C13.5995 25.0329 13.7867 25.3566 13.9954 25.6476C14.0949 25.7864 14.2024 25.9309 14.2571 26.0926C14.4035 26.5251 14.6186 26.9191 14.7334 27.3761C14.9408 28.202 14.9105 29.0304 14.874 29.8561C14.8582 30.2139 14.8774 30.6204 14.6547 30.9471C14.6383 30.9712 14.6359 31.0071 14.6285 31.0379C14.5675 31.292 14.5343 31.5589 14.4401 31.7972C14.2824 32.1958 14.1091 32.5921 13.8983 32.9593C13.7209 33.2686 13.5135 33.5786 13.2581 33.8068C13.0615 33.9823 12.8643 34.1513 12.6832 34.3483C12.6066 34.4316 12.467 34.4412 12.3683 34.5063C12.1178 34.6716 11.8873 34.8796 11.6243 35.0137C11.3448 35.1561 11.0407 35.2478 10.7407 35.3344C10.436 35.4224 10.1252 35.4933 9.81318 35.5419C9.48943 35.5924 9.16109 35.6327 8.83463 35.6335C6.04547 35.6406 3.25625 35.6369 0.467088 35.6396C0.303975 35.6397 0.140277 35.6614 -0.0221161 35.6828C-0.24026 35.7116 -0.364541 35.6055 -0.363236 35.3826C-0.362066 35.1825 -0.363281 34.9825 -0.363281 34.7824C-0.363281 27.632 -0.363281 20.4817 -0.363281 13.3314C-0.363281 13.1313 -0.362021 12.9312 -0.363236 12.7312C-0.364271 12.5615 -0.301186 12.4841 -0.133393 12.4844C2.79081 12.4882 5.71501 12.48 8.63908 12.4961C9.04414 12.4984 9.44834 12.6184 9.85381 12.6773C9.95703 12.6923 10.0634 12.6823 10.1683 12.6838C10.3296 12.7463 10.4881 12.8198 10.6527 12.8694C11.2055 13.0356 11.7138 13.3066 12.2029 13.6267C12.2385 13.6501 12.286 13.6521 12.3279 13.664Z" fill="#6000E5"/>
<path fill-rule="evenodd" clip-rule="evenodd" d="M95.1772 21.2195C95.1996 21.2183 95.2294 21.2267 95.2432 21.2141C95.5855 20.9029 95.9936 21.0497 96.3753 21.0232C96.538 21.012 96.7054 21.013 96.8655 21.0421C97.1066 21.0858 97.2415 21.2767 97.3288 21.5125C97.3283 23.4578 97.3272 25.403 97.3276 27.3483C97.3281 29.8984 97.3299 32.4484 97.3311 34.9985C97.2237 35.4008 97.0641 35.5357 96.6891 35.5378C96.3744 35.5396 96.0595 35.5332 95.7449 35.5412C95.3129 35.5523 95.0832 35.2751 95.0828 34.8227C95.0788 30.4689 95.0792 26.1151 95.0844 21.7613C95.0846 21.5807 95.145 21.4001 95.1772 21.2195Z" fill="#6000E5"/>
<path fill-rule="evenodd" clip-rule="evenodd" d="M97.3298 34.9983C97.3286 32.4482 97.3268 29.8981 97.3263 27.348C97.3258 25.4027 97.327 23.4575 97.3275 21.5122C97.3369 21.5125 97.3461 21.5141 97.355 21.5172C97.3584 21.6149 97.3649 21.7126 97.3649 21.8103C97.3654 26.1117 97.3655 30.4131 97.3638 34.7145C97.3638 34.8091 97.3416 34.9037 97.3298 34.9983Z" fill="#6000E5"/>
<path fill-rule="evenodd" clip-rule="evenodd" d="M77.1678 35.5304C77.1381 35.5004 77.1126 35.4616 77.078 35.4419C76.9099 35.3464 76.798 35.2245 76.8028 34.9926C76.8129 34.5031 76.8058 34.0132 76.8057 33.5235C76.8056 33.3159 76.7883 33.1062 76.8089 32.9011C76.8368 32.6222 77.0617 32.4059 77.3207 32.4023C77.8822 32.3944 78.444 32.3925 79.0055 32.4014C79.3727 32.4071 79.5944 32.665 79.598 33.0795C79.6035 33.6997 79.6014 34.3201 79.5991 34.9403C79.5982 35.1808 79.4883 35.3439 79.2836 35.4356C79.2351 35.4574 79.1941 35.4991 79.1496 35.5316C78.489 35.5313 77.8283 35.5308 77.1678 35.5304Z" fill="#6000E5"/>
<path fill-rule="evenodd" clip-rule="evenodd" d="M77.166 35.5308C77.8267 35.5312 78.4873 35.5316 79.1479 35.5319C79.1551 35.5341 79.1646 35.5341 79.169 35.5391C79.1764 35.5478 79.1806 35.5596 79.1861 35.5702C78.5175 35.5633 77.8488 35.5566 77.1802 35.5489C77.1754 35.5489 77.1707 35.5371 77.166 35.5308Z" fill="#6000E5"/>
</g>
<defs>
<clipPath id="clip0_924_498">
<rect width="98" height="48" fill="white"/>
</clipPath>
</defs>
</svg>
