<svg width="134" height="48" viewBox="0 0 134 48" fill="none" xmlns="http://www.w3.org/2000/svg">
<g clip-path="url(#clip0_924_46)">
<path fill-rule="evenodd" clip-rule="evenodd" d="M25.6777 24.0438C25.6777 28.6247 28.8706 32 33.7149 32C37.0989 32 39.8852 30.0402 40.723 27.1369C40.7718 26.968 40.6652 26.7961 40.4937 26.7545L38.1228 26.18C37.9552 26.1394 37.7865 26.2385 37.7266 26.3996C37.1146 28.046 35.51 29.063 33.6268 29.063C30.8682 29.063 28.9888 27.1572 28.7799 24.3164C28.7789 24.2678 28.7777 24.2225 28.7766 24.1792C28.7715 23.9834 28.7675 23.8312 28.7844 23.6252C29.0146 20.8167 30.8871 18.937 33.6268 18.937C35.4651 18.937 37.0379 19.9061 37.6811 21.4838C37.7452 21.641 37.9137 21.7347 38.0787 21.6922L40.4484 21.0806C40.6208 21.0361 40.7248 20.8602 40.6708 20.6913C39.7743 17.8827 37.0317 16 33.7149 16C28.8706 16 25.6777 19.3753 25.6777 23.9562V24.0438Z" fill="#2B2B2B"/>
<path d="M120.785 16.3296C120.607 16.3296 120.463 16.4733 120.463 16.6506V31.351C120.463 31.5283 120.607 31.6721 120.785 31.6721H123.223C123.401 31.6721 123.546 31.5283 123.546 31.351V25.581C123.546 25.4037 123.69 25.26 123.868 25.26H130.247C130.425 25.26 130.57 25.4037 130.57 25.581V31.351C130.57 31.5283 130.714 31.6721 130.892 31.6721H133.33C133.508 31.6721 133.653 31.5283 133.653 31.351V16.6506C133.653 16.4733 133.508 16.3296 133.33 16.3296H130.892C130.714 16.3296 130.57 16.4733 130.57 16.6506V22.0151C130.57 22.1924 130.425 22.3361 130.247 22.3361H123.868C123.69 22.3361 123.546 22.1924 123.546 22.0151V16.6506C123.546 16.4733 123.401 16.3296 123.223 16.3296H120.785Z" fill="#2B2B2B"/>
<path d="M106.155 16.3296C105.976 16.3296 105.832 16.4733 105.832 16.6506V18.9456C105.832 19.1229 105.976 19.2666 106.155 19.2666H110.34C110.518 19.2666 110.663 19.4103 110.663 19.5876V31.351C110.663 31.5283 110.807 31.6721 110.985 31.6721H113.423C113.601 31.6721 113.745 31.5283 113.745 31.351V19.5876C113.745 19.4103 113.89 19.2666 114.068 19.2666H118.253C118.431 19.2666 118.576 19.1229 118.576 18.9456V16.6506C118.576 16.4733 118.431 16.3296 118.253 16.3296H106.155Z" fill="#2B2B2B"/>
<path d="M97.9694 16.3296C97.8379 16.3296 97.7196 16.409 97.6704 16.5303L91.6996 31.2307C91.6139 31.4417 91.7699 31.6721 91.9986 31.6721H94.6705C94.8026 31.6721 94.9214 31.5919 94.9702 31.4696L96.2338 28.3061C96.2955 28.1518 96.4647 28.0684 96.627 28.1066C97.123 28.2235 98.2239 28.4398 99.5795 28.4398C100.937 28.4398 102.038 28.2231 102.534 28.1063C102.695 28.0682 102.864 28.1508 102.926 28.3041L104.21 31.4712C104.259 31.5926 104.378 31.6721 104.509 31.6721H107.203C107.432 31.6721 107.588 31.4411 107.502 31.23L101.489 16.5296C101.439 16.4086 101.321 16.3296 101.19 16.3296H97.9694ZM101.521 24.779C101.59 24.951 101.499 25.144 101.319 25.1898C100.94 25.2858 100.282 25.4216 99.5905 25.4216C98.8987 25.4216 98.2399 25.2855 97.8613 25.1895C97.6811 25.1438 97.5899 24.9516 97.6588 24.7797L99.4305 20.3614C99.4844 20.227 99.6755 20.2266 99.7299 20.3608L101.521 24.779Z" fill="#2B2B2B"/>
<path d="M72.8245 16.3296C72.6463 16.3296 72.502 16.4733 72.502 16.6506V31.351C72.502 31.5283 72.6463 31.6721 72.8245 31.6721H75.2629C75.4408 31.6721 75.585 31.5288 75.5854 31.3518L75.6049 22.9854C75.6053 22.8109 75.8458 22.7623 75.9145 22.9229L79.5748 31.4768C79.6254 31.5952 79.7422 31.6721 79.8715 31.6721H82.6599C82.7892 31.6721 82.906 31.5952 82.9566 31.4767L86.6371 22.8626C86.7059 22.7017 86.9468 22.7506 86.9468 22.9254V31.351C86.9468 31.5283 87.0912 31.6721 87.2693 31.6721H89.707C89.8851 31.6721 90.0295 31.5283 90.0295 31.351V16.6506C90.0295 16.4733 89.8851 16.3296 89.707 16.3296H86.5216C86.3922 16.3296 86.2754 16.4066 86.2248 16.5251L81.4142 27.7956C81.3585 27.9259 81.1729 27.9259 81.1173 27.7956L76.3067 16.5251C76.2561 16.4066 76.1393 16.3296 76.0099 16.3296H72.8245Z" fill="#2B2B2B"/>
<path d="M58.8655 16.3296C58.6874 16.3296 58.543 16.4733 58.543 16.6506V31.351C58.543 31.5283 58.6874 31.6721 58.8655 31.6721H69.2522C69.4304 31.6721 69.5748 31.5283 69.5748 31.351V29.0561C69.5748 28.8788 69.4304 28.7351 69.2522 28.7351H61.9482C61.7701 28.7351 61.6257 28.5913 61.6257 28.4141V25.615C61.6257 25.4377 61.7701 25.294 61.9482 25.294H68.3494C68.5276 25.294 68.672 25.1503 68.672 24.973V22.678C68.672 22.5007 68.5276 22.357 68.3494 22.357H61.9482C61.7701 22.357 61.6257 22.2133 61.6257 22.036V19.5876C61.6257 19.4103 61.7701 19.2666 61.9482 19.2666H69.2522C69.4304 19.2666 69.5748 19.1229 69.5748 18.9456V16.6506C69.5748 16.4733 69.4304 16.3296 69.2522 16.3296H58.8655Z" fill="#2B2B2B"/>
<path d="M43.0195 16.3296C42.8417 16.3296 42.6975 16.4729 42.697 16.6498L42.6758 25.5132C42.6758 29.3488 45.2521 32.0008 49.2596 32.0008C53.2231 32.0008 55.7994 29.3488 55.7994 25.5132L55.7782 16.6498C55.7778 16.4729 55.6335 16.3296 55.4557 16.3296H53.018C52.8395 16.3296 52.695 16.4738 52.6955 16.6514L52.7167 25.4693C52.7167 27.7269 51.4616 29.0638 49.2596 29.0638C47.0357 29.0638 45.7585 27.7049 45.7585 25.4693L45.7798 16.6514C45.7802 16.4738 45.6357 16.3296 45.4572 16.3296H43.0195Z" fill="#2B2B2B"/>
<path d="M6.82043 29.4391C7.00066 29.6189 7.00114 29.9119 6.81048 30.0806C5.1703 31.5328 3.14226 32.1141 2.16726 32.3221C1.87485 32.3845 1.63093 32.1411 1.69345 31.8494C1.90193 30.8766 2.48459 28.853 3.93995 27.2165C4.10912 27.0263 4.40273 27.0268 4.58296 27.2066L6.82043 29.4391Z" fill="#FFBA07"/>
<path fill-rule="evenodd" clip-rule="evenodd" d="M13.6052 27.2437C13.5551 27.3049 13.53 27.3829 13.5344 27.4618C13.645 29.414 13.6026 30.1886 12.0944 31.6934C11.0205 32.765 8.48653 33.5975 7.11456 33.9885C6.82482 34.0711 6.59999 33.7244 6.77562 33.4801C7.64607 32.2692 9.06294 29.904 7.86314 28.7069C7.03532 27.8809 6.78028 27.6264 6.52531 27.3719C6.27049 27.1176 6.01573 26.8634 5.1893 26.0388C4.0073 24.8594 1.7482 26.2814 0.556242 27.188C0.312293 27.3735 -0.0487592 27.1492 0.0360782 26.855C0.434316 25.4744 1.2608 22.9987 2.3205 21.9413C3.82876 20.4364 4.60511 20.3942 6.56166 20.5045C6.64078 20.509 6.71889 20.4839 6.78026 20.4339C7.6463 19.7281 14.2768 14.4449 19.2086 14.0043C19.6961 13.9607 20.0929 14.3566 20.0492 14.843C19.6076 19.7638 14.3125 26.3796 13.6052 27.2437ZM11.6025 22.4701C12.2661 23.1322 13.559 22.9155 14.4904 21.9862C15.4217 21.0569 15.6389 19.7669 14.9753 19.1048C14.3118 18.4427 13.0188 18.6594 12.0875 19.5887C11.1561 20.518 10.939 21.808 11.6025 22.4701Z" fill="#2B2B2B"/>
</g>
<defs>
<clipPath id="clip0_924_46">
<rect width="134" height="48" fill="white"/>
</clipPath>
</defs>
</svg>
