<svg width="124" height="48" viewBox="0 0 124 48" fill="none" xmlns="http://www.w3.org/2000/svg">
<g clip-path="url(#clip0_924_713)">
<path d="M20.5859 31.6587L20.6992 31.7724L20.5859 31.6587Z" fill="#3448F0"/>
<path d="M20.9083 13.4363C20.7428 15.7526 19.419 18.0926 18.0834 19.9516L17.9239 20.1773C17.4334 20.8425 16.8897 21.5077 16.2987 22.1669C14.5908 24.008 12.7234 25.677 10.6904 27.1617C9.80398 27.8269 8.8998 28.4505 7.97198 29.0445C7.74741 29.187 7.52284 29.3236 7.29827 29.4602L6.84322 29.7512C6.8314 29.7572 6.82549 29.775 6.8314 29.7928C6.83731 29.8047 6.84322 29.8047 6.85504 29.8047L8.18472 29.8225H8.35611C8.53931 29.8225 8.72251 29.8225 8.90571 29.8225C11.0568 29.8284 13.2789 29.8462 15.4182 29.7928C15.8023 29.7809 15.2468 30.3511 15.1582 30.4996C14.9809 30.7965 14.7977 31.0816 14.6086 31.3726C14.4135 31.6696 14.2008 31.9546 13.988 32.2338C13.7989 32.4892 13.6039 32.7386 13.4207 32.994C11.1337 36.1833 9.62669 37.5493 6.63048 38.6303C6.13406 38.8084 5.7913 38.9629 5.37171 38.6124C5.25352 38.5115 5.13533 38.4165 5.01713 38.3096C3.82338 37.2643 2.82464 36.017 2.06229 34.6213C-0.212937 30.4639 -0.0179191 25.677 1.65452 21.3354C2.23367 19.8269 2.94874 18.3837 3.79974 16.9939C3.83519 16.9404 3.86474 16.887 3.9002 16.8335C6.3409 12.8543 9.59714 9.2611 13.1548 6.24401C13.3734 6.05395 13.598 5.86984 13.8167 5.68573C13.8403 5.66791 13.8757 5.66791 13.8935 5.68573C13.9939 5.78075 14.0885 5.87578 14.189 5.97081C14.3663 6.14304 14.5495 6.31528 14.7267 6.48751C15.0518 6.80823 15.3768 7.123 15.6959 7.44372C16.6415 8.39399 17.5398 9.3977 18.4203 10.4133C18.4558 10.4549 18.4912 10.4905 18.5267 10.5321C18.9285 10.9953 19.3304 11.4645 19.7204 11.9337C19.9332 12.1891 20.1459 12.4445 20.3587 12.7058C20.465 12.8365 20.5714 12.9671 20.6719 13.0919C20.731 13.1809 20.9142 13.3413 20.9083 13.4363Z" fill="#3448F0"/>
<path d="M27.2279 29.7828C27.3875 28.5712 27.3757 27.3358 27.1747 26.1183C27.0743 25.4472 26.9147 24.7464 26.6902 24.004C26.3592 22.923 25.9455 21.8659 25.4728 20.8384C25.2364 20.3276 24.9823 19.8228 24.7222 19.3299C24.5922 19.0923 24.4622 18.8547 24.3322 18.6172C24.2435 18.4627 23.7412 17.6372 23.8358 18.142C23.8594 18.2667 23.7353 18.6944 23.7058 18.8191C23.6408 19.0864 23.5698 19.3536 23.4989 19.6209C23.3571 20.1257 23.2094 20.6424 23.0143 21.1294L22.447 22.5489L21.856 23.8139L21.2355 24.9899V24.9958C21.2355 25.0077 21.2414 25.0136 21.2532 25.0136H25.4609H25.4668C25.4728 25.0196 25.4787 25.0255 25.4787 25.0374C25.1418 25.9461 24.7695 26.837 24.3617 27.716C23.688 29.171 22.9257 30.5786 22.0688 31.9328L21.3833 32.9721L20.6682 33.9699C20.0358 34.8192 19.3799 35.6032 18.6884 36.3337C18.0384 37.0167 17.3588 37.664 16.6201 38.2461C15.8104 38.8875 14.9417 39.4577 14.0139 39.9031C13.1097 40.3426 12.1464 40.6693 11.1654 40.8771C10.7695 40.9603 10.3735 41.0197 9.97166 41.0731C9.92438 41.0791 9.87119 41.085 9.85938 41.1325C10.013 41.1563 10.1667 41.1682 10.3203 41.1978C11.0827 41.3582 11.8391 41.5126 12.6192 41.578C13.3875 41.6433 14.1616 41.6433 14.9299 41.578C15.8932 41.5007 16.8505 41.3166 17.7724 41.0316C18.5052 40.8059 19.2203 40.5208 19.9058 40.1704C22.5297 38.8341 24.669 36.6485 25.9633 33.9936C26.5956 32.6752 27.0329 31.2438 27.2279 29.7828Z" fill="#3448F0"/>
<path d="M22.6914 24.9185L22.6979 24.9249C22.6979 24.9249 22.6979 24.9185 22.6914 24.9185Z" fill="#3448F0"/>
<path d="M22.1686 34.5299L22.1621 34.5234C22.1621 34.5234 22.1621 34.5299 22.1686 34.5299Z" fill="#3448F0"/>
<path d="M22.155 34.5179C22.155 34.5179 22.1488 34.5117 22.1426 34.5117C22.1426 34.5117 22.1488 34.5117 22.155 34.5179Z" fill="#3448F0"/>
<path d="M22.1758 34.5386L22.1822 34.545C22.1822 34.5386 22.1758 34.5386 22.1758 34.5386Z" fill="#3448F0"/>
<path d="M22.1934 34.5503C22.1934 34.5503 22.1996 34.5565 22.1996 34.5627C22.1934 34.5565 22.1934 34.5565 22.1934 34.5503Z" fill="#3448F0"/>
<path d="M19.407 9.69885C18.9875 9.56225 18.556 9.46722 18.1128 9.41971C18.0892 9.41971 18.0655 9.41377 18.0419 9.41377C17.8942 9.40189 17.7464 9.39001 17.5928 9.40189C17.5278 9.40783 17.4687 9.41377 17.4096 9.44347C17.3682 9.46722 17.3268 9.5088 17.3446 9.55631C17.3623 9.60382 17.4155 9.6157 17.4628 9.62164C17.6046 9.6454 17.7405 9.68103 17.8764 9.71667C18.2783 9.82357 18.6861 9.93642 19.0584 10.1265C19.2416 10.2215 19.4189 10.3225 19.5843 10.4472C19.8089 10.6135 20.0157 10.8035 20.193 11.0173C20.3703 11.2312 20.5181 11.4747 20.6244 11.73C20.7426 12.0032 20.8195 12.2883 20.8608 12.5853C20.9022 12.8704 20.9022 13.1554 20.8845 13.4405C20.719 15.7568 19.3952 18.0968 18.0596 19.9558L17.9001 20.1815C17.4096 20.8467 16.8659 21.5118 16.2749 22.1711C14.567 24.0122 12.6995 25.6811 10.6666 27.1659C9.57332 27.9915 8.43866 28.7576 7.27446 29.4644L6.81941 29.7554C6.8135 29.7614 6.80759 29.7673 6.80759 29.7792C6.80759 29.797 6.81941 29.8089 6.83714 29.8089L8.16682 29.8267H14.697H15.5007C15.5244 29.8267 15.5303 29.8386 15.5185 29.8564C14.892 30.9967 14.1711 32.0717 13.3555 33.0873L13.1841 33.3011C11.7599 35.065 10.0638 36.6745 8.13727 37.8386C7.37492 38.2959 6.57711 38.6523 5.73203 38.8958C4.85148 39.169 2.93084 39.555 2.72991 38.1712C2.70036 37.9574 2.68263 37.7376 2.69445 37.5179C2.70036 37.3041 2.72991 37.0903 2.77718 36.8824C2.81855 36.6983 2.87765 36.5142 2.94857 36.336C2.9663 36.2944 2.98403 36.2469 3.00766 36.2113C3.01948 36.1935 3.0313 36.1756 3.04903 36.1578C3.06676 36.1341 2.97811 36.0272 2.96038 36.0093C2.92493 35.9618 2.98402 36.0034 2.93675 35.9737C2.89538 35.95 2.87174 35.9143 2.84219 35.8787C2.38714 36.3716 1.98529 37.0725 1.96756 37.7436C1.92619 39.6798 3.5809 40.0896 5.13515 39.7748C6.61257 39.4778 7.93043 38.8483 9.27784 38.0405C9.53196 37.8921 9.82153 37.6723 10.1525 37.3872C11.5531 36.1875 12.7941 34.9225 13.8697 33.598C14.9807 32.2083 15.9262 30.7176 16.7004 29.114C16.7122 29.0962 16.7004 29.0843 16.6827 29.0843L9.28966 29.0783C9.28375 29.0783 9.27193 29.0724 9.27193 29.0665C9.26602 29.0546 9.26602 29.0427 9.27784 29.0308L11.1276 27.7123C13.1782 26.2097 15.0634 24.5289 16.7891 22.67C17.4628 21.9276 18.0833 21.1555 18.6624 20.3537C19.7794 18.7917 20.7663 17.0218 21.3159 15.1569C21.9068 13.1436 21.7886 10.4888 19.407 9.69885ZM10.5602 27.4094L10.5662 27.4154C10.5662 27.4154 10.5602 27.4154 10.5602 27.4094Z" fill="#3448F0"/>
<path d="M25.5095 24.9878H21.3018C21.2959 24.9878 21.2959 24.9878 21.2959 24.9878C21.29 24.9818 21.2841 24.97 21.29 24.964L21.9105 23.7881L22.5015 22.523L23.0688 21.1036C23.2166 20.7353 23.3288 20.3493 23.4411 19.9692C23.8134 18.7279 24.103 17.4094 24.0557 16.1087C24.0144 14.8971 23.6893 13.6737 23.1988 12.569C23.0806 12.3017 22.9506 12.0404 22.8147 11.791C22.7792 11.7256 22.7083 11.6544 22.667 11.595C22.6551 11.5831 22.6374 11.5771 22.6197 11.5771C22.596 11.5831 22.5842 11.6068 22.596 11.6306C22.7024 11.9751 22.8088 12.3255 22.9152 12.6759C23.1752 13.5252 23.3348 14.3983 23.382 15.2832C23.3998 15.6395 23.4057 16.0018 23.3879 16.3582C23.3702 16.7145 23.3348 17.0768 23.2816 17.4272C23.1752 18.1637 23.0215 18.8823 22.8147 19.601C22.7142 19.9514 22.602 20.2958 22.4838 20.6344C22.4719 20.6641 22.4601 20.6938 22.4542 20.7294C22.1055 21.6856 21.6978 22.6181 21.2309 23.5267C20.8527 24.287 20.4331 25.0234 19.9603 25.7421C19.9485 25.7599 19.9544 25.7658 19.9721 25.7658L24.434 25.7183C24.4399 25.7183 24.4399 25.7183 24.4458 25.7183C24.4576 25.7242 24.4635 25.7421 24.4576 25.7539L23.7603 27.3694C22.927 29.1868 21.9401 30.9269 20.8054 32.584C20.0017 33.748 19.1152 34.8468 18.146 35.8683C17.4014 36.6464 16.6095 37.3769 15.7526 38.0183C15.1912 38.44 14.5884 38.7963 13.9856 39.1527C13.7906 39.2655 13.5956 39.3784 13.3947 39.4734C13.1819 39.5684 12.9633 39.6397 12.7446 39.7169C12.5082 39.806 12.2718 39.901 12.0295 39.9842C11.7872 40.0673 11.539 40.1148 11.2967 40.192C11.0958 40.2514 10.8949 40.3049 10.688 40.3524C10.2684 40.4474 9.84885 40.5246 9.42336 40.59C7.78637 40.8572 6.04301 40.881 4.3883 40.78C4.38239 40.78 4.38239 40.78 4.37648 40.78C4.34693 40.786 4.32921 40.8097 4.33512 40.8394C4.34103 40.881 4.9379 41.0057 5.00291 41.0176C5.55842 41.1067 6.11984 41.172 6.68126 41.2017C7.24859 41.2373 7.81001 41.2373 8.37734 41.2076C8.70828 41.1898 9.03922 41.1898 9.37017 41.1601C9.92568 41.1067 10.4812 41.0057 11.0249 40.8929C11.5627 40.786 12.0886 40.6434 12.6087 40.4771C12.8451 40.3999 13.0755 40.3168 13.306 40.2277C14.3048 39.8357 15.2267 39.2952 16.0836 38.6597C16.255 38.535 16.4204 38.4044 16.5859 38.2678C17.3364 37.6679 18.0456 37.0146 18.7134 36.3078C19.4048 35.5833 20.0667 34.7933 20.6931 33.944L21.4082 32.9463L22.0937 31.9069C22.9506 30.5528 23.713 29.1452 24.3867 27.6901C24.7944 26.8111 25.1668 25.9202 25.5036 25.0115V25.0056C25.5272 24.9997 25.5213 24.9878 25.5095 24.9878ZM22.5133 20.8779H22.5074C22.5074 20.8779 22.5074 20.8779 22.5133 20.8779ZM22.4956 20.8779C22.4956 20.8779 22.4897 20.8779 22.4897 20.8838C22.4897 20.8838 22.4956 20.8838 22.4956 20.8779ZM22.4779 20.8957C22.4838 20.8898 22.4838 20.8898 22.4779 20.8957V20.8957Z" fill="#3448F0"/>
<path d="M15.5625 41.5496C15.5625 41.5496 23.1624 35.747 26.4304 23.1738C26.4304 23.1738 31.0163 38.384 15.5625 41.5496Z" fill="#3448F0"/>
<path d="M24.81 19.6509C24.81 19.6509 23.5276 23.3153 22.1152 24.6517H25.9093C25.9093 24.6517 24.4614 30.3711 22.7298 32.4973C22.7298 32.4973 25.6019 31.6302 27.1148 30.5077C27.1148 30.5077 28.3204 25.5782 24.81 19.6509Z" fill="#3448F0"/>
<path d="M20.3593 12.7248C20.4657 12.8555 20.5721 12.9861 20.6726 13.1109C20.7257 13.1762 20.8853 13.3128 20.903 13.4138C20.903 13.4019 20.903 13.396 20.903 13.3841C20.1584 12.3982 19.3665 11.436 18.5273 10.4917C18.5392 10.5273 18.551 10.563 18.5687 10.5986C18.9588 11.044 19.3429 11.4954 19.7211 11.9527C19.9338 12.2081 20.1466 12.4694 20.3593 12.7248Z" fill="#3448F0"/>
<path d="M9.96013 26.5238C11.2662 25.1875 12.519 23.7858 13.7187 22.3367L15.0011 20.6975L16.4135 18.6663L16.5317 18.4822C17.69 16.6826 18.7715 14.5742 18.8719 12.4361C18.9015 11.8778 18.7951 11.272 18.5587 10.6068C18.5469 10.589 18.5292 10.5712 18.5174 10.5593C18.4819 10.5178 18.4464 10.4821 18.411 10.4405C17.5304 9.43089 16.6322 8.42123 15.6866 7.47096C15.3675 7.15025 15.0425 6.82953 14.7174 6.51476C14.5401 6.34252 14.3628 6.17028 14.1796 5.99805C13.831 6.07526 13.4823 6.16434 13.1395 6.26531C9.59373 9.27053 6.33749 12.8637 3.8968 16.843C3.86134 16.8964 3.83179 16.9499 3.79633 17.0033C3.68405 17.6982 3.63086 18.405 3.63086 19.1295C3.63086 22.9128 5.18511 26.3338 7.69081 28.7747C8.46498 28.0442 9.22142 27.29 9.96013 26.5238Z" fill="#3448F0"/>
<path d="M9.96013 26.5238C11.2662 25.1875 12.519 23.7858 13.7187 22.3367L15.0011 20.6975L16.4135 18.6663L16.5317 18.4822C17.69 16.6826 18.7715 14.5742 18.8719 12.4361C18.9015 11.8778 18.7951 11.272 18.5587 10.6068C18.5469 10.589 18.5292 10.5712 18.5174 10.5593C18.4819 10.5178 18.4464 10.4821 18.411 10.4405C17.5304 9.43089 16.6322 8.42123 15.6866 7.47096C15.3675 7.15025 15.0425 6.82953 14.7174 6.51476C14.5401 6.34252 14.3628 6.17028 14.1796 5.99805C13.831 6.07526 13.4823 6.16434 13.1395 6.26531C9.59373 9.27053 6.33749 12.8637 3.8968 16.843C3.86134 16.8964 3.83179 16.9499 3.79633 17.0033C3.68405 17.6982 3.63086 18.405 3.63086 19.1295C3.63086 22.9128 5.18511 26.3338 7.69081 28.7747C8.46498 28.0442 9.22142 27.29 9.96013 26.5238Z" fill="#3448F0"/>
<path d="M18.0844 19.8947L17.9249 20.1204C17.4344 20.7856 16.8907 21.4508 16.2997 22.1101C14.5918 23.9512 12.7243 25.6201 10.6914 27.1049C9.79905 27.776 8.87714 28.4115 7.9375 29.0054C7.94932 29.0173 7.96114 29.0292 7.97296 29.0411C8.90078 28.4531 9.81087 27.8235 10.6914 27.1583C12.7184 25.6736 14.5918 24.0046 16.2997 22.1635C16.8907 21.5043 17.4344 20.845 17.9249 20.1739L18.0844 19.9482C19.42 18.0892 20.7438 15.7492 20.9093 13.4329C20.9093 13.427 20.9093 13.4151 20.9093 13.4092C20.732 15.7136 19.4141 18.0477 18.0844 19.8947Z" fill="#3448F0"/>
<path d="M16.2998 22.1122C16.8907 21.453 17.4344 20.7937 17.9249 20.1226L18.0845 19.8969C19.4142 18.0498 20.732 15.7158 20.9034 13.4114C20.8857 13.3163 20.7261 13.1738 20.6729 13.1085C20.5665 12.9778 20.4602 12.8471 20.3597 12.7224C20.147 12.467 19.9342 12.2057 19.7215 11.9503C19.3432 11.4989 18.9591 11.0476 18.5691 10.5962C18.8055 11.2614 18.9059 11.8672 18.8823 12.4255C18.7759 14.5636 17.7004 16.672 16.5421 18.4715L16.4239 18.6556L15.0114 20.6868L13.729 22.326C12.5353 23.7811 11.2824 25.1768 9.97049 26.5132C9.23178 27.2793 8.47534 28.0336 7.70117 28.77C7.778 28.8472 7.86074 28.9245 7.94347 29.0017C8.88311 28.4077 9.80502 27.7723 10.6974 27.1011C12.7244 25.6223 14.5919 23.9534 16.2998 22.1122Z" fill="#3448F0"/>
<path opacity="0.8" d="M16.2998 22.1122C16.8907 21.453 17.4344 20.7937 17.9249 20.1226L18.0845 19.8969C19.4142 18.0498 20.732 15.7158 20.9034 13.4114C20.8857 13.3163 20.7261 13.1738 20.6729 13.1085C20.5665 12.9778 20.4602 12.8471 20.3597 12.7224C20.147 12.467 19.9342 12.2057 19.7215 11.9503C19.3432 11.4989 18.9591 11.0476 18.5691 10.5962C18.8055 11.2614 18.9059 11.8672 18.8823 12.4255C18.7759 14.5636 17.7004 16.672 16.5421 18.4715L16.4239 18.6556L15.0114 20.6868L13.729 22.326C12.5353 23.7811 11.2824 25.1768 9.97049 26.5132C9.23178 27.2793 8.47534 28.0336 7.70117 28.77C7.778 28.8472 7.86074 28.9245 7.94347 29.0017C8.88311 28.4077 9.80502 27.7723 10.6974 27.1011C12.7244 25.6223 14.5919 23.9534 16.2998 22.1122Z" fill="#3448F0"/>
<path d="M15.1706 30.4979C14.9933 30.7948 14.8101 31.0859 14.621 31.3709C14.4259 31.6679 14.2132 31.953 14.0004 32.2381C12.1212 31.7986 10.3896 30.9671 8.90039 29.8268C11.0574 29.8327 13.2854 29.8505 15.4247 29.7971C15.8088 29.7852 15.2592 30.3553 15.1706 30.4979Z" fill="#3448F0"/>
<path opacity="0.8" d="M15.5325 29.8486H14.7288C14.1201 30.8286 13.4228 31.6898 12.6309 32.4381L12.1049 32.9251C11.9572 33.0558 11.8035 33.1805 11.6499 33.2993C11.4962 33.424 11.3367 33.5428 11.1771 33.6556C11.0175 33.7744 10.858 33.8873 10.6925 34.0001C10.527 34.1129 10.3616 34.2199 10.1961 34.3268C10.0306 34.4337 9.85924 34.5346 9.68786 34.6356C9.51648 34.7366 9.3451 34.8316 9.17371 34.9266C9.00233 35.0216 8.82505 35.1107 8.64775 35.1998C8.47046 35.2889 8.29317 35.3721 8.10997 35.4552C7.93268 35.5383 7.74948 35.6156 7.56628 35.6928C7.38308 35.77 7.19988 35.8412 7.01668 35.9125C6.83348 35.9838 6.64437 36.0491 6.46117 36.1144C6.27206 36.1798 6.08886 36.2392 5.89975 36.2986C5.71064 36.358 5.52153 36.4114 5.33242 36.4649C5.14331 36.5183 4.9542 36.5658 4.75918 36.6133C4.57007 36.6609 4.37505 36.7024 4.18594 36.744C4.06184 36.7737 3.93183 36.7975 3.80772 36.8212C3.74863 36.8331 3.67771 36.839 3.64225 36.8865C3.61861 36.9162 3.63634 36.94 3.65407 36.9637C3.68953 37.0053 3.71908 37.041 3.75453 37.0825C3.82545 37.1597 3.89046 37.2369 3.96137 37.3142C4.10321 37.4686 4.24504 37.6171 4.39278 37.7596C4.54053 37.9081 4.69417 38.0506 4.84783 38.1932C5.00739 38.3357 5.16695 38.4723 5.32651 38.6089C5.39743 38.6683 5.46243 38.7217 5.53335 38.7752C5.56881 38.8049 5.60427 38.8286 5.63972 38.8583C5.65745 38.8702 5.67518 38.888 5.69291 38.8999C5.69882 38.9059 5.74019 38.9415 5.7461 38.9415C6.59118 38.692 7.3949 38.3416 8.15134 37.8843C10.0838 36.7202 11.7799 35.0989 13.21 33.3349L13.3814 33.1211C14.1969 32.1055 14.9179 31.0305 15.5444 29.8902C15.5621 29.8605 15.5562 29.8486 15.5325 29.8486Z" fill="#3448F0"/>
<path d="M2.39818 27.6783C2.39818 27.6783 1.19852 20.0049 13.2779 8.41162C13.2779 8.41162 3.89333 20.0524 7.28549 28.1772L2.39818 27.6783Z" fill="#3448F0"/>
<path d="M41.5188 29.3815C40.4223 29.3815 39.4494 29.1343 38.6001 28.6398C37.7509 28.1345 37.0844 27.4465 36.6006 26.5758C36.1169 25.6943 35.875 24.6838 35.875 23.5443C35.875 22.4048 36.1169 21.3997 36.6006 20.5289C37.0844 19.6474 37.7455 18.9594 38.584 18.4649C39.4332 17.9597 40.4061 17.707 41.5026 17.707C42.2766 17.707 42.9969 17.8468 43.6634 18.1263C44.3299 18.395 44.9104 18.7767 45.4049 19.2712C45.9101 19.7549 46.2971 20.3139 46.5659 20.9482L44.518 21.706C44.3352 21.3083 44.0934 20.9643 43.7924 20.674C43.4914 20.373 43.1474 20.1419 42.7604 19.9807C42.3734 19.8087 41.9541 19.7227 41.5026 19.7227C40.8469 19.7227 40.261 19.8893 39.745 20.2225C39.2398 20.545 38.842 20.9912 38.5518 21.5609C38.2723 22.1307 38.1325 22.7918 38.1325 23.5443C38.1325 24.2968 38.2776 24.9633 38.5679 25.5438C38.8581 26.1135 39.2613 26.565 39.7773 26.8983C40.2933 27.2208 40.8845 27.382 41.551 27.382C42.0132 27.382 42.4325 27.296 42.8088 27.124C43.1958 26.9413 43.5344 26.694 43.8246 26.3823C44.1256 26.0705 44.3675 25.7104 44.5503 25.3019L46.5981 26.0437C46.3294 26.6994 45.9424 27.2799 45.4371 27.7852C44.9426 28.2904 44.3621 28.6828 43.6956 28.9623C43.0291 29.2418 42.3035 29.3815 41.5188 29.3815Z" fill="#212B36"/>
<path d="M53.2515 24.5279L51.1713 23.9958L54.7995 17.9005H57.315L53.2515 24.5279ZM51.1068 29.188V23.77H53.316V29.188H51.1068ZM51.1713 24.5279L47.1078 17.9005H49.6233L53.2515 23.9958L51.1713 24.5279Z" fill="#212B36"/>
<path d="M66.4814 29.188L62.1599 17.9005H64.369L68.8195 29.188H66.4814ZM57.5643 29.188L62.0148 17.9005H64.2239L59.9024 29.188H57.5643ZM59.6605 26.7048V24.7537H66.7394V26.7048H59.6605Z" fill="#212B36"/>
<path d="M70.1719 29.188V17.9005H72.4777L77.9925 25.4793V17.9005H80.1855V29.188H77.9925L72.381 21.4642V29.188H70.1719Z" fill="#212B36"/>
<path d="M82.6435 29.188V17.9005H89.7869V19.9162H84.8527V22.48H89.1097V24.4473H84.8527V27.1724H89.8514V29.188H82.6435Z" fill="#212B36"/>
<path d="M92.139 29.188V17.9005H96.3315C97.127 17.9005 97.8312 18.0564 98.4439 18.3682C99.0567 18.6799 99.535 19.1099 99.879 19.6582C100.223 20.1957 100.395 20.8245 100.395 21.5448C100.395 22.2543 100.212 22.8885 99.8468 23.4475C99.492 23.9958 99.0029 24.4258 98.3794 24.7375C97.7559 25.0385 97.0464 25.189 96.2509 25.189H94.3482V29.188H92.139ZM98.3472 29.188L95.7349 24.6569L97.428 23.4475L100.847 29.188H98.3472ZM94.3482 23.1734H96.3477C96.6809 23.1734 96.9765 23.1035 97.2345 22.9638C97.5033 22.824 97.7129 22.6305 97.8634 22.3833C98.0247 22.136 98.1053 21.8565 98.1053 21.5448C98.1053 21.061 97.9279 20.6687 97.5732 20.3677C97.2292 20.0667 96.783 19.9162 96.2348 19.9162H94.3482V23.1734Z" fill="#212B36"/>
<path d="M107.773 29.3815C106.622 29.3815 105.601 29.1343 104.709 28.6398C103.827 28.1345 103.134 27.4465 102.629 26.5758C102.124 25.6943 101.871 24.6838 101.871 23.5443C101.871 22.4048 102.124 21.3997 102.629 20.5289C103.134 19.6474 103.827 18.9594 104.709 18.4649C105.601 17.9597 106.622 17.707 107.773 17.707C108.461 17.707 109.095 17.8092 109.675 18.0134C110.256 18.2177 110.767 18.5025 111.207 18.868C111.659 19.2228 112.035 19.6313 112.336 20.0935L110.53 21.2223C110.347 20.932 110.105 20.674 109.804 20.4483C109.514 20.2225 109.192 20.0452 108.837 19.9162C108.482 19.7872 108.127 19.7227 107.773 19.7227C107.063 19.7227 106.434 19.8893 105.886 20.2225C105.338 20.545 104.908 20.9912 104.596 21.5609C104.284 22.1307 104.128 22.7918 104.128 23.5443C104.128 24.286 104.279 24.9472 104.58 25.5277C104.892 26.1082 105.327 26.565 105.886 26.8983C106.445 27.2208 107.09 27.382 107.821 27.382C108.391 27.382 108.896 27.2692 109.337 27.0434C109.788 26.8177 110.143 26.5005 110.401 26.092C110.659 25.6835 110.788 25.2105 110.788 24.673L112.884 24.3505C112.884 25.4148 112.664 26.3232 112.223 27.0757C111.793 27.8282 111.191 28.4033 110.417 28.801C109.654 29.188 108.772 29.3815 107.773 29.3815ZM108.144 24.8665V23.1412H112.884V24.5118L111.691 24.8665H108.144Z" fill="#212B36"/>
<path d="M119.547 24.5279L117.466 23.9958L121.095 17.9005H123.61L119.547 24.5279ZM117.402 29.188V23.77H119.611V29.188H117.402ZM117.466 24.5279L113.403 17.9005H115.918L119.547 23.9958L117.466 24.5279Z" fill="#212B36"/>
</g>
<defs>
<clipPath id="clip0_924_713">
<rect width="124" height="48" fill="white"/>
</clipPath>
</defs>
</svg>
