<svg width="96" height="48" viewBox="0 0 96 48" fill="none" xmlns="http://www.w3.org/2000/svg">
<g clip-path="url(#clip0_1365_1226)">
<path d="M19.8384 15.896C19.8384 14.8494 19.0909 14.129 18.0443 14.129C15.421 14.129 12.7977 14.129 10.1744 14.129C7.55116 14.129 5.0638 14.1834 2.50848 14.1018C0.931798 14.0611 0.292969 15.0261 0.292969 16.3445C0.320153 18.9134 0.292969 21.4824 0.292969 24.0649C0.292969 26.6474 0.292969 28.9852 0.292969 31.4454C0.292969 32.6551 1.01335 33.4978 2.05994 33.4978C7.40165 33.4978 12.7434 33.4978 18.0715 33.4978C19.0773 33.4978 19.8248 32.7502 19.8248 31.7444C19.8248 26.4707 19.8248 21.1833 19.8248 15.9096L19.8384 15.896ZM2.67159 21.4959C3.16091 20.5853 3.71818 19.7154 4.30264 18.8591C4.724 18.2338 5.53953 18.0979 6.16476 18.4785C6.81719 18.8591 7.06184 19.6746 6.68126 20.3542C6.17836 21.2377 5.63467 22.0804 5.09099 22.9367C4.83274 23.3445 4.42497 23.5348 3.94925 23.5348C2.87547 23.5348 2.16868 22.4474 2.67159 21.4959ZM5.43079 30.8065C4.28905 30.8065 3.63663 29.6648 4.22109 28.6454C5.05021 27.2318 5.9337 25.8318 6.79 24.4318C8.27154 22.0124 9.75308 19.593 11.2346 17.1737C11.588 16.6028 12.0094 16.1542 12.7298 16.195C13.8443 16.263 14.4152 17.4183 13.7899 18.4513C12.4851 20.6396 11.1395 22.8008 9.80745 24.9619C8.80163 26.6202 7.78223 28.2648 6.77641 29.9231C6.46379 30.4396 6.06962 30.793 5.43079 30.8065ZM17.3375 22.9367C16.6035 24.2008 15.8152 25.4377 15.054 26.6881C14.2113 28.0473 13.3822 29.4201 12.5395 30.7658C11.9822 31.6628 11.1938 31.9075 10.4463 31.4318C9.7259 30.9832 9.58998 30.1541 10.1065 29.2978C11.6832 26.7289 13.2598 24.16 14.8365 21.5775C15.1492 21.061 15.5569 20.7076 16.1957 20.7212C17.3239 20.7212 17.9491 21.8901 17.3511 22.9231L17.3375 22.9367Z" fill="#0E121B"/>
<path d="M65.496 19.2256H69.7096C70.7018 22.6372 71.694 26.0216 72.6862 29.4197C72.7406 29.4197 72.795 29.4197 72.8494 29.4197C73.8416 26.0216 74.8338 22.6372 75.8124 19.2392H80.0396C78.3542 24.0508 76.6823 28.7944 75.0377 33.5245H70.4843C68.8261 28.7808 67.1678 24.0508 65.4824 19.2256H65.496Z" fill="#0E121B"/>
<path d="M60.7949 14.3613H64.6279V33.499H60.7949V14.3613Z" fill="#0E121B"/>
<path d="M44.3979 21.6607C43.9902 19.3772 42.9843 17.4064 41.0407 15.9928C39.5999 14.9598 37.9688 14.4161 36.2426 14.3617C33.633 14.2666 31.0097 14.3346 28.332 14.3346V33.4994C28.4815 33.5266 28.5903 33.5538 28.699 33.5538C31.4038 33.513 34.1223 33.6082 36.8271 33.3907C40.2931 33.1189 42.6853 31.2431 43.9222 27.981C44.6969 25.9286 44.7921 23.7947 44.4115 21.6607H44.3979ZM40.2387 26.2277C39.7086 28.4296 38.2407 29.7344 35.9708 29.8975C34.8019 29.9791 33.633 29.9111 32.3961 29.9111V17.719C34.5708 17.8141 36.8679 17.1753 38.6892 18.8199C39.3824 19.4452 39.8989 20.3966 40.1844 21.2937C40.7009 22.8976 40.6329 24.5694 40.2387 26.2277Z" fill="#0E121B"/>
<path d="M88.6278 27.3304H93.5618C93.6705 25.3732 93.4802 23.6062 92.5423 21.9887C91.4278 20.0858 89.6608 19.1752 87.5268 18.9849C84.9851 18.7674 82.7424 19.4742 81.2065 21.6081C79.725 23.6606 79.4803 26.012 79.956 28.445C80.2279 29.845 80.8123 31.1498 81.8997 32.0877C84.5502 34.3711 88.655 34.5071 91.5229 32.4954C92.4472 31.8702 93.2219 30.7556 93.453 29.4236C92.2025 29.3556 91.0336 29.2877 89.8783 29.2197C88.7909 30.9731 87.0783 31.0818 85.7327 30.6469C84.3871 30.212 83.6531 28.9751 83.7754 27.344H88.6142L88.6278 27.3304ZM87.0511 21.9072C88.6278 21.9751 89.8919 23.3479 89.7288 24.8567H83.8026C83.8026 23.1305 85.2434 21.8256 87.0511 21.9072Z" fill="#0E121B"/>
<path d="M59.3752 25.5358C59.2121 22.7902 58.1111 20.6698 55.4878 19.4873C52.4976 18.1416 48.6374 19.2018 46.8297 21.9203C45.5928 23.7824 45.4976 25.862 45.7287 27.9688C45.8782 29.3551 46.3947 30.6192 47.3598 31.6794C49.1403 33.6367 51.451 34.0172 53.9248 33.7998C55.6374 33.6503 57.1461 32.9571 58.2742 31.6114C58.7907 30.9862 59.1713 30.1571 59.2121 29.4231C57.9888 29.3551 56.8199 29.2872 55.6917 29.2192C54.6587 31.0678 52.5791 31.1765 51.1656 30.4833C49.9694 29.8988 49.4529 28.4037 49.7384 27.3299H59.28C59.3208 27.1532 59.348 27.0989 59.348 27.0309C59.348 26.528 59.3752 26.0387 59.348 25.5494L59.3752 25.5358ZM55.5966 24.8426H49.684C49.4122 23.6601 50.7714 22.0834 52.3753 21.9067C54.0335 21.73 55.7461 23.1028 55.5966 24.8426Z" fill="#0E121B"/>
</g>
<defs>
<clipPath id="clip0_1365_1226">
<rect width="96" height="48" fill="white"/>
</clipPath>
</defs>
</svg>
