<svg width="121" height="20" viewBox="0 0 121 20" fill="none" xmlns="http://www.w3.org/2000/svg">
<g clip-path="url(#clip0_3041_22908)">
<path d="M10.5851 5.5538L7.96484 2.93352L10.5851 0.313232L13.2054 2.93352L10.5851 5.5538Z" fill="url(#paint0_linear_3041_22908)"/>
<path d="M13.2052 8.17404L10.585 5.55376L13.2052 2.93347L15.8255 5.55376L13.2052 8.17404Z" fill="url(#paint1_linear_3041_22908)"/>
<path d="M15.8254 10.7943L13.2051 8.174L15.8254 5.55371L18.4456 8.174L15.8254 10.7943Z" fill="url(#paint2_linear_3041_22908)"/>
<path d="M18.4455 13.4146L15.8252 10.7944L18.4455 8.17407L21.0658 10.7944L18.4455 13.4146Z" fill="url(#paint3_linear_3041_22908)"/>
<path d="M7.96404 8.17404L5.34375 5.55376L7.96404 2.93347L10.5843 5.55376L7.96404 8.17404Z" fill="url(#paint4_linear_3041_22908)"/>
<path d="M10.5851 10.7943L7.96484 8.174L10.5851 5.55371L13.2054 8.174L10.5851 10.7943Z" fill="url(#paint5_linear_3041_22908)"/>
<path d="M13.2052 13.4146L10.585 10.7944L13.2052 8.17407L15.8255 10.7944L13.2052 13.4146Z" fill="url(#paint6_linear_3041_22908)"/>
<path d="M5.34392 10.7943L7.9642 13.4146L5.34392 16.0349L2.72363 13.4146L5.34392 10.7943Z" fill="url(#paint7_linear_3041_22908)"/>
<path d="M5.34392 10.7943L2.72363 8.174L5.34392 5.55371L7.9642 8.174L5.34392 10.7943Z" fill="url(#paint8_linear_3041_22908)"/>
<path d="M7.96404 13.4146L5.34375 10.7944L7.96404 8.17407L10.5843 10.7944L7.96404 13.4146Z" fill="url(#paint9_linear_3041_22908)"/>
<path d="M2.7238 13.4146L0.103516 10.7944L2.7238 8.17407L5.34409 10.7944L2.7238 13.4146Z" fill="url(#paint10_linear_3041_22908)"/>
<path d="M15.8254 10.7943L18.4456 13.4146L15.8254 16.0349L13.2051 13.4146L15.8254 10.7943Z" fill="url(#paint11_linear_3041_22908)"/>
<path d="M37.1952 1.00622C37.2312 0.940916 37.2632 0.89027 37.2939 0.84762V0.586391C37.2939 0.385139 37.1593 0.271851 36.9553 0.271851H27.7177C27.5151 0.271851 27.3818 0.385139 27.3818 0.586391V15.655C27.3818 15.8576 27.5151 15.9696 27.7177 15.9696H29.1745C29.377 15.9696 29.489 15.8576 29.489 15.655V8.70448H35.4253C35.8918 8.61518 36.4889 8.34329 36.9034 7.57826C36.938 7.51429 36.97 7.46497 37.0007 7.42232V7.1571C37.0007 6.95584 36.866 6.84522 36.6648 6.84522H29.489V2.13244H35.7158C36.1837 2.04314 36.7807 1.77258 37.1952 1.00622Z" fill="#232323"/>
<path d="M47.6005 5.07397H47.3259C46.6155 5.07397 45.9211 5.77636 45.9211 6.5214V11.4381C45.9211 13.2507 44.7056 14.3116 43.0476 14.3116C41.3896 14.3116 40.4846 13.2507 40.4846 11.4381V5.38318C40.4846 5.1846 40.374 5.07397 40.1754 5.07397H39.9782C39.0985 5.07397 38.4961 6.04692 38.4961 6.75863V11.726C38.4961 14.5995 40.1314 16.1682 42.4518 16.1682C44.1978 16.1682 45.3027 15.3059 45.9211 14.201L45.9878 15.5711C45.9878 15.8137 46.0984 15.903 46.297 15.903H47.6005C47.799 15.903 47.9097 15.7924 47.9097 15.5938V5.38318C47.9097 5.1846 47.799 5.07397 47.6005 5.07397Z" fill="#232323"/>
<path d="M55.1787 4.80872C51.9293 4.80872 49.6982 7.2624 49.6982 10.4438C49.6982 13.6265 51.952 16.1668 55.4879 16.1668C57.0126 16.1668 58.4054 15.703 59.3557 14.7741C59.533 14.6195 59.5983 14.4875 59.4437 14.3102L59.4277 14.2876C58.8226 13.9024 58.2482 13.9397 57.8683 14.0424C57.2272 14.3582 56.5195 14.5315 55.6639 14.5315C53.2555 14.5315 51.8854 13.1614 51.6415 11.2168H59.3757C60.1047 11.2168 60.282 10.8183 60.282 9.93467C60.2833 7.2624 58.4054 4.80872 55.1787 4.80872ZM51.6215 9.73741C51.864 7.74887 53.2568 6.5107 55.18 6.5107C57.1246 6.5107 58.4068 7.79286 58.5174 9.73741H51.6215Z" fill="#232323"/>
<path d="M63.7743 0.101318C62.4948 0.101318 62.0723 1.13824 62.0723 2.22047V15.5938C62.0723 15.7924 62.1829 15.903 62.3815 15.903H63.7729C63.9715 15.903 64.0821 15.7924 64.0821 15.5938V0.411861C64.0835 0.211941 63.9742 0.101318 63.7743 0.101318Z" fill="#232323"/>
<path d="M108.267 0C106.988 0 106.565 1.03692 106.565 2.11915V15.4911C106.565 15.6897 106.676 15.8003 106.875 15.8003H108.266C108.465 15.8003 108.575 15.6897 108.575 15.4911V0.30921C108.577 0.110622 108.466 0 108.267 0Z" fill="#232323"/>
<path d="M94.2178 4.97266H93.5447C93.3675 4.97266 92.4279 5.23522 92.1346 6.07355L89.3118 13.5479L86.5302 6.18417C86.4636 6.00691 86.0611 4.97266 84.9428 4.97266H84.4044C84.1618 4.97266 84.0725 5.1046 84.1618 5.34851L88.3175 15.8456L86.7928 19.6694C86.7048 19.868 86.7928 20.0013 87.014 20.0013H87.3486C88.804 20.0013 89.2625 18.4819 89.3291 18.306L94.4844 5.34984C94.571 5.1046 94.4604 4.97266 94.2178 4.97266Z" fill="#232323"/>
<path d="M102.827 13.5305C102.274 13.949 101.591 14.2103 100.648 14.2103C98.4152 14.2103 96.8238 12.5962 96.8238 10.3651C96.8238 8.13269 98.4152 6.54133 100.602 6.54133C101.549 6.54133 102.23 6.80789 102.788 7.23172C103.228 7.35834 103.828 7.37833 104.505 6.97183C104.585 6.92384 104.65 6.89186 104.706 6.8692C104.738 6.76924 104.714 6.66128 104.625 6.54133C103.696 5.41378 102.26 4.7074 100.536 4.7074C97.309 4.7074 94.8779 7.13842 94.8779 10.3651C94.8779 13.6132 97.309 16.0669 100.536 16.0669C102.282 16.0669 103.718 15.3605 104.646 14.2103C104.778 14.0557 104.778 13.9011 104.646 13.7678L104.501 13.6265C103.822 13.296 103.233 13.3773 102.827 13.5305Z" fill="#232323"/>
<path d="M115.828 4.7074C112.579 4.7074 110.348 7.16108 110.348 10.3425C110.348 13.5252 112.601 16.0655 116.137 16.0655C117.662 16.0655 119.055 15.6017 120.005 14.6727C120.174 14.5248 120.241 14.3955 120.109 14.2303C119.521 13.8251 118.956 13.8304 118.563 13.9197C117.91 14.2502 117.19 14.4302 116.315 14.4302C113.906 14.4302 112.536 13.0601 112.292 11.1155H120.026C120.755 11.1155 120.933 10.717 120.933 9.83335C120.933 7.15975 119.054 4.7074 115.828 4.7074ZM112.27 9.63609C112.512 7.64756 113.905 6.40938 115.828 6.40938C117.773 6.40938 119.055 7.69154 119.165 9.63609H112.27Z" fill="#232323"/>
<path d="M78.3255 16.2615C80.5219 16.2615 82.2932 15.4538 83.6847 14.153C83.8419 13.9957 83.9099 13.8384 83.7286 13.6598L83.6167 13.5372C83.2355 13.272 82.4452 12.9015 81.4176 13.4053C81.3429 13.4426 81.2803 13.4666 81.2256 13.4839C80.386 13.9491 79.4397 14.2196 78.3468 14.2196C74.9841 14.2196 72.4492 11.6633 72.4492 8.18736C72.4492 4.71275 74.9828 2.13245 78.3468 2.13245C79.6703 2.13245 80.7792 2.52962 81.7428 3.19069C82.2119 3.31464 82.9489 3.34663 83.6953 2.71088C83.7086 2.69889 83.7206 2.69089 83.734 2.68023C83.8792 2.48564 83.8366 2.33237 83.6833 2.17776C82.2932 0.899606 80.5219 0.0932617 78.3255 0.0932617C73.7273 0.0932617 70.3193 3.63584 70.3193 8.18736C70.3193 12.7389 73.7286 16.2615 78.3255 16.2615Z" fill="#232323"/>
</g>
<defs>
<linearGradient id="paint0_linear_3041_22908" x1="10.5852" y1="-16.0581" x2="10.5852" y2="8.6437" gradientUnits="userSpaceOnUse">
<stop stop-color="#F06724"/>
<stop offset="0.5201" stop-color="#CB198A"/>
<stop offset="0.7659" stop-color="#613F98"/>
</linearGradient>
<linearGradient id="paint1_linear_3041_22908" x1="12.7134" y1="-11.85" x2="13.3976" y2="12.3515" gradientUnits="userSpaceOnUse">
<stop stop-color="#F06724"/>
<stop offset="0.3082" stop-color="#CB198A"/>
<stop offset="0.6689" stop-color="#A52F8F"/>
<stop offset="1" stop-color="#613F98"/>
</linearGradient>
<linearGradient id="paint2_linear_3041_22908" x1="15.8257" y1="-2.80291" x2="15.8257" y2="15.2016" gradientUnits="userSpaceOnUse">
<stop stop-color="#F06724"/>
<stop offset="0.5201" stop-color="#CB198A"/>
<stop offset="1" stop-color="#613F98"/>
</linearGradient>
<linearGradient id="paint3_linear_3041_22908" x1="18.4459" y1="5.49239" x2="18.4459" y2="25.073" gradientUnits="userSpaceOnUse">
<stop stop-color="#F06724"/>
<stop offset="0.1831" stop-color="#EC6230"/>
<stop offset="0.6697" stop-color="#CB198A"/>
<stop offset="1" stop-color="#613F98"/>
</linearGradient>
<linearGradient id="paint4_linear_3041_22908" x1="7.47618" y1="-11.702" x2="8.16041" y2="12.4996" gradientUnits="userSpaceOnUse">
<stop stop-color="#F06724"/>
<stop offset="0.3082" stop-color="#CB198A"/>
<stop offset="0.6689" stop-color="#A52F8F"/>
<stop offset="1" stop-color="#613F98"/>
</linearGradient>
<linearGradient id="paint5_linear_3041_22908" x1="10.5853" y1="-2.80291" x2="10.5853" y2="15.2016" gradientUnits="userSpaceOnUse">
<stop stop-color="#F06724"/>
<stop offset="0.5201" stop-color="#CB198A"/>
<stop offset="1" stop-color="#613F98"/>
</linearGradient>
<linearGradient id="paint6_linear_3041_22908" x1="13.2055" y1="5.4924" x2="13.2055" y2="25.073" gradientUnits="userSpaceOnUse">
<stop stop-color="#F06724"/>
<stop offset="0.1831" stop-color="#EC6230"/>
<stop offset="0.6697" stop-color="#CB198A"/>
<stop offset="1" stop-color="#613F98"/>
</linearGradient>
<linearGradient id="paint7_linear_3041_22908" x1="5.34373" y1="16.7194" x2="5.34373" y2="11.7124" gradientUnits="userSpaceOnUse">
<stop stop-color="#F06724"/>
<stop offset="1" stop-color="#F7943F"/>
</linearGradient>
<linearGradient id="paint8_linear_3041_22908" x1="5.34386" y1="-2.8029" x2="5.34386" y2="15.2016" gradientUnits="userSpaceOnUse">
<stop stop-color="#F06724"/>
<stop offset="0.5201" stop-color="#CB198A"/>
<stop offset="1" stop-color="#613F98"/>
</linearGradient>
<linearGradient id="paint9_linear_3041_22908" x1="7.96406" y1="5.4924" x2="7.96406" y2="25.073" gradientUnits="userSpaceOnUse">
<stop stop-color="#F06724"/>
<stop offset="0.1831" stop-color="#EC6230"/>
<stop offset="0.6697" stop-color="#CB198A"/>
<stop offset="1" stop-color="#613F98"/>
</linearGradient>
<linearGradient id="paint10_linear_3041_22908" x1="2.72364" y1="5.49242" x2="2.72364" y2="25.073" gradientUnits="userSpaceOnUse">
<stop stop-color="#F06724"/>
<stop offset="0.1831" stop-color="#EC6230"/>
<stop offset="0.6697" stop-color="#CB198A"/>
<stop offset="1" stop-color="#613F98"/>
</linearGradient>
<linearGradient id="paint11_linear_3041_22908" x1="15.8257" y1="16.7194" x2="15.8257" y2="11.7124" gradientUnits="userSpaceOnUse">
<stop stop-color="#F06724"/>
<stop offset="1" stop-color="#F7943F"/>
</linearGradient>
<clipPath id="clip0_3041_22908">
<rect width="120.933" height="20" fill="white"/>
</clipPath>
</defs>
</svg>
