<svg width="100" height="28" viewBox="0 0 100 28" fill="none" xmlns="http://www.w3.org/2000/svg">
<g clip-path="url(#clip0_3041_22962)">
<g clip-path="url(#clip1_3041_22962)">
<path d="M48.4964 19.2422C48.4964 20.272 48.6597 20.524 49.9026 20.7068V22.33H43.3638V20.7068C44.4652 20.5466 44.6059 20.3179 44.6059 19.2422V15.4684C44.6059 13.7986 43.9503 13.0441 42.7082 13.0441C41.536 13.0441 40.458 14.028 40.458 14.8968V19.2422C40.458 20.3179 40.598 20.5466 41.7002 20.7068V22.33H35.138V20.7068C36.4027 20.524 36.5668 20.2712 36.5668 19.2422V9.13344C36.5668 8.30978 36.3102 7.96678 35.138 7.85244V6.25178L40.2473 5.40478L40.4573 5.58833V12.7711C41.3719 11.5578 42.7307 10.7318 44.4185 10.7318C47.0435 10.7318 48.4964 12.2189 48.4964 15.1916V19.2422ZM51.0125 19.628C51.0125 17.8002 52.4071 16.317 57.7574 16.0907V15.6847C57.7574 14.8719 57.4439 13.5108 56.0082 13.5108C54.1135 13.5108 54.801 15.5626 52.8652 15.5626C52.0532 15.5626 51.574 15.0547 51.574 14.3632C51.574 12.9617 53.6974 12.0252 56.362 12.0252C59.5883 12.0252 61.1921 13.3661 61.1921 15.8021V19.1948C61.1921 19.9881 61.4619 20.3731 62.0655 20.3731C62.2638 20.3646 62.4598 20.3303 62.6488 20.272V21.714C61.7116 22.2017 60.6499 22.5874 59.7555 22.5874C58.7561 22.5874 58.1113 22.1208 58.0483 20.8608H57.9868C57.1546 21.7342 56.1342 22.5874 54.3857 22.5874C52.3448 22.5944 51.0125 21.518 51.0125 19.628ZM57.7574 18.816V17.3126C55.634 17.4541 54.4884 18.1456 54.4884 19.3239C54.4884 20.1973 55.0095 20.7029 55.8619 20.7029C56.3644 20.706 56.8466 20.5084 57.2028 20.1546C57.5583 19.7999 57.7582 19.3184 57.7574 18.816ZM70.2462 12.2344H74.4088V13.6733C73.5144 13.8771 73.2017 14.3648 72.8268 15.218L69.9156 22.3308H67.0223L63.8941 15.2211C63.6024 14.5717 63.3107 13.881 62.333 13.6772V12.2383H68.4114V13.6772C67.4547 13.8203 67.2043 14.2061 67.5169 14.9963L69.3276 19.628L71.076 14.9963C71.3879 14.2038 71.1375 13.8188 70.2438 13.6772L70.2462 12.2352V12.2344ZM85.1523 19.8528C84.0463 21.9854 82.0085 22.5952 80.2811 22.5952C76.9926 22.5952 74.7433 20.6648 74.7433 17.4751C74.7433 14.3064 77.0782 12.0307 80.3853 12.0307C83.088 12.0307 85.027 13.4929 85.027 16.135C85.0177 16.5581 84.9687 16.9797 84.8816 17.3934H78.2806C78.4891 19.2422 79.448 20.5434 81.1747 20.5434C82.2566 20.5434 83.1728 20.034 83.7546 18.9988L85.1523 19.8528ZM78.2619 16.0152H81.0308C81.6546 16.0152 81.9673 15.6497 81.9673 15.0601C81.9673 14.1268 81.4672 13.4151 80.4265 13.4151C79.259 13.4128 78.426 14.3469 78.2596 16.0129L78.2619 16.0152ZM86.4426 22.33V20.8888C87.4833 20.7464 87.7119 20.5839 87.7119 19.5883V15.3424C87.7119 14.6113 87.4623 14.3064 86.4426 14.2038V12.7828L90.7927 12.0314L90.9771 12.2142V14.0016H91.0191C91.8303 12.9049 93.1004 12.0314 94.6824 12.0314C97.0142 12.0314 98.3037 13.3506 98.3037 15.9927V19.5899C98.3037 20.5854 98.5332 20.748 99.5528 20.8903V22.3323H93.7475V20.8888C94.7672 20.7464 94.8535 20.5839 94.8535 19.5883V16.2361C94.8535 14.7529 94.3324 14.0832 93.2295 14.0832C92.2098 14.0832 91.1684 14.9567 91.1684 15.7088V19.5883C91.1684 20.5839 91.2516 20.7464 92.2744 20.8888V22.3308H86.4426V22.33ZM29.0908 14.9543L25.4967 13.8499C25.4858 13.8468 25.4765 13.8398 25.4695 13.8312C25.4594 13.818 25.4563 13.8001 25.4617 13.7838C25.4672 13.7674 25.4804 13.755 25.4967 13.7503L29.0457 12.5137C29.1118 12.4903 29.1663 12.4421 29.1974 12.3791C29.2277 12.3169 29.2316 12.2446 29.2075 12.1792L27.0935 6.40111C27.0694 6.33578 27.0204 6.28211 26.9566 6.25333C26.892 6.22378 26.8189 6.22067 26.752 6.244L24.0718 7.17733C24.05 7.18433 24.0259 7.17733 24.0112 7.15944C23.9972 7.14078 23.9972 7.11589 24.0104 7.09722L25.681 4.85178C25.723 4.79578 25.7402 4.72578 25.7293 4.65733C25.7184 4.58811 25.6795 4.52667 25.6227 4.487L20.5438 0.877333C20.424 0.792556 20.2584 0.817444 20.1697 0.934111L18.1467 3.64544C18.1366 3.65867 18.1203 3.66644 18.1032 3.66644C18.086 3.66644 18.0697 3.65867 18.0596 3.64544C18.0526 3.63689 18.0487 3.626 18.0487 3.61433V0.261333C18.0487 0.191333 18.0207 0.125222 17.9709 0.0762222C17.9204 0.0272222 17.8519 0 17.7812 0H11.4967C11.4259 0 11.3583 0.0272222 11.3077 0.0762222C11.2579 0.125222 11.2299 0.191333 11.2299 0.261333V3.27133C11.2299 3.28222 11.226 3.29311 11.219 3.30167C11.205 3.32033 11.1802 3.32811 11.1576 3.32033C11.1467 3.31644 11.1374 3.31022 11.1312 3.30089L9.36327 0.835333C9.27616 0.717111 9.11127 0.689111 8.98993 0.771555L3.84182 4.28478C3.78349 4.32367 3.74382 4.38433 3.73138 4.45278C3.71893 4.52122 3.73449 4.592 3.77571 4.64878L6.00327 7.756C6.01727 7.77467 6.01727 7.79956 6.00327 7.81822C5.98849 7.83767 5.9636 7.84467 5.94105 7.83611L2.23571 6.69744C2.13304 6.66633 2.02104 6.69822 1.95027 6.77911C1.92771 6.80555 1.9106 6.83589 1.90049 6.86856L0.0128227 12.7174C-0.0206217 12.8186 0.0128227 12.9306 0.096045 12.9967C0.123267 13.0184 0.154378 13.0356 0.187823 13.0457L3.78271 14.1501C3.7936 14.1532 3.80293 14.1602 3.80993 14.1688C3.82393 14.1874 3.82393 14.2123 3.80993 14.231C3.80293 14.2396 3.7936 14.2466 3.78271 14.2497L0.234489 15.4879C0.168378 15.5112 0.113934 15.5594 0.0828227 15.6224C0.0524894 15.6847 0.0486005 15.757 0.0719339 15.8223L2.18749 21.5981C2.21082 21.6627 2.25982 21.7163 2.32438 21.7459C2.38893 21.7754 2.46127 21.7786 2.52816 21.7552L5.20916 20.8219C5.23093 20.8149 5.25504 20.8219 5.26982 20.8398C5.28382 20.8584 5.28382 20.8833 5.26982 20.902L3.59605 23.1467C3.53305 23.2314 3.52838 23.3466 3.58438 23.4368C3.60227 23.4663 3.62638 23.4912 3.65438 23.5114L8.73482 27.1211C8.8546 27.2059 9.01949 27.181 9.10893 27.0643L11.1327 24.3522C11.1467 24.3336 11.1716 24.3266 11.1934 24.3336C11.2043 24.3374 11.2136 24.3437 11.2198 24.353C11.2268 24.3623 11.2299 24.3732 11.2299 24.3841V27.7379C11.2299 27.8071 11.2579 27.874 11.3085 27.923C11.359 27.972 11.4275 27.9992 11.4983 27.9992H17.7819C17.8527 27.9992 17.9204 27.972 17.9709 27.923C18.0207 27.8748 18.0495 27.8079 18.0495 27.7379V24.7279C18.0503 24.7046 18.0658 24.6851 18.0876 24.6781C18.1102 24.6711 18.1343 24.6797 18.1483 24.6983L19.9154 27.1639C20.0025 27.2821 20.1674 27.3109 20.2887 27.2277L25.4353 23.7129C25.4928 23.674 25.5333 23.6141 25.5457 23.5457C25.5582 23.4764 25.5418 23.4064 25.5014 23.3497L23.2746 20.2424C23.2676 20.2339 23.2637 20.223 23.2637 20.2113C23.2645 20.1942 23.273 20.1779 23.287 20.1686C23.3018 20.1584 23.3197 20.1561 23.336 20.1623L27.0422 21.3018C27.1448 21.3329 27.2568 21.301 27.3276 21.2201C27.3502 21.1937 27.3673 21.1633 27.3782 21.1307L29.2666 15.2818C29.2884 15.2157 29.2822 15.1433 29.2487 15.0819C29.216 15.0197 29.1593 14.9738 29.0916 14.9536L29.0908 14.9543ZM24.0532 14.0824L20.5376 15.743C20.5135 15.7531 20.494 15.7733 20.4855 15.799C20.4769 15.8239 20.4793 15.8511 20.4925 15.8744L22.314 19.32C22.3312 19.3527 22.3273 19.3916 22.3055 19.4211C22.2829 19.4514 22.2456 19.4662 22.2083 19.4592L18.4547 18.7997C18.429 18.795 18.4018 18.8004 18.38 18.8152C18.359 18.83 18.3443 18.8526 18.3396 18.8774L17.6443 22.7236C17.6388 22.7492 17.624 22.7718 17.6023 22.7866C17.5805 22.8013 17.5533 22.8068 17.5276 22.8013C17.5105 22.7982 17.4949 22.7904 17.4817 22.7788L14.7362 20.4019C14.6988 20.3692 14.6428 20.3692 14.6055 20.4019L11.8234 22.778C11.7814 22.8138 11.7184 22.8091 11.6826 22.7671C11.6709 22.7539 11.6639 22.7376 11.6608 22.7204L11.0013 18.9389C10.9966 18.914 10.9826 18.8914 10.9616 18.8767C10.9398 18.8619 10.9134 18.8557 10.8877 18.8596L7.07038 19.4662C7.03538 19.4717 6.9996 19.4584 6.97704 19.4312C6.95527 19.404 6.94982 19.3667 6.96304 19.3348L8.37238 15.8659C8.38093 15.8441 8.38171 15.8192 8.37316 15.7974C8.3646 15.7749 8.34904 15.757 8.32804 15.7453L5.2216 14.077C5.19127 14.0599 5.1726 14.028 5.1726 13.993C5.1726 13.9588 5.19127 13.9269 5.2216 13.9098L8.33582 12.1108C8.35604 12.0991 8.3716 12.0804 8.37938 12.0587C8.38716 12.0369 8.38638 12.0128 8.37704 11.991L6.97004 8.65667C6.95604 8.624 6.96149 8.58667 6.98404 8.55944C7.0066 8.53144 7.04238 8.51822 7.07738 8.52444L10.8885 9.11322C10.9142 9.11711 10.9406 9.11167 10.9616 9.09689C10.9826 9.08211 10.9966 9.05956 11.0013 9.03467L11.6585 5.28111C11.6632 5.25467 11.6795 5.23133 11.702 5.21656C11.7246 5.20178 11.7526 5.19711 11.779 5.20333C11.7969 5.20722 11.8125 5.21656 11.8257 5.229L14.5402 7.86256C14.579 7.90067 14.6413 7.90067 14.6802 7.86256L17.4802 5.22433C17.5066 5.19944 17.5447 5.19011 17.5797 5.20178C17.5968 5.20722 17.6124 5.21733 17.624 5.23056C17.6357 5.24378 17.6443 5.26011 17.6474 5.27722L18.3396 9.037C18.345 9.06189 18.359 9.08367 18.38 9.09844C18.4018 9.11244 18.4275 9.11867 18.4532 9.114L22.2122 8.52678C22.2487 8.52133 22.286 8.53611 22.3086 8.56567C22.3312 8.59522 22.3343 8.63411 22.3164 8.66678L20.4925 12.0999C20.48 12.1232 20.4785 12.1497 20.4863 12.1746C20.4948 12.1994 20.5127 12.2197 20.5368 12.2306L24.0539 13.9098C24.0874 13.9253 24.1092 13.9588 24.1092 13.9961C24.1092 14.0334 24.0866 14.0669 24.0532 14.0824Z" fill="#1E1B1A"/>
</g>
</g>
<defs>
<clipPath id="clip0_3041_22962">
<rect width="99.5556" height="28" fill="white"/>
</clipPath>
<clipPath id="clip1_3041_22962">
<rect width="99.5556" height="28" fill="white"/>
</clipPath>
</defs>
</svg>
