<svg width="97" height="47" viewBox="0 0 97 47" fill="none" xmlns="http://www.w3.org/2000/svg">
<path d="M5.85703 33.8583C6.70898 33.8583 7.39961 33.1677 7.39961 32.3158C7.39961 31.4638 6.70898 30.7732 5.85703 30.7732C5.00508 30.7732 4.31445 31.4638 4.31445 32.3158C4.31445 33.1677 5.00508 33.8583 5.85703 33.8583Z" fill="#372606"/>
<path d="M31.9258 15.2881C32.0348 14.9323 32.2277 14.6123 32.4781 14.3514L22.3125 8.48108C22.2266 8.84592 22.0586 9.17834 21.8262 9.45725L31.9258 15.2881Z" fill="#372606"/>
<path d="M34.1832 17.5223C35.0352 17.5223 35.7258 16.8317 35.7258 15.9797C35.7258 15.1278 35.0352 14.4371 34.1832 14.4371C33.3313 14.4371 32.6406 15.1278 32.6406 15.9797C32.6406 16.8317 33.3313 17.5223 34.1832 17.5223Z" fill="#372606"/>
<path d="M20.0191 9.48921C20.8711 9.48921 21.5617 8.79858 21.5617 7.94663C21.5617 7.09468 20.8711 6.40405 20.0191 6.40405C19.1672 6.40405 18.4766 7.09468 18.4766 7.94663C18.4766 8.79858 19.1672 9.48921 20.0191 9.48921Z" fill="#372606"/>
<path d="M34.1832 33.8582C35.0352 33.8582 35.7258 33.1676 35.7258 32.3156C35.7258 31.4637 35.0352 30.7731 34.1832 30.7731C33.3313 30.7731 32.6406 31.4637 32.6406 32.3156C32.6406 33.1676 33.3313 33.8582 34.1832 33.8582Z" fill="#372606"/>
<path d="M6.40117 30.0233V18.2721C6.22617 18.3131 6.0457 18.3381 5.85781 18.3381C5.67031 18.3381 5.48945 18.3131 5.31445 18.2721V30.0233C5.48945 29.9819 5.67031 29.9569 5.85781 29.9569C6.0457 29.9569 6.22617 29.9819 6.40117 30.0233Z" fill="#372606"/>
<path d="M18.2102 9.45725C17.9777 9.17834 17.8098 8.84592 17.7242 8.48108L7.55859 14.3514C7.81055 14.6143 8.00195 14.9323 8.11094 15.2881L18.2102 9.45725Z" fill="#372606"/>
<path d="M21.8262 38.8187C22.0586 39.0976 22.2266 39.43 22.3125 39.7945L32.4672 33.9316C32.2187 33.6671 32.0277 33.3468 31.9223 32.9894L21.8262 38.8187Z" fill="#372606"/>
<path d="M8.11562 32.9908C8.0082 33.3483 7.81875 33.6682 7.57031 33.9326L17.725 39.7959C17.8109 39.4311 17.9789 39.0987 18.2113 38.8198L8.11562 32.9908Z" fill="#372606"/>
<path d="M33.6387 18.2721V30.0233C33.8141 29.9823 33.9945 29.9573 34.182 29.9573C34.3699 29.9573 34.5523 29.9823 34.7254 30.0233V18.2721C34.5504 18.3135 34.368 18.3385 34.182 18.3385C33.9961 18.3385 33.8141 18.3151 33.6387 18.2721Z" fill="#372606"/>
<path d="M20.0215 22.5963C20.2344 22.5963 20.4379 22.6389 20.6223 22.7178C20.4363 22.6389 20.2344 22.5963 20.0215 22.5963Z" fill="#372606"/>
<path d="M21.5316 23.8273C21.4492 23.4249 21.2117 23.08 20.8828 22.8585C21.2117 23.082 21.4492 23.4269 21.5316 23.8273Z" fill="#372606"/>
<path d="M19.418 22.7172C19.5934 22.6438 19.7863 22.6028 19.9867 22.5992C19.7863 22.6047 19.5934 22.6438 19.418 22.7172Z" fill="#372606"/>
<path d="M20.0215 25.6797C20.2344 25.6797 20.4379 25.6367 20.6223 25.5582C20.4363 25.6367 20.2344 25.6797 20.0215 25.6797Z" fill="#372606"/>
<path d="M21.5316 24.4479C21.4707 24.7498 21.3207 25.0182 21.1113 25.2272C21.3207 25.0182 21.4691 24.7498 21.5316 24.4479Z" fill="#372606"/>
<path d="M19.1555 22.8601C18.8891 23.039 18.6887 23.3015 18.5762 23.6074C18.6887 23.3015 18.891 23.039 19.1555 22.8601Z" fill="#372606"/>
<path d="M21.5594 24.1377C21.5594 24.0303 21.5488 23.9268 21.5273 23.8268C21.5488 23.9287 21.5594 24.0323 21.5594 24.1377Z" fill="#372606"/>
<path d="M18.4766 24.138C18.4766 23.9501 18.516 23.7732 18.5766 23.6072C18.5141 23.7732 18.4766 23.9501 18.4766 24.138Z" fill="#372606"/>
<path d="M20.0203 22.5964C20.0094 22.5964 19.9988 22.6 19.9883 22.6C19.9988 22.598 20.0094 22.5964 20.0203 22.5964Z" fill="#372606"/>
<path d="M7.5459 16.864C7.64434 16.707 7.84102 16.7777 7.98243 16.8328C8.32027 16.9632 8.65961 17.1013 8.9795 17.2693C11.7412 18.7244 14.5045 20.18 17.2588 21.6511C17.5048 21.7829 17.7361 21.9354 17.957 22.1023C18.4837 21.5688 19.2148 21.2382 20.0215 21.238C20.8339 21.238 21.5684 21.5741 22.0957 22.114C22.6145 21.7172 23.2036 21.4366 23.7793 21.1345C26.285 19.8229 28.7892 18.5075 31.2988 17.2009C31.5723 17.0595 31.8727 16.9662 32.1621 16.8552C32.2086 16.8357 32.2664 16.8238 32.3164 16.8308C32.3859 16.8417 32.4913 16.8557 32.5147 16.9021C32.543 16.9612 32.5355 17.0772 32.4961 17.1287C32.3407 17.3111 32.1836 17.501 31.9941 17.6423C31.5008 18.0122 30.9947 18.3623 30.4854 18.7107C28.2705 20.2247 26.0574 21.7443 23.832 23.2419C23.5347 23.4425 23.2198 23.6068 22.8945 23.7488C22.912 23.877 22.9247 24.0075 22.9248 24.1404C22.9248 25.445 22.0609 26.5497 20.875 26.9148C20.9246 27.4784 20.9318 28.0463 20.8906 28.6209C20.7707 30.2779 20.7096 31.9385 20.6182 33.5974C20.5432 34.952 20.4609 36.305 20.375 37.658C20.3645 37.8369 20.3252 38.0212 20.2627 38.1892C20.2253 38.2912 20.2233 38.4578 20.0449 38.4578C19.868 38.4578 19.8463 38.298 19.8174 38.2C19.7389 37.9246 19.6715 37.6401 19.6484 37.3562C19.5731 36.4429 19.5189 35.5277 19.4619 34.614C19.36 33.0035 19.2602 31.3915 19.1582 29.781C19.1117 29.0318 19.0078 28.2793 19.0332 27.532C19.0405 27.3164 19.0616 27.1014 19.0879 26.8865C17.9442 26.4964 17.1192 25.4137 17.1191 24.1404C17.1191 23.9966 17.1331 23.8557 17.1533 23.7175C16.7116 23.5209 16.2842 23.2913 15.8779 23.0095C13.4667 21.3346 11.0388 19.6829 8.62403 18.0134C8.30215 17.79 8.00684 17.5267 7.70996 17.2693C7.59405 17.1674 7.44786 17.0228 7.5459 16.864ZM19.9902 22.5994C19.79 22.6029 19.5968 22.6442 19.4219 22.7175C19.3289 22.757 19.2402 22.8046 19.1582 22.8601C19.0982 22.9007 19.0416 22.9461 18.9883 22.9949C18.9928 22.9991 18.9974 23.0034 19.002 23.0076C18.8253 23.1688 18.6769 23.3604 18.5879 23.5867C18.5852 23.5938 18.5817 23.601 18.5791 23.6082C18.5187 23.774 18.4795 23.9508 18.4795 24.1384C18.4795 24.1406 18.4795 24.1431 18.4795 24.1453C18.4814 24.1709 18.4927 24.1926 18.4941 24.2175C18.4902 24.2163 18.4864 24.2149 18.4824 24.2136C18.4913 24.399 18.5314 24.5768 18.6006 24.739C18.7394 25.068 18.992 25.3385 19.3066 25.5037C19.3076 25.4978 19.3096 25.492 19.3106 25.4861C19.3462 25.5055 19.3757 25.5355 19.4121 25.5544C19.4154 25.5559 19.4186 25.5579 19.4219 25.5593C19.6057 25.6378 19.8092 25.6813 20.0215 25.6814C20.2344 25.6814 20.4387 25.6378 20.6231 25.5593C20.6321 25.5554 20.6404 25.5497 20.6494 25.5457C20.6543 25.5417 20.6597 25.5386 20.665 25.5359V25.5378C20.8317 25.4603 20.9843 25.3576 21.1123 25.2293C21.3216 25.0203 21.4713 24.7518 21.5322 24.45C21.547 24.3745 21.5551 24.2964 21.5606 24.2175L21.5586 24.2185C21.5586 24.1916 21.5664 24.1683 21.5664 24.1414C21.5664 24.0345 21.5546 23.9307 21.5332 23.8308C21.4672 23.5019 21.2766 23.2279 21.0352 23.0115C21.0415 23.0061 21.0474 23.0003 21.0537 22.9949C21.0003 22.9468 20.9446 22.9004 20.8848 22.8601C20.803 22.8048 20.7157 22.7569 20.6231 22.7175C20.4387 22.639 20.2344 22.5964 20.0215 22.5964C20.0112 22.5965 20.0005 22.5993 19.9902 22.5994Z" fill="#372606"/>
<path d="M20.0191 41.874C20.8711 41.874 21.5617 41.1833 21.5617 40.3314C21.5617 39.4794 20.8711 38.7888 20.0191 38.7888C19.1672 38.7888 18.4766 39.4794 18.4766 40.3314C18.4766 41.1833 19.1672 41.874 20.0191 41.874Z" fill="#372606"/>
<path d="M5.85703 17.5224C6.70898 17.5224 7.39961 16.8318 7.39961 15.9798C7.39961 15.1279 6.70898 14.4373 5.85703 14.4373C5.00508 14.4373 4.31445 15.1279 4.31445 15.9798C4.31445 16.8318 5.00508 17.5224 5.85703 17.5224Z" fill="#372606"/>
<path d="M42.9489 18.3874H47.5551V22.8389H49.8302V11.843H47.5551V16.1821H42.9489V11.843H40.6738V22.8389H42.9489V18.3874Z" fill="#372606"/>
<path d="M53.8892 19.6932H59.3382C59.3664 19.4406 59.3664 19.1735 59.3664 18.9064C59.3664 16.6878 57.8637 15.1569 55.6308 15.1569C53.4681 15.1569 51.6562 16.9122 51.6562 19.0754C51.6562 21.4065 53.4964 23.0072 55.7715 23.0072C57.288 23.0072 58.369 22.4454 59.0013 21.3078L57.4144 20.2689C57.0775 20.8308 56.3749 21.1676 55.7432 21.1676C54.8301 21.1676 54.03 20.6341 53.8892 19.6932ZM57.1756 18.2465H53.9458C54.03 17.755 54.5919 16.9405 55.5748 16.9405C56.6702 16.9405 57.1334 17.699 57.1756 18.2465Z" fill="#372606"/>
<path d="M62.4955 22.839L63.9423 20.6343L65.3746 22.839H67.8325L65.1219 19.0191L67.7622 15.34H65.3469L63.9561 17.4605L62.608 15.34H60.1506L62.7626 19.0612L60.0664 22.839H62.4955Z" fill="#372606"/>
<path d="M71.1045 22.9791C71.919 22.9791 72.7895 22.6988 73.3513 21.8981L73.379 21.912V22.839H75.4015V18.1907C75.4015 16.1683 74.0534 15.1715 72.1434 15.1715C70.444 15.1715 69.3065 15.8453 68.7031 16.9545L70.3742 17.9519C70.7394 17.292 71.2585 16.9407 72.0454 16.9407C72.8737 16.9407 73.2527 17.3901 73.2527 17.8677C73.2527 18.1763 73.0704 18.4151 72.6632 18.4151H71.919C70.4019 18.4151 68.5762 18.8645 68.5762 20.7185V20.7468C68.5762 22.137 69.7558 22.9791 71.1045 22.9791ZM71.7362 21.3784C71.2164 21.3784 70.7815 21.154 70.7815 20.6198C70.7815 20.0303 71.3289 19.7632 71.919 19.7632H73.2389V19.9322C73.2389 20.7185 72.7053 21.3784 71.7362 21.3784Z" fill="#372606"/>
<path d="M40 30.4979C40 33.7 42.4574 36.1435 45.6595 36.1435C47.8221 36.1435 49.9708 34.9494 50.7288 32.871L48.6366 31.9025C48.1589 33.096 47.0635 33.9388 45.6877 33.9388C43.7357 33.9388 42.3593 32.3796 42.3593 30.4696C42.3593 28.5879 43.7778 27.0431 45.6877 27.0431C47.0635 27.0431 48.1451 27.8155 48.6083 29.0235L50.6867 28.0682C49.9426 26.0042 47.8642 24.8246 45.7016 24.8246C42.556 24.8246 40 27.3241 40 30.4979Z" fill="#372606"/>
<path d="M54.2955 24.5437H52.0908V35.989H54.2955V24.5437Z" fill="#372606"/>
<path d="M56.0508 25.8777C56.0508 26.6218 56.6686 27.2258 57.3989 27.2258C58.1713 27.2258 58.7752 26.6218 58.7752 25.8777C58.7752 25.1191 58.1713 24.5151 57.3989 24.5151C56.6686 24.5151 56.0508 25.1191 56.0508 25.8777ZM56.3179 35.9887V28.4896H58.5226V35.9887H56.3179Z" fill="#372606"/>
<path d="M68.8164 30.3716C69.7151 30.3716 70.0381 30.9894 70.0381 31.804V35.989H72.229V31.3125C72.229 29.5992 71.4283 28.3215 69.5888 28.3215C68.5072 28.3215 67.8051 28.7288 67.1031 29.515C66.6676 28.6867 65.811 28.3215 64.9122 28.3215C64.0556 28.3215 63.1569 28.7144 62.7214 29.4729H62.6937V28.49H60.5449V35.989H62.7358V31.8322C62.7358 30.9756 63.1707 30.3716 64.0695 30.3716C64.9688 30.3716 65.2912 31.0177 65.2912 31.8322V35.989H67.4683V31.804C67.4683 30.9473 67.9315 30.3716 68.8164 30.3716Z" fill="#372606"/>
<path d="M76.2862 36.1292C77.1007 36.1292 77.9711 35.8488 78.533 35.0482L78.5607 35.062V35.989H80.5831V31.3408C80.5831 29.3183 79.235 28.3215 77.3251 28.3215C75.6257 28.3215 74.4881 28.9953 73.8847 30.1046L75.5559 31.1019C75.921 30.442 76.4402 30.0907 77.227 30.0907C78.0554 30.0907 78.4343 30.5401 78.4343 31.0177C78.4343 31.3263 78.2521 31.5651 77.8448 31.5651H77.1007C75.5835 31.5651 73.7578 32.0145 73.7578 33.8685V33.8968C73.7578 35.287 74.9375 36.1292 76.2862 36.1292ZM76.9178 34.5284C76.3981 34.5284 75.9631 34.304 75.9631 33.7699C75.9631 33.1803 76.5105 32.9132 77.1007 32.9132H78.4205V33.0823C78.4205 33.8685 77.8869 34.5284 76.9178 34.5284Z" fill="#372606"/>
<path d="M87.1692 35.9468V34.1349C86.9864 34.177 86.7758 34.1915 86.6633 34.1915C85.835 34.1915 85.3573 33.8823 85.3573 32.998V30.3854H87.2113V28.4899H85.3573V26.1444H83.1947V28.4899H81.8184V30.3854H83.1665V33.2645C83.1665 34.9777 84.15 36.087 86.1442 36.087C86.481 36.087 86.7896 36.0593 87.1692 35.9468Z" fill="#372606"/>
<path d="M90.6226 32.8432H96.0716C96.0998 32.5906 96.0998 32.3235 96.0998 32.0564C96.0998 29.8379 94.5971 28.3069 92.3642 28.3069C90.2015 28.3069 88.3896 30.0622 88.3896 32.2254C88.3896 34.5565 90.2298 36.1572 92.5049 36.1572C94.0214 36.1572 95.1024 35.5954 95.7347 34.4578L94.1478 33.4189C93.8109 33.9808 93.1083 34.3177 92.4766 34.3177C91.5635 34.3177 90.7634 33.7841 90.6226 32.8432ZM93.909 31.3965H90.6792C90.7634 30.905 91.3253 30.0905 92.3082 30.0905C93.4036 30.0905 93.8668 30.8491 93.909 31.3965Z" fill="#372606"/>
</svg>
