<svg width="92" height="48" viewBox="0 0 92 48" fill="none" xmlns="http://www.w3.org/2000/svg">
<g clip-path="url(#clip0_1371_1495)">
<path d="M1.87461 33.8581C2.72656 33.8581 3.41719 33.1675 3.41719 32.3155C3.41719 31.4636 2.72656 30.7729 1.87461 30.7729C1.02266 30.7729 0.332031 31.4636 0.332031 32.3155C0.332031 33.1675 1.02266 33.8581 1.87461 33.8581Z" fill="#372606"/>
<path d="M27.9434 15.288C28.0523 14.9321 28.2453 14.6122 28.4957 14.3513L18.3301 8.48096C18.2441 8.8458 18.0762 9.17822 17.8438 9.45713L27.9434 15.288Z" fill="#372606"/>
<path d="M30.2008 17.5222C31.0527 17.5222 31.7434 16.8315 31.7434 15.9796C31.7434 15.1276 31.0527 14.437 30.2008 14.437C29.3488 14.437 28.6582 15.1276 28.6582 15.9796C28.6582 16.8315 29.3488 17.5222 30.2008 17.5222Z" fill="#372606"/>
<path d="M16.0367 9.48896C16.8887 9.48896 17.5793 8.79834 17.5793 7.94639C17.5793 7.09443 16.8887 6.40381 16.0367 6.40381C15.1848 6.40381 14.4941 7.09443 14.4941 7.94639C14.4941 8.79834 15.1848 9.48896 16.0367 9.48896Z" fill="#372606"/>
<path d="M30.2008 33.8581C31.0527 33.8581 31.7434 33.1675 31.7434 32.3155C31.7434 31.4636 31.0527 30.7729 30.2008 30.7729C29.3488 30.7729 28.6582 31.4636 28.6582 32.3155C28.6582 33.1675 29.3488 33.8581 30.2008 33.8581Z" fill="#372606"/>
<path d="M2.41875 30.0231V18.272C2.24375 18.313 2.06328 18.338 1.87539 18.338C1.68789 18.338 1.50703 18.313 1.33203 18.272V30.0231C1.50703 29.9817 1.68789 29.9567 1.87539 29.9567C2.06328 29.9567 2.24375 29.9817 2.41875 30.0231Z" fill="#372606"/>
<path d="M14.2277 9.45713C13.9953 9.17822 13.8273 8.8458 13.7418 8.48096L3.57617 14.3513C3.82812 14.6142 4.01953 14.9321 4.12852 15.288L14.2277 9.45713Z" fill="#372606"/>
<path d="M17.8438 38.8186C18.0762 39.0975 18.2441 39.4299 18.3301 39.7943L28.4848 33.9314C28.2363 33.667 28.0453 33.3467 27.9398 32.9893L17.8438 38.8186Z" fill="#372606"/>
<path d="M4.1332 32.9907C4.02578 33.3481 3.83633 33.6681 3.58789 33.9325L13.7426 39.7958C13.8285 39.431 13.9965 39.0985 14.2289 38.8196L4.1332 32.9907Z" fill="#372606"/>
<path d="M29.6562 18.272V30.0231C29.8316 29.9821 30.0121 29.9571 30.1996 29.9571C30.3875 29.9571 30.5699 29.9821 30.743 30.0231V18.272C30.568 18.3134 30.3855 18.3384 30.1996 18.3384C30.0137 18.3384 29.8316 18.3149 29.6562 18.272Z" fill="#372606"/>
<path d="M16.0391 22.5962C16.252 22.5962 16.4555 22.6388 16.6398 22.7177C16.4539 22.6388 16.252 22.5962 16.0391 22.5962Z" fill="#372606"/>
<path d="M17.5492 23.8271C17.4668 23.4248 17.2293 23.0799 16.9004 22.8584C17.2293 23.0818 17.4668 23.4268 17.5492 23.8271Z" fill="#372606"/>
<path d="M15.4355 22.7171C15.6109 22.6437 15.8039 22.6026 16.0043 22.5991C15.8039 22.6046 15.6109 22.6437 15.4355 22.7171Z" fill="#372606"/>
<path d="M16.0391 25.6796C16.252 25.6796 16.4555 25.6366 16.6398 25.5581C16.4539 25.6366 16.252 25.6796 16.0391 25.6796Z" fill="#372606"/>
<path d="M17.5492 24.4478C17.4883 24.7497 17.3383 25.0181 17.1289 25.2271C17.3383 25.0181 17.4867 24.7497 17.5492 24.4478Z" fill="#372606"/>
<path d="M15.173 22.8599C14.9066 23.0388 14.7063 23.3013 14.5938 23.6071C14.7063 23.3013 14.9086 23.0388 15.173 22.8599Z" fill="#372606"/>
<path d="M17.577 24.1376C17.577 24.0302 17.5664 23.9267 17.5449 23.8267C17.5664 23.9286 17.577 24.0321 17.577 24.1376Z" fill="#372606"/>
<path d="M14.4941 24.1378C14.4941 23.9499 14.5336 23.7729 14.5941 23.6069C14.5316 23.7729 14.4941 23.9499 14.4941 24.1378Z" fill="#372606"/>
<path d="M16.0379 22.5962C16.027 22.5962 16.0164 22.5997 16.0059 22.5997C16.0164 22.5978 16.027 22.5962 16.0379 22.5962Z" fill="#372606"/>
<path d="M3.56348 16.8638C3.66191 16.7067 3.85859 16.7774 4 16.8325C4.33785 16.963 4.67719 17.1011 4.99707 17.269C7.75877 18.7241 10.5221 20.1798 13.2764 21.6509C13.5224 21.7826 13.7537 21.9351 13.9746 22.1021C14.5013 21.5685 15.2324 21.2379 16.0391 21.2378C16.8514 21.2378 17.586 21.5739 18.1133 22.1138C18.6321 21.7169 19.2212 21.4364 19.7969 21.1343C22.3026 19.8226 24.8068 18.5072 27.3164 17.2007C27.5898 17.0593 27.8902 16.9659 28.1797 16.855C28.2262 16.8355 28.284 16.8235 28.334 16.8306C28.4035 16.8415 28.5088 16.8555 28.5322 16.9019C28.5606 16.9609 28.5531 17.0769 28.5137 17.1284C28.3582 17.3108 28.2011 17.5007 28.0117 17.6421C27.5184 18.012 27.0123 18.362 26.5029 18.7104C24.2881 20.2245 22.075 21.7441 19.8496 23.2417C19.5523 23.4423 19.2373 23.6065 18.9121 23.7485C18.9296 23.8767 18.9423 24.0072 18.9424 24.1401C18.9423 25.4448 18.0785 26.5495 16.8926 26.9146C16.9422 27.4782 16.9494 28.0461 16.9082 28.6206C16.7883 30.2776 16.7271 31.9382 16.6357 33.5972C16.5607 34.9517 16.4785 36.3047 16.3926 37.6577C16.382 37.8366 16.3428 38.021 16.2803 38.189C16.2428 38.2909 16.2409 38.4575 16.0625 38.4575C15.8856 38.4575 15.8639 38.2977 15.835 38.1997C15.7565 37.9244 15.6891 37.6399 15.666 37.356C15.5906 36.4427 15.5365 35.5274 15.4795 34.6138C15.3775 33.0033 15.2777 31.3912 15.1758 29.7808C15.1293 29.0315 15.0254 28.279 15.0508 27.5317C15.058 27.3161 15.0792 27.1012 15.1055 26.8862C13.9617 26.4962 13.1368 25.4134 13.1367 24.1401C13.1367 23.9964 13.1506 23.8555 13.1709 23.7173C12.7292 23.5206 12.3017 23.2911 11.8955 23.0093C9.48423 21.3343 7.05639 19.6827 4.6416 18.0132C4.31973 17.7897 4.02441 17.5265 3.72754 17.269C3.61163 17.1672 3.46543 17.0225 3.56348 16.8638ZM16.0078 22.5991C15.8076 22.6026 15.6144 22.6439 15.4395 22.7173C15.3465 22.7567 15.2578 22.8044 15.1758 22.8599C15.1157 22.9005 15.0592 22.9458 15.0059 22.9946C15.0104 22.9988 15.015 23.0031 15.0195 23.0073C14.8429 23.1685 14.6945 23.3602 14.6055 23.5864C14.6027 23.5935 14.5993 23.6008 14.5967 23.6079C14.5362 23.7737 14.4971 23.9505 14.4971 24.1382C14.4971 24.1404 14.4971 24.1428 14.4971 24.145C14.4989 24.1707 14.5103 24.1924 14.5117 24.2173C14.5078 24.216 14.5039 24.2146 14.5 24.2134C14.5089 24.3988 14.549 24.5766 14.6182 24.7388C14.757 25.0677 15.0096 25.3383 15.3242 25.5034C15.3252 25.4975 15.3272 25.4918 15.3281 25.4858C15.3638 25.5053 15.3933 25.5353 15.4297 25.5542C15.433 25.5556 15.4362 25.5577 15.4395 25.5591C15.6233 25.6375 15.8268 25.6811 16.0391 25.6812C16.252 25.6812 16.4562 25.6376 16.6406 25.5591C16.6497 25.5552 16.658 25.5495 16.667 25.5454C16.6719 25.5414 16.6773 25.5383 16.6826 25.5356V25.5376C16.8493 25.4601 17.0019 25.3573 17.1299 25.229C17.3392 25.0201 17.4888 24.7515 17.5498 24.4497C17.5645 24.3743 17.5727 24.2962 17.5781 24.2173L17.5762 24.2183C17.5762 24.1913 17.584 24.168 17.584 24.1411C17.584 24.0342 17.5722 23.9305 17.5508 23.8306C17.4848 23.5017 17.2941 23.2276 17.0527 23.0112C17.0591 23.0059 17.065 23 17.0713 22.9946C17.0179 22.9466 16.9621 22.9001 16.9023 22.8599C16.8205 22.8046 16.7333 22.7566 16.6406 22.7173C16.4562 22.6388 16.252 22.5962 16.0391 22.5962C16.0288 22.5963 16.0181 22.599 16.0078 22.5991Z" fill="#372606"/>
<path d="M16.0367 41.8737C16.8887 41.8737 17.5793 41.1831 17.5793 40.3312C17.5793 39.4792 16.8887 38.7886 16.0367 38.7886C15.1848 38.7886 14.4941 39.4792 14.4941 40.3312C14.4941 41.1831 15.1848 41.8737 16.0367 41.8737Z" fill="#372606"/>
<path d="M1.87461 17.5222C2.72656 17.5222 3.41719 16.8315 3.41719 15.9796C3.41719 15.1276 2.72656 14.437 1.87461 14.437C1.02266 14.437 0.332031 15.1276 0.332031 15.9796C0.332031 16.8315 1.02266 17.5222 1.87461 17.5222Z" fill="#372606"/>
<path d="M38.9665 18.3871H43.5726V22.8387H45.8477V11.8428H43.5726V16.1818H38.9665V11.8428H36.6914V22.8387H38.9665V18.3871Z" fill="#372606"/>
<path d="M49.9068 19.6931H55.3557C55.384 19.4404 55.384 19.1733 55.384 18.9063C55.384 16.6877 53.8813 15.1567 51.6483 15.1567C49.4857 15.1567 47.6738 16.9121 47.6738 19.0753C47.6738 21.4063 49.514 23.0071 51.7891 23.0071C53.3056 23.0071 54.3866 22.4452 55.0189 21.3077L53.432 20.2688C53.0951 20.8306 52.3925 21.1675 51.7608 21.1675C50.8477 21.1675 50.0476 20.6339 49.9068 19.6931ZM53.1931 18.2463H49.9634C50.0476 17.7549 50.6094 16.9404 51.5924 16.9404C52.6878 16.9404 53.151 17.6989 53.1931 18.2463Z" fill="#372606"/>
<path d="M58.5131 22.8389L59.9598 20.6342L61.3921 22.8389H63.8501L61.1395 19.019L63.7797 15.3398H61.3645L59.9737 17.4603L58.6256 15.3398H56.1682L58.7802 19.0611L56.084 22.8389H58.5131Z" fill="#372606"/>
<path d="M67.1221 22.979C67.9366 22.979 68.8071 22.6987 69.3689 21.898L69.3966 21.9119V22.8389H71.419V18.1906C71.419 16.1682 70.0709 15.1714 68.161 15.1714C66.4616 15.1714 65.324 15.8451 64.7207 16.9544L66.3918 17.9518C66.757 17.2919 67.2761 16.9406 68.0629 16.9406C68.8913 16.9406 69.2703 17.3899 69.2703 17.8676C69.2703 18.1762 69.088 18.415 68.6807 18.415H67.9366C66.4195 18.415 64.5938 18.8644 64.5938 20.7184V20.7466C64.5938 22.1368 65.7734 22.979 67.1221 22.979ZM67.7537 21.3783C67.234 21.3783 66.7991 21.1539 66.7991 20.6197C66.7991 20.0302 67.3465 19.7631 67.9366 19.7631H69.2564V19.9321C69.2564 20.7184 68.7229 21.3783 67.7537 21.3783Z" fill="#372606"/>
<path d="M36.0176 30.4975C36.0176 33.6996 38.4749 36.1432 41.677 36.1432C43.8397 36.1432 45.9884 34.9491 46.7464 32.8707L44.6542 31.9022C44.1765 33.0957 43.0811 33.9384 41.7053 33.9384C39.7533 33.9384 38.3769 32.3792 38.3769 30.4693C38.3769 28.5876 39.7954 27.0428 41.7053 27.0428C43.0811 27.0428 44.1627 27.8152 44.6259 29.0231L46.7043 28.0678C45.9601 26.0039 43.8818 24.8242 41.7192 24.8242C38.5736 24.8242 36.0176 27.3237 36.0176 30.4975Z" fill="#372606"/>
<path d="M50.3141 24.543H48.1094V35.9882H50.3141V24.543Z" fill="#372606"/>
<path d="M52.0684 25.8772C52.0684 26.6213 52.6862 27.2253 53.4165 27.2253C54.1889 27.2253 54.7928 26.6213 54.7928 25.8772C54.7928 25.1186 54.1889 24.5146 53.4165 24.5146C52.6862 24.5146 52.0684 25.1186 52.0684 25.8772ZM52.3355 35.9882V28.4892H54.5402V35.9882H52.3355Z" fill="#372606"/>
<path d="M64.8339 30.3714C65.7327 30.3714 66.0557 30.9892 66.0557 31.8037V35.9888H68.2466V31.3122C68.2466 29.599 67.4459 28.3213 65.6063 28.3213C64.5247 28.3213 63.8227 28.7285 63.1207 29.5148C62.6852 28.6864 61.8285 28.3213 60.9298 28.3213C60.0732 28.3213 59.1745 28.7141 58.7389 29.4727H58.7113V28.4897H56.5625V35.9888H58.7534V31.832C58.7534 30.9754 59.1883 30.3714 60.087 30.3714C60.9864 30.3714 61.3088 31.0175 61.3088 31.832V35.9888H63.4858V31.8037C63.4858 30.9471 63.949 30.3714 64.8339 30.3714Z" fill="#372606"/>
<path d="M72.3037 36.1289C73.1183 36.1289 73.9887 35.8486 74.5506 35.0479L74.5782 35.0618V35.9888H76.6007V31.3405C76.6007 29.3181 75.2526 28.3213 73.3426 28.3213C71.6432 28.3213 70.5057 28.995 69.9023 30.1043L71.5735 31.1017C71.9386 30.4418 72.4577 30.0905 73.2446 30.0905C74.0729 30.0905 74.4519 30.5398 74.4519 31.0175C74.4519 31.3261 74.2696 31.5649 73.8624 31.5649H73.1183C71.6011 31.5649 69.7754 32.0143 69.7754 33.8683V33.8965C69.7754 35.2867 70.955 36.1289 72.3037 36.1289ZM72.9354 34.5282C72.4156 34.5282 71.9807 34.3038 71.9807 33.7696C71.9807 33.1801 72.5281 32.913 73.1183 32.913H74.4381V33.082C74.4381 33.8683 73.9045 34.5282 72.9354 34.5282Z" fill="#372606"/>
<path d="M83.1868 35.9465V34.1346C83.0039 34.1767 82.7934 34.1911 82.6809 34.1911C81.8525 34.1911 81.3749 33.8819 81.3749 32.9976V30.385H83.2289V28.4895H81.3749V26.144H79.2123V28.4895H77.8359V30.385H79.184V33.2641C79.184 34.9773 80.1676 36.0866 82.1617 36.0866C82.4986 36.0866 82.8072 36.0589 83.1868 35.9465Z" fill="#372606"/>
<path d="M86.6392 32.843H92.0882C92.1164 32.5903 92.1164 32.3233 92.1164 32.0562C92.1164 29.8376 90.6137 28.3066 88.3808 28.3066C86.2181 28.3066 84.4062 30.062 84.4062 32.2252C84.4062 34.5562 86.2464 36.157 88.5215 36.157C90.038 36.157 91.119 35.5951 91.7513 34.4576L90.1644 33.4187C89.8275 33.9805 89.1249 34.3174 88.4932 34.3174C87.5801 34.3174 86.78 33.7838 86.6392 32.843ZM89.9256 31.3962H86.6958C86.78 30.9048 87.3419 30.0903 88.3248 30.0903C89.4202 30.0903 89.8834 30.8488 89.9256 31.3962Z" fill="#372606"/>
</g>
<defs>
<clipPath id="clip0_1371_1495">
<rect width="92" height="48" fill="white"/>
</clipPath>
</defs>
</svg>
