<svg width="114" height="52" viewBox="0 0 114 52" fill="none" xmlns="http://www.w3.org/2000/svg">
<g clip-path="url(#clip0_1368_1299)">
<g clip-path="url(#clip1_1368_1299)">
<path d="M11.6445 14.5137C17.9162 14.5139 21.7002 17.6549 21.7002 22.415C21.7001 27.8933 17.9161 31.7508 11.6445 31.751V37.498H0.152344V14.5137H11.6445Z" fill="url(#paint0_linear_1368_1299)"/>
<path d="M11.6448 20.2588L23.1372 31.7512V37.4974H0.152344V31.7512L11.6448 20.2588Z" fill="url(#paint1_linear_1368_1299)"/>
<path d="M11.6445 37.498H0.152344V14.5137H11.6445V37.498Z" fill="url(#paint2_linear_1368_1299)"/>
<path d="M11.6719 37.4971H23.1641V31.751L11.6719 20.2588V37.4971Z" fill="url(#paint3_linear_1368_1299)"/>
<path d="M3.59961 28.3022C5.41326 30.3314 8.24924 31.75 11.6623 31.75C15.085 31.75 17.5701 30.3493 19.7249 28.3022C13.4313 29.16 9.89287 29.1734 3.59961 28.3022Z" fill="#020305"/>
<path d="M11.6451 31.7188C12.8351 31.7188 13.7999 30.754 13.7999 29.5639C13.7999 29.3254 13.7637 29.1319 13.6921 28.9175C12.063 28.9739 11.1792 28.9709 9.61593 28.9175C9.5444 29.1319 9.49023 29.3254 9.49023 29.5639C9.49023 30.754 10.455 31.7188 11.6451 31.7188Z" fill="white"/>
</g>
<path d="M38.1686 27.3314V25.3269H40.7433C41.2847 25.3269 41.6994 25.1887 41.9874 24.9122C42.287 24.6357 42.4367 24.2613 42.4367 23.789C42.4367 23.3512 42.2927 22.9883 42.0047 22.7003C41.7167 22.4123 41.302 22.2683 40.7606 22.2683H38.1686V20.1602H41.0716C41.878 20.1602 42.5865 20.3157 43.197 20.6267C43.8076 20.9263 44.2857 21.3467 44.6313 21.8882C44.9769 22.4296 45.1497 23.0517 45.1497 23.7544C45.1497 24.4687 44.9769 25.0965 44.6313 25.6379C44.2857 26.1679 43.8018 26.5826 43.1798 26.8821C42.5577 27.1816 41.8262 27.3314 40.9852 27.3314H38.1686ZM36.095 32.3599V20.1602H38.8079V32.3599H36.095ZM42.7305 32.3599L38.9289 27.1067L41.4172 26.4328L45.9446 32.3599H42.7305ZM52.1959 32.5672C51.2743 32.5672 50.4218 32.4059 49.6384 32.0834C48.8666 31.7608 48.1869 31.3115 47.5994 30.7355C47.0119 30.1595 46.5568 29.4914 46.2343 28.7311C45.9117 27.9592 45.7504 27.1298 45.7504 26.2427C45.7504 25.3442 45.9117 24.5147 46.2343 23.7544C46.5568 22.9941 47.0061 22.3317 47.5821 21.7672C48.1581 21.1912 48.832 20.7477 49.6039 20.4367C50.3872 20.1141 51.2397 19.9528 52.1613 19.9528C53.0714 19.9528 53.9124 20.1141 54.6842 20.4367C55.4676 20.7477 56.1472 21.1912 56.7232 21.7672C57.3108 22.3317 57.7658 22.9999 58.0884 23.7717C58.4109 24.532 58.5722 25.3615 58.5722 26.26C58.5722 27.1471 58.4109 27.9765 58.0884 28.7483C57.7658 29.5087 57.3165 30.1768 56.7405 30.7528C56.1645 31.3173 55.4848 31.7608 54.7015 32.0834C53.9296 32.4059 53.0944 32.5672 52.1959 32.5672ZM52.1613 30.0962C52.8871 30.0962 53.5207 29.9349 54.0621 29.6123C54.6151 29.2898 55.0413 28.8405 55.3408 28.2645C55.6404 27.677 55.7901 27.0031 55.7901 26.2427C55.7901 25.6667 55.7037 25.1483 55.5309 24.6875C55.3581 24.2152 55.1104 23.812 54.7879 23.4779C54.4653 23.1323 54.0794 22.8731 53.6301 22.7003C53.1924 22.516 52.7028 22.4239 52.1613 22.4239C51.4356 22.4239 50.7962 22.5851 50.2432 22.9077C49.7018 23.2187 49.2813 23.6623 48.9818 24.2383C48.6823 24.8027 48.5325 25.4709 48.5325 26.2427C48.5325 26.8187 48.6189 27.3429 48.7917 27.8152C48.9645 28.2875 49.2064 28.6965 49.5175 29.0421C49.84 29.3762 50.226 29.6354 50.6752 29.8197C51.1245 30.004 51.6199 30.0962 52.1613 30.0962ZM61.6768 32.3599V30.2517H64.5453C65.0752 30.2517 65.4899 30.0962 65.7894 29.7851C66.0889 29.4741 66.2387 29.0939 66.2387 28.6447C66.2387 28.3336 66.1696 28.0571 66.0313 27.8152C65.8931 27.5733 65.6973 27.3832 65.4438 27.245C65.2019 27.1067 64.9024 27.0376 64.5453 27.0376H61.6768V24.9813H64.3206C64.7699 24.9813 65.1328 24.8719 65.4093 24.653C65.6857 24.4226 65.824 24.077 65.824 23.6162C65.824 23.1669 65.6857 22.8328 65.4093 22.6139C65.1328 22.3835 64.7699 22.2683 64.3206 22.2683H61.6768V20.1602H64.839C65.6224 20.1602 66.2848 20.3042 66.8262 20.5922C67.3792 20.8802 67.7997 21.2661 68.0877 21.7499C68.3757 22.2338 68.5197 22.7695 68.5197 23.357C68.5197 24.1058 68.2777 24.7394 67.7939 25.2578C67.3101 25.7762 66.5958 26.1333 65.6512 26.3291L65.7203 25.4133C66.7456 25.6091 67.5347 26.0066 68.0877 26.6056C68.6521 27.2047 68.9344 27.9419 68.9344 28.8175C68.9344 29.4856 68.7673 30.0904 68.4333 30.6319C68.1107 31.1618 67.6384 31.5823 67.0163 31.8933C66.4057 32.2043 65.6685 32.3599 64.8045 32.3599H61.6768ZM59.6032 32.3599V20.1602H62.2816V32.3599H59.6032ZM73.2424 27.8152L68.5422 20.1602H71.6872L75.2987 26.3464H73.2769L76.8884 20.1602H79.9643L75.2296 27.8152H73.2424ZM72.914 32.3599V26.5711H75.627V32.3599H72.914ZM80.2427 32.3599V20.1602H82.9556V32.3599H80.2427ZM82.3335 32.3599V29.9752H88.3643V32.3599H82.3335ZM94.3861 32.5672C93.4645 32.5672 92.612 32.4059 91.8286 32.0834C91.0568 31.7608 90.3771 31.3115 89.7896 30.7355C89.2021 30.1595 88.747 29.4914 88.4245 28.7311C88.1019 27.9592 87.9406 27.1298 87.9406 26.2427C87.9406 25.3442 88.1019 24.5147 88.4245 23.7544C88.747 22.9941 89.1963 22.3317 89.7723 21.7672C90.3483 21.1912 91.0222 20.7477 91.7941 20.4367C92.5774 20.1141 93.4299 19.9528 94.3515 19.9528C95.2616 19.9528 96.1025 20.1141 96.8744 20.4367C97.6577 20.7477 98.3374 21.1912 98.9134 21.7672C99.5009 22.3317 99.956 22.9999 100.279 23.7717C100.601 24.532 100.762 25.3615 100.762 26.26C100.762 27.1471 100.601 27.9765 100.279 28.7483C99.956 29.5087 99.5067 30.1768 98.9307 30.7528C98.3547 31.3173 97.675 31.7608 96.8917 32.0834C96.1198 32.4059 95.2846 32.5672 94.3861 32.5672ZM94.3515 30.0962C95.0773 30.0962 95.7109 29.9349 96.2523 29.6123C96.8053 29.2898 97.2315 28.8405 97.531 28.2645C97.8305 27.677 97.9803 27.0031 97.9803 26.2427C97.9803 25.6667 97.8939 25.1483 97.7211 24.6875C97.5483 24.2152 97.3006 23.812 96.9781 23.4779C96.6555 23.1323 96.2696 22.8731 95.8203 22.7003C95.3825 22.516 94.8929 22.4239 94.3515 22.4239C93.6257 22.4239 92.9864 22.5851 92.4334 22.9077C91.892 23.2187 91.4715 23.6623 91.172 24.2383C90.8725 24.8027 90.7227 25.4709 90.7227 26.2427C90.7227 26.8187 90.8091 27.3429 90.9819 27.8152C91.1547 28.2875 91.3966 28.6965 91.7077 29.0421C92.0302 29.3762 92.4161 29.6354 92.8654 29.8197C93.3147 30.004 93.8101 30.0962 94.3515 30.0962ZM101.793 32.3599V20.1602H103.694L104.506 22.5967V32.3599H101.793ZM110.209 32.3599L103.02 23.1496L103.694 20.1602L110.883 29.3704L110.209 32.3599ZM110.209 32.3599L109.483 29.9234V20.1602H112.196V32.3599H110.209Z" fill="#020305"/>
</g>
<defs>
<linearGradient id="paint0_linear_1368_1299" x1="10.9263" y1="14.5137" x2="10.9263" y2="37.498" gradientUnits="userSpaceOnUse">
<stop stop-color="#1B76FF"/>
<stop offset="1" stop-color="#021EAC"/>
</linearGradient>
<linearGradient id="paint1_linear_1368_1299" x1="11.6448" y1="20.2588" x2="11.6448" y2="37.4974" gradientUnits="userSpaceOnUse">
<stop stop-color="#1B76FF"/>
<stop offset="1" stop-color="#1B76FF"/>
</linearGradient>
<linearGradient id="paint2_linear_1368_1299" x1="11.56" y1="14.4861" x2="0.72107" y2="35.3898" gradientUnits="userSpaceOnUse">
<stop offset="0.242896" stop-color="#0336F9"/>
<stop offset="1" stop-color="#0336F9" stop-opacity="0"/>
</linearGradient>
<linearGradient id="paint3_linear_1368_1299" x1="17.418" y1="20.2588" x2="17.418" y2="37.4971" gradientUnits="userSpaceOnUse">
<stop stop-color="white"/>
<stop offset="1" stop-color="white" stop-opacity="0"/>
</linearGradient>
<clipPath id="clip0_1368_1299">
<rect width="113.28" height="28.8" fill="white" transform="translate(0.359375 11.6001)"/>
</clipPath>
<clipPath id="clip1_1368_1299">
<rect width="23.04" height="23.04" fill="white" transform="translate(0.253906 14.48)"/>
</clipPath>
</defs>
</svg>
