<svg width="138" height="48" viewBox="0 0 138 48" fill="none" xmlns="http://www.w3.org/2000/svg">
<g clip-path="url(#clip0_924_100)">
<g clip-path="url(#clip1_924_100)">
<mask id="mask0_924_100" style="mask-type:luminance" maskUnits="userSpaceOnUse" x="-9" y="-2" width="156" height="51">
<path d="M146.735 -1.5708H-8.01367V48.2557H146.735V-1.5708Z" fill="white"/>
</mask>
<g mask="url(#mask0_924_100)">
<path d="M8.73065 27.9596C9.04246 29.3959 8.10051 30.8222 6.6384 31.127L5.79412 31.3014C4.33418 31.6083 2.88654 30.6805 2.57545 29.2449L0.84421 21.2233C0.534569 19.7885 1.47362 18.3629 2.93429 18.0567L3.78073 17.8801C5.24068 17.5746 6.68832 18.4996 6.99941 19.9359L8.73065 27.9596Z" fill="#F37021"/>
</g>
<mask id="mask1_924_100" style="mask-type:luminance" maskUnits="userSpaceOnUse" x="-9" y="-2" width="156" height="51">
<path d="M146.735 -1.5708H-8.01367V48.2557H146.735V-1.5708Z" fill="white"/>
</mask>
<g mask="url(#mask1_924_100)">
<path d="M16.2034 27.8069C16.5108 29.2439 15.5718 30.6695 14.1126 30.9735L13.2668 31.1487C11.8062 31.4542 10.3607 30.5292 10.0503 29.0929L7.57465 17.632C7.26501 16.1929 8.20478 14.768 9.66328 14.4632L10.5105 14.2873C11.9689 13.9819 13.418 14.9068 13.7277 16.3453L16.2034 27.8069Z" fill="#F37021"/>
</g>
<mask id="mask2_924_100" style="mask-type:luminance" maskUnits="userSpaceOnUse" x="-9" y="-2" width="156" height="51">
<path d="M146.735 -1.5708H-8.01367V48.2557H146.735V-1.5708Z" fill="white"/>
</mask>
<g mask="url(#mask2_924_100)">
<path d="M23.5227 26.9459C23.8309 28.3836 22.8919 29.8078 21.4319 30.1126L20.5847 30.2913C19.127 30.5968 17.6772 29.6704 17.3682 28.2327L14.3167 14.1035C14.0078 12.6666 14.9454 11.241 16.4053 10.9369L17.2525 10.7582C18.7124 10.452 20.1594 11.3791 20.4704 12.8168L23.5227 26.9459Z" fill="#F37021"/>
</g>
<mask id="mask3_924_100" style="mask-type:luminance" maskUnits="userSpaceOnUse" x="-9" y="-2" width="156" height="51">
<path d="M146.735 -1.5708H-8.01367V48.2557H146.735V-1.5708Z" fill="white"/>
</mask>
<g mask="url(#mask3_924_100)">
<path d="M30.5816 24.8908C30.892 26.3271 29.9515 27.7527 28.4908 28.0574L27.6451 28.234C26.1859 28.5402 24.7397 27.6131 24.4279 26.1775L22.0036 14.9366C21.6903 13.5003 22.6308 12.074 24.0915 11.77L24.9365 11.592C26.3957 11.2865 27.8433 12.2129 28.1544 13.6477L30.5816 24.8908Z" fill="#F37021"/>
</g>
<mask id="mask4_924_100" style="mask-type:luminance" maskUnits="userSpaceOnUse" x="-9" y="-2" width="156" height="51">
<path d="M146.735 -1.5708H-8.01367V48.2557H146.735V-1.5708Z" fill="white"/>
</mask>
<g mask="url(#mask4_924_100)">
<path d="M27.1201 35.7289C25.6595 36.0351 24.2111 35.1073 23.9036 33.6717L23.7206 32.8393C23.4124 31.4016 24.3536 29.976 25.8135 29.6727L30.2476 28.7434C31.7054 28.4379 33.1559 29.3629 33.4656 30.7999L33.6464 31.6337C33.9561 33.0714 33.0163 34.4963 31.5535 34.8004L27.1201 35.7289Z" fill="#F37021"/>
</g>
<mask id="mask5_924_100" style="mask-type:luminance" maskUnits="userSpaceOnUse" x="-9" y="-2" width="156" height="51">
<path d="M146.735 -1.5708H-8.01367V48.2557H146.735V-1.5708Z" fill="white"/>
</mask>
<g mask="url(#mask5_924_100)">
<path d="M36.9441 14.3546C38.132 13.5243 39.9284 12.9525 41.5887 12.9262C43.2252 12.9262 44.7553 13.3684 45.5742 14.7163C46.3664 13.5485 47.8191 12.9525 49.3218 12.9262C51.8011 12.8984 54.3889 14.3802 54.3889 17.3674V26.6401H51.511V17.4714C51.511 16.2509 50.4554 15.7047 49.321 15.7047C48.1859 15.7047 47.0248 16.3271 47.0248 17.3674V26.6401H44.1751V17.4201C44.1751 16.1975 43.0146 15.7047 41.7732 15.7047C41.0866 15.7047 40.3733 15.8863 39.7938 16.2509V26.6401H36.9434L36.9441 14.3546Z" fill="#F37021"/>
</g>
<mask id="mask6_924_100" style="mask-type:luminance" maskUnits="userSpaceOnUse" x="-9" y="-2" width="156" height="51">
<path d="M146.735 -1.5708H-8.01367V48.2557H146.735V-1.5708Z" fill="white"/>
</mask>
<g mask="url(#mask6_924_100)">
<path d="M59.6669 13.1846H56.7637V26.6394H59.6669V13.1846Z" fill="#F37021"/>
</g>
<mask id="mask7_924_100" style="mask-type:luminance" maskUnits="userSpaceOnUse" x="-9" y="-2" width="156" height="51">
<path d="M146.735 -1.5708H-8.01367V48.2557H146.735V-1.5708Z" fill="white"/>
</mask>
<g mask="url(#mask7_924_100)">
<path d="M61.8867 17.5493C61.8867 14.4318 64.6048 12.9258 67.27 12.9258C69.4064 12.9258 71.8372 13.8864 72.5744 16.4584L69.9352 17.4454C69.5952 16.2505 68.51 15.7043 67.4031 15.7043C66.1609 15.7043 64.79 16.3537 64.79 17.5244V22.3039C64.79 23.471 66.0032 24.1211 67.2707 24.1211C68.4036 24.1211 69.5952 23.5764 69.9352 22.3829L72.6279 23.3685C71.8893 25.9405 69.4071 26.9018 67.2707 26.9018C64.6055 26.9018 61.8874 25.3958 61.8874 22.2768L61.8867 17.5493Z" fill="#F37021"/>
</g>
<mask id="mask8_924_100" style="mask-type:luminance" maskUnits="userSpaceOnUse" x="-9" y="-2" width="156" height="51">
<path d="M146.735 -1.5708H-8.01367V48.2557H146.735V-1.5708Z" fill="white"/>
</mask>
<g mask="url(#mask8_924_100)">
<path d="M80.9393 13.0817V15.6011C79.4353 15.1582 77.0341 15.7819 77.0341 17.5992V26.6398H74.1309V17.5493C74.1309 15.6274 75.2132 14.2503 76.6644 13.4969C77.5087 13.054 78.9882 12.9258 79.3825 12.9258C79.831 12.9258 80.3338 12.9521 80.9393 13.0817Z" fill="#F37021"/>
</g>
<mask id="mask9_924_100" style="mask-type:luminance" maskUnits="userSpaceOnUse" x="-9" y="-2" width="156" height="51">
<path d="M146.735 -1.5708H-8.01367V48.2557H146.735V-1.5708Z" fill="white"/>
</mask>
<g mask="url(#mask9_924_100)">
<path d="M81.7305 17.5764C81.7305 14.4852 84.4507 12.9521 87.142 12.9258C89.7797 12.9521 92.4984 14.4852 92.4984 17.5764V22.2498C92.4984 25.3943 89.7797 26.8748 87.142 26.9004C84.45 26.8748 81.7305 25.3943 81.7305 22.2498V17.5764ZM84.6381 17.5764V22.1216C84.6381 23.3927 85.9294 24.1204 87.1427 24.1204C88.2778 24.1204 89.5988 23.3934 89.5988 22.1216V17.5764C89.5988 16.3025 88.2785 15.7043 87.1427 15.7043C85.9294 15.7043 84.6381 16.3025 84.6381 17.5764Z" fill="#F37021"/>
</g>
<mask id="mask10_924_100" style="mask-type:luminance" maskUnits="userSpaceOnUse" x="-9" y="-2" width="156" height="51">
<path d="M146.735 -1.5708H-8.01367V48.2557H146.735V-1.5708Z" fill="white"/>
</mask>
<g mask="url(#mask10_924_100)">
<path d="M94.1914 14.3546C95.3793 13.5243 97.1757 12.9525 98.836 12.9262C100.472 12.9262 102.003 13.3684 102.821 14.7163C103.615 13.5485 105.066 12.9525 106.57 12.9262C109.05 12.8984 111.638 14.3802 111.638 17.3674V26.6401H108.759V17.4714C108.759 16.2509 107.705 15.7047 106.57 15.7047C105.436 15.7047 104.274 16.3271 104.274 17.3674V26.6401H101.422V17.4201C101.422 16.1975 100.261 15.7047 99.0205 15.7047C98.3339 15.7047 97.6221 15.8863 97.0426 16.2509V26.6401H94.1929V14.3546H94.1914Z" fill="#F37021"/>
</g>
<mask id="mask11_924_100" style="mask-type:luminance" maskUnits="userSpaceOnUse" x="-9" y="-2" width="156" height="51">
<path d="M146.735 -1.5708H-8.01367V48.2557H146.735V-1.5708Z" fill="white"/>
</mask>
<g mask="url(#mask11_924_100)">
<path d="M121.06 17.4454C121.06 16.1209 119.689 15.4458 118.208 15.4722C117.128 15.4722 116.019 15.8361 115.333 16.588L113.695 14.926C115.176 13.3146 116.837 12.9258 118.579 12.9258C121.242 12.9258 123.961 14.3279 123.961 17.367V25.9896C122.697 26.456 120.793 26.9004 118.791 26.9004C115.94 26.9004 113.219 25.9896 113.219 22.7967C113.219 19.8323 115.754 18.4836 118.289 18.4836C119.265 18.4836 120.268 18.6659 121.06 19.0034V17.4454H121.06ZM121.06 21.2386C120.479 20.978 119.581 20.7708 118.71 20.7708C117.022 20.7708 116.07 21.6018 116.07 22.7696C116.07 24.0442 117.285 24.5114 118.607 24.5114C119.555 24.5114 120.426 24.3825 121.061 24.2258L121.06 21.2386Z" fill="#F37021"/>
</g>
<mask id="mask12_924_100" style="mask-type:luminance" maskUnits="userSpaceOnUse" x="-9" y="-2" width="156" height="51">
<path d="M146.735 -1.5708H-8.01367V48.2557H146.735V-1.5708Z" fill="white"/>
</mask>
<g mask="url(#mask12_924_100)">
<path d="M137.08 26.6394H133.729L132.303 24.4326L130.853 21.8606L129.346 24.4583L127.923 26.6394H124.545L129.19 19.9123L124.545 13.1846H127.923L129.24 15.2097L130.853 17.9911L132.46 15.1848L133.729 13.1846H137.054L132.592 19.9123L137.08 26.6394Z" fill="#F37021"/>
</g>
<mask id="mask13_924_100" style="mask-type:luminance" maskUnits="userSpaceOnUse" x="-9" y="-2" width="156" height="51">
<path d="M146.735 -1.5708H-8.01367V48.2557H146.735V-1.5708Z" fill="white"/>
</mask>
<g mask="url(#mask13_924_100)">
<path d="M56.7617 32.5637C57.1915 32.4163 57.6545 32.2881 58.0777 32.2881C58.7158 32.3009 59.3481 32.6406 59.3481 33.3783V35.674H58.8337V33.3591C58.8337 32.9553 58.4423 32.7623 58.0777 32.7623C57.7775 32.7623 57.4714 32.8392 57.2826 32.9097V35.674H56.7617V32.5637Z" fill="black"/>
</g>
<mask id="mask14_924_100" style="mask-type:luminance" maskUnits="userSpaceOnUse" x="-9" y="-2" width="156" height="51">
<path d="M146.735 -1.5708H-8.01367V48.2557H146.735V-1.5708Z" fill="white"/>
</mask>
<g mask="url(#mask14_924_100)">
<path d="M61.3477 33.396C61.3477 32.659 62.0053 32.293 62.6571 32.2866C63.3024 32.293 63.9536 32.6583 63.9536 33.396V34.6272C63.9536 35.3714 63.3024 35.7302 62.6571 35.7367C62.0053 35.7302 61.3477 35.3714 61.3477 34.6272V33.396ZM61.8685 33.3839V34.6344C61.8685 35.0516 62.2787 35.2496 62.6571 35.2496C63.0217 35.2496 63.4327 35.0516 63.4327 34.6344V33.3839C63.4327 32.9667 63.0225 32.7751 62.6571 32.7751C62.2795 32.7744 61.8685 32.9667 61.8685 33.3839Z" fill="black"/>
</g>
<mask id="mask15_924_100" style="mask-type:luminance" maskUnits="userSpaceOnUse" x="-9" y="-2" width="156" height="51">
<path d="M146.735 -1.5708H-8.01367V48.2557H146.735V-1.5708Z" fill="white"/>
</mask>
<g mask="url(#mask15_924_100)">
<path d="M67.342 35.7249C67.2704 35.7313 67.2053 35.7377 67.1402 35.7377C66.4558 35.7377 65.9609 35.3275 65.9609 34.6482V31.5122H66.4753V32.3525H67.1662V32.8267H66.4753V34.6489C66.4753 35.027 66.8009 35.3859 67.342 35.2841V35.7249Z" fill="black"/>
</g>
<mask id="mask16_924_100" style="mask-type:luminance" maskUnits="userSpaceOnUse" x="-9" y="-2" width="156" height="51">
<path d="M146.735 -1.5708H-8.01367V48.2557H146.735V-1.5708Z" fill="white"/>
</mask>
<g mask="url(#mask16_924_100)">
<path d="M69.6635 32.479C69.9369 32.3451 70.2299 32.2867 70.4911 32.2867C71.1422 32.2732 71.7362 32.62 71.7362 33.3897V35.6727H71.2211V33.3833C71.2211 32.9532 70.8304 32.7674 70.4463 32.761C70.1786 32.761 69.9637 32.8001 69.6642 32.9276V35.6719H69.1426V31.1958H69.6642L69.6635 32.479Z" fill="black"/>
</g>
<mask id="mask17_924_100" style="mask-type:luminance" maskUnits="userSpaceOnUse" x="-9" y="-2" width="156" height="51">
<path d="M146.735 -1.5708H-8.01367V48.2557H146.735V-1.5708Z" fill="white"/>
</mask>
<g mask="url(#mask17_924_100)">
<path d="M74.0919 31.0688C74.3003 31.0688 74.4573 31.2234 74.4573 31.4284C74.4573 31.6271 74.3003 31.7873 74.0919 31.7873C73.8901 31.7873 73.7266 31.6271 73.7266 31.4284C73.7273 31.2234 73.8901 31.0688 74.0919 31.0688ZM74.3661 35.6739H73.8445V32.352H74.3661V35.6739Z" fill="black"/>
</g>
<mask id="mask18_924_100" style="mask-type:luminance" maskUnits="userSpaceOnUse" x="-9" y="-2" width="156" height="51">
<path d="M146.735 -1.5708H-8.01367V48.2557H146.735V-1.5708Z" fill="white"/>
</mask>
<g mask="url(#mask18_924_100)">
<path d="M76.491 32.5637C76.9214 32.4163 77.3837 32.2881 77.8069 32.2881C78.445 32.3009 79.0773 32.6406 79.0773 33.3783V35.674H78.5629V33.3591C78.5629 32.9553 78.1716 32.7623 77.8069 32.7623C77.5074 32.7623 77.2007 32.8392 77.0111 32.9097V35.674H76.4902L76.491 32.5637Z" fill="black"/>
</g>
<mask id="mask19_924_100" style="mask-type:luminance" maskUnits="userSpaceOnUse" x="-9" y="-2" width="156" height="51">
<path d="M146.735 -1.5708H-8.01367V48.2557H146.735V-1.5708Z" fill="white"/>
</mask>
<g mask="url(#mask19_924_100)">
<path d="M81.5202 36.1098C81.6635 36.2893 82.0476 36.4374 82.3414 36.4374C82.7458 36.4374 83.1495 36.3149 83.1495 35.8407V35.5644C82.9013 35.6933 82.6409 35.7374 82.3804 35.7374C81.7293 35.7445 81.084 35.3529 81.084 34.6344V33.3783C81.084 32.6527 81.7156 32.2881 82.3544 32.2881C82.8044 32.2881 83.1502 32.3458 83.6646 32.5508V35.8407C83.6646 36.5848 83.0258 36.9116 82.3869 36.9116C81.9507 36.9116 81.5007 36.745 81.2012 36.4239L81.5202 36.1098ZM83.1495 32.8912C82.8818 32.788 82.6532 32.7566 82.3537 32.7566C81.976 32.7566 81.5984 32.9938 81.6049 33.3918V34.6615C81.6049 35.046 81.9507 35.2838 82.3674 35.2838C82.6604 35.2838 82.889 35.239 83.1495 35.1428V32.8912Z" fill="black"/>
</g>
<mask id="mask20_924_100" style="mask-type:luminance" maskUnits="userSpaceOnUse" x="-9" y="-2" width="156" height="51">
<path d="M146.735 -1.5708H-8.01367V48.2557H146.735V-1.5708Z" fill="white"/>
</mask>
<g mask="url(#mask20_924_100)">
<path d="M89.5803 35.7378C88.8438 35.7378 88.4336 35.3341 88.4336 34.6547V31.1919H88.9552V34.6547C88.9552 35.0208 89.1513 35.2579 89.5803 35.2579V35.7378Z" fill="black"/>
</g>
<mask id="mask21_924_100" style="mask-type:luminance" maskUnits="userSpaceOnUse" x="-9" y="-2" width="156" height="51">
<path d="M146.735 -1.5708H-8.01367V48.2557H146.735V-1.5708Z" fill="white"/>
</mask>
<g mask="url(#mask21_924_100)">
<path d="M91.588 31.0688C91.7964 31.0688 91.9526 31.2234 91.9526 31.4284C91.9526 31.6271 91.7964 31.7873 91.588 31.7873C91.3862 31.7873 91.2227 31.6271 91.2227 31.4284C91.2227 31.2234 91.3862 31.0688 91.588 31.0688ZM91.8615 35.6739H91.3406V32.352H91.8615V35.6739Z" fill="black"/>
</g>
<mask id="mask22_924_100" style="mask-type:luminance" maskUnits="userSpaceOnUse" x="-9" y="-2" width="156" height="51">
<path d="M146.735 -1.5708H-8.01367V48.2557H146.735V-1.5708Z" fill="white"/>
</mask>
<g mask="url(#mask22_924_100)">
<path d="M96.0831 32.3525H96.7609L95.2359 33.8657L96.7284 35.6744H96.07L94.8713 34.231L94.5197 34.5778V35.6744H93.998V31.1982H94.5197V33.8913L96.0831 32.3525Z" fill="black"/>
</g>
<mask id="mask23_924_100" style="mask-type:luminance" maskUnits="userSpaceOnUse" x="-9" y="-2" width="156" height="51">
<path d="M146.735 -1.5708H-8.01367V48.2557H146.735V-1.5708Z" fill="white"/>
</mask>
<g mask="url(#mask23_924_100)">
<path d="M98.7676 34.6728C98.7676 35.0766 99.1518 35.2624 99.5497 35.2624C99.8557 35.2624 100.181 35.1214 100.319 34.8131L100.775 35.0061C100.54 35.4938 100.038 35.7367 99.5504 35.7367C98.8986 35.7367 98.2402 35.3714 98.2402 34.6336V33.3896C98.2402 32.6455 98.8979 32.2866 99.5504 32.2866C100.189 32.2866 100.84 32.6455 100.84 33.3896V34.2683H98.7684V34.6728H98.7676ZM100.345 33.3647C100.345 32.9731 99.9346 32.7559 99.5497 32.7559C99.1127 32.7559 98.7611 32.9738 98.7676 33.3782V33.8397H100.345V33.3647Z" fill="black"/>
</g>
<mask id="mask24_924_100" style="mask-type:luminance" maskUnits="userSpaceOnUse" x="-9" y="-2" width="156" height="51">
<path d="M146.735 -1.5708H-8.01367V48.2557H146.735V-1.5708Z" fill="white"/>
</mask>
<g mask="url(#mask24_924_100)">
<path d="M107.375 33.3593C107.375 32.9741 106.985 32.7626 106.58 32.7626C106.281 32.7626 105.948 32.878 105.747 33.1222L105.421 32.8082C105.734 32.4678 106.196 32.2891 106.619 32.2891C107.265 32.2891 107.897 32.6415 107.897 33.36V35.5148C107.428 35.675 106.952 35.7455 106.502 35.7384C105.824 35.732 105.297 35.4115 105.297 34.6995C105.303 33.9689 105.903 33.642 106.568 33.642C106.86 33.642 107.128 33.6997 107.375 33.8022V33.3593ZM107.375 34.1732C107.167 34.1027 106.894 34.0451 106.619 34.0451C106.196 34.0451 105.818 34.2245 105.812 34.6987C105.812 35.1224 106.118 35.2955 106.516 35.3019C106.802 35.3083 107.095 35.2955 107.375 35.2378V34.1732Z" fill="black"/>
</g>
<mask id="mask25_924_100" style="mask-type:luminance" maskUnits="userSpaceOnUse" x="-9" y="-2" width="156" height="51">
<path d="M146.735 -1.5708H-8.01367V48.2557H146.735V-1.5708Z" fill="white"/>
</mask>
<g mask="url(#mask25_924_100)">
<path d="M109.969 32.5637C110.399 32.4163 110.862 32.2881 111.285 32.2881C111.924 32.3009 112.556 32.6406 112.556 33.3783V35.674H112.041V33.3591C112.041 32.9553 111.65 32.7623 111.285 32.7623C110.985 32.7623 110.679 32.8392 110.49 32.9097V35.674H109.969V32.5637H109.969Z" fill="black"/>
</g>
<mask id="mask26_924_100" style="mask-type:luminance" maskUnits="userSpaceOnUse" x="-9" y="-2" width="156" height="51">
<path d="M146.735 -1.5708H-8.01367V48.2557H146.735V-1.5708Z" fill="white"/>
</mask>
<g mask="url(#mask26_924_100)">
<path d="M115.121 36.0772C115.304 36.2958 115.642 36.4111 115.949 36.4111C116.366 36.4111 116.782 36.2502 116.782 35.7888V35.5331C116.555 35.687 116.248 35.7311 115.975 35.7382C115.304 35.7446 114.639 35.3338 114.639 34.596V32.3516H115.173V34.6089C115.173 35.0126 115.57 35.2376 115.962 35.244C116.229 35.244 116.515 35.1864 116.782 35.0838V32.3516H117.304V35.7888C117.304 36.5585 116.659 36.911 115.988 36.911C115.545 36.911 115.069 36.7316 114.764 36.3976L115.121 36.0772Z" fill="black"/>
</g>
<mask id="mask27_924_100" style="mask-type:luminance" maskUnits="userSpaceOnUse" x="-9" y="-2" width="156" height="51">
<path d="M146.735 -1.5708H-8.01367V48.2557H146.735V-1.5708Z" fill="white"/>
</mask>
<g mask="url(#mask27_924_100)">
<path d="M120.8 35.7249C120.727 35.7313 120.663 35.7377 120.598 35.7377C119.914 35.7377 119.418 35.3275 119.418 34.6482V31.5122H119.933V32.3525H120.623V32.8267H119.933V34.6489C119.933 35.027 120.259 35.3859 120.8 35.2841V35.7249Z" fill="black"/>
</g>
<mask id="mask28_924_100" style="mask-type:luminance" maskUnits="userSpaceOnUse" x="-9" y="-2" width="156" height="51">
<path d="M146.735 -1.5708H-8.01367V48.2557H146.735V-1.5708Z" fill="white"/>
</mask>
<g mask="url(#mask28_924_100)">
<path d="M123.117 32.479C123.39 32.3451 123.683 32.2867 123.944 32.2867C124.595 32.2732 125.189 32.62 125.189 33.3897V35.6727H124.673V33.3833C124.673 32.9532 124.284 32.7674 123.899 32.761C123.632 32.761 123.417 32.8001 123.117 32.9276V35.6719H122.596V31.1958H123.117L123.117 32.479Z" fill="black"/>
</g>
<mask id="mask29_924_100" style="mask-type:luminance" maskUnits="userSpaceOnUse" x="-9" y="-2" width="156" height="51">
<path d="M146.735 -1.5708H-8.01367V48.2557H146.735V-1.5708Z" fill="white"/>
</mask>
<g mask="url(#mask29_924_100)">
<path d="M127.548 31.0688C127.757 31.0688 127.914 31.2234 127.914 31.4284C127.914 31.6271 127.757 31.7873 127.548 31.7873C127.346 31.7873 127.184 31.6271 127.184 31.4284C127.184 31.2234 127.346 31.0688 127.548 31.0688ZM127.822 35.6739H127.301V32.352H127.822V35.6739Z" fill="black"/>
</g>
<mask id="mask30_924_100" style="mask-type:luminance" maskUnits="userSpaceOnUse" x="-9" y="-2" width="156" height="51">
<path d="M146.735 -1.5708H-8.01367V48.2557H146.735V-1.5708Z" fill="white"/>
</mask>
<g mask="url(#mask30_924_100)">
<path d="M129.946 32.5637C130.377 32.4163 130.839 32.2881 131.262 32.2881C131.901 32.3009 132.532 32.6406 132.532 33.3783V35.674H132.018V33.3591C132.018 32.9553 131.627 32.7623 131.262 32.7623C130.963 32.7623 130.656 32.8392 130.467 32.9097V35.674H129.945V32.5637H129.946Z" fill="black"/>
</g>
<mask id="mask31_924_100" style="mask-type:luminance" maskUnits="userSpaceOnUse" x="-9" y="-2" width="156" height="51">
<path d="M146.735 -1.5708H-8.01367V48.2557H146.735V-1.5708Z" fill="white"/>
</mask>
<g mask="url(#mask31_924_100)">
<path d="M134.978 36.1098C135.121 36.2893 135.505 36.4374 135.799 36.4374C136.204 36.4374 136.606 36.3149 136.606 35.8407V35.5644C136.359 35.6933 136.099 35.7374 135.837 35.7374C135.186 35.7445 134.541 35.3529 134.541 34.6344V33.3783C134.541 32.6527 135.173 32.2881 135.811 32.2881C136.261 32.2881 136.606 32.3458 137.122 32.5508V35.8407C137.122 36.5848 136.483 36.9116 135.845 36.9116C135.408 36.9116 134.958 36.745 134.658 36.4239L134.978 36.1098ZM136.606 32.8912C136.34 32.788 136.111 32.7566 135.811 32.7566C135.434 32.7566 135.055 32.9938 135.063 33.3918V34.6615C135.063 35.046 135.408 35.2838 135.825 35.2838C136.118 35.2838 136.346 35.239 136.606 35.1428V32.8912Z" fill="black"/>
</g>
</g>
</g>
<defs>
<clipPath id="clip0_924_100">
<rect width="138" height="48" fill="white"/>
</clipPath>
<clipPath id="clip1_924_100">
<rect width="138" height="27" fill="white" transform="translate(0 10)"/>
</clipPath>
</defs>
</svg>
