<svg width="103" height="35" viewBox="0 0 103 35" fill="none" xmlns="http://www.w3.org/2000/svg">
<g clip-path="url(#clip0_3079_16873)">
<path d="M10.3955 1.05175C10.2556 1.08433 10.0645 1.13087 9.97594 1.1588C9.88737 1.18672 9.7149 1.21 9.59371 1.21C9.47251 1.21 9.26742 1.25188 9.1369 1.30308C9.00638 1.35428 8.82925 1.39617 8.74068 1.39617C8.64746 1.39617 8.48431 1.43805 8.37244 1.4939C8.26057 1.5451 8.11606 1.59164 8.04614 1.60095C7.98089 1.60561 7.85969 1.6475 7.77579 1.68938C7.69188 1.73127 7.56603 1.77316 7.50077 1.78712C7.43551 1.80108 7.33296 1.85694 7.27236 1.90813C7.21176 1.95933 7.11854 2.00122 7.0626 2.00122C7.00667 2.00122 6.92276 2.04311 6.88081 2.08965C6.8342 2.14085 6.73631 2.1967 6.66173 2.21066C6.58714 2.22928 6.51722 2.26186 6.50324 2.28513C6.47061 2.33167 6.00448 2.55973 5.93456 2.55973C5.91125 2.55973 5.84133 2.61093 5.78073 2.67608C5.72014 2.74125 5.63623 2.79244 5.58962 2.79244C5.543 2.79244 5.49173 2.81571 5.47775 2.83898C5.46376 2.86691 5.27731 3.00188 5.06755 3.14151C4.85779 3.28114 4.55946 3.49989 4.40564 3.63021C4.25181 3.75587 3.99078 3.96997 3.83229 4.10029C3.54329 4.333 2.85341 5.14284 2.42457 5.74789C2.30803 5.91079 2.16819 6.09231 2.11226 6.15281C2.05632 6.21332 1.95843 6.36691 1.89318 6.49723C1.82792 6.62289 1.73469 6.76718 1.67875 6.81837C1.62748 6.86492 1.58553 6.93938 1.58553 6.98127C1.58553 7.02316 1.54357 7.09763 1.4923 7.14417C1.44103 7.19071 1.39907 7.26518 1.39907 7.30707C1.39907 7.35361 1.36644 7.41412 1.33381 7.4467C1.29652 7.47462 1.24059 7.57702 1.20796 7.6701C1.17999 7.76319 1.12872 7.87489 1.09609 7.91212C1.06346 7.94936 1.01218 8.07037 0.984214 8.17742C0.951584 8.28446 0.909632 8.38686 0.886326 8.40082C0.858357 8.41478 0.839712 8.48925 0.839712 8.55906C0.839712 8.63353 0.79776 8.74524 0.741824 8.8104C0.690549 8.88021 0.629952 9.0338 0.611306 9.15946C0.592661 9.28513 0.541386 9.43406 0.499434 9.49922C0.457482 9.55973 0.420192 9.6854 0.420192 9.77848C0.420192 9.87622 0.382901 10.0438 0.336287 10.1555C0.27569 10.2858 0.238399 10.5371 0.215093 10.8862C0.191786 11.212 0.149834 11.4959 0.0985591 11.6309C0.0239776 11.8124 0.00999362 12.0032 0.00533228 12.8968C-0.0039904 13.8789 0.000670939 13.958 0.0892364 14.1069C0.163818 14.2326 0.196447 14.4048 0.229077 14.833C0.252383 15.1821 0.298997 15.4567 0.34561 15.5498C0.387562 15.6289 0.420192 15.7871 0.420192 15.8895C0.420192 16.0012 0.457482 16.1362 0.513418 16.22C0.564693 16.2944 0.606645 16.4248 0.606645 16.4992C0.606645 16.5783 0.643936 16.6901 0.685888 16.7506C0.72784 16.8157 0.779115 16.9647 0.79776 17.0903C0.816405 17.216 0.877003 17.3696 0.928278 17.4394C0.984214 17.5045 1.02617 17.5976 1.02617 17.6442C1.02617 17.6907 1.07744 17.8071 1.1427 17.9002C1.20796 17.9932 1.25923 18.1003 1.25923 18.1329C1.25923 18.2353 1.47832 18.2632 1.60883 18.1794C1.66943 18.1375 1.758 18.1049 1.80461 18.1049C1.85122 18.1049 1.93979 18.0631 2.00505 18.0119C2.07031 17.9607 2.15421 17.9188 2.19616 17.9188C2.23811 17.9188 2.30803 17.8769 2.35931 17.821C2.40592 17.7698 2.51313 17.6954 2.59238 17.6628C2.67628 17.6302 2.82078 17.5278 2.91867 17.4394C3.02122 17.351 3.18437 17.2346 3.28225 17.1834C3.55727 17.0345 4.13062 16.4154 4.16791 16.2339C4.20054 16.0524 4.13994 15.7732 4.03739 15.6149C3.99544 15.5544 3.96281 15.4427 3.96281 15.3729C3.96281 15.2984 3.92086 15.1635 3.86958 15.0657C3.81831 14.9726 3.77636 14.819 3.77636 14.7306C3.77636 14.6422 3.75305 14.4793 3.72042 14.3629C3.64118 14.0604 3.72042 13.9161 4.15859 13.5857C4.35902 13.4367 4.55014 13.3111 4.58743 13.3111C4.62006 13.3111 4.69464 13.2599 4.75524 13.1947C4.81584 13.1295 4.9044 13.0783 4.95101 13.0783C4.99763 13.0783 5.07687 13.0365 5.12815 12.9853C5.17942 12.9341 5.25866 12.8922 5.30528 12.8922C5.35655 12.8922 5.44045 12.8503 5.50105 12.7991C5.56165 12.7479 5.64555 12.706 5.68751 12.706C5.73412 12.706 5.81802 12.6641 5.88328 12.6176C5.94388 12.5664 6.08838 12.5059 6.20025 12.4733C6.31679 12.4407 6.43798 12.3942 6.47527 12.3662C6.51722 12.3337 6.78758 12.3057 7.16515 12.2964C7.74316 12.2778 7.8224 12.2871 8.19531 12.4035C8.41905 12.4733 8.63347 12.5478 8.67076 12.571C8.70805 12.5943 8.79196 12.6362 8.85722 12.6641C8.92248 12.692 9.0157 12.7386 9.06698 12.7665C9.26742 12.8736 9.54243 13.0225 9.64964 13.0783C9.7149 13.1109 9.79881 13.1575 9.8361 13.1807C9.87339 13.1994 9.95729 13.2412 10.0226 13.2645C10.0878 13.2924 10.1717 13.3297 10.209 13.3576C10.2463 13.3809 10.3582 13.4367 10.4514 13.4786C10.5446 13.5158 10.6332 13.581 10.6472 13.6182C10.6612 13.6555 10.7218 13.6834 10.7824 13.6834C10.8429 13.6834 10.9315 13.7253 10.9781 13.7765C11.0247 13.8277 11.0993 13.8696 11.1413 13.8696C11.1832 13.8696 11.2858 13.9208 11.3743 13.9859C11.4629 14.0511 11.5655 14.1023 11.6074 14.1023C11.6494 14.1023 11.7239 14.1442 11.7706 14.1954C11.8172 14.2466 11.8964 14.2885 11.9477 14.2885C11.9943 14.2885 12.1015 14.3397 12.1761 14.4048C12.2507 14.47 12.3346 14.5119 12.3579 14.4979C12.3812 14.4793 12.4698 14.5212 12.5537 14.5863C12.6422 14.6561 12.7401 14.7073 12.7774 14.7073C12.8147 14.7073 12.8939 14.7492 12.9592 14.8004C13.0245 14.8516 13.113 14.8935 13.155 14.8935C13.1969 14.8935 13.2948 14.9447 13.3694 15.0099C13.4486 15.075 13.5419 15.1262 13.5838 15.1262C13.6258 15.1262 13.6584 15.1448 13.6584 15.1681C13.6584 15.1914 13.7283 15.2333 13.8122 15.2612C13.8961 15.2891 13.9987 15.3543 14.0453 15.4055C14.0872 15.4567 14.1618 15.4986 14.2084 15.4986C14.2597 15.4986 14.3343 15.5404 14.3809 15.5916C14.4275 15.6428 14.5114 15.6847 14.5674 15.6847C14.6233 15.6847 14.7212 15.7266 14.7864 15.7732C14.847 15.8244 14.9822 15.8756 15.0848 15.8942C15.1827 15.9128 15.3458 15.9547 15.4437 15.9919C15.6861 16.0803 16.1382 16.0757 16.5251 15.9686C16.7069 15.9221 16.9167 15.8802 17.0006 15.8802C17.0798 15.8802 17.229 15.8337 17.3362 15.7825C17.4387 15.7266 17.5646 15.6847 17.6112 15.6847C17.6625 15.6847 17.7557 15.6428 17.821 15.5916C17.8862 15.5404 18.0074 15.4846 18.0867 15.466C18.1659 15.452 18.2452 15.4101 18.2591 15.3775C18.2685 15.345 18.3477 15.3031 18.4269 15.2845C18.5109 15.2705 18.6274 15.2147 18.688 15.1681C18.7486 15.1169 18.8465 15.0797 18.9024 15.0797C18.9583 15.0797 19.0422 15.0378 19.0842 14.9912C19.1308 14.94 19.2194 14.8889 19.2846 14.8702C19.3546 14.8563 19.4618 14.8004 19.5224 14.7492C19.5876 14.7027 19.6622 14.6608 19.6948 14.6608C19.7228 14.6608 19.7881 14.6189 19.8347 14.5677C19.9512 14.4374 20.1004 14.4653 20.1563 14.6282C20.1936 14.726 20.1796 14.8051 20.0957 15.0006C20.0351 15.1309 19.9745 15.331 19.9559 15.4381C19.9372 15.5451 19.8859 15.6847 19.844 15.7499C19.802 15.815 19.7648 15.9174 19.7648 15.9779C19.7648 16.0385 19.7228 16.1362 19.6715 16.1967C19.6203 16.2572 19.5783 16.327 19.5783 16.3549C19.5783 16.3829 19.5457 16.4666 19.5037 16.5458C19.4618 16.6202 19.3592 16.825 19.2707 16.9926C19.1821 17.1648 19.0795 17.3277 19.0422 17.3603C19.005 17.3928 18.9723 17.4487 18.9723 17.4906C18.9723 17.5278 18.8698 17.6814 18.7486 17.821C18.6274 17.9653 18.413 18.2213 18.2778 18.3982C18.0447 18.6914 17.3828 19.3151 17.2989 19.3151C17.2803 19.3151 17.173 19.4081 17.0565 19.5198C16.9446 19.6362 16.7442 19.7851 16.609 19.8503C16.4738 19.9154 16.362 19.9899 16.362 20.0132C16.362 20.0365 16.306 20.0737 16.2361 20.0877C16.1615 20.1063 16.045 20.1714 15.9751 20.2319C15.9005 20.2878 15.8073 20.339 15.7607 20.339C15.7187 20.339 15.6488 20.3809 15.6022 20.4321C15.5602 20.4833 15.4763 20.5252 15.4204 20.5252C15.3644 20.5252 15.2852 20.5577 15.2433 20.595C15.2013 20.6322 15.0661 20.6834 14.9449 20.7067C14.8237 20.7299 14.6886 20.7811 14.6419 20.823C14.5953 20.8649 14.4928 20.8975 14.4089 20.8975C14.325 20.8975 14.1618 20.9394 14.0453 20.9952C13.9288 21.0464 13.7237 21.0976 13.5931 21.1069C13.4626 21.1162 13.2109 21.1581 13.0338 21.2C12.8147 21.2512 12.5117 21.2745 12.0596 21.2745C11.379 21.2698 11.2904 21.2605 10.7404 21.1488C10.5586 21.1069 10.3768 21.0837 10.3442 21.0883C10.237 21.1116 9.91534 21.0325 9.81745 20.9627C9.76618 20.9254 9.64964 20.8975 9.55642 20.8975C9.46785 20.8975 9.33267 20.8556 9.25343 20.8044C9.17885 20.7532 9.05765 20.7113 8.9924 20.7113C8.92248 20.7113 8.81993 20.6741 8.75933 20.6229C8.69873 20.5764 8.57288 20.5252 8.47499 20.5065C8.38176 20.4879 8.29319 20.446 8.27921 20.4088C8.26523 20.3716 8.21395 20.339 8.16734 20.339C8.12073 20.339 8.01351 20.2878 7.92495 20.2226C7.83638 20.1575 7.74316 20.1063 7.71519 20.1063C7.68722 20.1063 7.6173 20.0597 7.56136 19.9992C7.50543 19.9387 7.37025 19.8456 7.25838 19.7898C7.15117 19.7339 6.94607 19.585 6.80623 19.45C6.66639 19.3197 6.49858 19.1754 6.43332 19.1335C6.27484 19.0311 6.24687 19.0125 6.05575 18.8496C5.96253 18.7752 5.84599 18.71 5.79938 18.71C5.7481 18.71 5.65954 18.6681 5.59428 18.6169C5.41249 18.4773 4.80651 18.4866 4.46623 18.6355C4.33106 18.696 4.18655 18.7798 4.15392 18.8217C4.1213 18.8636 4.06536 18.8962 4.03273 18.8962C4.0001 18.8962 3.86026 18.9846 3.72974 19.0916C3.59456 19.2033 3.39413 19.343 3.28225 19.4081C3.17038 19.4733 2.97461 19.6269 2.84409 19.7525C2.63899 19.948 2.61102 19.9992 2.61102 20.1668C2.61102 20.3576 2.63433 20.3855 3.44074 21.1907C3.89289 21.6468 4.35902 22.0704 4.47556 22.1402C4.59209 22.21 4.78787 22.3543 4.91839 22.466C5.04424 22.5777 5.16544 22.6661 5.18408 22.6661C5.22603 22.6661 5.63157 22.9407 5.6642 22.9873C5.67818 23.0105 5.79472 23.085 5.9299 23.1548C6.06507 23.2246 6.20958 23.3084 6.24687 23.341C6.28416 23.3736 6.38205 23.4154 6.45663 23.4294C6.53587 23.448 6.63376 23.5039 6.68037 23.5551C6.72698 23.6016 6.81089 23.6435 6.87149 23.6435C6.93208 23.6435 7.01599 23.6854 7.05794 23.7319C7.10455 23.7831 7.2071 23.839 7.29101 23.8576C7.37025 23.8716 7.49144 23.9274 7.56136 23.974C7.62662 24.0252 7.74782 24.0624 7.83172 24.0624C7.91097 24.0624 8.03216 24.1043 8.09742 24.1555C8.16734 24.2113 8.28853 24.2486 8.38642 24.2486C8.47965 24.2486 8.61949 24.2904 8.69407 24.3416C8.77331 24.3975 8.91315 24.4347 9.02036 24.4347C9.12757 24.4347 9.33734 24.4813 9.4865 24.5325C9.67295 24.5976 9.96195 24.6442 10.3488 24.6721C10.6705 24.6954 11.0341 24.7326 11.1553 24.7605C11.4443 24.821 12.824 24.821 12.9778 24.7605C13.0478 24.7373 13.3368 24.6954 13.6258 24.6721C13.9381 24.6488 14.2597 24.593 14.4275 24.5325C14.5767 24.4766 14.7771 24.4347 14.8703 24.4347C14.9636 24.4347 15.1174 24.3928 15.2199 24.3416C15.3225 24.2904 15.481 24.2486 15.5742 24.2486C15.6721 24.2486 15.7933 24.2113 15.8632 24.1555C15.9285 24.1043 16.0357 24.0624 16.1009 24.0624C16.2361 24.0624 16.4552 23.974 16.4552 23.9181C16.4552 23.8948 16.5344 23.8669 16.6323 23.8483C16.7256 23.8297 16.8421 23.7785 16.8887 23.7319C16.9353 23.6807 17.0192 23.6435 17.0798 23.6435C17.1404 23.6435 17.2243 23.6016 17.2663 23.5551C17.3129 23.5039 17.4108 23.448 17.4807 23.4341C17.5553 23.4201 17.6392 23.3782 17.6671 23.341C17.6951 23.3084 17.7744 23.2665 17.8443 23.2479C17.9142 23.2293 18.0913 23.1362 18.2452 23.0338C18.3943 22.9361 18.5295 22.8523 18.5481 22.8523C18.5621 22.8476 18.6414 22.7964 18.716 22.7313C18.7952 22.6661 19.0656 22.4427 19.3219 22.2379C20.091 21.6189 21.028 20.6834 21.3077 20.2412C21.3496 20.1761 21.4661 20.0365 21.564 19.9294C21.8577 19.6176 21.909 19.5524 21.909 19.4779C21.909 19.4454 21.9276 19.4035 21.9509 19.3849C22.0255 19.343 22.2819 18.9427 22.2819 18.8729C22.2819 18.8403 22.3332 18.7472 22.3984 18.6728C22.4637 18.5936 22.5149 18.4959 22.5149 18.454C22.5149 18.4121 22.5569 18.3237 22.6082 18.2585C22.6594 18.1934 22.7014 18.091 22.7014 18.0351C22.7014 17.9793 22.7433 17.8815 22.79 17.8164C22.8412 17.7559 22.8972 17.6395 22.9158 17.5651C22.9345 17.4906 22.9904 17.3649 23.037 17.2904C23.0836 17.2113 23.1209 17.0903 23.1209 17.0205C23.1209 16.946 23.1629 16.8343 23.2141 16.7692C23.2654 16.6994 23.3074 16.5783 23.3074 16.4853C23.3074 16.3922 23.34 16.2851 23.382 16.2386C23.4192 16.1967 23.4705 16.0478 23.4892 15.9081C23.5125 15.7732 23.5684 15.5544 23.6243 15.4241C23.6756 15.2891 23.7082 15.1402 23.6943 15.0843C23.6803 15.0331 23.7176 14.8051 23.7782 14.5817C23.8761 14.2047 23.8854 14.0744 23.8854 12.962C23.89 11.8682 23.8807 11.71 23.7875 11.3004C23.7269 11.0537 23.6943 10.8164 23.7082 10.7745C23.7409 10.7 23.6476 10.2998 23.5824 10.2113C23.5591 10.1834 23.5218 10.0205 23.4985 9.84829C23.4752 9.67143 23.4192 9.49457 23.382 9.45268C23.34 9.40614 23.3074 9.29909 23.3074 9.20601C23.3074 9.11757 23.2701 8.99191 23.2235 8.93141C23.1722 8.8709 23.1209 8.74989 23.1023 8.66146C23.0883 8.57303 23.0417 8.46598 23.009 8.42875C22.9718 8.38686 22.9205 8.26585 22.8925 8.16345C22.8645 8.0564 22.8086 7.9447 22.7713 7.91212C22.734 7.87954 22.7014 7.80507 22.7014 7.74922C22.7014 7.69337 22.6594 7.59098 22.6082 7.52582C22.5569 7.46066 22.5149 7.37688 22.5149 7.33965C22.5149 7.30242 22.473 7.21864 22.4217 7.15348C22.3704 7.08832 22.3285 7.00454 22.3285 6.96731C22.3285 6.93473 22.2865 6.86492 22.2399 6.82303C22.1887 6.77649 22.1234 6.67875 22.0954 6.60428C22.0395 6.4693 21.6712 6.19005 21.55 6.19005C21.3403 6.19005 19.7648 7.56771 19.7648 7.74922C19.7648 7.76319 19.6808 7.89351 19.5736 8.03313C19.4105 8.25654 19.3825 8.32635 19.3592 8.60561C19.3359 8.89883 19.3406 8.93606 19.4571 9.085C19.5224 9.17343 19.5783 9.28513 19.5783 9.33633C19.5783 9.38287 19.6203 9.47595 19.6715 9.54111C19.7228 9.60627 19.7648 9.71332 19.7648 9.77848C19.7648 9.84829 19.8067 9.95534 19.858 10.0205C19.9093 10.0857 19.9512 10.2067 19.9512 10.2951C19.9512 10.3789 19.9932 10.5278 20.0444 10.6256C20.0957 10.7186 20.1377 10.8676 20.1377 10.9514C20.1377 11.0351 20.1889 11.3097 20.2542 11.5657C20.3894 12.087 20.3801 12.2173 20.1936 12.2964C20.1237 12.329 20.0165 12.3895 19.9559 12.4361C19.8953 12.4826 19.802 12.5198 19.7461 12.5198C19.6948 12.5198 19.5969 12.5617 19.5317 12.6129C19.4664 12.6641 19.3825 12.706 19.3406 12.706C19.2986 12.706 19.1681 12.7572 19.0469 12.8224C18.9257 12.8875 18.7812 12.9387 18.7206 12.9387C18.66 12.9387 18.5575 12.9806 18.4922 13.0318C18.4269 13.083 18.2871 13.1342 18.1846 13.1435C18.082 13.1528 17.9375 13.1994 17.8676 13.2459C17.7977 13.2924 17.6438 13.3436 17.5273 13.3623C17.4108 13.3809 17.229 13.4181 17.1171 13.446C16.9586 13.4879 16.8887 13.4833 16.7535 13.4274C16.6603 13.3902 16.5065 13.3576 16.4132 13.3576C16.32 13.3576 16.1196 13.3064 15.9658 13.2412C15.8119 13.1807 15.6348 13.1249 15.5695 13.1249C15.5043 13.1249 15.4017 13.083 15.3365 13.0318C15.2712 12.9806 15.164 12.9387 15.0988 12.9387C15.0335 12.9387 14.9309 12.8968 14.8703 12.8456C14.8097 12.7944 14.7165 12.7526 14.6606 12.7526C14.6046 12.7526 14.5114 12.7107 14.4508 12.6595C14.3902 12.6083 14.2877 12.5524 14.2224 12.5338C14.1572 12.5198 14.0499 12.4686 13.9894 12.4174C13.9288 12.3709 13.8355 12.3337 13.7889 12.3337C13.7376 12.3337 13.6444 12.2918 13.5792 12.2406C13.5139 12.1894 13.4253 12.1475 13.388 12.1475C13.3507 12.1475 13.2482 12.0963 13.1643 12.0311C13.0804 11.966 12.9778 11.9148 12.9359 11.9148C12.8939 11.9148 12.8054 11.8729 12.7401 11.8217C12.6749 11.7705 12.5863 11.7286 12.5443 11.7286C12.5024 11.7286 12.4185 11.6867 12.3532 11.6355C12.288 11.5843 12.1947 11.5424 12.1388 11.5424C12.0875 11.5424 12.0036 11.5006 11.957 11.4494C11.9104 11.3982 11.8265 11.3563 11.7706 11.3563C11.7146 11.3563 11.6167 11.319 11.5561 11.2678C11.4955 11.2213 11.3697 11.1701 11.2718 11.1515C11.1786 11.1329 11.09 11.091 11.076 11.0537C11.062 11.0165 10.9735 10.9746 10.8756 10.956C10.7777 10.9374 10.6472 10.8862 10.5866 10.8397C10.526 10.7885 10.4327 10.7512 10.3861 10.7512C10.3349 10.7512 10.2416 10.7093 10.1764 10.6581C10.1111 10.6069 10.0086 10.565 9.95263 10.565C9.8967 10.565 9.79881 10.5278 9.73821 10.4813C9.67761 10.4301 9.56574 10.3789 9.49116 10.3603C9.41658 10.3416 9.30005 10.2858 9.23945 10.2346C9.17419 10.1881 9.07164 10.1462 9.00172 10.1462C8.93646 10.1462 8.8106 10.1043 8.7267 10.0531C8.6428 10.0019 8.52626 9.96 8.461 9.96C8.40041 9.96 8.23726 9.91811 8.10208 9.86226C7.88766 9.77848 7.77579 9.76917 7.22109 9.78313C6.713 9.79244 6.56384 9.81106 6.49858 9.87156C6.4473 9.91345 6.35874 9.96465 6.29348 9.98327C6.12567 10.0298 5.68751 10.2579 5.68751 10.2951C5.68751 10.3184 5.65022 10.3323 5.59894 10.3323C5.55233 10.3323 5.48707 10.3649 5.45444 10.4022C5.38452 10.4859 5.00229 10.7512 4.95101 10.7512C4.93237 10.7512 4.81117 10.8443 4.67599 10.9607C4.54548 11.077 4.42428 11.1701 4.40564 11.1701C4.36369 11.1701 4.11197 11.3609 3.90221 11.5564C3.79966 11.6541 3.69245 11.724 3.66448 11.7147C3.57592 11.6867 3.58058 11.5099 3.67847 11.3144C3.7344 11.212 3.77636 11.0584 3.77636 10.9746C3.77636 10.8862 3.81365 10.7698 3.8556 10.7093C3.89755 10.6442 3.94883 10.4906 3.96747 10.3649C3.99078 10.2393 4.03739 10.0996 4.07002 10.0577C4.10731 10.0158 4.15392 9.9088 4.17257 9.82037C4.19122 9.73194 4.24715 9.60627 4.29377 9.54577C4.34504 9.48526 4.38233 9.38752 4.38233 9.33167C4.38233 9.27582 4.42428 9.19204 4.47556 9.1455C4.52683 9.09896 4.56878 9.01518 4.56878 8.95933C4.56878 8.89882 4.60141 8.82901 4.6387 8.79643C4.67599 8.76385 4.77388 8.61026 4.85313 8.45202C4.92771 8.29843 5.03026 8.13553 5.07221 8.09829C5.11882 8.06106 5.20273 7.9447 5.26332 7.84231C5.43579 7.5584 6.54985 6.44603 6.94607 6.17143C7.13718 6.0318 7.33762 5.87821 7.38423 5.82236C7.43551 5.77117 7.50543 5.72462 7.54272 5.72462C7.58001 5.72462 7.66858 5.67343 7.74782 5.60827C7.8224 5.54311 7.92495 5.49191 7.97156 5.49191C8.01818 5.49191 8.06479 5.45933 8.07877 5.42675C8.09276 5.38952 8.18598 5.34297 8.28387 5.32436C8.38176 5.30574 8.51228 5.25454 8.57288 5.20335C8.63347 5.1568 8.72204 5.12888 8.76399 5.14284C8.80594 5.15681 8.91781 5.11492 9.0157 5.04976C9.10893 4.9846 9.24411 4.9334 9.31403 4.9334C9.38395 4.92875 9.52379 4.89616 9.62634 4.85893C9.72889 4.81704 9.94797 4.7705 10.1158 4.75188C10.2836 4.72861 10.5773 4.67276 10.7684 4.62156C11.0807 4.53779 11.2298 4.52848 12.2227 4.5471C13.169 4.56106 13.3647 4.57502 13.5931 4.65414C13.7376 4.70534 13.9381 4.74723 14.036 4.74723C14.1339 4.74723 14.283 4.78912 14.3669 4.84031C14.4508 4.89151 14.586 4.9334 14.6652 4.9334C14.7445 4.9334 14.8657 4.97529 14.9309 5.02648C14.9962 5.07768 15.0988 5.11957 15.164 5.11957C15.2246 5.11957 15.3272 5.1568 15.3878 5.208C15.4484 5.25454 15.5649 5.31039 15.6488 5.32436C15.728 5.34297 15.8213 5.38952 15.8539 5.42675C15.8819 5.46399 15.9331 5.49191 15.9658 5.49191C16.0031 5.49191 16.0916 5.54311 16.1662 5.60827C16.2454 5.67343 16.334 5.72462 16.3713 5.72462C16.4086 5.72462 16.4878 5.77582 16.5438 5.83632C16.5997 5.89683 16.7256 5.98526 16.8188 6.03181C16.912 6.083 17.0472 6.16212 17.1124 6.21797C17.2896 6.3576 17.7277 6.45069 17.8769 6.38553C17.9422 6.35295 18.0447 6.32968 18.1053 6.32968C18.1659 6.32968 18.2405 6.30175 18.2685 6.26452C18.3011 6.22728 18.3897 6.16212 18.4736 6.12024C18.7719 5.96664 18.8278 5.92476 19.294 5.49191C19.8393 4.98925 20.0724 4.69138 20.119 4.4447C20.1516 4.2725 20.1423 4.26319 19.7135 3.85361C19.294 3.45335 18.8791 3.13686 18.4363 2.88553C18.3244 2.82037 18.1799 2.71798 18.1193 2.66212C18.0587 2.60627 17.9841 2.55973 17.9515 2.55973C17.9189 2.55973 17.8396 2.51784 17.7744 2.46664C17.7091 2.41545 17.6252 2.37356 17.5879 2.37356C17.5506 2.37356 17.4667 2.33167 17.4015 2.28047C17.3362 2.22928 17.2476 2.18739 17.201 2.18739C17.1544 2.18739 17.0612 2.14085 16.9913 2.08965C16.9213 2.0338 16.8188 1.9826 16.7582 1.97795C16.7023 1.96864 16.6044 1.9314 16.5438 1.89417C16.4832 1.85694 16.362 1.81505 16.2734 1.79643C16.1848 1.78247 16.073 1.73593 16.031 1.69404C15.9844 1.65215 15.8586 1.61026 15.7467 1.5963C15.6348 1.58234 15.5089 1.54045 15.467 1.50321C15.425 1.46132 15.2852 1.42409 15.164 1.41013C15.0428 1.40082 14.8564 1.34962 14.7538 1.30308C14.6513 1.25654 14.4322 1.20534 14.2644 1.19138C14.0966 1.18207 13.8775 1.13087 13.7749 1.08899C13.6118 1.01917 13.3974 1.00986 12.1202 1.00055C11.132 1.00055 10.5679 1.01452 10.3955 1.05175Z" fill="white"/>
<path d="M33.8425 1.25665C33.5488 1.27992 33.2179 1.32181 33.1107 1.34974C33.0034 1.37301 32.7704 1.39628 32.5979 1.39628C32.4208 1.39628 32.1644 1.42886 32.0246 1.47075C31.8847 1.50798 31.619 1.55918 31.4372 1.58245C31.2508 1.60107 31.0503 1.65226 30.9944 1.6895C30.9338 1.72673 30.78 1.76862 30.6541 1.78724C30.5283 1.8012 30.3511 1.85705 30.2672 1.90825C30.1787 1.95944 30.0528 2.00133 29.9922 2.00133C29.927 2.00133 29.8198 2.04322 29.7545 2.09442C29.6892 2.14561 29.582 2.1875 29.5214 2.1875C29.4562 2.1875 29.349 2.22474 29.2837 2.27593C29.2138 2.32248 29.0972 2.37367 29.0227 2.39229C28.9481 2.41091 28.8315 2.46676 28.7709 2.51796C28.7057 2.5645 28.6078 2.60639 28.5519 2.60639C28.4959 2.60639 28.412 2.64828 28.3654 2.69947C28.3188 2.75067 28.2349 2.79256 28.179 2.79256C28.123 2.79256 28.0391 2.83444 27.9972 2.88099C27.9506 2.93218 27.8527 2.98804 27.7781 3.002C27.7035 3.02061 27.6336 3.04854 27.6196 3.07181C27.6056 3.09508 27.4378 3.18817 27.2467 3.28125C27.0602 3.37434 26.8784 3.48139 26.8505 3.51862C26.8178 3.55585 26.7573 3.58378 26.7106 3.58378C26.664 3.58378 26.6174 3.61636 26.6034 3.65359C26.5848 3.69083 26.4916 3.76064 26.389 3.81649C26.0767 3.97474 26.0907 4.13298 26.4589 4.56117C26.5149 4.62633 26.5988 4.752 26.6454 4.84043C26.692 4.92886 26.7806 5.05453 26.8365 5.11968C26.8924 5.18484 26.9903 5.34309 27.0602 5.47806C27.1255 5.61304 27.2094 5.7387 27.242 5.75732C27.2747 5.77593 27.3492 5.88763 27.4145 6.00399C27.4751 6.12035 27.5776 6.27859 27.6429 6.36237C27.7082 6.44615 27.8061 6.57647 27.8666 6.65559C27.9972 6.82314 28.1184 6.83245 28.2349 6.68351C28.2862 6.62301 28.4307 6.51596 28.5612 6.44615C28.6964 6.38099 28.8269 6.29255 28.8549 6.25998C28.8828 6.22274 28.9807 6.17155 29.0693 6.14362C29.1578 6.11569 29.2278 6.06915 29.2278 6.05053C29.2278 6.02726 29.4002 5.92022 29.6147 5.81782C29.8244 5.71543 30.0482 5.59907 30.1134 5.56184C30.1787 5.5246 30.2626 5.49203 30.3045 5.49203C30.3465 5.49203 30.4071 5.45944 30.4397 5.42221C30.4723 5.38498 30.5656 5.3524 30.6495 5.3524C30.7334 5.3524 30.8546 5.30585 30.9292 5.25C30.9991 5.19415 31.1622 5.13365 31.2881 5.11503C31.4186 5.09176 31.5584 5.04522 31.605 5.00333C31.647 4.96609 31.7635 4.93351 31.8661 4.93351C31.9686 4.93351 32.1644 4.89163 32.3042 4.84043C32.4441 4.78923 32.6772 4.74734 32.817 4.74734C32.9568 4.74734 33.2645 4.71476 33.4929 4.67288C34.0662 4.56583 35.3201 4.56583 35.8096 4.67288C36.0053 4.71476 36.285 4.74734 36.4249 4.74734C36.574 4.74734 36.7651 4.78458 36.8957 4.84043C37.0169 4.89163 37.1707 4.93351 37.2359 4.93351C37.3059 4.93351 37.4317 4.9754 37.5156 5.0266C37.5995 5.0778 37.7067 5.11968 37.7534 5.11968C37.8 5.11968 37.8885 5.15692 37.9491 5.20811C38.0097 5.25466 38.1076 5.30585 38.1589 5.32447C38.2148 5.34309 38.2941 5.39429 38.3407 5.44548C38.3873 5.49668 38.4526 5.53857 38.4898 5.53857C38.5831 5.53857 39.231 6.19947 39.2729 6.33444C39.2916 6.39495 39.3475 6.48803 39.3941 6.54388C39.4454 6.59508 39.4967 6.68817 39.506 6.74402C39.5153 6.80452 39.548 6.87899 39.5759 6.91157C39.6039 6.9488 39.6925 7.22341 39.767 7.52128L39.9022 8.07048V9.94615C39.9022 11.4914 39.8929 11.8311 39.837 11.8497C39.8043 11.8637 39.6692 11.8125 39.5433 11.738C39.4128 11.6636 39.259 11.5844 39.1984 11.5658C39.1378 11.5472 39.0352 11.4914 38.9746 11.4448C38.914 11.3936 38.8161 11.3564 38.7602 11.3564C38.7043 11.3564 38.6204 11.3145 38.5737 11.2633C38.5271 11.2121 38.4153 11.1609 38.322 11.1423C38.2288 11.1283 38.1076 11.0864 38.0517 11.0492C37.9957 11.012 37.8885 10.984 37.8186 10.984C37.7487 10.984 37.6042 10.9282 37.5016 10.8677C37.3991 10.8025 37.2546 10.7513 37.1847 10.7513C37.1147 10.7513 36.9656 10.7094 36.863 10.6582C36.7558 10.607 36.5787 10.5652 36.4715 10.5652C36.3643 10.5652 36.1452 10.5233 35.982 10.4674C35.5765 10.3371 34.1362 10.2626 32.8869 10.3092C32.3742 10.3278 31.8101 10.3511 31.6284 10.3557C31.4512 10.3604 31.1576 10.4116 30.9804 10.4674C30.808 10.5186 30.5795 10.5652 30.477 10.5652C30.3791 10.5652 30.2066 10.607 30.1041 10.6582C29.9969 10.7094 29.8337 10.7513 29.7358 10.7513C29.638 10.7513 29.5168 10.7886 29.4468 10.8444C29.3816 10.8956 29.2697 10.9375 29.1905 10.9375C29.1159 10.9375 28.9994 10.9794 28.9341 11.0306C28.8688 11.0818 28.7849 11.1237 28.743 11.1237C28.6451 11.1237 28.4353 11.2214 28.4353 11.2726C28.4353 11.2912 28.3934 11.3098 28.3468 11.3098C28.2955 11.3098 28.1929 11.361 28.1184 11.4262C28.0391 11.4914 27.9459 11.5426 27.9086 11.5426C27.8666 11.5426 27.8247 11.5612 27.8061 11.5844C27.7688 11.6449 27.3679 11.9149 27.3166 11.9149C27.2933 11.9149 26.9623 12.2221 26.5755 12.5944C26.128 13.0273 25.8436 13.3438 25.7784 13.4741C25.7224 13.5858 25.6525 13.7021 25.6152 13.7301C25.5313 13.7999 25.3588 14.1303 25.3588 14.2188C25.3588 14.256 25.3169 14.3305 25.2703 14.377C25.2237 14.4235 25.1677 14.5352 25.1491 14.619C25.1304 14.7074 25.0745 14.8331 25.0279 14.9029C24.9766 14.9681 24.9393 15.0984 24.9393 15.1915C24.9393 15.2799 24.902 15.4242 24.8508 15.508C24.7995 15.6011 24.7575 15.8059 24.7389 16.0106C24.7249 16.2015 24.6969 16.4435 24.6736 16.5459C24.627 16.7832 24.627 18.2168 24.6736 18.4309C24.6923 18.5193 24.7202 18.7613 24.7389 18.9661C24.7575 19.1942 24.7995 19.3989 24.8554 19.492C24.902 19.5758 24.9393 19.7247 24.9393 19.8225C24.9393 19.9295 24.9766 20.0459 25.0326 20.1203C25.0838 20.1855 25.1398 20.3065 25.1584 20.3949C25.1724 20.4787 25.2237 20.5997 25.2749 20.6602C25.3216 20.7207 25.3588 20.8045 25.3588 20.8418C25.3588 20.8836 25.4008 20.9581 25.4474 21.0093C25.494 21.0652 25.5919 21.2141 25.6618 21.3491C25.9182 21.8517 27.2094 23.1503 27.6849 23.3876C27.8061 23.4481 27.9412 23.5412 27.9878 23.5924C28.0345 23.6436 28.0904 23.6809 28.109 23.6669C28.1277 23.6576 28.2116 23.6995 28.2955 23.76C28.3841 23.8251 28.4866 23.8763 28.5239 23.8763C28.5659 23.8763 28.6498 23.9182 28.715 23.9694C28.7803 24.0206 28.8921 24.0625 28.9621 24.0625C29.0366 24.0625 29.1485 24.1044 29.2138 24.1556C29.279 24.2068 29.4002 24.2487 29.4795 24.2487C29.5587 24.2487 29.6986 24.2859 29.7871 24.3371C29.8757 24.3836 30.0808 24.4348 30.2439 24.4488C30.4024 24.4628 30.5609 24.4953 30.5935 24.5186C30.7334 24.6303 31.2135 24.6629 32.5373 24.6489C33.7959 24.635 33.9357 24.6257 34.2107 24.5326C34.3739 24.4814 34.5883 24.4348 34.6862 24.4348C34.7887 24.4348 34.9565 24.393 35.0684 24.3464C35.1756 24.2952 35.3528 24.2487 35.4646 24.2347C35.5765 24.2207 35.7024 24.1789 35.7443 24.1416C35.7863 24.0997 35.9075 24.0532 36.01 24.0346C36.1126 24.016 36.2384 23.9741 36.2897 23.9461C36.341 23.9136 36.4622 23.8717 36.5554 23.8577C36.6579 23.8391 36.7512 23.7879 36.7791 23.7367C36.8071 23.6855 36.863 23.6436 36.9003 23.6436C37.0075 23.6436 37.4504 23.4295 37.5203 23.3457C37.5529 23.3039 37.6135 23.2713 37.6508 23.2713C37.6928 23.2713 37.7906 23.2154 37.8745 23.1456C38.1402 22.9176 38.2241 22.8524 38.2521 22.8524C38.3873 22.8524 39.4408 21.8192 39.5806 21.5492C39.6552 21.4049 39.7065 21.363 39.781 21.3723C39.8789 21.3863 39.8789 21.4049 39.9022 22.8059L39.9255 24.2254L41.7202 24.2394C42.7084 24.244 43.5614 24.2394 43.622 24.2254L43.7245 24.2021L43.7059 15.764C43.6966 11.1097 43.6686 7.14428 43.6453 6.91157C43.622 6.67886 43.566 6.42753 43.5241 6.34375C43.4821 6.25998 43.4448 6.125 43.4448 6.04123C43.4448 5.95745 43.4029 5.81782 43.3516 5.73405C43.3003 5.65027 43.2584 5.54322 43.2584 5.49668C43.2584 5.45014 43.2211 5.36171 43.1745 5.3012C43.1279 5.24069 43.03 5.06383 42.9601 4.91024C42.8855 4.75665 42.8062 4.60772 42.7783 4.58444C42.6897 4.50998 42.466 4.19814 42.466 4.15625C42.466 4.04455 41.3799 3.02527 41.268 3.02527C41.2447 3.02527 41.1655 2.96011 41.0909 2.88564C41.0163 2.80652 40.9324 2.74601 40.8998 2.74601C40.8718 2.74601 40.8205 2.71343 40.7879 2.6762C40.7553 2.63897 40.6993 2.60639 40.662 2.60639C40.6247 2.60639 40.5315 2.55519 40.4523 2.49003C40.3777 2.42487 40.2751 2.37367 40.2332 2.37367C40.1866 2.37367 40.0933 2.33179 40.0281 2.28059C39.9628 2.22939 39.8649 2.1875 39.809 2.1875C39.7531 2.1875 39.6552 2.14561 39.5899 2.09442C39.5247 2.04322 39.3988 1.99203 39.3009 1.97341C39.2077 1.95479 39.0912 1.9129 39.0399 1.88032C38.9886 1.84309 38.9 1.81516 38.8394 1.81516C38.7835 1.81516 38.611 1.76397 38.4572 1.69881C38.3034 1.63365 38.1123 1.58245 38.0284 1.58245C37.9445 1.5778 37.758 1.54056 37.6182 1.48936C37.4783 1.43817 37.2359 1.39628 37.0821 1.39628C36.9283 1.39628 36.6253 1.3637 36.4062 1.32647C35.9121 1.23804 34.5557 1.2008 33.8425 1.25665ZM35.8608 13.3856C36.0706 13.4275 36.4016 13.4787 36.5927 13.4973C36.7838 13.516 37.0215 13.5672 37.1147 13.609C37.2126 13.6509 37.3665 13.6835 37.4643 13.6835C37.5622 13.6835 37.7207 13.7254 37.8139 13.7766C37.9118 13.8278 38.0796 13.8836 38.1869 13.8976C38.2987 13.9162 38.4665 13.9674 38.5598 14.014C38.6577 14.0652 38.7835 14.1024 38.8394 14.1024C38.9 14.1024 38.9979 14.1443 39.0632 14.1955C39.1284 14.2467 39.2357 14.2886 39.3009 14.2886C39.3708 14.2886 39.4734 14.3258 39.534 14.3723C39.5946 14.4189 39.7065 14.4794 39.7764 14.512L39.9069 14.5678L39.8882 15.373C39.8789 15.8105 39.8416 16.2666 39.8137 16.383C39.781 16.4993 39.7391 16.7181 39.7204 16.8717C39.7065 17.0253 39.6552 17.2021 39.6132 17.2673C39.5713 17.3324 39.5247 17.4581 39.5107 17.5512C39.492 17.6489 39.4501 17.7467 39.4128 17.7793C39.3755 17.8072 39.3242 17.9049 39.2963 17.9934C39.2263 18.1981 39.0352 18.5472 38.9467 18.617C38.9094 18.6496 38.8767 18.7008 38.8767 18.7334C38.8767 18.8684 37.6648 20.0738 37.3758 20.232C37.2732 20.2879 37.1427 20.3763 37.0868 20.4275C37.0308 20.4834 36.9563 20.5253 36.9236 20.5253C36.891 20.5253 36.8118 20.5672 36.7465 20.6184C36.6812 20.6695 36.5927 20.7114 36.5461 20.7114C36.4995 20.7114 36.4109 20.7533 36.3456 20.8045C36.2804 20.8557 36.1825 20.8976 36.1312 20.8976C36.0753 20.8976 35.9261 20.9535 35.8003 21.0186C35.6697 21.0838 35.5346 21.1257 35.4926 21.1117C35.4506 21.0977 35.3528 21.1117 35.2735 21.1489C34.8726 21.3258 34.7701 21.3351 33.3764 21.3351H32.0013L31.6796 21.2094C31.5072 21.1396 31.2974 21.0838 31.2228 21.0838C31.1482 21.0838 31.0317 21.0419 30.9664 20.9907C30.9012 20.9395 30.808 20.8976 30.766 20.8976C30.7194 20.8976 30.5562 20.8138 30.4024 20.7114C30.2486 20.609 30.1041 20.5253 30.0854 20.5253C30.0621 20.5253 29.8803 20.367 29.6799 20.1762C29.3303 19.8364 28.9015 19.2453 28.9015 19.1011C28.9015 19.0638 28.8502 18.9521 28.7849 18.859C28.7197 18.766 28.6684 18.631 28.6684 18.5612C28.6684 18.4867 28.6264 18.2773 28.5752 18.0957C28.4586 17.6722 28.4493 16.9415 28.5565 16.5692C28.5985 16.4295 28.6451 16.2154 28.6637 16.0991C28.6824 15.9827 28.743 15.8291 28.7989 15.7547C28.8549 15.6848 28.9015 15.5824 28.9061 15.5266C28.9108 15.3637 29.4608 14.7074 29.8757 14.3723C30.0901 14.2001 30.2859 14.0559 30.3092 14.0559C30.3325 14.0559 30.4071 14.014 30.4723 13.9628C30.5376 13.9116 30.6262 13.8697 30.6635 13.8697C30.7054 13.8697 30.7707 13.8371 30.8173 13.7952C30.8639 13.7533 30.9897 13.7114 31.1016 13.6975C31.2135 13.6835 31.3393 13.6416 31.3813 13.6044C31.4233 13.5625 31.605 13.516 31.7775 13.4973C31.95 13.4787 32.1877 13.4368 32.3042 13.4043C32.6538 13.3112 33.0687 13.2879 34.2993 13.2972C35.185 13.3065 35.5765 13.3298 35.8608 13.3856Z" fill="white"/>
<path d="M53.5365 1.25659C53.3826 1.27987 53.1309 1.3171 52.9771 1.34503C52.8233 1.37295 52.6042 1.39622 52.4877 1.39622C52.2872 1.39622 51.9656 1.48 51.9003 1.54981C51.8817 1.56843 51.7838 1.58239 51.6859 1.58239C51.588 1.58239 51.4295 1.61963 51.3316 1.67082C51.2384 1.71737 51.0799 1.76856 50.982 1.78718C50.8842 1.8058 50.735 1.86165 50.6557 1.91284C50.5718 1.95939 50.4693 2.00128 50.4227 2.00128C50.3714 2.00128 50.2828 2.04316 50.2176 2.09436C50.1523 2.14556 50.0638 2.18744 50.0171 2.18744C49.9752 2.18744 49.9006 2.22933 49.854 2.28053C49.8074 2.33173 49.7421 2.37362 49.7095 2.37362C49.6722 2.37362 49.523 2.4667 49.3692 2.58306C49.2201 2.69941 49.0709 2.7925 49.0383 2.7925C48.959 2.7925 47.8729 3.8909 47.8729 3.97003C47.8729 4.00726 47.8403 4.06776 47.7983 4.10035C47.7284 4.1562 47.4534 4.69143 47.4534 4.7659C47.4534 4.78452 47.4115 4.85433 47.3602 4.91949C47.3089 4.98465 47.2669 5.11032 47.2669 5.1941C47.2669 5.27787 47.2297 5.4175 47.1784 5.50128C46.9546 5.89689 46.9593 8.46604 47.1877 8.81511C47.2343 8.88027 47.2669 9.00593 47.2669 9.08971C47.2669 9.17814 47.3042 9.29915 47.3555 9.35965C47.4021 9.42016 47.4581 9.54117 47.472 9.62029C47.4907 9.70407 47.528 9.78319 47.5513 9.80181C47.5746 9.81577 47.6259 9.89489 47.6632 9.97402C47.8683 10.4069 48.7586 11.3703 49.262 11.7054C49.4065 11.8031 49.593 11.9428 49.6675 12.0126C49.7468 12.0824 49.8959 12.1848 49.9985 12.2406C50.1057 12.2918 50.2316 12.3803 50.2735 12.4268C50.3201 12.478 50.404 12.5199 50.46 12.5199C50.5159 12.5199 50.5998 12.5618 50.6464 12.613C50.693 12.6642 50.7723 12.7061 50.8189 12.7061C50.8702 12.7061 50.9634 12.748 51.0287 12.7991C51.0939 12.8503 51.1871 12.8922 51.2338 12.8922C51.2757 12.8922 51.3783 12.9481 51.4575 13.0132C51.5367 13.0784 51.6206 13.1203 51.6439 13.1063C51.6673 13.0924 51.7558 13.1249 51.8397 13.1855C51.9283 13.2413 52.0495 13.2925 52.1101 13.2972C52.1707 13.3018 52.2546 13.339 52.2965 13.3763C52.3431 13.4182 52.441 13.4647 52.5249 13.4787C52.6042 13.4926 52.7067 13.5485 52.7487 13.595C52.7906 13.6416 52.9025 13.6974 52.9957 13.7114C53.089 13.73 53.2055 13.7719 53.2568 13.7998C53.308 13.8324 53.4199 13.8696 53.5038 13.8882C53.5924 13.9022 53.7136 13.9581 53.7788 14.0093C53.8441 14.0605 53.956 14.1023 54.0259 14.1023C54.0958 14.1023 54.2077 14.1442 54.2729 14.1954C54.3382 14.2466 54.4454 14.2885 54.5107 14.2885C54.5759 14.2885 54.6692 14.3304 54.7111 14.3816C54.7577 14.4328 54.8649 14.4886 54.9582 14.5026C55.0467 14.5212 55.1726 14.5724 55.2332 14.619C55.2938 14.6702 55.3777 14.7074 55.4196 14.7074C55.4616 14.7074 55.5455 14.7493 55.6107 14.8005C55.676 14.8517 55.7692 14.8936 55.8252 14.8936C55.8764 14.8936 55.9603 14.9355 56.007 14.9866C56.0536 15.0378 56.1375 15.0797 56.1934 15.0797C56.254 15.0797 56.3286 15.1123 56.3612 15.1589C56.3985 15.2007 56.4917 15.2613 56.5663 15.2985C56.874 15.4381 57.6058 16.0339 57.8249 16.3178C57.8948 16.4062 58.0207 16.5551 58.1092 16.6389C58.1978 16.7273 58.2677 16.8297 58.2677 16.8623C58.2677 16.8995 58.3097 16.9647 58.3609 17.0113C58.4122 17.0578 58.4542 17.1323 58.4542 17.1788C58.4542 17.2207 58.4961 17.3557 58.5474 17.4767C58.6266 17.6582 58.6406 17.7932 58.6406 18.3284C58.636 18.9102 58.6266 18.9847 58.5241 19.1988C58.4588 19.3244 58.4076 19.4594 58.4076 19.492C58.4076 19.5944 57.8995 20.2413 57.713 20.3716C57.6198 20.4414 57.4986 20.5438 57.438 20.6043C57.3774 20.6648 57.2935 20.7114 57.2469 20.7114C57.2003 20.7114 57.1257 20.7533 57.0791 20.8045C57.0325 20.8557 56.9439 20.8976 56.8833 20.8976C56.8227 20.8976 56.6596 20.9488 56.5197 21.0139C56.3519 21.093 56.2027 21.1303 56.0676 21.1256C55.9557 21.121 55.7319 21.1349 55.5641 21.1535C55.2518 21.1908 54.7344 21.1861 54.4454 21.1489C54.3568 21.1396 54.1191 21.1163 53.914 21.107C53.6949 21.093 53.4665 21.0465 53.3453 20.9906C53.2381 20.9394 53.0796 20.8976 53.0004 20.8976C52.9165 20.8976 52.8 20.8557 52.7347 20.8045C52.6694 20.7533 52.5669 20.7114 52.511 20.7114C52.455 20.7114 52.3571 20.6742 52.2965 20.6276C52.2359 20.5811 52.0681 20.4833 51.9283 20.4135C51.7884 20.339 51.63 20.2413 51.574 20.1948C51.5228 20.1482 51.4622 20.1063 51.4388 20.1063C51.2477 20.1063 49.2713 18.0771 49.2713 17.8769C49.2713 17.849 49.2201 17.7978 49.1641 17.7559C49.1035 17.7187 49.0289 17.6303 48.9963 17.5651C48.9497 17.4581 48.9264 17.4488 48.7679 17.4767C48.6747 17.4906 48.5628 17.5465 48.5255 17.593C48.4882 17.6396 48.3297 17.742 48.1712 17.8211C48.0174 17.9002 47.8496 18.0073 47.803 18.0585C47.7564 18.1097 47.6911 18.1515 47.6585 18.1515C47.5932 18.1515 47.1924 18.4075 47.1504 18.482C47.1318 18.5053 47.0852 18.5239 47.0385 18.5239C46.9919 18.5239 46.9173 18.5658 46.8661 18.6216C46.8195 18.6728 46.6703 18.7659 46.5398 18.8311C46.4093 18.8916 46.2648 18.9847 46.2181 19.0359C46.1715 19.087 46.097 19.1289 46.0457 19.1289C45.9991 19.1289 45.9338 19.1801 45.9058 19.2453C45.8592 19.3477 45.8685 19.3849 45.9525 19.5013C46.0084 19.5757 46.055 19.6642 46.055 19.7014C46.055 19.7386 46.097 19.8038 46.1529 19.855C46.2042 19.9015 46.2741 20.0086 46.3114 20.0877C46.344 20.1668 46.4326 20.3018 46.5072 20.3902C46.5817 20.4787 46.7262 20.6742 46.8241 20.8277C47.0059 21.107 48.5302 22.6662 48.6187 22.6662C48.6747 22.6662 48.9031 22.8198 49.0709 22.964C49.1874 23.0618 49.3133 23.1409 49.5417 23.2433C49.6256 23.2805 49.7048 23.3457 49.7188 23.3876C49.7328 23.4248 49.7887 23.4574 49.8447 23.4574C49.8959 23.4574 49.9845 23.4993 50.0404 23.5505C50.0964 23.6017 50.1896 23.6529 50.2455 23.6668C50.3015 23.6761 50.3994 23.7273 50.4693 23.7785C50.5345 23.8344 50.6231 23.8763 50.6697 23.8763C50.7163 23.8763 50.8002 23.9135 50.8608 23.9647C50.9214 24.0113 51.0333 24.0531 51.1032 24.0531C51.1732 24.0531 51.271 24.0857 51.3223 24.1323C51.3689 24.1742 51.4994 24.2207 51.6113 24.2347C51.7232 24.2486 51.8957 24.2998 52.0029 24.3464C52.1054 24.3929 52.2639 24.4348 52.3525 24.4348C52.441 24.4348 52.7114 24.486 52.9584 24.5465C53.392 24.6582 53.4479 24.6582 54.9162 24.6489C56.3239 24.6396 56.4451 24.6303 56.7248 24.5372C56.888 24.4813 57.1024 24.4348 57.2003 24.4348C57.3028 24.4348 57.4613 24.3929 57.5545 24.3417C57.6524 24.2905 57.7969 24.2486 57.8762 24.2486C57.9554 24.2486 58.0766 24.2067 58.1419 24.1555C58.2071 24.1043 58.3097 24.0624 58.3703 24.0624C58.4262 24.0624 58.5287 24.0206 58.594 23.9694C58.6593 23.9182 58.7525 23.8763 58.8084 23.8763C58.8597 23.8763 58.9529 23.8251 59.0135 23.7599C59.0741 23.6948 59.158 23.6436 59.2046 23.6436C59.2513 23.6436 59.2979 23.6249 59.3165 23.6017C59.3538 23.5319 59.7547 23.2712 59.8153 23.2712C59.8852 23.2712 61.3908 21.7679 61.3908 21.6981C61.3908 21.6376 61.5866 21.3304 61.6938 21.2187C61.7311 21.1768 61.7637 21.1117 61.7637 21.0744C61.7637 21.0372 61.8057 20.9488 61.8616 20.8789C61.9129 20.8138 61.9642 20.7021 61.9781 20.6369C61.9921 20.5671 62.0434 20.4601 62.09 20.3949C62.1413 20.3297 62.1832 20.2227 62.1832 20.1575C62.1832 20.0877 62.2252 19.9527 62.2765 19.8503C62.3277 19.748 62.3697 19.5804 62.3697 19.4734C62.3697 19.3663 62.4163 19.1476 62.4676 18.9847C62.5515 18.7333 62.5655 18.5658 62.5701 17.9188C62.5748 17.2626 62.5608 17.0997 62.4769 16.8018C62.421 16.611 62.3744 16.3783 62.379 16.2852C62.379 16.1968 62.3371 16.0478 62.2811 15.9594C62.2299 15.871 62.1832 15.7453 62.1832 15.6801C62.1832 15.6103 62.1413 15.5033 62.09 15.4381C62.0387 15.373 61.9968 15.2938 61.9968 15.2659C61.9968 15.2333 61.9595 15.1542 61.9175 15.089C61.8709 15.0192 61.815 14.9261 61.787 14.8843C61.5773 14.5352 60.8687 13.7672 60.4073 13.3902C60.1136 13.1529 59.8432 12.9388 59.806 12.9248C59.7687 12.9062 59.6428 12.8271 59.5263 12.7526C59.4097 12.6781 59.2559 12.5897 59.1767 12.5525C59.1021 12.5152 59.0089 12.4547 58.9716 12.4128C58.9389 12.3663 58.8783 12.3337 58.8411 12.3337C58.8038 12.3337 58.7059 12.2825 58.622 12.2174C58.5381 12.1522 58.4402 12.101 58.4122 12.101C58.3796 12.101 58.3003 12.0591 58.2351 12.0079C58.1698 11.9567 58.0859 11.9148 58.0486 11.9148C58.0113 11.9148 57.9274 11.873 57.8622 11.8218C57.7969 11.7706 57.713 11.7287 57.6757 11.7287C57.6384 11.7287 57.5545 11.6868 57.4893 11.6356C57.424 11.5844 57.3354 11.5425 57.2888 11.5425C57.2422 11.5425 57.1583 11.5006 57.0931 11.4541C57.0325 11.4029 56.9159 11.347 56.8413 11.3284C56.7668 11.3098 56.6689 11.2679 56.6269 11.226C56.5803 11.1888 56.4917 11.1515 56.4265 11.1422C56.3612 11.1376 56.2587 11.1003 56.2027 11.0631C56.1468 11.0305 56.0396 10.984 55.965 10.9654C55.8904 10.9468 55.7739 10.8909 55.7133 10.8397C55.648 10.7932 55.5455 10.7513 55.4756 10.7513C55.4103 10.7513 55.3031 10.7094 55.2378 10.6582C55.1726 10.607 55.0747 10.5651 55.0234 10.5651C54.9675 10.5651 54.8696 10.5232 54.8043 10.472C54.7391 10.4208 54.6459 10.3789 54.5946 10.3789C54.548 10.3789 54.4547 10.337 54.3895 10.2905C54.3289 10.2393 54.217 10.1835 54.1424 10.1648C54.0678 10.1462 53.9373 10.0811 53.8488 10.0206C53.7602 9.96471 53.6576 9.91351 53.6204 9.91351C53.5831 9.91351 53.4992 9.87162 53.4339 9.82043C53.3686 9.76923 53.2754 9.72734 53.2288 9.72734C53.1822 9.72734 53.1356 9.70872 53.1169 9.6808C53.1029 9.65753 52.9351 9.56444 52.744 9.47136C52.5529 9.37827 52.3944 9.28053 52.3944 9.25726C52.3944 9.23399 52.3385 9.18745 52.2686 9.15487C52.0821 9.07575 52.0541 9.05247 51.5228 8.54051C51.2571 8.28452 51.0287 8.02388 51.01 7.95872C50.996 7.89356 50.9447 7.79117 50.8935 7.73067C50.8469 7.67016 50.8096 7.5538 50.8096 7.47468C50.8096 7.39556 50.7863 7.24662 50.7583 7.14888C50.6837 6.88359 50.7909 6.12495 50.9261 5.96205C50.9774 5.89689 51.052 5.78053 51.0892 5.71072C51.1265 5.63625 51.2291 5.51524 51.3223 5.44077C51.4109 5.36165 51.5367 5.25925 51.5927 5.20806C51.6533 5.16151 51.7279 5.11963 51.7651 5.11963C51.7978 5.11963 51.877 5.07774 51.9423 5.02654C52.0075 4.97535 52.1008 4.93346 52.1567 4.93346C52.208 4.93346 52.3198 4.89622 52.4037 4.84968C52.6322 4.72401 53.7322 4.63558 54.2823 4.69609C54.5153 4.72401 54.809 4.74729 54.9349 4.74729C55.0654 4.74729 55.2472 4.78918 55.3544 4.84037C55.4569 4.89157 55.6107 4.9288 55.6947 4.93346C55.7832 4.93346 55.9044 4.97535 55.9697 5.02654C56.0349 5.07774 56.1375 5.11963 56.1981 5.11963C56.254 5.11963 56.3659 5.17082 56.4405 5.23598C56.5197 5.30114 56.6223 5.35234 56.6735 5.35234C56.7248 5.35234 56.7901 5.38492 56.8274 5.42681C56.86 5.4687 56.9765 5.54317 57.0837 5.59436C57.1956 5.64556 57.3448 5.7433 57.4147 5.80846C57.5452 5.93412 57.6571 6.00859 57.8249 6.09237C57.9414 6.14822 58.855 7.04184 59.0322 7.27455C59.2326 7.53519 59.3212 7.57242 59.4843 7.45141C59.5542 7.39556 59.6335 7.35367 59.6568 7.35367C59.6801 7.35367 59.7454 7.30247 59.806 7.23731C59.8666 7.17216 59.9411 7.12096 59.9691 7.12096C59.9971 7.12096 60.1416 7.03718 60.2814 6.93944C60.4259 6.8417 60.5891 6.74396 60.6403 6.72535C60.6963 6.71138 60.7382 6.6788 60.7382 6.65553C60.7382 6.63226 60.8268 6.56245 60.9293 6.5066C61.2323 6.33904 61.2929 6.30181 61.3768 6.22734C61.4234 6.18545 61.5679 6.09702 61.6985 6.03186C61.8336 5.96205 61.9781 5.86431 62.0201 5.81777C62.0667 5.76657 62.132 5.72468 62.1599 5.72468C62.2904 5.72468 62.3277 5.60367 62.2485 5.4175C62.2065 5.31976 62.1459 5.21737 62.118 5.18944C62.0854 5.16617 61.9642 4.99396 61.843 4.8171C61.6146 4.46338 60.5984 3.44409 60.2954 3.25793C60.0763 3.12295 60.067 3.1183 59.8479 2.93213C59.7547 2.85766 59.6521 2.7925 59.6195 2.7925C59.5869 2.7925 59.503 2.7413 59.4237 2.67614C59.3491 2.61098 59.2606 2.55979 59.2233 2.55979C59.1907 2.55979 59.1394 2.53186 59.1114 2.49463C59.0788 2.45739 58.9995 2.4155 58.9296 2.39689C58.8597 2.37827 58.7711 2.34104 58.7338 2.30846C58.6966 2.27122 58.6033 2.22933 58.5241 2.21537C58.4495 2.19675 58.3423 2.1409 58.2864 2.08971C58.2351 2.04316 58.1279 1.99197 58.044 1.98266C57.9647 1.97335 57.8435 1.93146 57.7829 1.88957C57.7177 1.84768 57.6244 1.81511 57.5732 1.81511C57.5219 1.81511 57.3774 1.76391 57.2515 1.69875C57.121 1.63359 56.9532 1.58239 56.874 1.58239C56.7901 1.58239 56.6502 1.54981 56.5523 1.50793C56.4591 1.46604 56.2027 1.41484 55.9837 1.39157C55.7646 1.3683 55.4849 1.33106 55.3544 1.30779C55.0141 1.24263 53.8627 1.21005 53.5365 1.25659Z" fill="white"/>
<path d="M89.7776 1.25664C89.6098 1.27991 89.3814 1.31715 89.2648 1.34507C89.1483 1.373 88.9339 1.39627 88.7894 1.39627C88.6309 1.39627 88.4398 1.4335 88.3093 1.48935C88.1881 1.54055 88.0249 1.58244 87.9457 1.58244C87.8618 1.58244 87.6846 1.63364 87.5495 1.6988C87.4096 1.76395 87.2465 1.81515 87.1812 1.81515C87.116 1.81515 87.0134 1.85704 86.9482 1.90824C86.8829 1.95943 86.771 2.00132 86.7011 2.00132C86.6312 2.00132 86.538 2.04321 86.4913 2.09441C86.4447 2.1456 86.3608 2.18749 86.3049 2.18749C86.249 2.18749 86.165 2.22938 86.1184 2.28058C86.0718 2.33177 85.9972 2.37366 85.9553 2.37366C85.9087 2.37366 85.8481 2.40624 85.8154 2.44348C85.7409 2.53656 85.3586 2.79255 85.3027 2.79255C85.2794 2.79255 85.023 3.02991 84.734 3.31848C84.3611 3.69082 84.1653 3.91887 84.0674 4.11901C83.9929 4.2726 83.8903 4.42619 83.8484 4.45877C83.8017 4.49135 83.7645 4.57047 83.7645 4.62632C83.7645 4.68683 83.7225 4.78922 83.6666 4.85438C83.6153 4.92419 83.5594 5.05917 83.5454 5.15225C83.5314 5.24999 83.4801 5.41289 83.4335 5.51994C83.3869 5.62233 83.3449 5.79919 83.3403 5.91555C83.3403 6.02725 83.3123 6.36236 83.2843 6.65558C83.2377 7.07446 83.2377 7.29786 83.2843 7.67951C83.317 7.94946 83.3403 8.2613 83.3449 8.37765C83.3449 8.49866 83.3869 8.67087 83.4428 8.77326C83.4941 8.87566 83.5454 9.03856 83.5547 9.14095C83.564 9.23869 83.6153 9.36435 83.6619 9.4202C83.7132 9.4714 83.7691 9.57845 83.7831 9.65757C83.8017 9.73204 83.8996 9.91821 84.0022 10.0718C84.1001 10.2207 84.184 10.365 84.184 10.3929C84.184 10.4534 85.4705 11.7287 85.5358 11.7287C85.5917 11.7287 85.601 11.738 85.8854 11.9707C86.0998 12.1476 86.2023 12.2128 86.3981 12.3012C86.4774 12.3384 86.5659 12.3989 86.6032 12.4408C86.6358 12.4874 86.6964 12.5199 86.7337 12.5199C86.771 12.5199 86.8549 12.5618 86.9202 12.613C86.9854 12.6642 87.0693 12.7061 87.1066 12.7061C87.1439 12.7061 87.2278 12.748 87.2931 12.7992C87.3584 12.8504 87.4469 12.8923 87.4889 12.8923C87.5355 12.8923 87.638 12.9435 87.7266 13.0086C87.8152 13.0738 87.9177 13.125 87.9643 13.125C88.0063 13.125 88.0948 13.1669 88.1601 13.2181C88.2254 13.2693 88.3279 13.3112 88.3932 13.3112C88.4538 13.3112 88.533 13.3391 88.561 13.3763C88.5936 13.4136 88.6868 13.4601 88.7661 13.4787C88.85 13.4927 88.9619 13.5485 89.0224 13.5951C89.083 13.6416 89.1949 13.6928 89.2788 13.7114C89.3581 13.7254 89.4699 13.7673 89.5212 13.7999C89.5725 13.8324 89.6844 13.8697 89.7683 13.8883C89.8568 13.9023 89.978 13.9581 90.0433 14.0093C90.1085 14.0605 90.2204 14.1024 90.2903 14.1024C90.3603 14.1024 90.4721 14.1443 90.5374 14.1955C90.6026 14.2467 90.7052 14.2886 90.7705 14.2886C90.831 14.2886 90.9336 14.3304 90.9989 14.377C91.0595 14.4282 91.176 14.484 91.2506 14.5027C91.3252 14.5213 91.437 14.5725 91.4976 14.6237C91.5582 14.6702 91.6561 14.7074 91.712 14.7074C91.768 14.7074 91.8519 14.7493 91.8985 14.8005C91.9451 14.8517 92.0244 14.8936 92.071 14.8936C92.1176 14.8936 92.2155 14.9355 92.29 14.9913C92.36 15.0425 92.4485 15.0891 92.4858 15.0937C92.5231 15.1031 92.6163 15.1449 92.6909 15.1961C92.91 15.3404 93.0126 15.4056 93.0871 15.4382C93.3435 15.5545 94.5788 16.7693 94.5788 16.9042C94.5788 16.9322 94.6067 16.9927 94.644 17.0299C94.6767 17.0718 94.7606 17.2812 94.8258 17.5C94.9843 18.0213 94.9796 18.7846 94.8212 19.1476C94.7652 19.2733 94.7186 19.4082 94.7186 19.4548C94.7186 19.5013 94.686 19.5618 94.6487 19.5944C94.6114 19.627 94.5788 19.6828 94.5788 19.7247C94.5788 19.8364 93.6512 20.7114 93.53 20.7114C93.474 20.7114 93.3901 20.7533 93.3435 20.8045C93.2969 20.8557 93.2083 20.8976 93.1477 20.8976C93.0871 20.8976 92.9193 20.9534 92.7795 21.0186C92.6024 21.1024 92.4718 21.1303 92.374 21.1163C92.29 21.1024 92.1083 21.1117 91.9684 21.135C91.6981 21.1815 90.9802 21.1908 90.7099 21.1536C90.6213 21.1396 90.3929 21.121 90.2064 21.107C90.0107 21.0977 89.7822 21.0465 89.6564 20.9907C89.5352 20.9395 89.3674 20.8976 89.2788 20.8976C89.1856 20.8976 89.0644 20.8557 88.9991 20.8045C88.9339 20.7533 88.8407 20.7114 88.7894 20.7114C88.7381 20.7114 88.6309 20.6602 88.547 20.5951C88.4631 20.5299 88.3605 20.4787 88.3232 20.4787C88.2813 20.4787 88.2254 20.4508 88.1974 20.4136C88.1648 20.3763 88.0902 20.3344 88.0296 20.3205C87.969 20.3065 87.8944 20.2507 87.8664 20.1995C87.8385 20.1483 87.7732 20.1064 87.7219 20.1064C87.6007 20.1064 86.0392 18.5798 85.7409 18.1749C85.2281 17.4721 85.2002 17.4441 85.051 17.4721C84.9717 17.4907 84.8692 17.5419 84.8133 17.5884C84.762 17.635 84.6268 17.7234 84.5103 17.7839C84.3937 17.8444 84.2306 17.9515 84.1467 18.0213C84.0628 18.0957 83.9696 18.1516 83.9416 18.1516C83.9136 18.1516 83.853 18.1795 83.8157 18.2167C83.7738 18.2493 83.6479 18.3284 83.5314 18.389C83.4149 18.4495 83.2517 18.5565 83.1678 18.6263C83.0839 18.7008 82.9907 18.7566 82.9627 18.7566C82.9347 18.7566 82.7902 18.8404 82.6364 18.9428C82.4826 19.0452 82.3288 19.129 82.2961 19.129C82.1563 19.129 82.1423 19.3943 82.2728 19.5618C82.3241 19.627 82.3661 19.7108 82.3661 19.7433C82.3661 19.7806 82.4173 19.8597 82.4826 19.9202C82.5478 19.9807 82.5991 20.0552 82.5991 20.0831C82.5991 20.1157 82.669 20.2274 82.7529 20.3391C83.0233 20.7068 83.1585 20.9023 83.1585 20.9348C83.1585 20.9907 84.7993 22.615 84.9298 22.6895C84.9951 22.7267 85.079 22.7686 85.1162 22.7872C85.1535 22.8058 85.2421 22.871 85.312 22.9362C85.4425 23.0572 85.5591 23.127 85.7921 23.2387C85.8714 23.2759 85.9599 23.3364 85.9972 23.3783C86.0299 23.4249 86.0905 23.4574 86.1278 23.4574C86.165 23.4574 86.2583 23.5086 86.3375 23.5738C86.4121 23.639 86.5053 23.6902 86.5473 23.6902C86.5846 23.6902 86.6685 23.732 86.7337 23.7832C86.799 23.8344 86.8969 23.8763 86.9435 23.8763C86.9948 23.8763 87.088 23.9182 87.1533 23.9694C87.2185 24.0206 87.335 24.0625 87.4096 24.0625C87.4889 24.0625 87.6007 24.1044 87.666 24.1556C87.7313 24.2068 87.8571 24.2487 87.941 24.2487C88.0296 24.2487 88.1787 24.2905 88.272 24.3417C88.3699 24.3929 88.5237 24.4348 88.6123 24.4348C88.7055 24.4348 88.9805 24.486 89.2229 24.5465C89.6564 24.6582 89.7123 24.6629 91.204 24.6489C92.6396 24.635 92.7562 24.6303 93.0032 24.5326C93.1524 24.4814 93.3575 24.4348 93.46 24.4348C93.5626 24.4348 93.7257 24.3929 93.819 24.3417C93.9169 24.2905 94.0614 24.2487 94.1406 24.2487C94.2198 24.2487 94.341 24.2068 94.4063 24.1556C94.4716 24.1044 94.5741 24.0625 94.6394 24.0625C94.7 24.0625 94.8072 24.0206 94.8724 23.9694C94.9377 23.9182 95.0309 23.8763 95.0775 23.8763C95.1288 23.8763 95.2174 23.8251 95.278 23.76C95.3386 23.6948 95.4318 23.6436 95.4924 23.6436C95.5483 23.6436 95.6043 23.6157 95.6182 23.5831C95.6322 23.5505 95.7954 23.4295 95.9818 23.3178C96.2941 23.127 97.4408 22.0565 97.5294 21.875C97.6086 21.7167 97.6925 21.5864 97.7858 21.4887C97.893 21.3723 98.0748 21.0419 98.0748 20.9628C98.0748 20.9348 98.1167 20.8743 98.168 20.8278C98.2193 20.7812 98.2612 20.6975 98.2612 20.6416C98.2612 20.5858 98.3032 20.4834 98.3591 20.4182C98.4104 20.3484 98.4663 20.2134 98.4803 20.1203C98.4943 20.0226 98.5456 19.8597 98.5922 19.7527C98.6388 19.6503 98.6807 19.4874 98.6807 19.3943C98.6807 19.3058 98.718 19.0871 98.76 18.9102C98.8672 18.4681 98.8672 17.2626 98.76 16.867C98.718 16.7088 98.6807 16.4993 98.6807 16.3969C98.6807 16.2992 98.6388 16.1409 98.5875 16.0432C98.5362 15.9501 98.4943 15.8152 98.4943 15.7453C98.4943 15.6709 98.4523 15.5638 98.4011 15.4987C98.3498 15.4335 98.3078 15.3544 98.3078 15.3171C98.3078 15.2799 98.2566 15.1822 98.1913 15.0984C98.126 15.0146 98.0748 14.9262 98.0748 14.8983C98.0748 14.875 98.0282 14.8005 97.9722 14.74C97.8557 14.619 97.6832 14.4142 97.5387 14.2187C97.3756 13.9953 97.0772 13.7161 96.6391 13.3624C96.4013 13.1715 96.2102 12.9993 96.2102 12.9761C96.2102 12.9574 96.1776 12.9388 96.1403 12.9388C96.0704 12.9388 95.7721 12.7573 95.6462 12.6363C95.6043 12.5991 95.539 12.5665 95.497 12.5665C95.4598 12.5665 95.3619 12.5153 95.2873 12.4501C95.208 12.385 95.1241 12.3338 95.0915 12.3338C95.0589 12.3338 94.975 12.2826 94.8957 12.2174C94.8212 12.1523 94.7279 12.1011 94.686 12.1011C94.6487 12.1011 94.5648 12.0592 94.4995 12.008C94.4343 11.9568 94.3504 11.9149 94.3131 11.9149C94.2758 11.9149 94.1919 11.873 94.1266 11.8218C94.0614 11.7706 93.9775 11.7287 93.9402 11.7287C93.9029 11.7287 93.819 11.6868 93.7537 11.6356C93.6884 11.5844 93.6045 11.5425 93.5673 11.5425C93.53 11.5425 93.4274 11.4913 93.3342 11.4262C93.241 11.3657 93.1477 11.3238 93.1244 11.3378C93.1058 11.3517 93.0219 11.3191 92.9473 11.2633C92.8681 11.2074 92.7515 11.1562 92.6909 11.1516C92.6303 11.1423 92.5324 11.105 92.4718 11.0678C92.4112 11.0306 92.304 10.984 92.2295 10.9654C92.1549 10.9468 92.0383 10.8909 91.9777 10.8398C91.9125 10.7932 91.8099 10.7513 91.7493 10.7513C91.6841 10.7513 91.5815 10.7094 91.5163 10.6582C91.451 10.607 91.3485 10.5652 91.2925 10.5652C91.2366 10.5652 91.134 10.5233 91.0688 10.4721C91.0035 10.4209 90.9103 10.379 90.8637 10.379C90.8124 10.379 90.7052 10.3278 90.6166 10.2626C90.5281 10.1975 90.4209 10.1463 90.3742 10.1463C90.323 10.1463 90.2297 10.1044 90.1598 10.0532C90.0899 10.002 89.9873 9.95079 89.9267 9.93683C89.8708 9.92752 89.7683 9.87632 89.6983 9.82512C89.6331 9.76927 89.5399 9.72739 89.4932 9.72739C89.4466 9.72739 89.4 9.70877 89.3814 9.68084C89.3674 9.65757 89.2229 9.5738 89.0644 9.49467C88.9059 9.4109 88.7334 9.3085 88.6775 9.25731C88.6262 9.21076 88.5656 9.16887 88.547 9.16887C88.4258 9.16887 87.3071 8.0984 87.3071 7.98204C87.3071 7.94946 87.2651 7.87034 87.2138 7.80518C87.1626 7.74002 87.1206 7.63762 87.1206 7.57247C87.1206 7.51196 87.088 7.36768 87.0507 7.26063C86.9621 7.0093 86.9621 6.77659 87.0507 6.48802C87.088 6.36236 87.1206 6.20411 87.1206 6.1343C87.1206 6.06449 87.1439 5.99467 87.1672 5.98071C87.1952 5.96209 87.2884 5.84108 87.3723 5.70145C87.5168 5.47805 87.955 5.11967 88.0855 5.11967C88.1088 5.11967 88.1694 5.07778 88.216 5.02659C88.2627 4.97539 88.3419 4.9335 88.3885 4.9335C88.4398 4.9335 88.575 4.89161 88.6962 4.84507C89.0318 4.7101 89.978 4.63563 90.5327 4.69614C90.7844 4.72406 91.0874 4.74733 91.2086 4.74733C91.3298 4.75199 91.5163 4.78922 91.6188 4.84042C91.7214 4.89161 91.8705 4.92885 91.9544 4.9335C92.0383 4.9335 92.1828 4.9847 92.2761 5.04986C92.374 5.11502 92.4765 5.16156 92.5091 5.1476C92.5418 5.13364 92.635 5.17552 92.7189 5.24068C92.8028 5.30119 92.9053 5.35239 92.952 5.35239C92.9939 5.35239 93.0545 5.38497 93.0871 5.4222C93.1198 5.45943 93.2456 5.54321 93.3668 5.60372C93.4927 5.66422 93.7071 5.81316 93.8516 5.92951C93.9961 6.04587 94.1359 6.14361 94.1592 6.14361C94.2292 6.14361 95.0635 6.9581 95.2733 7.2327C95.511 7.53988 95.5856 7.57247 95.7534 7.4468C95.8233 7.3956 95.8979 7.35372 95.9212 7.35372C95.9445 7.35372 96.0098 7.30252 96.0704 7.23736C96.131 7.1722 96.2009 7.121 96.2289 7.121C96.2568 7.121 96.3827 7.05119 96.5086 6.96741C96.6344 6.88829 96.8022 6.77659 96.8861 6.72539C96.97 6.67419 97.1378 6.56249 97.2544 6.47872C97.3756 6.39959 97.4968 6.32978 97.5201 6.32978C97.548 6.32978 97.604 6.29255 97.6459 6.24135C97.6925 6.19481 97.8184 6.10637 97.9349 6.04587C98.0515 5.98536 98.2099 5.88297 98.2892 5.81781C98.3684 5.75265 98.4663 5.67818 98.5083 5.65491C98.5782 5.61302 98.5782 5.58975 98.5269 5.43616C98.4943 5.33842 98.4244 5.21276 98.3731 5.15691C98.2333 4.99401 98.0748 4.75664 98.0748 4.7101C98.0748 4.64959 96.5971 3.21143 96.5319 3.21143C96.5039 3.21143 96.3547 3.11834 96.2056 3.00199C96.0517 2.88563 95.9026 2.79255 95.87 2.79255C95.8327 2.79255 95.7581 2.74135 95.6975 2.67619C95.6369 2.61103 95.553 2.55983 95.5064 2.55983C95.4598 2.55983 95.4131 2.54122 95.3945 2.51794C95.3619 2.46209 94.8165 2.18749 94.7419 2.18749C94.7093 2.18749 94.63 2.1456 94.5648 2.09441C94.4995 2.04321 94.397 2.00132 94.3364 2.00132C94.2804 2.00132 94.1686 1.95943 94.0893 1.90824C94.0147 1.85704 93.9029 1.81515 93.8469 1.81515C93.791 1.81515 93.6418 1.76395 93.516 1.6988C93.3855 1.63364 93.2177 1.58244 93.1384 1.58244C93.0545 1.58244 92.9147 1.54986 92.8168 1.50797C92.7236 1.46608 92.4858 1.41489 92.2947 1.39161C92.1036 1.373 91.7027 1.32645 91.4091 1.28457C90.8357 1.2101 90.2717 1.20079 89.7776 1.25664Z" fill="white"/>
<path d="M61.5023 1.76396C61.4603 1.8105 61.4883 1.94548 61.5536 2.00133C61.5909 2.03391 61.6235 2.09907 61.6235 2.15026C61.6235 2.20146 61.6654 2.29455 61.7167 2.35971C61.768 2.42487 61.8099 2.52261 61.8099 2.56915C61.8099 2.62035 61.8472 2.71809 61.8985 2.78325C61.9451 2.85306 62.0011 2.97407 62.015 3.05319C62.0337 3.13697 62.0896 3.23936 62.1409 3.2859C62.1875 3.32779 62.2295 3.41157 62.2295 3.46742C62.2295 3.52327 62.2714 3.62567 62.3227 3.69082C62.374 3.75599 62.4159 3.85838 62.4159 3.91888C62.4159 3.97474 62.4579 4.07713 62.5091 4.14229C62.5604 4.20745 62.6024 4.30519 62.6024 4.35638C62.6024 4.41224 62.6397 4.50532 62.6909 4.56582C62.7375 4.62633 62.7888 4.74269 62.8075 4.82181C62.8261 4.90559 62.882 5.00798 62.9333 5.05452C62.9799 5.09641 63.0219 5.16622 63.0219 5.20811C63.0219 5.25 63.0638 5.36636 63.1198 5.46875C63.1757 5.56649 63.2223 5.69681 63.2316 5.75731C63.2363 5.81782 63.2783 5.90625 63.3202 5.95279C63.3622 5.99468 63.3948 6.07846 63.3948 6.12965C63.3948 6.18085 63.4321 6.27394 63.4787 6.33444C63.5253 6.39495 63.5906 6.53457 63.6232 6.64628C63.6558 6.75798 63.7071 6.85572 63.7444 6.86968C63.777 6.88364 63.819 6.97207 63.8376 7.06516C63.8563 7.15825 63.9075 7.28391 63.9588 7.34442C64.0054 7.40957 64.0474 7.498 64.0474 7.5492C64.0474 7.59575 64.094 7.69814 64.1453 7.76795C64.2012 7.84242 64.2338 7.92154 64.2152 7.94947C64.2012 7.97274 64.2385 8.07048 64.3038 8.16356C64.369 8.25665 64.4203 8.373 64.4203 8.41955C64.4203 8.46609 64.4622 8.55452 64.5089 8.61968C64.5601 8.68019 64.6161 8.79654 64.6347 8.87101C64.6534 8.94548 64.7046 9.05718 64.7559 9.11769C64.8025 9.17819 64.8398 9.27128 64.8398 9.32713C64.8398 9.37832 64.8818 9.47606 64.933 9.54122C64.9843 9.60638 65.0263 9.70412 65.0263 9.75532C65.0263 9.81117 65.0682 9.90891 65.1195 9.97407C65.1708 10.0392 65.2127 10.1323 65.2127 10.1789C65.2127 10.2301 65.264 10.3371 65.3292 10.4255C65.3945 10.514 65.4458 10.621 65.4458 10.6722C65.4458 10.7188 65.4877 10.8118 65.539 10.877C65.5903 10.9422 65.6322 11.0445 65.6322 11.1004C65.6322 11.1562 65.6742 11.2586 65.7255 11.3238C65.7767 11.389 65.8187 11.482 65.8187 11.5332C65.8187 11.5798 65.856 11.6729 65.9073 11.7334C65.9539 11.7939 66.0051 11.9242 66.0238 12.0219C66.0424 12.1197 66.0844 12.2081 66.1217 12.2221C66.159 12.236 66.2009 12.3245 66.2196 12.4176C66.2382 12.5153 66.2895 12.627 66.3361 12.6735C66.3874 12.7201 66.4247 12.8085 66.4247 12.8737C66.4247 12.9388 66.4666 13.0459 66.5179 13.111C66.5692 13.1762 66.6111 13.2739 66.6111 13.3205C66.6111 13.3717 66.6484 13.4694 66.6997 13.5346C66.7463 13.6044 66.7976 13.7207 66.8162 13.7952C66.8349 13.8697 66.8908 13.986 66.9421 14.0465C66.9887 14.1117 67.0306 14.2048 67.0306 14.2513C67.0306 14.3025 67.0726 14.3956 67.1239 14.4608C67.1751 14.5259 67.2171 14.6237 67.2171 14.6702C67.2171 14.7214 67.259 14.8145 67.3103 14.8797C67.3616 14.9448 67.4035 15.0426 67.4035 15.0984C67.4035 15.1496 67.4455 15.2473 67.4968 15.3125C67.548 15.3777 67.59 15.4707 67.59 15.5266C67.59 15.5778 67.6413 15.6895 67.7065 15.7779C67.7718 15.8664 67.8231 15.9827 67.8231 16.0339C67.8231 16.0898 67.865 16.1735 67.9163 16.2201C67.9676 16.2666 68.0095 16.3597 68.0095 16.4249C68.0095 16.49 68.0515 16.5971 68.1027 16.6622C68.154 16.7274 68.196 16.8251 68.196 16.8763C68.196 16.9322 68.2379 17.0299 68.2892 17.0951C68.3405 17.1602 68.3824 17.2487 68.3824 17.2906C68.3824 17.393 68.471 17.5605 68.5502 17.607C68.5875 17.6257 68.6155 17.7048 68.6155 17.7746C68.6155 17.8444 68.6574 17.9515 68.7087 18.012C68.76 18.0725 68.8019 18.1423 68.8066 18.1702C68.8159 18.3098 68.8486 18.3983 68.9138 18.4727C68.9558 18.5193 68.9884 18.5938 68.9884 18.6403C68.9884 18.6868 69.0304 18.7892 69.077 18.8684C69.1236 18.9475 69.1795 19.0778 69.1935 19.1569C69.2121 19.2407 69.2681 19.3431 69.3147 19.385C69.366 19.4315 69.4172 19.5386 69.4359 19.6223C69.4499 19.7061 69.4918 19.7992 69.5245 19.8271C69.5617 19.8551 69.6037 19.9481 69.6223 20.0273C69.6363 20.1064 69.6923 20.2274 69.7435 20.2972C69.7948 20.367 69.8274 20.4415 69.8088 20.4694C69.7948 20.4927 69.8321 20.5904 69.8974 20.6835C70.0512 20.9116 70.0512 21.1815 69.8974 21.4328C69.8321 21.5352 69.7808 21.6562 69.7808 21.7028C69.7808 21.754 69.7389 21.8424 69.6876 21.9076C69.6363 21.9727 69.5944 22.0751 69.5944 22.131C69.5944 22.1868 69.5524 22.2892 69.5011 22.3544C69.4499 22.4195 69.4079 22.5219 69.4079 22.5871C69.4079 22.6476 69.366 22.736 69.3194 22.7779C69.2681 22.8245 69.2121 22.9269 69.1935 23.0106C69.1749 23.0898 69.1236 23.2061 69.077 23.2666C69.0257 23.3271 68.9884 23.4202 68.9884 23.4761C68.9884 23.5273 68.9464 23.625 68.8952 23.6902C68.8439 23.7553 68.8019 23.8577 68.8019 23.9136C68.8019 23.9741 68.76 24.0765 68.7087 24.1416C68.6574 24.2068 68.6155 24.3092 68.6155 24.365C68.6155 24.4209 68.5735 24.5047 68.5223 24.5512C68.471 24.5977 68.4151 24.7094 68.4011 24.8025C68.3824 24.8956 68.3312 25.0213 68.2845 25.0818C68.2333 25.1423 68.196 25.2354 68.196 25.2819C68.196 25.3331 68.154 25.4262 68.1027 25.4914C68.0515 25.5565 68.0095 25.6589 68.0095 25.7148C68.0095 25.7706 67.9676 25.873 67.9163 25.9382C67.865 26.0033 67.8231 26.0964 67.8231 26.143C67.8231 26.1941 67.7718 26.3012 67.7065 26.3896C67.6413 26.4781 67.59 26.5898 67.59 26.641C67.59 26.6968 67.548 26.7899 67.4968 26.8551C67.4455 26.9202 67.4035 27.018 67.4035 27.0691C67.4035 27.125 67.3616 27.2227 67.3103 27.2879C67.259 27.3531 67.2171 27.4555 67.2171 27.5206C67.2171 27.5811 67.1798 27.6695 67.1285 27.7114C67.0819 27.7533 67.0306 27.8697 67.012 27.9674C66.998 28.0698 66.9514 28.1582 66.9141 28.1769C66.8768 28.1908 66.8302 28.2839 66.8162 28.3863C66.7976 28.4887 66.7463 28.6097 66.6997 28.6516C66.6484 28.6935 66.6111 28.7866 66.6111 28.8564C66.6111 28.9262 66.5692 29.0379 66.5179 29.1031C66.4666 29.1682 66.4247 29.2613 66.4247 29.3125C66.4247 29.359 66.3827 29.4521 66.3361 29.5173C66.2848 29.5778 66.2289 29.6941 66.2102 29.7686C66.1916 29.8431 66.1403 29.9548 66.089 30.0153C66.0424 30.0758 66.0051 30.1689 66.0051 30.2247C66.0051 30.2759 65.9632 30.3737 65.9119 30.4388C65.8606 30.504 65.8187 30.6017 65.8187 30.6529C65.8187 30.7088 65.7767 30.8065 65.7255 30.8717C65.6742 30.9368 65.6322 31.0299 65.6322 31.0811C65.6322 31.1277 65.5903 31.2254 65.5343 31.2906C65.4831 31.3604 65.4271 31.486 65.4132 31.5745C65.3992 31.6676 65.3479 31.7746 65.3013 31.8165C65.25 31.8584 65.2127 31.9468 65.2127 32.0073C65.2127 32.0725 65.1708 32.1749 65.1195 32.24C65.0682 32.3052 65.0263 32.4076 65.0263 32.4634C65.0263 32.5193 64.9843 32.6217 64.933 32.6868C64.8818 32.752 64.8398 32.8451 64.8398 32.8916C64.8398 32.9428 64.7885 33.0499 64.7233 33.1383C64.658 33.2267 64.6067 33.3338 64.6067 33.385C64.6067 33.4315 64.5648 33.5246 64.5135 33.5898C64.4622 33.6549 64.4203 33.7573 64.4203 33.8132C64.4203 33.869 64.3783 33.9714 64.3271 34.0366C64.2758 34.1017 64.2338 34.1948 64.2338 34.246C64.2338 34.2926 64.1919 34.3903 64.1406 34.4555C64.0893 34.5206 64.0474 34.6137 64.0474 34.6602C64.0474 34.7114 64.0148 34.7906 63.9775 34.8418C63.9402 34.8883 63.9075 34.9441 63.9075 34.9628C63.9075 34.986 64.8771 35 66.0657 35H68.2193L68.3964 34.637C68.4896 34.4368 68.5689 34.2507 68.5689 34.2134C68.5689 34.1809 68.6108 34.1017 68.6621 34.0366C68.7134 33.9714 68.7553 33.869 68.7553 33.8132C68.7553 33.7573 68.7973 33.6549 68.8486 33.5898C68.8998 33.5246 68.9418 33.4315 68.9418 33.3803C68.9418 33.3338 68.9837 33.2407 69.0304 33.1755C69.0816 33.115 69.1376 32.9987 69.1562 32.9242C69.1749 32.8497 69.2261 32.738 69.2774 32.6775C69.324 32.617 69.3613 32.5193 69.3613 32.4634C69.3613 32.4076 69.4033 32.3052 69.4545 32.24C69.5058 32.1749 69.5478 32.0911 69.5478 32.0492C69.5478 31.9561 69.6457 31.742 69.6876 31.742C69.7062 31.742 69.7342 31.6582 69.7529 31.5559C69.7668 31.4488 69.8135 31.3557 69.8507 31.3418C69.888 31.3278 69.93 31.2394 69.9486 31.1463C69.9673 31.0485 70.0186 30.9229 70.0652 30.8624C70.1164 30.8019 70.1537 30.7088 70.1537 30.6529C70.1537 30.6017 70.1957 30.504 70.247 30.4388C70.2982 30.3737 70.3402 30.2759 70.3402 30.2247C70.3402 30.1689 70.3775 30.0758 70.4241 30.0153C70.4754 29.9548 70.5266 29.8431 70.5453 29.7686C70.5639 29.6941 70.6199 29.5778 70.6711 29.5173C70.7178 29.4521 70.7597 29.3544 70.7597 29.2985C70.7597 29.2427 70.8017 29.1403 70.8529 29.0751C70.9042 29.01 70.9462 28.9169 70.9462 28.8703C70.9462 28.8191 70.9788 28.74 71.0161 28.6888C71.0534 28.6423 71.1093 28.5166 71.1373 28.4142C71.1652 28.3165 71.2258 28.1815 71.2771 28.121C71.3237 28.0559 71.3657 27.9628 71.3657 27.9162C71.3657 27.865 71.4076 27.7719 71.4589 27.7068C71.5102 27.6416 71.5521 27.5439 71.5521 27.4973C71.5521 27.4461 71.5941 27.3531 71.6454 27.2879C71.6966 27.2227 71.7386 27.1203 71.7386 27.0645C71.7386 27.0086 71.7759 26.9109 71.8225 26.8504C71.8738 26.7899 71.925 26.6735 71.939 26.5898C71.9577 26.506 72.0136 26.3943 72.0649 26.3431C72.1162 26.2919 72.1581 26.1988 72.1581 26.1383C72.1581 26.0778 72.2047 25.9707 72.256 25.9009C72.3119 25.8311 72.3632 25.7287 72.3679 25.6682C72.3772 25.6124 72.4145 25.5146 72.4518 25.4541C72.4891 25.3936 72.5357 25.2773 72.5543 25.2028C72.5683 25.1237 72.6103 25.0306 72.6429 24.9934C72.6802 24.9561 72.7175 24.863 72.7361 24.7886C72.7548 24.7141 72.8107 24.5977 72.862 24.5372C72.9086 24.4721 72.9505 24.3836 72.9505 24.3371C72.9505 24.2906 73.0018 24.1742 73.0671 24.0811C73.1323 23.988 73.1696 23.8903 73.1556 23.867C73.137 23.8391 73.1696 23.76 73.2256 23.6855C73.2768 23.6157 73.3234 23.5133 73.3234 23.4668C73.3234 23.4156 73.3654 23.3271 73.412 23.262C73.4633 23.2015 73.5192 23.0711 73.5332 22.9734C73.5519 22.8757 73.5985 22.7872 73.6311 22.7733C73.6684 22.7593 73.7197 22.6616 73.7523 22.5545C73.7803 22.4521 73.8362 22.3265 73.8735 22.2846C73.9108 22.238 73.9481 22.1496 73.9574 22.0844C73.9621 22.0193 73.9993 21.9169 74.0366 21.861C74.0739 21.8052 74.1205 21.6888 74.1345 21.6097C74.1532 21.5306 74.1998 21.4375 74.2324 21.4096C74.2697 21.3816 74.321 21.2793 74.3536 21.1862C74.3862 21.0931 74.4468 20.9535 74.4934 20.8743C74.5447 20.7999 74.582 20.6928 74.582 20.6463C74.582 20.5951 74.6146 20.516 74.6566 20.4741C74.6985 20.4275 74.7405 20.3344 74.7498 20.2646C74.7545 20.1995 74.7918 20.111 74.8291 20.0691C74.871 20.0226 74.9176 19.9109 74.9316 19.8132C74.9503 19.7154 74.9969 19.6223 75.0295 19.6084C75.0668 19.5944 75.1181 19.4967 75.1507 19.3896C75.1787 19.2872 75.2439 19.1476 75.2905 19.0871C75.3371 19.0266 75.3744 18.9335 75.3744 18.8777C75.3744 18.8265 75.4164 18.7287 75.4677 18.6636C75.5189 18.5984 75.5609 18.4914 75.5609 18.4262C75.5609 18.3564 75.5889 18.2773 75.6262 18.2493C75.6634 18.2168 75.7101 18.1283 75.724 18.0492C75.7427 17.9747 75.8079 17.8351 75.8685 17.7467C75.9291 17.6536 75.9804 17.5372 75.9804 17.4907C75.9804 17.4395 76.0224 17.3464 76.0736 17.2812C76.1249 17.2161 76.1669 17.1184 76.1669 17.0672C76.1669 17.016 76.1995 16.9368 76.2414 16.8903C76.2787 16.8484 76.3207 16.746 76.33 16.6622C76.344 16.5785 76.3813 16.4761 76.4186 16.4342C76.4559 16.3923 76.5025 16.2945 76.5211 16.2201C76.5351 16.141 76.591 16.0386 76.6377 15.9874C76.6796 15.9362 76.7355 15.8291 76.7542 15.7547C76.7728 15.6755 76.8241 15.5592 76.8707 15.4894C76.922 15.4242 76.9593 15.3218 76.9593 15.266C76.9593 15.2101 77.0012 15.1124 77.0525 15.0472C77.1038 14.982 77.1457 14.8797 77.1457 14.8238C77.1457 14.768 77.1737 14.6935 77.211 14.6656C77.2483 14.633 77.2902 14.5259 77.3089 14.4235C77.3275 14.3258 77.3648 14.2281 77.3975 14.2094C77.4767 14.1629 77.5653 13.9907 77.5653 13.893C77.5653 13.8511 77.6072 13.7626 77.6585 13.6975C77.7098 13.6323 77.7517 13.5346 77.7517 13.4787C77.7517 13.4275 77.7937 13.3158 77.8449 13.2414C77.8962 13.1622 77.9382 13.0598 77.9382 13.004C77.9382 12.9528 77.9801 12.869 78.0267 12.8271C78.078 12.7806 78.134 12.6782 78.1526 12.5944C78.1666 12.5153 78.2225 12.3943 78.2691 12.3245C78.3204 12.2593 78.3577 12.1616 78.3577 12.1104C78.3577 12.0638 78.3996 11.9661 78.4509 11.9009C78.5022 11.8358 78.5441 11.738 78.5441 11.6822C78.5441 11.6263 78.5861 11.5286 78.6374 11.4634C78.6887 11.3983 78.7306 11.2959 78.7306 11.2354C78.7306 11.1795 78.7586 11.1004 78.7912 11.0678C78.8844 10.9794 78.9637 10.8165 78.9637 10.7281C78.9637 10.6862 79.0056 10.5977 79.0569 10.5326C79.1082 10.4674 79.1501 10.3697 79.1501 10.3138C79.1501 10.2626 79.1921 10.1649 79.2434 10.0997C79.2946 10.0346 79.3366 9.93218 79.3366 9.87633C79.3366 9.81582 79.3785 9.71343 79.4298 9.64827C79.4811 9.58311 79.523 9.48072 79.523 9.42487C79.523 9.36902 79.565 9.28524 79.6116 9.24335C79.6629 9.19681 79.7188 9.09442 79.7375 9.01064C79.7514 8.93152 79.8074 8.8105 79.854 8.74069C79.9053 8.67553 79.9426 8.56849 79.9426 8.50798C79.9426 8.44282 79.9845 8.35439 80.0358 8.30785C80.0871 8.2613 80.129 8.16822 80.129 8.0984C80.129 8.02859 80.171 7.9262 80.2176 7.87035C80.2688 7.80984 80.3248 7.69814 80.3434 7.61902C80.3574 7.53524 80.4133 7.41888 80.46 7.35838C80.5112 7.29787 80.5485 7.20479 80.5485 7.14894C80.5485 7.09774 80.5905 7 80.6418 6.93484C80.693 6.86968 80.735 6.76263 80.735 6.69747C80.735 6.63231 80.7769 6.53923 80.8282 6.49269C80.8795 6.44614 80.9214 6.35306 80.9214 6.28325C80.9214 6.21343 80.9634 6.12035 81.01 6.07846C81.0613 6.03192 81.1172 5.92952 81.1359 5.84575C81.1498 5.76662 81.2058 5.64561 81.2524 5.5758C81.3037 5.51064 81.341 5.40359 81.341 5.34309C81.341 5.27793 81.3829 5.1895 81.4342 5.14295C81.4855 5.09641 81.5274 5.00332 81.5274 4.93351C81.5274 4.8637 81.5694 4.752 81.6206 4.68684C81.6719 4.62168 81.7139 4.52859 81.7139 4.48205C81.7139 4.43085 81.7651 4.3238 81.8304 4.23537C81.8957 4.14694 81.9469 4.03989 81.9469 3.9887C81.9469 3.94215 81.9889 3.84907 82.0402 3.78391C82.0914 3.71875 82.1334 3.61636 82.1334 3.56051C82.1334 3.50465 82.1753 3.40226 82.2266 3.3371C82.2779 3.27194 82.3198 3.1742 82.3198 3.11835C82.3198 3.0625 82.3618 2.96476 82.4131 2.8996C82.4643 2.83444 82.5063 2.73205 82.5063 2.67154C82.5063 2.60638 82.5482 2.52261 82.5995 2.47606C82.6508 2.43418 82.7067 2.31782 82.7254 2.22474C82.7394 2.127 82.7673 2.04787 82.7906 2.04787C82.8559 2.04787 82.9398 1.85705 82.8885 1.80585C82.8652 1.78258 82.0075 1.76396 80.7583 1.76396C78.656 1.76862 78.5441 1.77327 78.5441 1.93151C78.5441 1.9641 78.5162 2.01529 78.4789 2.04322C78.4463 2.07114 78.4043 2.16888 78.3903 2.25731C78.3763 2.3504 78.3204 2.47606 78.2691 2.54588C78.2132 2.61104 78.1712 2.72274 78.1712 2.7879C78.1712 2.85771 78.1433 2.95545 78.106 3.00665C78.0687 3.05785 78.0267 3.17886 78.0081 3.27194C77.9895 3.36968 77.9428 3.46277 77.9055 3.48604C77.8683 3.50465 77.817 3.62567 77.7937 3.74668C77.7704 3.87234 77.7238 4.00731 77.6865 4.04455C77.6492 4.08644 77.5979 4.20279 77.5699 4.30519C77.542 4.40758 77.486 4.53325 77.4487 4.57979C77.4114 4.63099 77.3788 4.72872 77.3788 4.79854C77.3788 4.8637 77.3369 4.9754 77.2856 5.04056C77.2343 5.10572 77.1924 5.1895 77.1924 5.22673C77.1924 5.26396 77.1411 5.39428 77.0758 5.51529C77.0106 5.6363 76.964 5.74801 76.9779 5.75731C77.0106 5.78989 76.908 6.05053 76.8614 6.05053C76.8428 6.05053 76.8101 6.12965 76.7915 6.22274C76.7728 6.32048 76.7216 6.45545 76.675 6.52527C76.6237 6.59043 76.5864 6.68817 76.5864 6.74402C76.5864 6.79521 76.5351 6.93484 76.4699 7.05585C76.4046 7.17686 76.3533 7.30253 76.3533 7.33511C76.3533 7.37234 76.3114 7.46543 76.2601 7.5492C76.2088 7.63298 76.1669 7.75399 76.1669 7.80984C76.1669 7.87035 76.1249 7.97274 76.0736 8.0379C76.0224 8.10306 75.9804 8.21011 75.9804 8.27061C75.9804 8.33577 75.9385 8.43817 75.8872 8.50332C75.8359 8.56849 75.794 8.68019 75.794 8.75C75.794 8.81981 75.752 8.93152 75.7007 8.99668C75.6495 9.06184 75.5935 9.18285 75.5749 9.27128C75.5609 9.35505 75.5096 9.48072 75.463 9.55053C75.4117 9.61569 75.3744 9.72739 75.3744 9.79721C75.3744 9.86702 75.3325 9.97407 75.2812 10.0392C75.2299 10.1044 75.188 10.2021 75.188 10.258C75.188 10.3092 75.146 10.4162 75.0948 10.4953C75.0435 10.5698 75.0015 10.6908 75.0015 10.756C75.0015 10.8258 74.9596 10.9328 74.9083 10.998C74.857 11.0632 74.8011 11.1842 74.7824 11.2726C74.7685 11.3564 74.7172 11.4774 74.6659 11.5379C74.6193 11.5984 74.582 11.7055 74.582 11.7753C74.582 11.8451 74.5401 11.9568 74.4888 12.0219C74.4375 12.0871 74.3956 12.1895 74.3956 12.25C74.3956 12.3105 74.3629 12.4082 74.321 12.4688C74.279 12.5293 74.2231 12.6596 74.1998 12.762C74.1765 12.869 74.1159 13.004 74.0693 13.0691C74.018 13.1297 73.976 13.2274 73.976 13.2832C73.976 13.3344 73.9341 13.4415 73.8828 13.5206C73.8315 13.5951 73.7896 13.7114 73.7896 13.7673C73.7896 13.8278 73.7476 13.9302 73.6964 13.9953C73.6451 14.0605 73.5891 14.1955 73.5752 14.2932C73.5565 14.391 73.5146 14.498 73.4819 14.5259C73.4446 14.5539 73.4167 14.6376 73.4167 14.7074C73.4167 14.7773 73.3747 14.889 73.3234 14.9541C73.2722 15.0193 73.2162 15.1403 73.1976 15.2287C73.1836 15.3125 73.1323 15.4382 73.0857 15.508C73.0344 15.5731 72.9972 15.6895 72.9972 15.764C72.9972 15.8431 72.9552 15.9408 72.9086 15.9827C72.862 16.0293 72.806 16.141 72.7874 16.234C72.7734 16.3271 72.7315 16.4481 72.6988 16.4993C72.6662 16.5505 72.6242 16.6669 72.6056 16.7553C72.573 16.9229 72.4145 17.1277 72.3166 17.1277C72.2374 17.1277 72.1581 16.9787 72.1581 16.8344C72.1581 16.7739 72.1162 16.6669 72.0649 16.6017C72.0136 16.5366 71.9717 16.4295 71.9717 16.3597C71.9717 16.2899 71.9297 16.1782 71.8831 16.1084C71.8318 16.0386 71.7805 15.9082 71.7619 15.8152C71.7433 15.7221 71.6873 15.6104 71.6407 15.5638C71.5941 15.5219 71.5521 15.4289 71.5521 15.3637C71.5521 15.2985 71.5102 15.1775 71.4589 15.1031C71.4076 15.0239 71.3657 14.9169 71.3657 14.8657C71.3657 14.8098 71.3237 14.7121 71.2725 14.6469C71.2212 14.5818 71.1652 14.4608 71.1513 14.3723C71.1326 14.2886 71.0953 14.1769 71.0627 14.1257C71.0347 14.0745 70.9928 13.9581 70.9741 13.865C70.9601 13.7719 70.9042 13.6602 70.8529 13.6137C70.8017 13.5672 70.7597 13.4787 70.7597 13.4136C70.7597 13.3531 70.7224 13.232 70.6711 13.1529C70.6245 13.0738 70.5686 12.9295 70.5546 12.8318C70.536 12.734 70.494 12.6456 70.4567 12.6316C70.4194 12.6177 70.3728 12.5293 70.3588 12.4362C70.3402 12.3431 70.2889 12.2035 70.2376 12.1243C70.191 12.0499 70.1537 11.9289 70.1537 11.8637C70.1537 11.7985 70.1118 11.7055 70.0652 11.6636C70.0186 11.617 69.9626 11.5053 69.944 11.4122C69.9253 11.3191 69.8834 11.2028 69.8461 11.1516C69.8088 11.1004 69.7808 11.012 69.7808 10.9608C69.7808 10.9096 69.7296 10.7839 69.6643 10.6815C69.6037 10.5791 69.5478 10.4581 69.5478 10.4116C69.5478 10.3604 69.5058 10.2719 69.4545 10.2068C69.4033 10.1416 69.3613 10.0299 69.3613 9.96476C69.3613 9.89495 69.3287 9.79721 69.2914 9.74601C69.2541 9.69947 69.1982 9.5738 69.1702 9.47141C69.1422 9.36902 69.091 9.25266 69.0537 9.21077C69.0164 9.16888 68.9791 9.06649 68.9651 8.98737C68.9558 8.90359 68.9185 8.78724 68.8765 8.73138C68.8392 8.67088 68.7926 8.54987 68.7786 8.45678C68.76 8.3637 68.7041 8.25665 68.6574 8.21011C68.6108 8.16822 68.5689 8.07513 68.5689 8.00997C68.5689 7.94481 68.5269 7.8238 68.4757 7.74934C68.4244 7.67021 68.3824 7.56317 68.3824 7.51197C68.3824 7.45612 68.3405 7.35838 68.2892 7.29787C68.2426 7.23271 68.182 7.09774 68.1587 6.99069C68.1354 6.8883 68.0794 6.75798 68.0375 6.69747C67.9955 6.63697 67.9629 6.54388 67.9629 6.48803C67.9629 6.43218 67.921 6.33444 67.8697 6.26928C67.8184 6.20412 67.7765 6.10638 67.7765 6.05053C67.7765 5.99003 67.7392 5.87832 67.6879 5.7992C67.6413 5.72008 67.59 5.58045 67.5714 5.49202C67.5574 5.39894 67.5014 5.29189 67.4502 5.24535C67.3989 5.20346 67.3569 5.11503 67.3569 5.04987C67.3569 4.98936 67.315 4.86835 67.2637 4.78457C67.2124 4.7008 67.1705 4.58444 67.1705 4.53325C67.1705 4.47739 67.1285 4.37965 67.0726 4.3145C67.0213 4.24468 66.9654 4.11902 66.9514 4.02593C66.9374 3.9375 66.8955 3.83976 66.8628 3.81184C66.8255 3.78391 66.7976 3.70013 66.7976 3.63032C66.7976 3.56051 66.7463 3.42553 66.681 3.33245C66.6158 3.23936 66.5645 3.1137 66.5645 3.05319C66.5645 2.99269 66.5226 2.89029 66.4713 2.82513C66.42 2.75998 66.3781 2.66224 66.3781 2.60638C66.3781 2.54588 66.3361 2.43418 66.2895 2.35505C66.2429 2.27593 66.1869 2.14096 66.1683 2.05718C66.1077 1.75931 66.1496 1.76862 63.7211 1.75465C62.5138 1.75 61.5116 1.75465 61.5023 1.76396Z" fill="white"/>
</g>
<defs>
<clipPath id="clip0_3079_16873">
<rect width="102.083" height="35" fill="white"/>
</clipPath>
</defs>
</svg>
