<svg width="118" height="40" viewBox="0 0 118 40" fill="none" xmlns="http://www.w3.org/2000/svg">
<g clip-path="url(#clip0_1719_5932)">
<path d="M11.8662 8.03516C18.3991 8.0354 22.3408 11.3071 22.3408 16.2656C22.3407 21.9722 18.399 25.9909 11.8662 25.9912V31.9775H-0.105469V8.03516H11.8662Z" fill="url(#paint0_linear_1719_5932)"/>
<path d="M11.8658 14.0195L23.8371 25.9908V31.9764H-0.105469V25.9908L11.8658 14.0195Z" fill="url(#paint1_linear_1719_5932)"/>
<path d="M11.8662 31.9777H-0.105469V8.03528H11.8662V31.9777Z" fill="url(#paint2_linear_1719_5932)"/>
<path d="M11.8936 14.0205V31.9766H23.8652V25.9912L11.8945 14.0195L11.8936 14.0205Z" fill="url(#paint3_linear_1719_5932)"/>
<path d="M3.48633 22.3984C5.37554 24.5121 8.3297 25.9898 11.8849 25.9898C15.4503 25.9898 18.0389 24.5308 20.2835 22.3984C13.7277 23.292 10.0418 23.3059 3.48633 22.3984Z" fill="#020305"/>
<path d="M11.8657 25.9571C13.1054 25.9571 14.1103 24.9521 14.1103 23.7124C14.1103 23.464 14.0726 23.2624 13.9981 23.0391C12.301 23.0979 11.3805 23.0947 9.75203 23.0391C9.67751 23.2624 9.62109 23.464 9.62109 23.7124C9.62109 24.9521 10.626 25.9571 11.8657 25.9571Z" fill="white"/>
</g>
<path d="M39.384 21.762V19.674H42.066C42.63 19.674 43.062 19.53 43.362 19.242C43.674 18.954 43.83 18.564 43.83 18.072C43.83 17.616 43.68 17.238 43.38 16.938C43.08 16.638 42.648 16.488 42.084 16.488H39.384V14.292H42.408C43.248 14.292 43.986 14.454 44.622 14.778C45.258 15.09 45.756 15.528 46.116 16.092C46.476 16.656 46.656 17.304 46.656 18.036C46.656 18.78 46.476 19.434 46.116 19.998C45.756 20.55 45.252 20.982 44.604 21.294C43.956 21.606 43.194 21.762 42.318 21.762H39.384ZM37.224 27V14.292H40.05V27H37.224ZM44.136 27L40.176 21.528L42.768 20.826L47.484 27H44.136ZM53.9958 27.216C53.0358 27.216 52.1478 27.048 51.3318 26.712C50.5278 26.376 49.8198 25.908 49.2078 25.308C48.5958 24.708 48.1218 24.012 47.7858 23.22C47.4498 22.416 47.2818 21.552 47.2818 20.628C47.2818 19.692 47.4498 18.828 47.7858 18.036C48.1218 17.244 48.5898 16.554 49.1898 15.966C49.7898 15.366 50.4918 14.904 51.2958 14.58C52.1118 14.244 52.9998 14.076 53.9598 14.076C54.9078 14.076 55.7838 14.244 56.5878 14.58C57.4038 14.904 58.1118 15.366 58.7118 15.966C59.3238 16.554 59.7978 17.25 60.1338 18.054C60.4698 18.846 60.6378 19.71 60.6378 20.646C60.6378 21.57 60.4698 22.434 60.1338 23.238C59.7978 24.03 59.3298 24.726 58.7298 25.326C58.1298 25.914 57.4218 26.376 56.6058 26.712C55.8018 27.048 54.9318 27.216 53.9958 27.216ZM53.9598 24.642C54.7158 24.642 55.3758 24.474 55.9398 24.138C56.5158 23.802 56.9598 23.334 57.2718 22.734C57.5838 22.122 57.7398 21.42 57.7398 20.628C57.7398 20.028 57.6498 19.488 57.4698 19.008C57.2898 18.516 57.0318 18.096 56.6958 17.748C56.3598 17.388 55.9578 17.118 55.4898 16.938C55.0338 16.746 54.5238 16.65 53.9598 16.65C53.2038 16.65 52.5378 16.818 51.9618 17.154C51.3978 17.478 50.9598 17.94 50.6478 18.54C50.3358 19.128 50.1798 19.824 50.1798 20.628C50.1798 21.228 50.2698 21.774 50.4498 22.266C50.6298 22.758 50.8818 23.184 51.2058 23.544C51.5418 23.892 51.9438 24.162 52.4118 24.354C52.8798 24.546 53.3958 24.642 53.9598 24.642ZM63.8717 27V24.804H66.8597C67.4117 24.804 67.8437 24.642 68.1557 24.318C68.4677 23.994 68.6237 23.598 68.6237 23.13C68.6237 22.806 68.5517 22.518 68.4077 22.266C68.2637 22.014 68.0597 21.816 67.7957 21.672C67.5437 21.528 67.2317 21.456 66.8597 21.456H63.8717V19.314H66.6257C67.0937 19.314 67.4717 19.2 67.7597 18.972C68.0477 18.732 68.1917 18.372 68.1917 17.892C68.1917 17.424 68.0477 17.076 67.7597 16.848C67.4717 16.608 67.0937 16.488 66.6257 16.488H63.8717V14.292H67.1657C67.9817 14.292 68.6717 14.442 69.2357 14.742C69.8117 15.042 70.2497 15.444 70.5497 15.948C70.8497 16.452 70.9997 17.01 70.9997 17.622C70.9997 18.402 70.7477 19.062 70.2437 19.602C69.7397 20.142 68.9957 20.514 68.0117 20.718L68.0837 19.764C69.1517 19.968 69.9737 20.382 70.5497 21.006C71.1377 21.63 71.4317 22.398 71.4317 23.31C71.4317 24.006 71.2577 24.636 70.9097 25.2C70.5737 25.752 70.0817 26.19 69.4337 26.514C68.7977 26.838 68.0297 27 67.1297 27H63.8717ZM61.7117 27V14.292H64.5017V27H61.7117ZM75.9192 22.266L71.0232 14.292H74.2992L78.0612 20.736H75.9552L79.7172 14.292H82.9212L77.9892 22.266H75.9192ZM75.5772 27V20.97H78.4032V27H75.5772ZM83.2112 27V14.292H86.0372V27H83.2112ZM85.3892 27V24.516H91.6712V27H85.3892ZM97.9439 27.216C96.9839 27.216 96.0959 27.048 95.2799 26.712C94.4759 26.376 93.7679 25.908 93.1559 25.308C92.5439 24.708 92.0699 24.012 91.7339 23.22C91.3979 22.416 91.2299 21.552 91.2299 20.628C91.2299 19.692 91.3979 18.828 91.7339 18.036C92.0699 17.244 92.5379 16.554 93.1379 15.966C93.7379 15.366 94.4399 14.904 95.2439 14.58C96.0599 14.244 96.9479 14.076 97.9079 14.076C98.8559 14.076 99.7319 14.244 100.536 14.58C101.352 14.904 102.06 15.366 102.66 15.966C103.272 16.554 103.746 17.25 104.082 18.054C104.418 18.846 104.586 19.71 104.586 20.646C104.586 21.57 104.418 22.434 104.082 23.238C103.746 24.03 103.278 24.726 102.678 25.326C102.078 25.914 101.37 26.376 100.554 26.712C99.7499 27.048 98.8799 27.216 97.9439 27.216ZM97.9079 24.642C98.6639 24.642 99.3239 24.474 99.8879 24.138C100.464 23.802 100.908 23.334 101.22 22.734C101.532 22.122 101.688 21.42 101.688 20.628C101.688 20.028 101.598 19.488 101.418 19.008C101.238 18.516 100.98 18.096 100.644 17.748C100.308 17.388 99.9059 17.118 99.4379 16.938C98.9819 16.746 98.4719 16.65 97.9079 16.65C97.1519 16.65 96.4859 16.818 95.9099 17.154C95.3459 17.478 94.9079 17.94 94.5959 18.54C94.2839 19.128 94.1279 19.824 94.1279 20.628C94.1279 21.228 94.2179 21.774 94.3979 22.266C94.5779 22.758 94.8299 23.184 95.1539 23.544C95.4899 23.892 95.8919 24.162 96.3599 24.354C96.8279 24.546 97.3439 24.642 97.9079 24.642ZM105.66 27V14.292H107.64L108.486 16.83V27H105.66ZM114.426 27L106.938 17.406L107.64 14.292L115.128 23.886L114.426 27ZM114.426 27L113.67 24.462V14.292H116.496V27H114.426Z" fill="#031225"/>
<defs>
<linearGradient id="paint0_linear_1719_5932" x1="11.1177" y1="8.03516" x2="11.1177" y2="31.9775" gradientUnits="userSpaceOnUse">
<stop stop-color="#1B76FF"/>
<stop offset="1" stop-color="#021EAC"/>
</linearGradient>
<linearGradient id="paint1_linear_1719_5932" x1="11.8658" y1="14.0195" x2="11.8658" y2="31.9764" gradientUnits="userSpaceOnUse">
<stop stop-color="#1B76FF"/>
<stop offset="1" stop-color="#1B76FF"/>
</linearGradient>
<linearGradient id="paint2_linear_1719_5932" x1="11.7782" y1="8.0066" x2="0.487712" y2="29.782" gradientUnits="userSpaceOnUse">
<stop offset="0.242896" stop-color="#0336F9"/>
<stop offset="1" stop-color="#0336F9" stop-opacity="0"/>
</linearGradient>
<linearGradient id="paint3_linear_1719_5932" x1="17.8794" y1="14.0195" x2="17.8794" y2="31.9766" gradientUnits="userSpaceOnUse">
<stop stop-color="white"/>
<stop offset="1" stop-color="white" stop-opacity="0"/>
</linearGradient>
<clipPath id="clip0_1719_5932">
<rect width="24" height="24" fill="white" transform="translate(0 8)"/>
</clipPath>
</defs>
</svg>
