<svg width="126" height="48" viewBox="0 0 126 48" fill="none" xmlns="http://www.w3.org/2000/svg">
<g clip-path="url(#clip0_924_78)">
<path d="M15.9881 8C7.18833 8 0 15.1181 0 23.9524C0 32.7868 7.17022 39.9049 15.9881 39.9049C24.8423 39.9049 31.9763 32.7868 31.9763 23.9524C31.9763 15.1181 24.8423 8 15.9881 8ZM20.8045 18.1351C20.9675 18.6048 21.0218 19.1288 21.0218 19.6527C21.0218 20.7005 20.7683 21.6942 20.2432 22.5794L19.9897 22.8865L21.0399 24.7112V27.8005L17.835 24.6028H15.4812L20.9856 31.3415V34.6837L7.87638 21.5316H16.0063C17.0564 21.5316 17.8893 20.7005 17.8893 19.6527C17.8893 18.6048 17.0564 17.7738 16.0063 17.7738H11.0269L7.9307 14.6845H21.1304L24.2267 17.7738H20.714L20.8045 18.1351Z" fill="url(#paint0_linear_924_78)"/>
<path d="M38.6216 12.5498H45.7918C47.0955 12.5498 48.2 12.7124 49.0329 13.0737C49.8658 13.435 50.5539 13.8506 51.0247 14.4287C51.4954 14.9526 51.8576 15.5849 52.0748 16.2534C52.2921 16.9399 52.3827 17.6083 52.3827 18.2407C52.3827 18.9272 52.274 19.5414 52.0205 20.1195C51.8032 20.7518 51.4411 21.2758 51.0247 21.7455C50.6082 22.2152 50.0831 22.6307 49.4494 22.9921C48.8156 23.2992 48.1457 23.516 47.349 23.6244L53.1612 32.9284H49.7029L44.4701 23.9315H41.3738V32.9284H38.6035V12.5498H38.6216ZM41.41 21.5287H45.0314C45.5565 21.5287 46.0816 21.4745 46.661 21.4203C47.1861 21.3119 47.6568 21.1674 48.0733 20.9506C48.4897 20.7338 48.8156 20.3725 49.0691 19.9569C49.3226 19.5414 49.4313 18.9633 49.4313 18.2768C49.4313 17.5903 49.3226 17.0302 49.0691 16.5966C48.8156 16.1811 48.4897 15.8198 48.0733 15.603C47.6568 15.3862 47.1861 15.2417 46.661 15.1333C46.1359 15.0249 45.6108 15.0249 45.0314 15.0249H41.41V21.5287Z" fill="url(#paint1_linear_924_78)"/>
<path d="M66.089 32.9281H63.4635V30.8324H63.4092C63.1014 31.5731 62.522 32.1331 61.6891 32.6029C60.9105 33.0726 59.969 33.2894 58.9188 33.2894C58.2307 33.2894 57.6151 33.181 57.0357 32.9823C56.4563 32.7835 55.9312 32.4583 55.4604 32.0428C54.9896 31.6273 54.6275 31.1034 54.3559 30.4169C54.1024 29.7303 53.9395 28.9535 53.9395 28.0682V19.2881H56.5649V27.3456C56.5649 27.9779 56.6736 28.556 56.8184 28.9716C56.9814 29.4413 57.2349 29.8026 57.5065 30.0736C57.8143 30.3265 58.1402 30.5433 58.5023 30.7059C58.8645 30.8143 59.2809 30.9227 59.6611 30.9227C60.1862 30.9227 60.7113 30.8143 61.1821 30.6698C61.6529 30.5072 62.0693 30.2001 62.3952 29.8387C62.7574 29.4774 63.029 29.0077 63.1738 28.4296C63.3911 27.8515 63.4816 27.183 63.4816 26.3881V19.3242H66.1071L66.089 32.9281Z" fill="url(#paint2_linear_924_78)"/>
<path d="M68.334 19.2881H70.9594V21.2212H71.0138C71.5389 20.4804 72.2269 19.9204 73.0598 19.5049C73.947 19.0894 74.8343 18.8726 75.7758 18.8726C76.826 18.8726 77.8219 19.0894 78.6548 19.3965C79.4877 19.7578 80.23 20.2817 80.8638 20.914C81.4975 21.6005 81.914 22.3232 82.2761 23.2084C82.5839 24.0937 82.7469 25.0331 82.7469 26.0268C82.7469 27.0204 82.5839 28.014 82.2761 28.8451C81.9683 29.7303 81.4975 30.471 80.8638 31.1395C80.23 31.7718 79.5058 32.2957 78.6548 32.6571C77.8219 33.0184 76.826 33.181 75.7758 33.181C74.7799 33.181 73.8927 32.9642 73.0055 32.5487C72.1183 32.1331 71.4845 31.555 71.0138 30.8685H70.9594V38.7634H68.334V19.2881ZM75.468 21.3838C74.7799 21.3838 74.1643 21.4922 73.5849 21.7451C73.0055 21.998 72.5347 22.3232 72.1726 22.7387C71.8105 23.1542 71.4845 23.624 71.2854 24.2563C71.0681 24.8344 70.9776 25.4667 70.9776 26.1894C70.9776 26.8759 71.0862 27.4901 71.2854 28.1224C71.5026 28.7006 71.8105 29.2245 72.1726 29.64C72.5347 30.0555 73.0055 30.3807 73.5849 30.6336C74.1643 30.8866 74.798 30.995 75.468 30.995C76.156 30.995 76.7717 30.8866 77.3511 30.6336C77.9305 30.3807 78.4013 30.0555 78.7634 29.64C79.1255 29.2245 79.4515 28.7548 79.6506 28.1224C79.8679 27.5443 79.9584 26.912 79.9584 26.1894C79.9584 25.5028 79.8498 24.8886 79.6506 24.2563C79.4334 23.6782 79.1255 23.1542 78.7634 22.7387C78.4013 22.3232 77.9305 21.998 77.3511 21.7451C76.7717 21.4741 76.1379 21.3838 75.468 21.3838Z" fill="url(#paint3_linear_924_78)"/>
<path d="M86.3154 27.0751C86.3154 27.6532 86.424 28.2313 86.6775 28.701C86.931 29.1708 87.2569 29.5863 87.7277 29.9476C88.1442 30.3089 88.6149 30.5799 89.1943 30.7245C89.7738 30.9413 90.3532 31.0316 90.9145 31.0316C91.6931 31.0316 92.4354 30.8148 93.0148 30.4535C93.5943 30.0921 94.1737 29.5682 94.6444 28.9901L96.5819 30.5077C95.1152 32.3865 93.1235 33.2718 90.498 33.2718C89.3935 33.2718 88.452 33.1092 87.5647 32.7479C86.6775 32.3865 85.9352 31.8626 85.3557 31.2303C84.722 30.598 84.3056 29.8211 83.9434 28.9359C83.6356 28.0507 83.4727 27.1112 83.4727 26.1176C83.4727 25.1239 83.6356 24.1303 83.9978 23.2993C84.3599 22.414 84.8307 21.6733 85.4644 21.0049C86.0981 20.3725 86.8224 19.8486 87.7096 19.4873C88.5968 19.126 89.5384 18.9634 90.5342 18.9634C91.7474 18.9634 92.7795 19.1802 93.6305 19.5957C94.4634 20.0112 95.1514 20.5893 95.6765 21.2758C96.2016 21.9624 96.6181 22.7392 96.8353 23.5703C97.0888 24.4013 97.1975 25.2865 97.1975 26.1899V27.0751H86.3154ZM94.4815 24.9794C94.4815 24.4013 94.3728 23.8774 94.228 23.4077C94.065 22.9379 93.8115 22.5224 93.4856 22.1611C93.1778 21.7998 92.7432 21.5288 92.2725 21.33C91.8017 21.1313 91.2223 21.0229 90.5523 21.0229C89.9186 21.0229 89.3392 21.1313 88.8322 21.3842C88.3071 21.6372 87.8363 21.9624 87.4742 22.3237C87.1121 22.685 86.8405 23.1547 86.6413 23.6245C86.424 24.0942 86.3335 24.5639 86.3335 25.0336H94.4996V24.9794H94.4815Z" fill="url(#paint4_linear_924_78)"/>
<path d="M100.655 27.0751C100.655 27.6532 100.764 28.2313 101.017 28.701C101.271 29.1708 101.597 29.5863 102.068 29.9476C102.484 30.3089 102.955 30.5799 103.534 30.7245C104.114 30.9413 104.693 31.0316 105.254 31.0316C106.033 31.0316 106.775 30.8148 107.355 30.4535C107.934 30.0921 108.514 29.5682 108.984 28.9901L110.922 30.5077C109.455 32.3865 107.463 33.2718 104.838 33.2718C103.733 33.2718 102.792 33.1092 101.905 32.7479C101.017 32.3865 100.275 31.8626 99.6956 31.2303C99.0619 30.598 98.6454 29.8211 98.2833 28.9359C97.9755 28.0507 97.8125 27.1112 97.8125 26.1176C97.8125 25.1239 97.9755 24.1303 98.3376 23.2993C98.6997 22.414 99.1705 21.6733 99.8042 21.0049C100.438 20.3725 101.162 19.8486 102.049 19.4873C102.937 19.126 103.878 18.9634 104.874 18.9634C106.087 18.9634 107.119 19.1802 107.97 19.5957C108.803 20.0112 109.491 20.5893 110.016 21.2758C110.541 21.9624 110.958 22.7392 111.175 23.5703C111.429 24.4013 111.537 25.2865 111.537 26.1899V27.0751H100.655ZM108.894 24.9794C108.894 24.4013 108.785 23.8774 108.64 23.4077C108.477 22.9379 108.224 22.5224 107.898 22.1611C107.59 21.7998 107.156 21.5288 106.685 21.33C106.214 21.1313 105.635 21.0229 104.965 21.0229C104.331 21.0229 103.751 21.1313 103.244 21.3842C102.719 21.6372 102.249 21.9624 101.886 22.3237C101.524 22.685 101.253 23.1547 101.054 23.6245C100.836 24.0942 100.746 24.5639 100.746 25.0336H108.912V24.9794H108.894Z" fill="url(#paint5_linear_924_78)"/>
<path d="M113.074 15.0063H115.7V25.1957L121.566 19.288H125.188L118.85 25.5028L125.767 32.928H122.055L115.718 25.8099V32.928H113.074V15.0063Z" fill="url(#paint6_linear_924_78)"/>
</g>
<defs>
<linearGradient id="paint0_linear_924_78" x1="-0.497009" y1="23.9412" x2="124.042" y2="23.9412" gradientUnits="userSpaceOnUse">
<stop stop-color="#EA5518"/>
<stop offset="0.2752" stop-color="#E63918"/>
<stop offset="0.637" stop-color="#B01280"/>
<stop offset="1" stop-color="#1E65AF"/>
</linearGradient>
<linearGradient id="paint1_linear_924_78" x1="-0.496807" y1="22.7359" x2="124.042" y2="22.7359" gradientUnits="userSpaceOnUse">
<stop stop-color="#EA5518"/>
<stop offset="0.2752" stop-color="#E63918"/>
<stop offset="0.637" stop-color="#B01280"/>
<stop offset="1" stop-color="#1E65AF"/>
</linearGradient>
<linearGradient id="paint2_linear_924_78" x1="-0.497204" y1="26.2905" x2="124.042" y2="26.2905" gradientUnits="userSpaceOnUse">
<stop stop-color="#EA5518"/>
<stop offset="0.2752" stop-color="#E63918"/>
<stop offset="0.637" stop-color="#B01280"/>
<stop offset="1" stop-color="#1E65AF"/>
</linearGradient>
<linearGradient id="paint3_linear_924_78" x1="-0.497437" y1="28.826" x2="124.042" y2="28.826" gradientUnits="userSpaceOnUse">
<stop stop-color="#EA5518"/>
<stop offset="0.2752" stop-color="#E63918"/>
<stop offset="0.637" stop-color="#B01280"/>
<stop offset="1" stop-color="#1E65AF"/>
</linearGradient>
<linearGradient id="paint4_linear_924_78" x1="-0.49588" y1="26.1341" x2="124.043" y2="26.1341" gradientUnits="userSpaceOnUse">
<stop stop-color="#EA5518"/>
<stop offset="0.2752" stop-color="#E63918"/>
<stop offset="0.637" stop-color="#B01280"/>
<stop offset="1" stop-color="#1E65AF"/>
</linearGradient>
<linearGradient id="paint5_linear_924_78" x1="-0.496474" y1="26.1341" x2="124.043" y2="26.1341" gradientUnits="userSpaceOnUse">
<stop stop-color="#EA5518"/>
<stop offset="0.2752" stop-color="#E63918"/>
<stop offset="0.637" stop-color="#B01280"/>
<stop offset="1" stop-color="#1E65AF"/>
</linearGradient>
<linearGradient id="paint6_linear_924_78" x1="-0.498627" y1="23.964" x2="124.04" y2="23.964" gradientUnits="userSpaceOnUse">
<stop stop-color="#EA5518"/>
<stop offset="0.2752" stop-color="#E63918"/>
<stop offset="0.637" stop-color="#B01280"/>
<stop offset="1" stop-color="#1E65AF"/>
</linearGradient>
<clipPath id="clip0_924_78">
<rect width="126" height="48" fill="white"/>
</clipPath>
</defs>
</svg>
