<svg width="121" height="33" viewBox="0 0 121 33" fill="none" xmlns="http://www.w3.org/2000/svg">
<g clip-path="url(#clip0_3079_16926)">
<path fill-rule="evenodd" clip-rule="evenodd" d="M11.4463 4.90552C16.039 4.90552 18.3357 4.9058 19.9854 6.00806C20.6994 6.48522 21.3129 7.09868 21.79 7.81274C22.892 9.46239 22.8916 11.7593 22.8916 16.3518C22.8916 20.9445 22.8923 23.2412 21.79 24.8909C21.3129 25.605 20.6995 26.2184 19.9854 26.6956C18.3357 27.7978 16.039 27.7971 11.4463 27.7971C6.85377 27.7971 4.55687 27.7975 2.90723 26.6956C2.19317 26.2184 1.5797 25.6049 1.10254 24.8909C0.000287414 23.2412 6.88151e-10 20.9445 0 16.3518C0 11.759 0.000371218 9.46241 1.10254 7.81274C1.57973 7.09858 2.19306 6.48525 2.90723 6.00806C4.55689 4.90589 6.85347 4.90552 11.4463 4.90552ZM5.92773 17.5774C5.5892 17.5774 5.31463 17.8522 5.31445 18.1907V21.8704C5.31462 22.2089 5.58919 22.4836 5.92773 22.4836C6.26623 22.4836 6.54085 22.2088 6.54102 21.8704V18.1907C6.54084 17.8522 6.26622 17.5774 5.92773 17.5774ZM8.99316 15.1252C8.54188 15.1255 8.17583 15.4913 8.17578 15.9426V21.6653C8.17578 22.1167 8.54185 22.4834 8.99316 22.4836C9.44469 22.4836 9.81152 22.1168 9.81152 21.6653V15.9426C9.81148 15.4911 9.44467 15.1252 8.99316 15.1252ZM12.4678 12.6721C11.9035 12.6723 11.4463 13.1303 11.4463 13.6946V21.4612C11.4463 22.0255 11.9035 22.4834 12.4678 22.4836C13.0322 22.4836 13.4902 22.0256 13.4902 21.4612V13.6946C13.4902 13.1302 13.0322 12.6721 12.4678 12.6721ZM16.3516 10.22C15.6744 10.2201 15.126 10.7693 15.126 11.4465V21.2571C15.1261 21.9342 15.6745 22.4835 16.3516 22.4836C17.0288 22.4836 17.578 21.9343 17.5781 21.2571V11.4465C17.5781 10.7692 17.0289 10.22 16.3516 10.22Z" fill="#300C41"/>
</g>
<path d="M32.8922 18.644C32.8922 20.8612 34.874 22.6076 37.4052 22.6076C39.6617 22.6076 41.4472 21.2733 41.4472 19.5858C41.4472 17.9965 40.0737 16.9369 36.9146 16.0932C33.834 15.2691 32.4998 14.1703 32.4998 12.4043C32.4998 10.1675 34.2853 8.7547 37.1501 8.7547C39.6813 8.7547 41.7415 10.6384 41.7415 13.0322L41.0744 13.0911C41.0744 10.9131 39.3673 9.38259 36.9539 9.38259C34.6189 9.38259 33.1669 10.5403 33.1669 12.4043C33.1669 13.8956 34.2461 14.7001 37.464 15.6419C40.7016 16.5641 42.1144 17.761 42.1144 19.5858C42.1144 21.6265 40.0737 23.2355 37.3071 23.2355C34.4815 23.2355 32.2447 21.2341 32.2447 18.7029L32.8922 18.644ZM55.7131 18.2712C55.2225 21.4303 53.2211 23.3139 50.3367 23.3139C46.5694 23.3139 44.2737 20.3707 44.2737 16.0539C44.2737 11.6979 46.5498 8.7547 50.3367 8.7547C53.0249 8.7547 55.0067 10.5206 55.5953 13.4835L54.5554 13.5816C54.1041 11.1878 52.5147 9.71616 50.3367 9.71616C47.1188 9.71616 45.294 12.3062 45.294 16.0539C45.294 19.7821 47.1188 22.3525 50.3367 22.3525C52.5932 22.3525 54.2218 20.8809 54.6731 18.1731L55.7131 18.2712ZM57.0225 23L62.0849 9.06865H63.8508L68.9328 23H67.4808L65.9896 18.8206H59.9657L58.4745 23H57.0225ZM60.417 17.5256H65.5383L62.9678 10.2656L60.417 17.5256ZM71.1769 23V9.06865H72.8644V21.3518H79.83V23H71.1769ZM82.4412 9.06865H84.5604V23H82.4412V9.06865ZM96.2798 9.06865H99.1838L94.5335 16.0147L99.2427 23H96.2798L93.003 17.9376L89.7262 23H86.8026L91.5118 15.9951L86.8418 9.06865H89.7851L93.0423 14.0525L96.2798 9.06865ZM100.272 23L105.295 9.06865H108.827L113.85 23H110.75L109.73 20.0371H104.373L103.353 23H100.272ZM105.217 17.5844H108.905L107.061 12.2081L105.217 17.5844ZM115.679 9.06865H119.093V23H115.679V9.06865Z" fill="#300C41"/>
<defs>
<clipPath id="clip0_3079_16926">
<rect width="22.8919" height="22.8919" fill="white" transform="translate(0 4.9054)"/>
</clipPath>
</defs>
</svg>
