<svg width="121" height="33" viewBox="0 0 121 33" fill="none" xmlns="http://www.w3.org/2000/svg">
<g clip-path="url(#clip0_3079_16926)">
<rect y="4.9054" width="22.8919" height="22.8919" rx="6.54054" fill="#300C41"/>
<rect x="5.31445" y="17.5778" width="1.22635" height="4.90541" rx="0.613176" fill="white"/>
<rect x="8.17578" y="15.125" width="1.63514" height="7.35811" rx="0.817568" fill="white"/>
<rect x="11.4463" y="12.6724" width="2.04392" height="9.81081" rx="1.02196" fill="white"/>
<rect x="15.125" y="10.2196" width="2.4527" height="12.2635" rx="1.22635" fill="white"/>
</g>
<path d="M32.8922 18.644C32.8922 20.8612 34.874 22.6076 37.4052 22.6076C39.6617 22.6076 41.4472 21.2733 41.4472 19.5858C41.4472 17.9965 40.0737 16.9369 36.9146 16.0932C33.834 15.2691 32.4998 14.1703 32.4998 12.4043C32.4998 10.1675 34.2853 8.7547 37.1501 8.7547C39.6813 8.7547 41.7415 10.6384 41.7415 13.0322L41.0744 13.0911C41.0744 10.9131 39.3673 9.38259 36.9539 9.38259C34.6189 9.38259 33.1669 10.5403 33.1669 12.4043C33.1669 13.8956 34.2461 14.7001 37.464 15.6419C40.7016 16.5641 42.1144 17.761 42.1144 19.5858C42.1144 21.6265 40.0737 23.2355 37.3071 23.2355C34.4815 23.2355 32.2447 21.2341 32.2447 18.7029L32.8922 18.644ZM55.7131 18.2712C55.2225 21.4303 53.2211 23.3139 50.3367 23.3139C46.5694 23.3139 44.2737 20.3707 44.2737 16.0539C44.2737 11.6979 46.5498 8.7547 50.3367 8.7547C53.0249 8.7547 55.0067 10.5206 55.5953 13.4835L54.5554 13.5816C54.1041 11.1878 52.5147 9.71616 50.3367 9.71616C47.1188 9.71616 45.294 12.3062 45.294 16.0539C45.294 19.7821 47.1188 22.3525 50.3367 22.3525C52.5932 22.3525 54.2218 20.8809 54.6731 18.1731L55.7131 18.2712ZM57.0225 23L62.0849 9.06865H63.8508L68.9328 23H67.4808L65.9896 18.8206H59.9657L58.4745 23H57.0225ZM60.417 17.5256H65.5383L62.9678 10.2656L60.417 17.5256ZM71.1769 23V9.06865H72.8644V21.3518H79.83V23H71.1769ZM82.4412 9.06865H84.5604V23H82.4412V9.06865ZM96.2798 9.06865H99.1838L94.5335 16.0147L99.2427 23H96.2798L93.003 17.9376L89.7262 23H86.8026L91.5118 15.9951L86.8418 9.06865H89.7851L93.0423 14.0525L96.2798 9.06865ZM100.272 23L105.295 9.06865H108.827L113.85 23H110.75L109.73 20.0371H104.373L103.353 23H100.272ZM105.217 17.5844H108.905L107.061 12.2081L105.217 17.5844ZM115.679 9.06865H119.093V23H115.679V9.06865Z" fill="#300C41"/>
<defs>
<clipPath id="clip0_3079_16926">
<rect width="22.8919" height="22.8919" fill="white" transform="translate(0 4.9054)"/>
</clipPath>
</defs>
</svg>
