<svg width="58" height="48" viewBox="0 0 58 48" fill="none" xmlns="http://www.w3.org/2000/svg">
<g clip-path="url(#clip0_1371_1425)">
<path d="M21.4912 8.13477C23.7303 7.16735 26.3621 7.28919 28.2158 8.40234L28.373 8.5C28.457 8.55644 28.4787 8.67085 28.4209 8.75391L27.8965 9.50586C26.3588 8.43546 23.9558 8.26926 21.9277 9.14551C19.6758 10.1188 18.1926 12.1813 17.9502 15.1436L17.9355 15.3516L17.9062 15.8242L17.4336 15.8662C14.219 16.1495 12.3971 18.2469 12.3945 20.9834C12.3923 23.5444 14.0099 25.704 16.3877 26.0186L16.5039 26.0312L18.6318 26.0273L22.832 26.0312L29.5244 18.7217C29.3842 18.4789 29.3027 18.1979 29.3027 17.8975C29.303 16.9853 30.0419 16.2463 30.9541 16.2461C31.8661 16.2461 32.6062 16.9853 32.6064 17.8975C32.6064 18.8094 31.866 19.5498 30.9541 19.5498C30.7453 19.5498 30.5462 19.5093 30.3623 19.4385L23.3164 27.1338L20.2041 27.1279L17.3477 27.1299L16.4756 27.1328L16.4189 27.1309C13.3594 26.8239 11.2903 24.1252 11.293 20.9824C11.2959 17.8527 13.3223 15.3638 16.7793 14.8359L16.873 14.8223L16.8936 14.6416C17.2642 11.5588 18.8986 9.3238 21.3242 8.20898L21.4912 8.13477ZM29.3135 9.625C29.4841 9.44816 29.7658 9.4443 29.9414 9.61621L30.0195 9.69238C30.5584 10.2203 31.0604 10.9312 31.5293 11.8262L31.6816 12.127L31.8896 12.083C33.7645 11.6956 35.2336 11.7399 36.749 12.5205L36.9238 12.6143C37.8399 13.1192 38.6785 13.8809 39.4316 14.9268L39.5811 15.1396L38.6719 15.7617C37.9749 14.7435 37.2137 14.0307 36.3926 13.5781C35.094 12.8624 33.8268 12.8084 32.1162 13.1611L31.8613 13.2158L31.0605 13.3994L30.874 12.9912C30.4969 12.1693 30.1034 11.4997 29.6973 10.9824L29.623 10.8906L20.8877 19.9531C20.9868 20.1651 21.0438 20.4009 21.0439 20.6504C21.0439 21.5625 20.3039 22.3027 19.3916 22.3027C18.4795 22.3025 17.7402 21.5623 17.7402 20.6504C17.7406 19.7383 18.4795 18.9993 19.3916 18.999C19.6518 18.999 19.8972 19.0609 20.1162 19.168L29.3135 9.625ZM19.3906 20.1006C19.0865 20.1006 18.8402 20.3464 18.8398 20.6504C18.8398 20.9544 19.0865 21.2012 19.3906 21.2012C19.6946 21.2011 19.9414 20.9543 19.9414 20.6504C19.9411 20.3464 19.6947 20.1007 19.3906 20.1006ZM30.9551 17.3477C30.6508 17.3477 30.4043 17.5941 30.4043 17.8984C30.4044 18.2024 30.6511 18.4492 30.9551 18.4492C31.2587 18.4491 31.5058 18.2021 31.5059 17.8984C31.5059 17.5944 31.259 17.3478 30.9551 17.3477Z" fill="#8168D4"/>
<path d="M39.7031 16.7329C39.9818 16.4531 40.46 16.6506 40.46 17.0454L40.459 17.9575L40.5449 17.9214C42.5228 17.1271 44.6992 18.1151 45.8242 20.1489L45.8936 20.2769C47.2166 22.8198 46.2952 25.6256 43.1279 27.019C42.9524 27.0931 42.7638 27.132 42.5732 27.1343L41.5225 27.147L38.9395 27.1626L37.0752 27.1665L31.9297 27.1606L25.5771 27.1333C25.4793 27.1329 25.3999 27.0534 25.4004 26.9556L25.4043 26.2085C25.4048 26.1108 25.4844 26.0324 25.582 26.0327L32.7568 26.061L36.5225 26.0659L40.0898 26.0562L41.959 26.0415L42.5645 26.0337C42.6079 26.0332 42.6513 26.0251 42.6914 26.0083C45.2116 24.8976 45.9213 22.8523 44.9756 20.9028L44.916 20.7856C43.9413 18.9125 41.9522 18.1618 40.3418 19.2778L40.2393 19.3521L40.0674 19.481C39.7757 19.6998 39.3589 19.492 39.3584 19.1274V18.6392L36.3389 21.6704C36.4197 21.8651 36.4648 22.0784 36.4648 22.3022C36.4648 23.2141 35.7244 23.9546 34.8125 23.9546C33.9004 23.9544 33.1612 23.2142 33.1611 22.3022C33.1614 21.3901 33.9003 20.6511 34.8125 20.6509C35.0977 20.6509 35.3663 20.7228 35.6006 20.8501L39.7031 16.7329ZM34.8135 21.7515C34.5092 21.7515 34.2627 21.9979 34.2627 22.3022C34.2628 22.6061 34.5095 22.853 34.8135 22.853C35.1171 22.8529 35.3641 22.6058 35.3643 22.3022C35.3643 21.9982 35.1174 21.7516 34.8135 21.7515Z" fill="#8168D4"/>
<path d="M15.832 36.2476L15.8145 31.9282H16.8359V38.5698H16.8096L12.1865 34.0864L12.2109 38.3413H11.1719V31.7075H11.2246L15.832 36.2476ZM1.99121 31.8931C2.44343 31.8931 2.83031 31.9465 3.15039 32.0552C3.47037 32.1638 3.75339 32.2951 4 32.4478L3.6123 33.2319C3.38327 33.1145 3.13926 33.0124 2.88086 32.9272C2.62275 32.8422 2.37627 32.8003 2.1416 32.8003C1.82446 32.8003 1.5727 32.8703 1.3877 33.0112C1.20282 33.1522 1.11035 33.3467 1.11035 33.5933C1.11046 33.7692 1.17376 33.9232 1.2998 34.0552C1.42601 34.1873 1.59049 34.3021 1.79297 34.3989C1.99547 34.4958 2.20861 34.5882 2.43164 34.6763C2.62535 34.7467 2.81802 34.8304 3.00879 34.9272C3.19966 35.0242 3.37172 35.1437 3.52441 35.2847C3.67696 35.4255 3.79769 35.5998 3.88574 35.8081C3.97384 36.0166 4.01758 36.2742 4.01758 36.5796C4.01752 36.9141 3.93384 37.2207 3.7666 37.4995C3.59927 37.7784 3.35705 38.0001 3.04004 38.1646C2.7229 38.329 2.33796 38.4116 1.88574 38.4116C1.61572 38.4116 1.35301 38.3824 1.09766 38.3237C0.842367 38.265 0.599993 38.1842 0.371094 38.0815C0.142046 37.9788 -0.0698623 37.8621 -0.263672 37.7329L0.194336 36.9312C0.335221 37.0368 0.496753 37.1341 0.678711 37.2222C0.860774 37.3103 1.04935 37.3812 1.24316 37.4341C1.4368 37.4869 1.61888 37.5132 1.78906 37.5132C1.97109 37.5132 2.15197 37.4821 2.33105 37.4204C2.51003 37.3587 2.65995 37.2605 2.78027 37.1255C2.90055 36.9905 2.96088 36.8113 2.96094 36.5884C2.96094 36.4065 2.90923 36.2507 2.80664 36.1216C2.70386 35.9924 2.5668 35.8786 2.39648 35.7817C2.22626 35.6849 2.04134 35.5983 1.8418 35.522C1.6423 35.4457 1.43973 35.361 1.23438 35.2671C1.02886 35.1731 0.836326 35.0564 0.657227 34.9185C0.4781 34.7804 0.33229 34.6113 0.220703 34.4116C0.109309 34.2121 0.053744 33.9657 0.0537109 33.6724C0.0537109 33.3202 0.135556 33.0147 0.299805 32.7563C0.464189 32.498 0.691861 32.2918 0.982422 32.1392C1.27304 31.9865 1.60962 31.9049 1.99121 31.8931ZM20.3506 31.8931C20.8028 31.8931 21.1897 31.9465 21.5098 32.0552C21.8297 32.1638 22.1128 32.2951 22.3594 32.4478L21.9717 33.2319C21.7426 33.1145 21.4986 33.0124 21.2402 32.9272C20.9821 32.8422 20.7356 32.8003 20.501 32.8003C20.1838 32.8003 19.9321 32.8703 19.7471 33.0112C19.5622 33.1522 19.4697 33.3467 19.4697 33.5933C19.4698 33.7692 19.5331 33.9232 19.6592 34.0552C19.7854 34.1873 19.9499 34.3021 20.1523 34.3989C20.3548 34.4958 20.568 34.5882 20.791 34.6763C20.9847 34.7467 21.1774 34.8304 21.3682 34.9272C21.559 35.0242 21.7311 35.1437 21.8838 35.2847C22.0363 35.4255 22.1571 35.5998 22.2451 35.8081C22.3332 36.0166 22.377 36.2742 22.377 36.5796C22.3769 36.9141 22.2932 37.2207 22.126 37.4995C21.9586 37.7784 21.7164 38.0001 21.3994 38.1646C21.0823 38.329 20.6973 38.4116 20.2451 38.4116C19.9751 38.4116 19.7124 38.3824 19.457 38.3237C19.2017 38.265 18.9594 38.1842 18.7305 38.0815C18.5014 37.9788 18.2895 37.8621 18.0957 37.7329L18.5537 36.9312C18.6946 37.0368 18.8561 37.1341 19.0381 37.2222C19.2201 37.3103 19.4087 37.3812 19.6025 37.4341C19.7962 37.4869 19.9783 37.5132 20.1484 37.5132C20.3305 37.5132 20.5113 37.4821 20.6904 37.4204C20.8694 37.3587 21.0193 37.2605 21.1396 37.1255C21.2599 36.9905 21.3203 36.8113 21.3203 36.5884C21.3203 36.4065 21.2686 36.2507 21.166 36.1216C21.0632 35.9924 20.9262 35.8786 20.7559 35.7817C20.5856 35.6849 20.4007 35.5983 20.2012 35.522C20.0017 35.4457 19.7991 35.361 19.5938 35.2671C19.3882 35.1731 19.1957 35.0564 19.0166 34.9185C18.8375 34.7804 18.6917 34.6113 18.5801 34.4116C18.4687 34.2121 18.4131 33.9657 18.4131 33.6724C18.4131 33.3202 18.4949 33.0147 18.6592 32.7563C18.8236 32.498 19.0512 32.2918 19.3418 32.1392C19.6324 31.9865 19.969 31.9049 20.3506 31.8931ZM49.5273 31.8569C49.9324 31.857 50.2953 31.9114 50.6152 32.02C50.9351 32.1286 51.2037 32.2503 51.4209 32.3853L51.0156 33.3462C50.8513 33.2347 50.6459 33.1228 50.3994 33.0112C50.1529 32.8997 49.8736 32.8433 49.5625 32.8433C49.2807 32.8433 49.0103 32.9007 48.752 33.0151C48.4936 33.1296 48.267 33.2911 48.0732 33.4995C47.8794 33.708 47.7249 33.951 47.6104 34.2271C47.496 34.503 47.4395 34.8027 47.4395 35.1255C47.4395 35.4601 47.49 35.7685 47.5928 36.0503C47.6955 36.332 47.8425 36.5743 48.0332 36.7769C48.224 36.9794 48.4536 37.1379 48.7207 37.2524C48.9879 37.367 49.2893 37.4243 49.624 37.4243C49.9528 37.4243 50.2417 37.3727 50.4912 37.27C50.7408 37.1673 50.942 37.0515 51.0947 36.9224L51.5264 37.8384C51.4324 37.903 51.2933 37.9827 51.1084 38.0767C50.9234 38.1706 50.7027 38.2513 50.4473 38.3188C50.1919 38.3863 49.9087 38.4175 49.5977 38.4116C49.0984 38.4057 48.6484 38.3153 48.249 38.1421C47.8499 37.9689 47.5122 37.7344 47.2363 37.438C46.9603 37.1414 46.7474 36.8002 46.5977 36.4155C46.448 36.031 46.3731 35.6215 46.373 35.187C46.373 34.6996 46.4499 34.2534 46.6025 33.8481C46.7552 33.443 46.9721 33.092 47.2539 32.7954C47.5357 32.499 47.8704 32.2684 48.2578 32.104C48.6454 31.9396 49.0692 31.8569 49.5273 31.8569ZM9.62793 32.9146H6.40332V34.6235H9.27539V35.6108H6.40332V37.355H9.75098V38.3413H5.37305V31.9282H9.62793V32.9146ZM25.9688 35.0923L27.5918 31.9282H28.8516L26.4463 36.2622V38.3413H25.4248V36.2622L23.0547 31.9282H24.3145L25.9688 35.0923ZM31.7412 31.9282C32.0936 31.9282 32.4173 31.9739 32.7109 32.0649C33.0042 32.1559 33.2536 32.2894 33.459 32.4653C33.6645 32.6415 33.8249 32.8574 33.9395 33.1128C34.054 33.3683 34.1113 33.6609 34.1113 33.9897C34.1113 34.2423 34.0734 34.4951 33.9971 34.7476C33.9207 35 33.7953 35.2276 33.6221 35.4302L33.5449 35.5142C33.4371 35.6237 33.3113 35.7215 33.168 35.8062L33.0713 35.8599L34.6309 38.3413H33.4414L31.9951 36.1108L31.8916 36.1128H30.9658V38.3413H29.9355V31.9282H31.7412ZM39.6709 32.9146H38.0146V38.3413H36.9932V32.9146H35.3809V31.9282H39.6709V32.9146ZM45.2275 32.9146H42.0029V34.6235H44.875V35.6108H42.0029V37.355H45.3506V38.3413H40.9727V31.9282H45.2275V32.9146ZM53.9229 31.9282V34.6323H57.0771V31.9282H58.0986V38.3413H57.0771V35.6108H53.9229V38.3413H52.8926V31.9282H53.9229ZM30.9648 35.1255H31.8809C32.1099 35.1255 32.3014 35.0885 32.4541 35.0151C32.6065 34.9418 32.7255 34.8492 32.8105 34.7378C32.8956 34.6263 32.957 34.5075 32.9951 34.3813C33.0333 34.2552 33.0527 34.1364 33.0527 34.0249C33.0527 33.9192 33.0352 33.8025 33 33.6763C32.9648 33.5501 32.9044 33.4294 32.8193 33.3149C32.7342 33.2006 32.6183 33.1051 32.4717 33.0288C32.3249 32.9525 32.1392 32.9146 31.916 32.9146H30.9648V35.1255Z" fill="#8168D4"/>
</g>
<defs>
<clipPath id="clip0_1371_1425">
<rect width="58" height="48" fill="white"/>
</clipPath>
</defs>
</svg>
