<svg width="92" height="48" viewBox="0 0 92 48" fill="none" xmlns="http://www.w3.org/2000/svg">
<path d="M8.78766 15.3689C8.54102 15.0581 8.23019 14.8013 7.85854 14.602C7.5004 14.3857 7.06118 14.2776 6.53412 14.2776C6.03746 14.2776 5.60499 14.3857 5.23335 14.602C4.87521 14.8047 4.69952 15.1054 4.69952 15.5074C4.69952 15.8318 4.80088 16.0953 5.00022 16.298C5.21645 16.5008 5.46647 16.6629 5.74352 16.7879C6.03746 16.9129 6.34829 17.0042 6.67264 17.0684C6.99699 17.1292 7.27741 17.1832 7.51054 17.2305C7.9599 17.3387 8.37885 17.4704 8.76739 17.6258C9.16945 17.7813 9.51069 17.984 9.79111 18.2306C10.0851 18.4773 10.3114 18.7813 10.4668 19.1361C10.6391 19.4942 10.7236 19.9267 10.7236 20.4402C10.7236 21.0619 10.5918 21.5957 10.3283 22.0451C10.0648 22.4775 9.72354 22.8357 9.30459 23.1161C8.88564 23.3965 8.40588 23.5959 7.86192 23.7209C7.33485 23.8459 6.80103 23.9067 6.25707 23.9067C5.34146 23.9067 4.53735 23.7682 3.83797 23.4878C3.15549 23.2073 2.54396 22.6972 2 21.9539L3.58119 20.6497C3.92244 20.9909 4.30084 21.2916 4.71979 21.5552C5.13874 21.8187 5.64892 21.9505 6.25369 21.9505C6.51722 21.9505 6.78075 21.9268 7.04429 21.8795C7.32471 21.8187 7.5646 21.7309 7.76394 21.6228C7.98017 21.4977 8.15248 21.3525 8.27411 21.1802C8.41263 20.9943 8.48358 20.7849 8.48358 20.5517C8.48358 20.2409 8.38222 19.9841 8.17951 19.7848C7.99368 19.5821 7.76056 19.4266 7.48013 19.3185C7.2166 19.1935 6.92942 19.1023 6.61858 19.0381C6.32464 18.9604 6.06111 18.8996 5.82798 18.8523C5.37862 18.7442 4.95292 18.6192 4.54748 18.4806C4.14543 18.3421 3.78729 18.1563 3.47646 17.9232C3.16562 17.69 2.91899 17.3961 2.73316 17.038C2.54734 16.6798 2.45273 16.2406 2.45273 15.7135C2.45273 15.1392 2.56761 14.6425 2.80073 14.2236C3.04737 13.7877 3.36834 13.433 3.75351 13.1525C4.15556 12.8721 4.60492 12.6626 5.10158 12.5241C5.61175 12.3856 6.1253 12.3146 6.63547 12.3146C7.37877 12.3146 8.09166 12.4532 8.77414 12.7336C9.45663 13.014 10.0006 13.4769 10.4026 14.129L8.77414 15.3622L8.78766 15.3689ZM19.1702 14.4161H16.17V19.4165C16.17 19.7273 16.1767 20.0382 16.1936 20.3456C16.2071 20.6396 16.2646 20.9132 16.3558 21.1599C16.4639 21.393 16.6193 21.5856 16.822 21.741C17.0383 21.8795 17.3491 21.9505 17.7512 21.9505C17.9978 21.9505 18.2546 21.9268 18.5181 21.8795C18.7816 21.8322 19.0215 21.7478 19.2377 21.6228V23.5317C18.9911 23.6702 18.6634 23.7648 18.2613 23.8121C17.8728 23.8729 17.5721 23.9067 17.3559 23.9067C16.5484 23.9067 15.9199 23.7986 15.4706 23.5824C15.0347 23.3492 14.7104 23.0553 14.4942 22.6972C14.2914 22.339 14.1698 21.9437 14.1225 21.5113C14.0921 21.0619 14.0752 20.6125 14.0752 20.1632V14.4195H11.6561V12.6052H14.0752V9.51038H16.17V12.6052H19.1702V14.4195V14.4161ZM21.917 13.9499C22.5049 13.4059 23.1874 13.0039 23.9644 12.7403C24.7382 12.4599 25.5152 12.3214 26.2889 12.3214C27.0627 12.3214 27.7857 12.4228 28.36 12.6221C28.9479 12.8248 29.4311 13.0951 29.8027 13.4363C30.1744 13.7776 30.4447 14.1729 30.617 14.6222C30.8028 15.0547 30.8974 15.5142 30.8974 15.994V21.6228C30.8974 22.0113 30.9041 22.366 30.921 22.6938C30.9379 23.0181 30.9616 23.329 30.992 23.6229H29.1304C29.0831 23.0654 29.0594 22.508 29.0594 21.9471H29.0121C28.5459 22.66 27.9952 23.1634 27.36 23.4573C26.7248 23.7513 25.9882 23.8999 25.1503 23.8999C24.6402 23.8999 24.1503 23.829 23.684 23.6905C23.2178 23.5519 22.809 23.3425 22.4508 23.062C22.1096 22.7816 21.8393 22.4404 21.6366 22.0383C21.4339 21.6194 21.3325 21.1396 21.3325 20.5956C21.3325 19.8828 21.4879 19.2847 21.7987 18.805C22.1231 18.3252 22.5589 17.9367 23.1029 17.6427C23.6604 17.3319 24.3057 17.1157 25.0321 16.9907C25.7754 16.8521 26.566 16.7812 27.4039 16.7812H28.9378V16.3149C28.9378 16.0345 28.8837 15.7575 28.7756 15.477C28.6675 15.1966 28.5053 14.95 28.2857 14.7337C28.0695 14.5006 27.7992 14.3215 27.4715 14.1999C27.1471 14.0614 26.7586 13.9904 26.3092 13.9904C25.9072 13.9904 25.549 14.0276 25.2382 14.1053C24.9443 14.183 24.6706 14.2844 24.4239 14.406C24.1739 14.5141 23.9509 14.6459 23.7482 14.8013C23.5455 14.9567 23.3529 15.1054 23.1671 15.2439L21.9102 13.9398L21.917 13.9499ZM27.8262 18.3218C27.3296 18.3218 26.8194 18.3522 26.2923 18.4164C25.7821 18.4637 25.3091 18.5651 24.8733 18.7171C24.4543 18.8725 24.1063 19.0888 23.8259 19.3692C23.5624 19.6496 23.4306 20.0044 23.4306 20.4402C23.4306 21.0754 23.6401 21.5349 24.059 21.812C24.4949 22.0924 25.076 22.2309 25.8024 22.2309C26.3768 22.2309 26.8633 22.1363 27.2687 21.9505C27.6708 21.7478 27.9985 21.4944 28.2452 21.1835C28.4918 20.8727 28.6709 20.5315 28.779 20.1598C28.8871 19.7713 28.9412 19.3929 28.9412 19.0212V18.3218H27.8228H27.8262ZM33.9348 12.5984H36.0295V14.2979H36.0768C36.2154 14.0039 36.4012 13.7404 36.6343 13.5073C36.8674 13.2607 37.1242 13.0512 37.4012 12.8789C37.6952 12.7099 38.0128 12.5748 38.354 12.4836C38.6953 12.3755 39.0365 12.3214 39.3777 12.3214C39.719 12.3214 40.0298 12.3687 40.3069 12.4599L40.2123 14.7168C40.0433 14.6695 39.871 14.6324 39.7021 14.602C39.5298 14.5716 39.3609 14.5547 39.1919 14.5547C38.1682 14.5547 37.3843 14.8418 36.8438 15.4162C36.2998 15.9906 36.0295 16.8825 36.0295 18.0921V23.6263H33.9348V12.5984ZM42.5401 6.04053H44.6315V14.1796H44.6788C45.0505 13.6053 45.5843 13.1559 46.2837 12.8316C46.983 12.4903 47.7263 12.3214 48.5169 12.3214C49.3683 12.3214 50.1387 12.4701 50.8212 12.764C51.5171 13.0579 52.1084 13.4701 52.5882 13.9972C53.0848 14.5074 53.4632 15.1223 53.7268 15.8352C53.9903 16.5345 54.1221 17.2914 54.1221 18.1157C54.1221 18.9401 53.9903 19.6969 53.7268 20.3963C53.4632 21.0957 53.0848 21.7072 52.5882 22.2343C52.1084 22.7613 51.5171 23.1735 50.8212 23.4675C50.1387 23.7614 49.3717 23.9101 48.5169 23.9101C47.7736 23.9101 47.0438 23.7479 46.331 23.4202C45.6316 23.0958 45.0842 22.6363 44.6788 22.0485H44.6315V23.6297H42.5401V6.04053ZM48.2602 21.9505C48.8176 21.9505 49.321 21.8559 49.7704 21.6701C50.2198 21.4673 50.6015 21.2038 50.909 20.8795C51.2198 20.5382 51.4597 20.1362 51.6286 19.6699C51.801 19.1901 51.8854 18.6698 51.8854 18.1124C51.8854 17.5549 51.801 17.0413 51.6286 16.5785C51.4597 16.0987 51.2164 15.6933 50.909 15.3689C50.5982 15.0277 50.2198 14.7641 49.7704 14.5783C49.321 14.3756 48.8176 14.2776 48.2602 14.2776C47.7027 14.2776 47.1993 14.379 46.7465 14.5783C46.2972 14.7641 45.9188 15.0277 45.6079 15.3689C45.2971 15.6933 45.0572 16.0987 44.8883 16.5785C44.716 17.0447 44.6315 17.5549 44.6315 18.1124C44.6315 18.6698 44.716 19.1901 44.8883 19.6699C45.0572 20.1362 45.3005 20.5382 45.6079 20.8795C45.9188 21.2038 46.2972 21.4673 46.7465 21.6701C47.1959 21.8559 47.6993 21.9505 48.2602 21.9505ZM56.7574 12.6018H58.8521V14.3013H58.8994C59.038 14.0073 59.2238 13.7438 59.4569 13.5107C59.69 13.264 59.9468 13.0546 60.2239 12.8822C60.5178 12.7133 60.8354 12.5782 61.1766 12.4869C61.5179 12.3788 61.8591 12.3248 62.2004 12.3248C62.5416 12.3248 62.8524 12.3721 63.1295 12.4633L63.0383 14.7202C62.866 14.6729 62.697 14.6358 62.5247 14.6053C62.3558 14.5749 62.1835 14.558 62.0145 14.558C60.9908 14.558 60.207 14.8452 59.6664 15.4196C59.1224 15.994 58.8521 16.8859 58.8521 18.0955V23.6297H56.7574V12.5984V12.6018ZM65.5283 12.6018H67.6231V23.6263H65.5283V12.5984V12.6018ZM76.8602 14.4161H73.86V19.4165C73.86 19.7273 73.8668 20.0382 73.8837 20.3456C73.9006 20.6396 73.9546 20.9132 74.0458 21.1599C74.1539 21.393 74.3094 21.5856 74.5121 21.741C74.7283 21.8795 75.0391 21.9505 75.4412 21.9505C75.6878 21.9505 75.9446 21.9268 76.2081 21.8795C76.4717 21.8322 76.7116 21.7478 76.9278 21.6228V23.5317C76.6812 23.6702 76.3534 23.7648 75.9514 23.8121C75.5628 23.8729 75.2621 23.9067 75.0459 23.9067C74.2384 23.9067 73.6134 23.7986 73.1606 23.5824C72.7248 23.3492 72.4004 23.0553 72.1842 22.6972C71.9815 22.339 71.8599 21.9437 71.8126 21.5113C71.7822 21.0619 71.7653 20.6125 71.7653 20.1632V14.4195H69.3462V12.6052H71.7653V9.51038H73.86V12.6052H76.8602V14.4195V14.4161ZM81.1409 18.8827C81.1409 19.3624 81.2423 19.805 81.4416 20.2071C81.6579 20.5956 81.9383 20.9268 82.2795 21.2072C82.6208 21.4876 83.0161 21.7038 83.4654 21.8593C83.9148 22.0147 84.3811 22.0924 84.8608 22.0924C85.5129 22.0924 86.0771 21.9437 86.5603 21.6498C87.04 21.3389 87.4826 20.9369 87.8847 20.4402L89.4659 21.6498C88.3036 23.1533 86.6751 23.9067 84.5804 23.9067C83.7121 23.9067 82.9215 23.758 82.2086 23.4641C81.5092 23.1702 80.9146 22.7647 80.4179 22.2546C79.9382 21.7275 79.5665 21.116 79.303 20.4166C79.0394 19.7037 78.9077 18.9367 78.9077 18.1124C78.9077 17.288 79.0462 16.5312 79.3266 15.8318C79.6206 15.1189 80.0159 14.5074 80.5125 13.9938C81.0261 13.4667 81.6275 13.0546 82.3268 12.7606C83.0262 12.4667 83.783 12.318 84.6074 12.318C85.5838 12.318 86.4048 12.4869 87.0738 12.8282C87.7563 13.1694 88.3138 13.6188 88.7496 14.1763C89.1855 14.7202 89.4929 15.3385 89.6787 16.0379C89.8815 16.7204 89.9828 17.4164 89.9828 18.1326V18.8759H81.1443L81.1409 18.8827ZM87.7462 17.2069C87.7293 16.7406 87.6516 16.3149 87.513 15.9264C87.388 15.5378 87.1954 15.2067 86.9319 14.9263C86.6684 14.6324 86.3339 14.406 85.9318 14.2506C85.5433 14.0817 85.0872 13.9938 84.5601 13.9938C84.033 13.9938 83.5769 14.0952 83.1411 14.2945C82.7221 14.4803 82.3674 14.7304 82.0701 15.0378C81.7761 15.3486 81.543 15.6966 81.3707 16.0852C81.2153 16.4568 81.1376 16.8285 81.1376 17.2001H87.7428L87.7462 17.2069Z" fill="#042751"/>
<path d="M5.7168 31.0054H8.81162C9.43666 31.0054 9.984 31.0763 10.4536 31.2182C10.93 31.3601 11.3388 31.5527 11.6801 31.796C12.0314 32.0291 12.3186 32.3028 12.545 32.6102C12.7781 32.9177 12.9639 33.2353 13.0957 33.563C13.2309 33.8873 13.3255 34.2151 13.3829 34.5394C13.4403 34.8638 13.4707 35.1645 13.4707 35.4415C13.4707 36.0091 13.366 36.5598 13.1565 37.0937C12.9471 37.6207 12.6396 38.0903 12.2308 38.5093C11.822 38.9181 11.3118 39.2492 10.7036 39.4992C10.1023 39.7493 9.40626 39.8743 8.61228 39.8743H5.72017V31.0088L5.7168 31.0054ZM6.91959 38.7458H8.43659C8.94676 38.7458 9.42653 38.6782 9.87589 38.5465C10.3354 38.4046 10.7374 38.1951 11.0787 37.9214C11.4199 37.6478 11.6936 37.3031 11.8929 36.8943C12.0923 36.4754 12.1936 35.9922 12.1936 35.4415C12.1936 35.1577 12.1463 34.8266 12.0551 34.4516C11.9639 34.0664 11.7882 33.7049 11.528 33.3637C11.278 33.0224 10.9266 32.7318 10.4773 32.4987C10.0279 32.2555 9.44342 32.1372 8.72377 32.1372H6.91959V38.7492V38.7458ZM21.5896 31.0054H27.313V32.1338H22.7924V34.7759H27.0021V35.9044H22.7924V38.7492H27.5393V39.8776H21.5896V31.0121V31.0054ZM35.6345 31.0054H37.2123L42.0978 38.2931H42.1215V31.0054H43.3243V39.8709H41.7971L36.8644 32.5832H36.8407V39.8709H35.6379V31.0054H35.6345ZM53.8419 32.1338H50.987V31.0054H57.8997V32.1338H55.0447V39.8743H53.8419V32.1338ZM80.773 31.0054H81.9758V38.7458H86.047V39.8743H80.773V31.0088V31.0054Z" fill="#042751"/>
<path d="M69.4967 45.0265C66.5978 45.0265 63.7024 44.1379 61.2326 42.3641C60.9826 42.1851 60.9251 41.8337 61.1042 41.5837C61.2833 41.3336 61.6346 41.2762 61.8847 41.4553C66.4391 44.7258 72.5577 44.7258 77.1121 41.4553C77.3622 41.2762 77.7135 41.3336 77.8926 41.5837C78.0717 41.8337 78.0142 42.1851 77.7642 42.3641C75.2911 44.1379 72.3956 45.0265 69.5001 45.0265H69.4967Z" fill="#00A896"/>
<path d="M66.373 11.2485C66.4627 11.5819 66.9357 11.5819 67.0254 11.2485L67.3295 10.1192C67.3608 10.0029 67.4516 9.91212 67.5679 9.88081L68.6972 9.57675C69.0306 9.48699 69.0306 9.01402 68.6972 8.92426L67.5679 8.6202C67.4516 8.58889 67.3608 8.49807 67.3295 8.38179L67.0254 7.25249C66.9357 6.91913 66.4627 6.91913 66.373 7.25249L66.0689 8.38179C66.0376 8.49807 65.9468 8.58889 65.8305 8.6202L64.7012 8.92426C64.3678 9.01402 64.3678 9.48699 64.7012 9.57675L65.8305 9.88081C65.9468 9.91212 66.0376 10.0029 66.0689 10.1192L66.373 11.2485Z" fill="#042751"/>
<path d="M69.2182 31.0054H70.3095L74.1037 39.8709H72.7016L71.813 37.6782H67.5931L66.7146 39.8709H65.3125L69.2216 31.0054H69.2182ZM71.3737 36.6274L69.7216 32.5562H69.6979L68.0188 36.6274H71.3737Z" fill="#00A896"/>
</svg>
