<svg width="146" height="48" viewBox="0 0 146 48" fill="none" xmlns="http://www.w3.org/2000/svg">
<g clip-path="url(#clip0_924_781)">
<path d="M8.77894 20.7124H1.46245C1.06091 20.7124 0.710092 20.8563 0.426901 21.1398C0.143709 21.4233 0 21.7702 0 22.1764C0 22.5826 0.143709 22.9296 0.422674 23.2173C0.705866 23.5093 1.05668 23.6532 1.45823 23.6532H3.53778V32.3061C3.53778 32.8097 3.67304 33.2159 3.93509 33.5121C4.20983 33.821 4.60292 33.9775 5.11013 33.9775C5.61734 33.9775 6.03156 33.821 6.31475 33.5078C6.58949 33.2032 6.7332 32.8012 6.7332 32.3061V23.6532H8.77894C9.18471 23.6532 9.5313 23.5051 9.81449 23.2173C10.0977 22.9296 10.2372 22.5784 10.2372 22.1764C10.2372 21.7745 10.0935 21.4233 9.81026 21.1398C9.52707 20.8563 9.18048 20.7124 8.77471 20.7124H8.77894Z" fill="#02BFDF"/>
<path d="M13.1626 24.0936C12.7019 24.0936 12.3342 24.2417 12.0721 24.5294C11.8185 24.8129 11.6875 25.1895 11.6875 25.6507V32.4165C11.6875 32.8651 11.8143 33.2416 12.0679 33.5251C12.33 33.8213 12.6977 33.9737 13.1626 33.9737C13.6276 33.9737 13.9953 33.8256 14.2616 33.5294C14.5236 33.2416 14.6547 32.8693 14.6547 32.4165V25.6507C14.6547 25.1895 14.5236 24.8087 14.2616 24.5252C13.9953 24.2375 13.6233 24.0894 13.1626 24.0894V24.0936Z" fill="#02BFDF"/>
<path d="M25.2758 21.0148C24.9588 21.3279 24.8024 21.7087 24.8024 22.1446V28.153L19.7134 21.1375C19.4091 20.7525 18.9864 20.5578 18.4623 20.5578C18.0269 20.5578 17.6508 20.7144 17.338 21.0233C17.0252 21.3322 16.873 21.7087 16.873 22.1446V32.3885C16.873 32.8244 17.0294 33.2009 17.338 33.5098C17.6465 33.8187 18.0269 33.9753 18.4623 33.9753C18.8977 33.9753 19.2738 33.8187 19.5908 33.5098C19.9078 33.2009 20.0685 32.8201 20.0685 32.3843V26.3759L25.1701 33.3913C25.466 33.7679 25.8845 33.9583 26.4213 33.9583C26.8566 33.9583 27.2328 33.806 27.5413 33.5014C27.8541 33.1967 28.0105 32.8201 28.0105 32.3843V22.1403C28.0105 21.7045 27.8541 21.3279 27.5456 21.0106C26.92 20.3717 25.8971 20.3843 25.2758 21.0106V21.0148Z" fill="#02BFDF"/>
<path d="M41.7834 22.1131C41.7834 21.6773 41.627 21.3049 41.3227 20.996C41.0184 20.6914 40.6507 20.5391 40.2238 20.5391C39.7208 20.5391 39.3023 20.7464 38.9769 21.1484L35.1474 25.7986H33.406V22.2104C33.406 21.7196 33.2708 21.3134 33.0003 21.013C32.7213 20.6999 32.3198 20.5433 31.8041 20.5433C31.2884 20.5433 30.8996 20.7041 30.6206 21.0172C30.3501 21.3219 30.2148 21.7238 30.2148 22.2147V32.3105C30.2148 32.8014 30.3501 33.2076 30.6206 33.508C30.8996 33.8211 31.2969 33.9819 31.8041 33.9819C32.3113 33.9819 32.7213 33.8253 33.0003 33.508C33.2708 33.2033 33.406 32.8014 33.406 32.3105V28.7224H35.1474L38.9726 33.3641C39.2897 33.7746 39.7123 33.9819 40.2238 33.9819C40.6464 33.9819 41.0184 33.8296 41.3227 33.5249C41.627 33.2202 41.7834 32.8437 41.7834 32.4078C41.7834 32.027 41.6693 31.6928 41.4411 31.4093L38.0005 27.2626L41.4411 23.1117C41.6651 22.8324 41.7834 22.4982 41.7834 22.1173V22.1131Z" fill="#02BFDF"/>
<path d="M51.2866 23.3667C51.6417 23.3667 51.946 23.2313 52.1996 22.9648C52.4448 22.7024 52.5716 22.3893 52.5716 22.0296C52.5716 21.67 52.4448 21.3569 52.1954 21.0988C51.946 20.8406 51.6375 20.7095 51.2866 20.7095H44.8197C44.3125 20.7095 43.9152 20.8703 43.6362 21.1791C43.3657 21.4838 43.2305 21.8858 43.2305 22.3766V32.1213C43.2305 32.6163 43.3657 33.0183 43.6362 33.3187C43.9152 33.6318 44.3125 33.7926 44.8197 33.7926H51.2866C51.6375 33.7926 51.9418 33.6657 52.1954 33.4118C52.4448 33.1622 52.5716 32.8491 52.5716 32.4894C52.5716 32.1297 52.4448 31.8209 52.1996 31.5543C51.946 31.2877 51.6417 31.1523 51.2866 31.1523H46.4386V28.5797H49.5072C49.8622 28.5797 50.1666 28.4443 50.4202 28.1777C50.6695 27.9154 50.7921 27.6023 50.7921 27.2426C50.7921 26.8829 50.6653 26.5698 50.4202 26.3075C50.1708 26.0409 49.8622 25.9055 49.5072 25.9055H46.4386V23.3498H51.2866V23.3667Z" fill="#02BFDF"/>
<path d="M63.2387 29.0393C63.0316 28.6881 62.7864 28.3919 62.5075 28.1422C63.057 27.901 63.5092 27.5329 63.8558 27.0421C64.3123 26.3989 64.5448 25.5696 64.5448 24.5795C64.5448 23.3524 64.1855 22.3919 63.4712 21.7191C62.7653 21.0506 61.7889 20.7163 60.5716 20.7163H55.8969C55.3812 20.7163 54.9754 20.8771 54.7007 21.186C54.4302 21.4906 54.2949 21.8926 54.2949 22.3834V32.3058C54.2949 32.7967 54.4302 33.2029 54.7007 33.5033C54.9797 33.8164 55.3812 33.9772 55.9011 33.9772C56.421 33.9772 56.8225 33.8206 57.1015 33.5033C57.372 33.1986 57.5072 32.7967 57.5072 32.3058V29.1027H58.4498C59.1853 29.1027 59.7263 29.4074 60.1067 30.0294L62.0468 33.1944C62.3764 33.7064 62.8456 33.9772 63.3951 33.9772C63.8262 33.9772 64.2066 33.8249 64.5194 33.5244C64.8364 33.2198 64.997 32.8432 64.997 32.4031C64.997 32.0858 64.9083 31.7938 64.7434 31.5569L63.2387 29.0393ZM61.3578 24.9011C61.3578 25.3877 61.2268 25.7558 60.9563 26.0308C60.69 26.3016 60.3434 26.437 59.9038 26.437H57.5072V23.3693H59.9038C60.3434 23.3693 60.69 23.5005 60.9563 23.7755C61.2268 24.0506 61.3578 24.4187 61.3578 24.9053V24.9011Z" fill="#02BFDF"/>
<path d="M81.7239 20.5404C81.0138 20.5404 80.5024 20.8662 80.253 21.4882L77.307 29.0241L74.3567 21.4839C74.1073 20.8662 73.6044 20.5361 72.9027 20.5361C72.4674 20.5361 72.087 20.6969 71.7742 21.01C71.4572 21.3232 71.3008 21.704 71.3008 22.1398C71.3008 22.3894 71.3557 22.6264 71.4529 22.821L75.8572 33.0396C76.1277 33.6235 76.6138 33.9451 77.307 33.9705C77.624 33.9705 77.9156 33.8816 78.1735 33.7124C78.4271 33.5431 78.6215 33.3189 78.7567 33.0354L83.1526 22.8422C83.2709 22.6095 83.3301 22.3725 83.3301 22.144C83.3301 21.7082 83.1695 21.3274 82.8567 21.0143C82.5439 20.6969 82.1635 20.5404 81.7281 20.5404H81.7239Z" fill="#02BFDF"/>
<path d="M86.2369 24.0936C85.7761 24.0936 85.4084 24.2417 85.1464 24.5294C84.8927 24.8129 84.7617 25.1895 84.7617 25.6507V32.4165C84.7617 32.8651 84.8885 33.2416 85.1421 33.5251C85.4042 33.8213 85.7719 33.9737 86.2369 33.9737C86.7018 33.9737 87.0695 33.8256 87.3358 33.5294C87.5979 33.2416 87.7289 32.8693 87.7289 32.4165V25.6507C87.7289 25.1895 87.5979 24.8087 87.3358 24.5252C87.0695 24.2375 86.6976 24.0894 86.2369 24.0894V24.0936Z" fill="#02BFDF"/>
<path d="M86.2398 19.9769C85.7411 19.9769 85.3226 20.1419 85.0014 20.4719C84.6844 20.7978 84.5195 21.2167 84.5195 21.7117C84.5195 22.2068 84.6801 22.6299 85.0014 22.9515C85.3226 23.2773 85.7368 23.4465 86.2398 23.4465C86.7428 23.4465 87.157 23.2815 87.4867 22.9557C87.8206 22.6299 87.9897 22.211 87.9897 21.7075C87.9897 21.204 87.8206 20.7893 87.4867 20.4593C87.157 20.1334 86.7343 19.9727 86.2398 19.9727V19.9769Z" fill="#02BFDF"/>
<path d="M97.8448 30.8763H93.1573V22.2106C93.1573 21.7198 93.0221 21.3136 92.7515 21.0131C92.4726 20.7 92.071 20.5435 91.5512 20.5435C91.0313 20.5435 90.6297 20.7042 90.355 21.0174C90.0845 21.322 89.9492 21.724 89.9492 22.2148V32.1372C89.9492 32.6323 90.0845 33.0342 90.355 33.3347C90.634 33.6478 91.0355 33.8086 91.5554 33.8086H97.849C98.2548 33.8086 98.6014 33.6647 98.8761 33.3812C99.1508 33.0977 99.2903 32.7507 99.2903 32.3488C99.2903 31.9468 99.1508 31.5998 98.8761 31.3163C98.5971 31.0328 98.2505 30.889 97.849 30.889L97.8448 30.8763Z" fill="#02BFDF"/>
<path d="M108.651 30.8763H103.964V22.2106C103.964 21.7198 103.829 21.3136 103.558 21.0131C103.279 20.7 102.878 20.5435 102.358 20.5435C101.838 20.5435 101.436 20.7042 101.162 21.0174C100.891 21.322 100.756 21.724 100.756 22.2148V32.1372C100.756 32.6323 100.891 33.0342 101.162 33.3347C101.441 33.6478 101.842 33.8086 102.362 33.8086H108.656C109.061 33.8086 109.408 33.6647 109.683 33.3812C109.957 33.0977 110.097 32.7507 110.097 32.3488C110.097 31.9468 109.957 31.5998 109.683 31.3163C109.404 31.0328 109.057 30.889 108.656 30.889L108.651 30.8763Z" fill="#02BFDF"/>
<path d="M118.251 21.4699C117.98 20.886 117.494 20.5645 116.801 20.5391C116.484 20.5391 116.192 20.6279 115.935 20.7972C115.681 20.9664 115.487 21.1907 115.351 21.4742L110.956 31.6843C110.85 31.8959 110.795 32.1328 110.795 32.3825C110.795 32.8183 110.956 33.1991 111.273 33.508C111.585 33.8169 111.966 33.9734 112.401 33.9734C113.115 33.9734 113.618 33.6434 113.859 33.0171L114.667 30.8169H118.944L119.751 33.0214C119.916 33.4572 120.309 33.9734 121.222 33.9734C121.658 33.9734 122.038 33.8169 122.351 33.508C122.668 33.1991 122.828 32.8183 122.828 32.3825C122.828 32.154 122.769 31.917 122.659 31.7012L118.255 21.4657L118.251 21.4699ZM117.98 28.1808H115.643L116.818 24.9819L117.98 28.1808Z" fill="#02BFDF"/>
<path d="M134.189 25.9213H130.22C129.844 25.9213 129.527 26.0567 129.282 26.3275C129.041 26.5898 128.918 26.9029 128.918 27.2584C128.918 27.6138 129.041 27.9269 129.282 28.1892C129.527 28.4558 129.844 28.5912 130.22 28.5912H132.604V30.3641C132.008 31.02 131.226 31.3416 130.22 31.3416C129.155 31.3416 128.352 30.9946 127.769 30.2753C127.177 29.5517 126.877 28.5362 126.877 27.2584C126.877 25.9805 127.177 24.9565 127.773 24.2414C128.36 23.5348 129.163 23.1921 130.22 23.1921C131.205 23.1921 132.186 23.484 133.158 24.0722C133.327 24.1568 133.504 24.1991 133.682 24.1991C134.071 24.1991 134.392 24.0807 134.637 23.8522C134.886 23.6152 135.013 23.2894 135.013 22.8832C135.013 22.3966 134.785 21.9862 134.354 21.7027C133.259 20.9326 131.869 20.5391 130.22 20.5391C128.255 20.5391 126.657 21.1526 125.469 22.3628C124.286 23.5729 123.686 25.2189 123.686 27.2584C123.686 29.2978 124.277 30.9015 125.444 32.1286C126.615 33.3557 128.221 33.9777 130.22 33.9777C132.219 33.9777 133.902 33.2837 135.068 31.9551C135.356 31.7308 135.554 31.4854 135.651 31.2315C135.744 30.9904 135.791 30.6815 135.791 30.2837V27.5419C135.791 27.0764 135.643 26.6871 135.356 26.3825C135.06 26.0736 134.667 25.917 134.189 25.917V25.9213Z" fill="#02BFDF"/>
<path d="M145.714 31.1653H140.866V28.5927H143.935C144.29 28.5927 144.594 28.4573 144.848 28.1907C145.097 27.9284 145.22 27.6153 145.22 27.2556C145.22 26.896 145.093 26.5828 144.848 26.3205C144.599 26.0539 144.29 25.9185 143.935 25.9185H140.866V23.3628H145.714C146.069 23.3628 146.374 23.2274 146.627 22.9608C146.872 22.6985 146.999 22.3854 146.999 22.0257C146.999 21.6661 146.872 21.353 146.623 21.0948C146.374 20.8367 146.065 20.7056 145.714 20.7056H139.247C138.74 20.7056 138.343 20.8664 138.064 21.1752C137.793 21.4799 137.658 21.8819 137.658 22.3727V32.1174C137.658 32.6124 137.793 33.0144 138.064 33.3148C138.343 33.6279 138.74 33.7887 139.247 33.7887H145.714C146.065 33.7887 146.37 33.6618 146.623 33.4079C146.872 33.1583 146.999 32.8452 146.999 32.4855C146.999 32.1258 146.872 31.8169 146.627 31.5504C146.374 31.2838 146.069 31.1484 145.714 31.1484V31.1653Z" fill="#02BFDF"/>
<path d="M16.1375 17.2691C16.2093 15.7035 15.0808 14.9673 13.6395 15.0011C12.1981 15.035 10.9978 15.8304 10.9217 17.396C10.9174 17.5187 10.9217 17.6372 10.9259 17.7557C10.9259 18.0519 11.002 18.3269 11.1119 18.6019C11.1499 18.695 11.1922 18.7881 11.2345 18.877C11.45 19.317 11.7332 19.7486 11.9361 20.2098C12.2996 21.0519 12.1981 21.238 12.1981 21.238L14.4975 21.183C14.4975 21.183 14.4045 21.0011 14.8483 20.1379C15.2921 19.2747 16.0107 18.5089 16.091 17.6541C16.1121 17.5314 16.1248 17.4003 16.1332 17.2733L16.1375 17.2691Z" fill="#F6921E"/>
<path d="M14.5212 20.9414C14.5212 20.9414 14.0563 21.1911 13.3546 21.2122C12.6488 21.2291 12.2092 21.0006 12.2092 21.0006C12.2092 21.0006 11.833 21.3138 11.9218 21.4322C12.0105 21.5507 12.057 21.5296 12.057 21.5296C12.057 21.5296 11.9344 22.7439 12.2345 23.0613C12.5135 23.3532 13.1856 23.3236 13.2828 23.3194C13.3715 23.3194 14.0013 23.3194 14.3056 23.0105C14.6353 22.6805 14.6269 21.4703 14.6269 21.4703C14.6269 21.4703 14.6734 21.4915 14.7706 21.3645C14.8678 21.2418 14.5212 20.9456 14.5212 20.9456V20.9414Z" fill="#02BFDF"/>
<path d="M12.565 21.2045C12.565 20.7814 12.5565 19.9732 12.51 19.2581C12.4382 19.2666 12.3706 19.2666 12.3072 19.2497C12.193 19.22 12.0451 19.1397 11.9732 18.9112C11.7873 18.3061 11.8422 17.7179 12.1 17.6037C12.1592 17.5783 12.3156 17.5445 12.4678 17.7983C12.5734 17.9803 12.6411 18.4584 12.6833 19.0043C12.7721 18.9619 12.8651 18.8985 12.9496 18.8181C12.9116 18.7123 12.882 18.5896 12.8778 18.4669C12.8609 18.1918 12.92 17.7772 13.106 17.7137C13.1525 17.6968 13.2032 17.7095 13.2413 17.7349C13.3723 17.8406 13.3554 18.2426 13.3343 18.4711C13.3216 18.6234 13.2709 18.7504 13.1821 18.8562C13.2201 18.9239 13.2624 18.9746 13.3089 19.0085C13.3512 19.0423 13.3934 19.0508 13.4315 19.0381L13.4822 19.2243C13.3892 19.2497 13.292 19.2243 13.199 19.1608C13.1398 19.1185 13.0891 19.0593 13.0426 18.9916C12.9327 19.0846 12.8144 19.1566 12.7002 19.2031C12.7552 20.0705 12.7552 21.0268 12.7552 21.2003H12.5608L12.565 21.2045ZM12.2099 17.7814C12.2099 17.7814 12.193 17.7772 12.1846 17.7814C12.0916 17.8237 11.9732 18.2384 12.1634 18.8562C12.2015 18.9746 12.2607 19.0423 12.3579 19.0635C12.4001 19.072 12.4509 19.0762 12.5016 19.0635C12.4635 18.5134 12.4001 18.048 12.3072 17.8914C12.2691 17.828 12.2353 17.7941 12.2099 17.7814ZM13.1441 17.9464C13.106 18.0395 13.0637 18.2342 13.0764 18.4542C13.0764 18.5134 13.0891 18.5727 13.1018 18.6277C13.1271 18.5727 13.1398 18.5177 13.1483 18.4542C13.1694 18.2215 13.161 18.0437 13.1483 17.9464H13.1441Z" fill="black"/>
<path d="M13.8587 21.1661C13.8672 21.0942 13.956 20.0871 14.0997 19.1689C13.9898 19.1266 13.8841 19.0631 13.7827 18.9785C13.7277 19.0589 13.6643 19.1224 13.6009 19.1689C13.5121 19.2324 13.4149 19.2535 13.3262 19.2324L13.3684 19.042C13.4149 19.0504 13.4614 19.0293 13.491 19.0081C13.546 18.97 13.6009 18.9108 13.6474 18.8346C13.5713 18.7289 13.5333 18.6019 13.5333 18.4538C13.5333 18.2676 13.546 17.8234 13.6897 17.7218C13.7277 17.6922 13.7742 17.6837 13.8207 17.7007C13.9982 17.7599 14.032 18.1788 13.9898 18.4581C13.9729 18.5808 13.9348 18.6992 13.8841 18.8093C13.9602 18.8812 14.0447 18.9362 14.1335 18.9785C14.2265 18.4242 14.3406 17.9291 14.4632 17.7472C14.6365 17.4891 14.7802 17.5102 14.8563 17.5526C15.0972 17.6795 15.0972 18.2507 14.8563 18.86C14.7548 19.1097 14.5857 19.1943 14.4589 19.2155C14.404 19.2239 14.349 19.2282 14.2899 19.2197C14.1757 19.9432 14.0912 20.7599 14.0489 21.1872L13.8587 21.1703V21.1661ZM14.7675 17.7133C14.7675 17.7133 14.6999 17.726 14.6238 17.8445C14.5139 18.0053 14.4124 18.475 14.3195 19.0208C14.3533 19.0208 14.3913 19.0208 14.4209 19.0166C14.535 18.9954 14.6238 18.915 14.6745 18.7796C14.9154 18.1703 14.8478 17.7557 14.7633 17.7133H14.7675ZM13.7827 17.9334C13.7531 18.0265 13.7277 18.2126 13.7277 18.4538C13.7277 18.5131 13.7362 18.5681 13.7531 18.6146C13.7742 18.5511 13.7911 18.4877 13.7996 18.4242C13.8334 18.2126 13.8122 18.0265 13.7827 17.9334Z" fill="black"/>
<path d="M12.0621 21.6146C12.0198 21.5934 11.9987 21.5426 12.0156 21.4961C12.0325 21.4453 12.0875 21.4199 12.1382 21.4368C12.1382 21.4368 12.5778 21.5849 13.3259 21.5849C14.0698 21.5849 14.5897 21.3776 14.5939 21.3734C14.6446 21.3522 14.6996 21.3734 14.7207 21.4242C14.7418 21.4749 14.7207 21.5299 14.67 21.5511C14.6489 21.5596 14.1121 21.7754 13.3259 21.7754C12.5439 21.7754 12.0959 21.6188 12.0748 21.6146H12.0621Z" fill="black"/>
<path d="M12.32 22.1654C12.2777 22.1443 12.2566 22.0977 12.2693 22.0512C12.2862 22.0004 12.3369 21.9708 12.3876 21.9877C12.3919 21.9877 12.9033 22.14 13.4274 22.085C13.9557 22.0258 14.2347 21.8988 14.2347 21.8988C14.2812 21.8777 14.3404 21.8988 14.3615 21.9454C14.3826 21.9919 14.3615 22.0512 14.315 22.0723C14.3023 22.0766 14.0107 22.212 13.4443 22.2754C12.8779 22.3389 12.3496 22.1781 12.3285 22.1739C12.3242 22.1739 12.32 22.1739 12.3158 22.1696L12.32 22.1654Z" fill="black"/>
<path d="M12.2985 22.6801C12.2562 22.6589 12.2351 22.6124 12.2478 22.5658C12.2647 22.515 12.3154 22.4854 12.3661 22.5024C12.3704 22.5024 12.8818 22.6547 13.4059 22.5997C13.9343 22.5404 14.2132 22.4135 14.2132 22.4135C14.2597 22.3923 14.3189 22.4135 14.34 22.46C14.3612 22.5066 14.34 22.5658 14.2935 22.587C14.2809 22.5912 13.9892 22.7266 13.4271 22.7901C12.8607 22.8535 12.3323 22.6928 12.3112 22.6885C12.307 22.6885 12.3027 22.6885 12.2985 22.6843V22.6801Z" fill="black"/>
</g>
<defs>
<clipPath id="clip0_924_781">
<rect width="146" height="48" fill="white"/>
</clipPath>
</defs>
</svg>
