<svg width="137" height="35" viewBox="0 0 137 35" fill="none" xmlns="http://www.w3.org/2000/svg">
<g clip-path="url(#clip0_2526_5779)">
<path d="M32.6021 33V27.84H33.452V28.5C33.922 27.88 34.572 27.73 35.092 27.73C35.982 27.73 36.5021 28.07 36.7321 28.65C36.8721 29 36.9121 29.42 36.9121 29.91V33H35.9921V30.09C35.9921 29.29 35.8821 28.46 34.8921 28.46C34.0321 28.46 33.522 29.06 33.522 30.3V33H32.6021ZM40.1839 33.15C38.6539 33.15 37.7039 32.03 37.7039 30.42C37.7039 28.82 38.664 27.69 40.194 27.69C41.734 27.69 42.7039 28.82 42.7039 30.42C42.7039 32.03 41.7439 33.15 40.1839 33.15ZM40.1839 32.42C41.1539 32.42 41.754 31.62 41.754 30.43C41.754 29.24 41.144 28.43 40.194 28.43C39.254 28.43 38.6539 29.22 38.6539 30.41C38.6539 31.61 39.2439 32.42 40.1839 32.42ZM44.3848 33L42.9448 27.84H43.8947L44.5947 30.42C44.7447 30.98 44.8747 31.64 44.9847 32.2H45.0448C45.1547 31.64 45.3347 30.98 45.4847 30.42L46.1847 27.84H47.4147L48.1447 30.42C48.3047 30.98 48.4548 31.64 48.5648 32.2H48.6248C48.7248 31.64 48.8648 30.98 49.0148 30.42L49.7148 27.84H50.5747L49.1447 33H47.9548L47.2448 30.42C47.0848 29.82 46.9347 29.14 46.8047 28.54H46.7448C46.6048 29.14 46.4448 29.82 46.2848 30.42L45.5747 33H44.3848ZM52.7204 35.01V27.84H53.6003V28.54C53.9503 28.02 54.4904 27.73 55.2504 27.73C56.6304 27.73 57.4104 28.85 57.4104 30.42C57.4104 32.11 56.4804 33.11 55.2104 33.11C54.5103 33.11 53.9604 32.91 53.6404 32.42V35.01H52.7204ZM55.0704 32.38C55.9204 32.38 56.4704 31.65 56.4704 30.42C56.4704 29.19 55.9204 28.46 55.0704 28.46C54.2003 28.46 53.6203 29.26 53.6203 30.42C53.6203 31.59 54.2003 32.38 55.0704 32.38ZM59.7 33.11C58.56 33.11 57.91 32.46 57.91 31.55C57.91 29.86 60.0699 29.92 61.3499 29.77V29.59C61.3499 28.82 61 28.38 60.2099 28.38C59.49 28.38 59.0099 28.74 59.0099 29.43H58.0999C58.0999 28.37 58.9699 27.69 60.2099 27.69C62.16 27.69 62.25 28.99 62.25 30.03V31.44C62.25 32.04 62.28 32.53 62.38 33H61.52C61.49 32.85 61.46 32.65 61.45 32.3C61.01 32.88 60.44 33.11 59.7 33.11ZM59.91 32.44C60.65 32.44 61.3499 32.14 61.3499 30.77V30.48C60.5699 30.58 58.84 30.52 58.84 31.57C58.84 32.07 59.25 32.44 59.91 32.44ZM63.3703 33V27.84H64.2404V28.6C64.6404 27.98 65.1203 27.78 65.6903 27.78C65.8803 27.78 66.0804 27.8 66.2704 27.84V28.65C66.0404 28.61 65.8404 28.58 65.6604 28.58C64.5504 28.58 64.2903 29.38 64.2903 30.63V33H63.3703ZM68.4796 33.09C67.6696 33.09 67.1797 32.73 67.1797 31.6V28.6H66.2296V27.84H67.1797V26.59H68.0997V27.84H69.2197V28.6H68.0997V31.17C68.0997 31.9 68.1297 32.31 68.7197 32.31C68.8597 32.31 69.0297 32.31 69.2397 32.26V33C68.9697 33.06 68.7096 33.09 68.4796 33.09ZM73.7117 33.15C72.1817 33.15 71.2316 32.03 71.2316 30.42C71.2316 28.82 72.1917 27.69 73.7217 27.69C75.2617 27.69 76.2316 28.82 76.2316 30.42C76.2316 32.03 75.2717 33.15 73.7117 33.15ZM73.7117 32.42C74.6817 32.42 75.2817 31.62 75.2817 30.43C75.2817 29.24 74.6717 28.43 73.7217 28.43C72.7817 28.43 72.1817 29.22 72.1817 30.41C72.1817 31.61 72.7717 32.42 73.7117 32.42ZM77.3052 33V28.6H76.3553V27.84H77.3052V27.58C77.3052 27.13 77.3352 26.73 77.4452 26.45C77.6552 25.92 78.1053 25.68 78.7453 25.68C78.9152 25.68 79.1453 25.69 79.3553 25.74V26.5C79.2052 26.47 79.0352 26.46 78.9152 26.46C78.2952 26.46 78.2253 26.83 78.2253 27.63V27.84H79.3553V28.6H78.2253V33H77.3052ZM81.5731 33V25.74H83.6732C84.6232 25.74 85.3532 25.88 85.9232 26.27C86.8432 26.91 87.3331 28.04 87.3331 29.37C87.3331 30.7 86.7831 31.8 85.8631 32.44C85.2931 32.83 84.6232 33 83.6732 33H81.5731ZM82.5532 32.2H83.5431C84.3731 32.2 85.0432 32.02 85.4632 31.65C85.9932 31.19 86.3032 30.33 86.3032 29.37C86.3032 28.42 86.0331 27.54 85.5031 27.07C85.0931 26.71 84.3731 26.54 83.5431 26.54H82.5532V32.2ZM90.4017 33.15C88.8217 33.15 87.9516 32.12 87.9516 30.42C87.9516 28.86 88.9016 27.69 90.4216 27.69C92.0317 27.69 92.7617 28.8 92.7617 30.71H88.9116C88.9616 31.73 89.5917 32.42 90.4317 32.42C91.0917 32.42 91.5917 32.12 91.7817 31.46H92.7517C92.5317 32.57 91.5817 33.15 90.4017 33.15ZM88.9317 29.96H91.7817C91.6817 28.92 91.1217 28.43 90.3816 28.43C89.6017 28.43 89.0617 28.92 88.9317 29.96ZM94.799 33L92.889 27.84H93.899L94.8089 30.42C95.0089 31 95.1889 31.62 95.3389 32.2H95.399C95.539 31.62 95.729 31 95.929 30.42L96.8389 27.84H97.7789L95.869 33H94.799ZM98.5052 33V25.74H100.655C101.135 25.74 101.635 25.76 102.065 25.89C102.855 26.13 103.425 26.74 103.425 27.78C103.425 28.64 102.795 29.39 101.845 29.6V29.63C102.605 29.67 102.905 30.18 103.065 30.67L103.825 33H102.775L102.125 30.94C101.825 30 101.235 29.99 100.295 29.99H99.4852V33H98.5052ZM99.4852 29.19H100.315C101.305 29.19 102.425 29.07 102.425 27.87C102.425 27.04 101.955 26.72 101.345 26.6C101.035 26.54 100.665 26.54 100.315 26.54H99.4852V29.19ZM106.601 33.15C105.021 33.15 104.151 32.12 104.151 30.42C104.151 28.86 105.101 27.69 106.621 27.69C108.231 27.69 108.961 28.8 108.961 30.71H105.111C105.161 31.73 105.791 32.42 106.631 32.42C107.291 32.42 107.791 32.12 107.981 31.46H108.951C108.731 32.57 107.781 33.15 106.601 33.15ZM105.131 29.96H107.981C107.881 28.92 107.321 28.43 106.581 28.43C105.801 28.43 105.261 28.92 105.131 29.96ZM110.999 33L109.089 27.84H110.099L111.009 30.42C111.209 31 111.389 31.62 111.539 32.2H111.599C111.739 31.62 111.929 31 112.129 30.42L113.039 27.84H113.979L112.069 33H110.999Z" fill="black"/>
<path fill-rule="evenodd" clip-rule="evenodd" d="M7.10755 18.3494V11.5814H14.0181C14.0181 7.86823 10.9001 4.81274 7.10755 4.81274C3.31497 4.81274 0.196997 7.86823 0.196997 11.5814C0.196997 15.2947 3.31709 18.3494 7.10755 18.3494ZM19.7446 32.8082V26.0374H26.6551C26.6551 22.3249 23.5371 19.2694 19.7446 19.2694C15.952 19.2694 12.834 22.3249 12.834 26.0374C12.834 29.7499 15.9534 32.8061 19.7446 32.8061V32.8082ZM19.7446 18.1545L26.8521 5.00836H12.6363L19.7446 18.1545ZM14.2172 19.4686L7.10755 32.6083L0 19.4672L14.2172 19.4686Z" fill="black"/>
<path d="M33.1567 11.8598V5.57324H35.5323V11.9564C35.5323 12.9691 35.5617 13.6257 35.6205 13.9261C35.722 14.4083 35.9629 14.7968 36.3431 15.0917C36.7281 15.3811 37.2524 15.5258 37.916 15.5258C38.5899 15.5258 39.0982 15.3892 39.4408 15.1159C39.783 14.8371 39.989 14.4966 40.0588 14.0945C40.1281 13.6928 40.1628 13.0257 40.1628 12.0931V5.57324H42.5384V11.7632C42.5384 13.178 42.4743 14.1776 42.3461 14.7619C42.2175 15.3462 41.9794 15.8392 41.6317 16.2409C41.2891 16.643 40.8289 16.9646 40.2511 17.2057C39.6732 17.4417 38.9188 17.5597 37.9878 17.5597C36.8643 17.5597 36.0111 17.4311 35.4282 17.1739C34.8504 16.9112 34.3929 16.5735 34.0558 16.1608C33.7186 15.7426 33.4966 15.3058 33.3896 14.8503C33.2343 14.1752 33.1567 13.1784 33.1567 11.8598ZM44.2319 14.9227L46.4951 14.5769C46.5912 15.0164 46.7864 15.3513 47.0808 15.5818C47.3752 15.8068 47.7872 15.9193 48.3168 15.9193C48.9001 15.9193 49.3387 15.8123 49.6327 15.5983C49.8307 15.4479 49.9297 15.2469 49.9297 14.9951C49.9297 14.8235 49.8762 14.6816 49.7692 14.5693C49.657 14.4621 49.4056 14.3629 49.0147 14.2718C47.1958 13.8697 46.0429 13.5026 45.5561 13.1704C44.8818 12.7094 44.5447 12.0689 44.5447 11.249C44.5447 10.5092 44.8363 9.8874 45.4196 9.3836C46.0029 8.8798 46.9071 8.62789 48.1321 8.62789C49.2984 8.62789 50.1651 8.81815 50.7323 9.19865C51.2995 9.57916 51.6902 10.142 51.9042 10.8873L49.7774 11.2808C49.6864 10.9486 49.5126 10.6941 49.2558 10.5174C49.0042 10.3404 48.6429 10.2518 48.1721 10.2518C47.5782 10.2518 47.1529 10.3349 46.8961 10.501C46.7248 10.6191 46.6392 10.7719 46.6392 10.9592C46.6392 11.1202 46.7142 11.2569 46.8644 11.3692C47.0674 11.5195 47.7683 11.7314 48.9671 12.0047C50.1706 12.278 51.0104 12.613 51.4867 13.0096C51.9575 13.4113 52.1929 13.9712 52.1929 14.6895C52.1929 15.472 51.8666 16.1447 51.2139 16.7074C50.5612 17.2701 49.5955 17.5515 48.3168 17.5515C47.1556 17.5515 46.2354 17.3157 45.5561 16.8441C44.8818 16.3725 44.4404 15.732 44.2319 14.9227ZM59.1032 14.6412L61.35 15.0193C61.0611 15.8447 60.6036 16.4743 59.9776 16.9083C59.357 17.3371 58.5785 17.5515 57.642 17.5515C56.1602 17.5515 55.0636 17.0665 54.3521 16.0966C53.7903 15.3195 53.5094 14.3386 53.5094 13.1539C53.5094 11.7391 53.8785 10.6325 54.6167 9.83417C55.3552 9.02998 56.2888 8.62789 57.4174 8.62789C58.6855 8.62789 59.6861 9.04864 60.4192 9.89015C61.1522 10.7262 61.5027 12.0098 61.4705 13.7411H55.8204C55.8364 14.411 56.0183 14.9335 56.366 15.3085C56.7141 15.6784 57.1475 15.8633 57.6661 15.8633C58.0193 15.8633 58.3163 15.7669 58.557 15.5741C58.798 15.3809 58.9801 15.07 59.1032 14.6412ZM55.8609 12.3581H59.2314C59.2153 11.7043 59.0467 11.2086 58.7257 10.8709C58.4046 10.528 58.014 10.3566 57.5538 10.3566C57.0618 10.3566 56.6553 10.5361 56.3343 10.895C56.0132 11.2543 55.8554 11.742 55.8609 12.3581ZM65.4672 14.7218V17.3588H63.2122V8.82107H65.3067V10.035C65.665 9.46135 65.986 9.0834 66.2698 8.9012C66.5587 8.719 66.8851 8.62789 67.2489 8.62789C67.7624 8.62789 68.2573 8.77003 68.7336 9.05432L68.0351 11.024C67.6552 10.7774 67.3022 10.6541 66.976 10.6541C66.6601 10.6541 66.3926 10.7424 66.1734 10.9192C65.9539 11.0908 65.78 11.4043 65.6518 11.8598C65.5288 12.3153 65.4672 13.2693 65.4672 14.7218Z" fill="black"/>
<path d="M78.6685 17.3588H69.7202V5.57324H78.4439V7.56705H72.0958V10.1794H78.0029V12.1655H72.0958V15.3727H78.6685V17.3588ZM82.2242 17.3588H79.5835L82.6575 12.9613L79.7122 8.82107H82.4647L83.9735 11.1683L85.5623 8.82107H88.2107L85.3218 12.8647L88.4759 17.3588H85.707L83.9735 14.7136L82.2242 17.3588ZM89.7437 20.6061V8.82107H91.8464V10.0751C92.1192 9.64629 92.4885 9.29799 92.9542 9.03017C93.4195 8.76199 93.9358 8.62789 94.503 8.62789C95.4928 8.62789 96.3327 9.01645 97.0226 9.79356C97.713 10.5707 98.0581 11.6533 98.0581 13.0414C98.0581 14.4672 97.7104 15.5767 97.015 16.3699C96.3192 17.1576 95.4764 17.5515 94.4866 17.5515C94.0158 17.5515 93.5879 17.4576 93.2029 17.2699C92.8231 17.0826 92.4216 16.7612 91.9987 16.3057V20.6061H89.7437ZM91.9751 12.9453C91.9751 13.9047 92.1651 14.6146 92.5449 15.0753C92.9248 15.5308 93.3875 15.7585 93.9332 15.7585C94.4573 15.7585 94.8933 15.5496 95.241 15.1318C95.5891 14.7085 95.7631 14.0172 95.7631 13.0579C95.7631 12.1626 95.5838 11.498 95.2251 11.064C94.8668 10.6298 94.4226 10.4126 93.8927 10.4126C93.3419 10.4126 92.8846 10.627 92.5208 11.0558C92.157 11.4791 91.9751 12.109 91.9751 12.9453ZM104.783 14.6412L107.03 15.0193C106.742 15.8447 106.284 16.4743 105.658 16.9083C105.037 17.3371 104.259 17.5515 103.322 17.5515C101.841 17.5515 100.744 17.0665 100.033 16.0966C99.4705 15.3195 99.1895 14.3386 99.1895 13.1539C99.1895 11.7391 99.5587 10.6325 100.297 9.83417C101.035 9.02998 101.969 8.62789 103.098 8.62789C104.366 8.62789 105.367 9.04864 106.1 9.89015C106.833 10.7262 107.183 12.0098 107.151 13.7411H101.501C101.517 14.411 101.699 14.9335 102.046 15.3085C102.394 15.6784 102.828 15.8633 103.347 15.8633C103.7 15.8633 103.997 15.7669 104.237 15.5741C104.478 15.3809 104.66 15.07 104.783 14.6412ZM101.541 12.3581H104.912C104.896 11.7043 104.727 11.2086 104.406 10.8709C104.085 10.528 103.694 10.3566 103.234 10.3566C102.742 10.3566 102.336 10.5361 102.015 10.895C101.694 11.2543 101.536 11.742 101.541 12.3581ZM111.148 14.7218V17.3588H108.892V8.82107H110.987V10.035C111.345 9.46135 111.666 9.0834 111.95 8.9012C112.239 8.719 112.565 8.62789 112.929 8.62789C113.443 8.62789 113.938 8.77003 114.414 9.05432L113.716 11.024C113.336 10.7774 112.983 10.6541 112.656 10.6541C112.341 10.6541 112.073 10.7424 111.854 10.9192C111.634 11.0907 111.46 11.4043 111.332 11.8598C111.209 12.3153 111.148 13.2693 111.148 14.7218ZM117.64 7.66364H115.385V5.57324H117.64V7.66364ZM117.64 17.3588H115.385V8.82107H117.64V17.3588ZM119.43 12.9689C119.43 12.2189 119.614 11.4928 119.984 10.7907C120.353 10.0886 120.874 9.55263 121.548 9.18274C122.228 8.81284 122.985 8.62789 123.82 8.62789C125.109 8.62789 126.166 9.04864 126.99 9.89015C127.813 10.7262 128.225 11.7846 128.225 13.0655C128.225 14.3574 127.808 15.4294 126.973 16.2815C126.144 17.1282 125.098 17.5515 123.836 17.5515C123.054 17.5515 122.308 17.3746 121.597 17.0208C120.89 16.667 120.353 16.1498 119.984 15.4693C119.614 14.7833 119.43 13.9498 119.43 12.9689ZM121.741 13.0897C121.741 13.9367 121.942 14.5852 122.343 15.0352C122.744 15.4856 123.239 15.7108 123.828 15.7108C124.416 15.7108 124.908 15.4856 125.304 15.0352C125.705 14.5852 125.906 13.9314 125.906 13.0738C125.906 12.2378 125.705 11.5946 125.304 11.1442C124.908 10.6941 124.416 10.4691 123.828 10.4691C123.239 10.4691 122.744 10.6941 122.343 11.1442C121.942 11.5946 121.741 12.2431 121.741 13.0897ZM132.15 14.7218V17.3588H129.895V8.82107H131.99V10.035C132.348 9.46135 132.669 9.0834 132.952 8.9012C133.241 8.719 133.568 8.62789 133.932 8.62789C134.445 8.62789 134.94 8.77003 135.416 9.05432L134.718 11.024C134.338 10.7774 133.985 10.6541 133.658 10.6541C133.343 10.6541 133.076 10.7424 132.856 10.9192C132.637 11.0907 132.463 11.4043 132.334 11.8598C132.212 12.3153 132.15 13.2693 132.15 14.7218Z" fill="black"/>
</g>
<defs>
<clipPath id="clip0_2526_5779">
<rect width="137" height="35" fill="white"/>
</clipPath>
</defs>
</svg>
