<svg width="64" height="48" viewBox="0 0 64 48" fill="none" xmlns="http://www.w3.org/2000/svg">
<g clip-path="url(#clip0_924_673)">
<path fill-rule="evenodd" clip-rule="evenodd" d="M26.4346 13.5915C26.8457 12.8857 26.3366 12 25.5198 12H22.5766L13.1978 28.1724L8.09111 19.4835C7.7108 18.8364 7.01631 18.439 6.26572 18.439H2.69223L13.1376 36.4184L26.4346 13.5915Z" fill="#1434CB"/>
<path fill-rule="evenodd" clip-rule="evenodd" d="M11.668 25.1411L18.9236 13.0292C19.306 12.3908 19.9956 12 20.7399 12H22.3722L13.1988 27.7912L11.668 25.1411Z" fill="#A1AEEA"/>
<path fill-rule="evenodd" clip-rule="evenodd" d="M12.8477 36.4181L2.40464 18.4639H1.06035C0.241553 18.4639 -0.267294 19.3536 0.147871 20.0593L9.15742 35.3744C9.53785 36.0211 10.2321 36.4181 10.9824 36.4181H12.8477Z" fill="#A1AEEA"/>
<path d="M48.7916 36.5V12H43.2207V36.5H48.7916Z" fill="#1434CB"/>
<path d="M64.3627 30.7691C63.7508 31.1555 62.8814 31.3808 61.9798 31.3808C60.4663 31.3808 59.7579 30.6082 59.7579 28.9341V23.2667H64.4915V18.3744H59.7579V12H54.2514V18.3744H51.0312V23.2667H54.2514V30.2218C54.2514 34.1817 56.5377 36.4997 60.4341 36.4997C61.9798 36.4997 63.139 36.2421 64.3627 35.5661V30.7691Z" fill="#1434CB"/>
<path d="M31.8064 36.3871C36.9265 36.3871 40.8551 32.3629 40.8551 27.405C40.8551 22.4471 36.9265 18.4229 31.8064 18.4229C26.6864 18.4229 22.7578 22.4471 22.7578 27.405C22.7578 32.3629 26.6864 36.3871 31.8064 36.3871ZM31.8064 31.4614C30.0998 31.4614 28.4897 30.1093 28.4897 27.405C28.4897 24.7007 30.0998 23.3807 31.8064 23.3807C33.5131 23.3807 35.1232 24.7007 35.1232 27.405C35.1232 30.1093 33.5131 31.4614 31.8064 31.4614Z" fill="#1434CB"/>
</g>
<defs>
<clipPath id="clip0_924_673">
<rect width="64" height="48" fill="white"/>
</clipPath>
</defs>
</svg>
