<svg width="24" height="24" viewBox="0 0 24 24" fill="none" xmlns="http://www.w3.org/2000/svg">
<g clip-path="url(#clip0_2457_287)">
<path d="M12.0384 23.0736C12.9271 23.6458 13.9849 23.8966 15.0359 23.7844C16.0869 23.6721 17.0678 23.2034 17.8155 22.4565L18.467 21.805C18.7559 21.5129 18.918 21.1186 18.918 20.7079C18.918 20.297 18.7559 19.9027 18.467 19.6108L15.7241 16.885C15.435 16.5971 15.0436 16.4355 14.6355 16.4355C14.2275 16.4355 13.8361 16.5971 13.547 16.885C13.2549 17.1739 12.8607 17.3359 12.4498 17.3359C12.039 17.3359 11.6448 17.1739 11.3527 16.885L6.98126 12.5135C6.69226 12.2215 6.53026 11.8272 6.53026 11.4164C6.53026 11.0056 6.69226 10.6113 6.98126 10.3193C7.26914 10.0301 7.43076 9.6387 7.43076 9.23068C7.43076 8.82267 7.26914 8.43126 6.98126 8.14211L4.34129 5.39925C4.04918 5.11031 3.65489 4.94824 3.24415 4.94824C2.83323 4.94824 2.43895 5.11031 2.14701 5.39925L1.49558 6.05068C0.735121 6.78789 0.250492 7.7636 0.122606 8.81497C-0.00527958 9.86634 0.231121 10.9298 0.792722 11.8278C3.78192 16.2657 7.60049 20.0842 12.0384 23.0736Z" fill="white"/>
<path fill-rule="evenodd" clip-rule="evenodd" d="M11.4826 0.189453C10.7725 0.189453 10.1968 0.765086 10.1968 1.47517C10.1968 2.18525 10.7725 2.76087 11.4826 2.76087C12.777 2.76087 14.0588 3.01584 15.2547 3.51122C16.4507 4.00658 17.5373 4.73265 18.4526 5.64797C19.3679 6.5633 20.094 7.64993 20.5894 8.84585C21.0847 10.0418 21.3397 11.3236 21.3397 12.618C21.3397 13.3281 21.9153 13.9037 22.6254 13.9037C23.3355 13.9037 23.9111 13.3281 23.9111 12.618C23.9111 10.9859 23.5897 9.36972 22.9651 7.86182C22.3405 6.35391 21.425 4.98379 20.2709 3.8297C19.1168 2.67559 17.7467 1.76011 16.2388 1.13552C14.7309 0.510926 13.1147 0.189453 11.4826 0.189453ZM10.9443 5.148C10.2343 5.148 9.65862 5.72364 9.65862 6.43371C9.65862 7.14379 10.2343 7.71943 10.9443 7.71943C12.422 7.71943 13.8391 8.30642 14.8839 9.35126C15.9288 10.3961 16.5158 11.8132 16.5158 13.2909C16.5158 14.0009 17.0914 14.5766 17.8015 14.5766C18.5116 14.5766 19.0872 14.0009 19.0872 13.2909C19.0872 11.1312 18.2293 9.06007 16.7022 7.53298C15.1751 6.0059 13.104 5.148 10.9443 5.148Z" fill="#FFC5C7"/>
</g>
<defs>
<clipPath id="clip0_2457_287">
<rect width="24" height="24" fill="white" transform="matrix(-1 0 0 1 24 0)"/>
</clipPath>
</defs>
</svg>
