<svg width="64" height="64" viewBox="0 0 64 64" fill="none" xmlns="http://www.w3.org/2000/svg">
<g clip-path="url(#clip0_2222_46)">
<path d="M26.2442 18.4605C17.8025 12.7008 9.8792 16.1522 3.05288 22.4137C1.9674 23.4094 2.1941 25.151 3.45581 25.9111L17.0816 34.1194" fill="#9658FA"/>
<path d="M45.5397 37.7554C51.2995 46.1973 47.848 54.1205 41.5865 60.9465C40.5908 62.0323 38.8492 61.8055 38.0891 60.5438L29.8809 46.9182" fill="#9658FA"/>
<path d="M17.082 34.0709L29.9291 46.9179C40.2068 40.761 51.8903 34.7981 57.2229 29.2714C68.7612 17.7333 62.0709 1.92898 62.0709 1.92898C62.0709 1.92898 46.2665 -4.76119 34.7286 6.77696C29.2019 12.1097 23.1905 23.8417 17.082 34.0709Z" fill="#F6F3FF"/>
<path fill-rule="evenodd" clip-rule="evenodd" d="M46.9457 9.82373C42.9521 9.82373 39.7148 13.061 39.7148 17.0544C39.7148 21.0477 42.9521 24.285 46.9457 24.285C50.9388 24.285 54.1763 21.0477 54.1763 17.0544C54.1763 13.061 50.9388 9.82373 46.9457 9.82373Z" fill="#9658FA"/>
<path fill-rule="evenodd" clip-rule="evenodd" d="M15.5723 43.3739C14.4339 42.9141 13.2145 42.6883 11.9869 42.7099C10.7593 42.7316 9.54857 43.0003 8.42706 43.5C7.31131 43.9971 6.30656 44.7128 5.47209 45.6046C4.50298 46.6165 3.74379 48.1955 3.15828 49.6611C2.53438 51.2227 1.97632 53.0041 1.51813 54.6672C1.05833 56.3363 0.687214 57.9303 0.442776 59.1344C0.321248 59.7333 0.226378 60.259 0.167984 60.6604C0.139772 60.8547 0.11384 61.0617 0.101667 61.2496C0.0960553 61.3365 0.088885 61.4818 0.0983685 61.6464C0.10294 61.726 0.114571 61.8732 0.154089 62.0501C0.17874 62.1602 0.281518 62.6201 0.657385 63.0585C1.09622 63.5705 1.62297 63.731 1.75856 63.7712C1.96399 63.8325 2.13673 63.8531 2.22596 63.8617C2.4121 63.88 2.57488 63.875 2.66493 63.8709C2.86359 63.8617 3.07883 63.8371 3.2737 63.8105C3.67964 63.7552 4.20926 63.6629 4.80965 63.5436C6.01865 63.304 7.61961 62.936 9.29582 62.4784C10.9664 62.0222 12.7558 61.4654 14.3239 60.8423C15.7947 60.2576 17.381 59.4983 18.3948 58.5273C19.2867 57.6931 20.0024 56.6883 20.4995 55.5724C20.9992 54.451 21.2679 53.2405 21.2896 52.0126C21.3113 50.7852 21.0854 49.5655 20.6256 48.4272C20.1658 47.2889 19.4813 46.2544 18.6131 45.3864C17.745 44.5182 16.7108 43.8338 15.5723 43.3739Z" fill="#9658FA"/>
</g>
<defs>
<clipPath id="clip0_2222_46">
<rect width="64" height="64" fill="white"/>
</clipPath>
</defs>
</svg>
