<svg width="40" height="40" viewBox="0 0 40 40" fill="none" xmlns="http://www.w3.org/2000/svg">
<circle opacity="0.4" cx="20" cy="20" r="20" fill="#181010"/>
<path d="M18.7626 20.0006L14.2253 15.4633C14.05 15.288 13.9627 15.0814 13.9634 14.8436C13.9641 14.6057 14.0526 14.3986 14.2289 14.2223C14.4052 14.0459 14.6111 13.9586 14.8466 13.9603C15.082 13.9621 15.2874 14.0506 15.4627 14.2259L20 18.7631L24.5373 14.2259C24.7126 14.0506 24.9192 13.9633 25.157 13.964C25.3949 13.9647 25.602 14.0532 25.7783 14.2295C25.9546 14.4058 26.042 14.6117 26.0402 14.8472C26.0385 15.0826 25.95 15.288 25.7747 15.4633L21.2374 20.0006L25.7747 24.5378C25.95 24.7132 26.0373 24.9197 26.0366 25.1576C26.0359 25.3955 25.9474 25.6026 25.7711 25.7789C25.5948 25.9552 25.3889 26.0425 25.1534 26.0408C24.918 26.0391 24.7126 25.9506 24.5373 25.7753L20 21.238L15.4627 25.7753C15.2874 25.9506 15.0808 26.0379 14.843 26.0372C14.6051 26.0365 14.398 25.948 14.2217 25.7717C14.0454 25.5953 13.958 25.3894 13.9598 25.154C13.9615 24.9185 14.05 24.7132 14.2253 24.5378L18.7626 20.0006Z" fill="white"/>
</svg>
