<svg width="64" height="64" viewBox="0 0 64 64" fill="none" xmlns="http://www.w3.org/2000/svg">
<g clip-path="url(#clip0_190_766)">
<path fill-rule="evenodd" clip-rule="evenodd" d="M45.8067 3.36267C41.4971 1.2862 36.7744 0.209196 31.9907 0.211919C26.2409 0.21383 20.5987 1.7752 15.6662 4.72974C10.7334 7.68444 6.69447 11.9217 3.97948 16.9904C1.26451 22.059 -0.0248081 27.7691 0.248851 33.5125C0.503663 38.8604 2.10467 44.0507 4.89483 48.6051L0.349785 60.6975C0.0603486 61.4678 0.207055 62.3336 0.733926 62.9654C1.26079 63.5971 2.08654 63.8975 2.89607 63.7507L18.7405 60.8858C22.8517 62.7743 27.3215 63.7644 31.8514 63.7868C36.6353 63.8106 41.3629 62.7542 45.6817 60.6966C50.0005 58.639 53.7994 55.6328 56.7946 51.9025C59.7898 48.1722 61.9045 43.8142 62.9811 39.1529C64.0577 34.4916 64.0682 29.6475 63.0122 24.9815C61.9557 20.3156 59.8602 15.9483 56.881 12.205C53.9022 8.46181 50.1166 5.43923 45.8067 3.36267Z" fill="#F9AFB1"/>
<path fill-rule="evenodd" clip-rule="evenodd" d="M18.2858 36.5716C20.8105 36.5716 22.8572 34.5248 22.8572 32.0001C22.8572 29.4754 20.8105 27.4287 18.2858 27.4287C15.7611 27.4287 13.7144 29.4754 13.7144 32.0001C13.7144 34.5248 15.7611 36.5716 18.2858 36.5716ZM36.5715 32.0001C36.5715 34.5248 34.5248 36.5716 32.0001 36.5716C29.4754 36.5716 27.4286 34.5248 27.4286 32.0001C27.4286 29.4754 29.4754 27.4287 32.0001 27.4287C34.5248 27.4287 36.5715 29.4754 36.5715 32.0001ZM50.2858 32.0001C50.2858 34.5248 48.2392 36.5716 45.7144 36.5716C43.1896 36.5716 41.1429 34.5248 41.1429 32.0001C41.1429 29.4754 43.1896 27.4287 45.7144 27.4287C48.2392 27.4287 50.2858 29.4754 50.2858 32.0001Z" fill="#EE232A"/>
</g>
<defs>
<clipPath id="clip0_190_766">
<rect width="64" height="64" fill="white"/>
</clipPath>
</defs>
</svg>
