<svg width="64" height="64" viewBox="0 0 64 64" fill="none" xmlns="http://www.w3.org/2000/svg">
<g clip-path="url(#clip0_415_83)">
<path fill-rule="evenodd" clip-rule="evenodd" d="M2.28688 2.02672C3.57284 0.740759 5.317 0.0183105 7.1356 0.0183105H43.707C45.5257 0.0183105 47.27 0.740759 48.5559 2.02672C49.8418 3.31269 50.5641 5.05681 50.5641 6.87546V25.8553C45.5737 23.8708 39.0238 26.1438 37.6007 32.6449L37.4961 33.1221C36.9187 35.6925 34.8498 37.6644 32.2518 38.1165C25.8225 39.235 23.3516 45.3471 24.839 50.3039H7.1356C5.317 50.3039 3.57284 49.5816 2.28688 48.2957C1.00092 47.0097 0.278473 45.2655 0.278473 43.4469V6.87546C0.278473 5.05681 1.00092 3.31269 2.28688 2.02672Z" fill="#FFF1F1"/>
<path fill-rule="evenodd" clip-rule="evenodd" d="M33.5294 14.8534C33.5294 19.3315 29.8991 22.9618 25.4209 22.9618C20.9427 22.9618 17.3125 19.3315 17.3125 14.8534C17.3125 10.3752 20.9427 6.74487 25.4209 6.74487C29.8991 6.74487 33.5294 10.3752 33.5294 14.8534ZM25.4209 26.9937C17.9573 26.9937 11.9068 33.0442 11.9068 40.5078C11.9068 41.2542 12.5119 41.8592 13.2583 41.8592H26.1405C27.4407 40.0113 29.4778 38.599 32.2518 38.1165C34.5586 37.7152 36.4482 36.1155 37.2471 33.9627C34.9421 29.8067 30.51 26.9937 25.4209 26.9937ZM43.1828 33.8669C44.052 29.8961 49.7056 29.8715 50.6098 33.8344L50.6546 34.0321C50.6853 34.1681 50.7141 34.2948 50.7452 34.4262C51.872 39.2257 55.7559 42.893 60.6181 43.7389C64.7561 44.4587 64.7561 50.3985 60.6181 51.1185C55.7303 51.9688 51.8304 55.6708 50.7273 60.5083L50.6098 61.023C49.7056 64.986 44.052 64.9613 43.1828 60.9905L43.0861 60.5485C42.0232 55.6932 38.1283 51.9629 33.2312 51.1112C29.1017 50.3926 29.1017 44.4646 33.2312 43.7462C38.1112 42.8972 41.9961 39.1902 43.0749 34.3593L43.1468 34.0322L43.1828 33.8669Z" fill="#EE232A"/>
</g>
<defs>
<clipPath id="clip0_415_83">
<rect width="64" height="64" fill="white"/>
</clipPath>
</defs>
</svg>
