<svg width="64" height="64" viewBox="0 0 64 64" fill="none" xmlns="http://www.w3.org/2000/svg">
<g clip-path="url(#clip0_415_75)">
<path fill-rule="evenodd" clip-rule="evenodd" d="M51.2782 15.9956C50.3648 15.9956 49.4606 16.1781 48.6185 16.5324C47.782 16.8844 47.024 17.3988 46.3881 18.0458L17.8727 46.3781C17.4893 46.7594 17.2533 47.2636 17.2066 47.8021L16.018 61.5164C15.9598 62.1889 16.2017 62.8527 16.679 63.3304C17.1563 63.8076 17.8201 64.0495 18.4926 63.9909L32.2069 62.8024C32.7454 62.7557 33.2499 62.5199 33.631 62.1363L61.9621 33.6225L61.9689 33.6157C62.6085 32.9796 63.1159 32.2236 63.4629 31.391C63.8112 30.5554 63.9904 29.6591 63.9904 28.7539C63.9904 27.8487 63.8112 26.9524 63.4629 26.1168C63.1164 25.2844 62.6085 24.5287 61.9694 23.8927L56.181 18.0588L56.1742 18.0521C55.5369 17.4021 54.7767 16.8855 53.9378 16.5324C53.0958 16.1781 52.1916 15.9956 51.2782 15.9956Z" fill="#FDF2F5"/>
<path fill-rule="evenodd" clip-rule="evenodd" d="M20.4851 2.95895C19.5813 -1.00403 13.9275 -0.97932 13.0582 2.99141L13.0222 3.15679L12.9503 3.48385C11.8715 8.31468 7.98666 12.0217 3.10662 12.8707C-1.0229 13.5891 -1.02287 19.5172 3.10662 20.2356C8.00371 21.0876 11.8986 24.8176 12.9616 29.6732L13.0582 30.115C13.9275 34.0857 19.5813 34.1104 20.4851 30.1474L20.6026 29.6326C21.7059 24.7953 25.6055 21.0934 30.4936 20.243C34.6313 19.5231 34.6313 13.5833 30.4936 12.8634C25.6315 12.0175 21.7473 8.3502 20.6203 3.55067C20.5895 3.41926 20.5608 3.29272 20.53 3.15665L20.4851 2.95895Z" fill="#EF4570"/>
</g>
<defs>
<clipPath id="clip0_415_75">
<rect width="64" height="64" fill="white"/>
</clipPath>
</defs>
</svg>
