<svg width="165" height="199" viewBox="0 0 165 199" fill="none" xmlns="http://www.w3.org/2000/svg">
<path d="M64.5513 2.43833C64.7934 1.36062 64.116 0.290711 63.0383 0.0486253C61.9605 -0.19346 60.8906 0.483951 60.6485 1.56167L64.5513 2.43833ZM66.6347 79.7979L68.547 79.2122L68.5352 79.1738L68.522 79.1359L66.6347 79.7979ZM36.3737 174.772L36.4848 176.769L36.5342 176.766L36.5834 176.761L36.3737 174.772ZM2.07808 132.337L0.108739 131.988L0.0860398 132.116L0.0801399 132.246L2.07808 132.337ZM94.8782 88.8912L95.3501 86.9477L95.3429 86.9459L95.3356 86.9442L94.8782 88.8912ZM146.739 198.2C147.402 199.084 148.656 199.263 149.539 198.6L163.937 187.796C164.82 187.133 164.999 185.88 164.336 184.996C163.673 184.113 162.42 183.934 161.536 184.597L148.738 194.2L139.135 181.402C138.472 180.519 137.219 180.34 136.335 181.003C135.452 181.666 135.273 182.919 135.936 183.803L146.739 198.2ZM59.8633 5.5007C59.67 6.58822 60.3949 7.62654 61.4824 7.81986C62.5699 8.01317 63.6082 7.28827 63.8015 6.20075L59.8633 5.5007ZM62.6841 13.8858C62.8125 12.7888 62.0272 11.7953 60.9301 11.6669C59.8331 11.5385 58.8396 12.3237 58.7112 13.4208L62.6841 13.8858ZM57.9762 21.3501C57.8998 22.452 58.7311 23.4073 59.833 23.4837C60.935 23.5601 61.8902 22.7288 61.9666 21.6269L57.9762 21.3501ZM61.6006 29.4107C61.6281 28.3065 60.7552 27.3891 59.651 27.3616C58.5468 27.3341 57.6293 28.207 57.6018 29.3112L61.6006 29.4107ZM57.5804 37.2768C57.6021 38.3812 58.5151 39.2588 59.6194 39.237C60.7238 39.2153 61.6014 38.3023 61.5796 37.198L57.5804 37.2768ZM61.9126 44.9716C61.8393 43.8695 60.8865 43.0354 59.7843 43.1087C58.6822 43.182 57.8481 44.1348 57.9214 45.237L61.9126 44.9716ZM58.6471 53.1791C58.7755 54.2761 59.769 55.0614 60.866 54.933C61.9631 54.8046 62.7484 53.8111 62.62 52.714L58.6471 53.1791ZM63.7307 60.4008C63.5423 59.3124 62.5073 58.5828 61.4189 58.7712C60.3305 58.9596 59.6009 59.9946 59.7893 61.083L63.7307 60.4008ZM61.3881 68.9198C61.6423 69.9947 62.7197 70.66 63.7946 70.4059C64.8696 70.1517 65.5349 69.0742 65.2807 67.9993L61.3881 68.9198ZM67.3116 75.4663C66.9849 74.4112 65.8647 73.8206 64.8095 74.1473C63.7544 74.4739 63.1638 75.5941 63.4905 76.6493L67.3116 75.4663ZM65.8385 84.2372C66.1301 85.3025 67.2302 85.9297 68.2956 85.6381C69.361 85.3464 69.9882 84.2463 69.6965 83.181L65.8385 84.2372ZM71.6679 91.2354C71.4335 90.156 70.3685 89.4709 69.2891 89.7053C68.2097 89.9396 67.5246 91.0046 67.759 92.0841L71.6679 91.2354ZM69.2711 100.018C69.4502 101.108 70.4789 101.847 71.5688 101.668C72.6588 101.489 73.3973 100.46 73.2182 99.3701L69.2711 100.018ZM74.3456 107.576C74.2248 106.478 73.2368 105.686 72.1388 105.806C71.0409 105.927 70.2488 106.915 70.3697 108.013L74.3456 107.576ZM71.0204 116.048C71.0764 117.152 72.0161 118 73.1193 117.944C74.2224 117.888 75.0713 116.949 75.0152 115.845L71.0204 116.048ZM75.1614 124.159C75.1807 123.055 74.301 122.144 73.1966 122.125C72.0922 122.105 71.1813 122.985 71.162 124.089L75.1614 124.159ZM70.7049 132.088C70.5951 133.187 71.3971 134.167 72.4962 134.277C73.5953 134.387 74.5753 133.585 74.6851 132.486L70.7049 132.088ZM73.4437 140.77C73.6651 139.688 72.9673 138.631 71.8851 138.41C70.803 138.189 69.7462 138.886 69.5248 139.969L73.4437 140.77ZM67.4565 147.609C67.0958 148.653 67.6498 149.792 68.6938 150.153C69.7378 150.513 70.8765 149.96 71.2372 148.916L67.4565 147.609ZM67.8196 156.702C68.3504 155.733 67.9953 154.518 67.0266 153.987C66.0579 153.456 64.8424 153.811 64.3116 154.78L67.8196 156.702ZM59.9228 161.155C59.2015 161.992 59.2949 163.255 60.1314 163.976C60.9679 164.697 62.2308 164.604 62.9521 163.767L59.9228 161.155ZM56.5856 169.592C57.4842 168.95 57.692 167.701 57.0497 166.802C56.4074 165.903 55.1583 165.696 54.2596 166.338L56.5856 169.592ZM47.5102 170.039C46.4872 170.455 45.9956 171.622 46.4122 172.645C46.8288 173.668 47.9958 174.16 49.0188 173.743L47.5102 170.039ZM40.796 176.143C41.8811 175.937 42.5934 174.89 42.387 173.804C42.1805 172.719 41.1335 172.007 40.0484 172.213L40.796 176.143ZM32.6508 172.719C31.5498 172.63 30.585 173.45 30.4958 174.551C30.4065 175.652 31.2267 176.617 32.3277 176.706L32.6508 172.719ZM24.2583 175.077C25.3083 175.42 26.4374 174.847 26.7803 173.797C27.1231 172.747 26.5498 171.618 25.4998 171.275L24.2583 175.077ZM18.8962 168.207C17.9589 167.622 16.7253 167.908 16.1409 168.846C15.5564 169.783 15.8424 171.016 16.7797 171.601L18.8962 168.207ZM10.375 166.368C11.1339 167.171 12.3997 167.206 13.2023 166.447C14.0049 165.688 14.0402 164.422 13.2813 163.62L10.375 166.368ZM8.98465 157.756C8.44378 156.792 7.22458 156.45 6.2615 156.991C5.29841 157.532 4.95615 158.751 5.49702 159.714L8.98465 157.756ZM2.2832 152.18C2.61129 153.235 3.73228 153.824 4.787 153.496C5.84171 153.168 6.43076 152.047 6.10267 150.992L2.2832 152.18ZM4.51686 143.724C4.36771 142.63 3.35956 141.863 2.26511 142.013C1.17066 142.162 0.404343 143.17 0.553497 144.264L4.51686 143.724ZM0.00199234 136.255C0.0102199 137.359 0.912295 138.248 2.01683 138.24C3.12137 138.231 4.01011 137.329 4.00188 136.225L0.00199234 136.255ZM4.91838 128.848C5.211 127.783 4.58477 126.682 3.51966 126.39C2.45455 126.097 1.35391 126.723 1.06129 127.789L4.91838 128.848ZM3.97365 119.758C3.51928 120.765 3.9671 121.949 4.97389 122.403C5.98068 122.858 7.16518 122.41 7.61955 121.403L3.97365 119.758ZM11.4065 114.407C12.0003 113.476 11.7267 112.24 10.7953 111.646C9.86395 111.052 8.62753 111.326 8.03371 112.257L11.4065 114.407ZM13.1168 105.412C12.3968 106.249 12.4922 107.512 13.3299 108.232C14.1676 108.952 15.4303 108.857 16.1503 108.019L13.1168 105.412ZM21.7578 102.369C22.5901 101.643 22.6762 100.38 21.95 99.5475C21.2239 98.7152 19.9605 98.6291 19.1281 99.3552L21.7578 102.369ZM25.9288 94.2273C25.002 94.8282 24.7378 96.0667 25.3388 96.9935C25.9397 97.9203 27.1782 98.1845 28.105 97.5835L25.9288 94.2273ZM35.0817 93.7181C36.0821 93.2497 36.5133 92.0591 36.0449 91.0587C35.5766 90.0584 34.3859 89.6271 33.3856 90.0955L35.0817 93.7181ZM41.2931 87.0005C40.2412 87.3375 39.6616 88.4634 39.9986 89.5153C40.3355 90.5672 41.4614 91.1468 42.5134 90.8099L41.2931 87.0005ZM50.2707 88.8215C51.3545 88.6085 52.0605 87.5572 51.8475 86.4733C51.6345 85.3895 50.5832 84.6836 49.4993 84.8966L50.2707 88.8215ZM57.8713 83.7037C56.7713 83.8043 55.9611 84.7775 56.0616 85.8775C56.1622 86.9775 57.1354 87.7877 58.2354 87.6871L57.8713 83.7037ZM66.2827 87.3233C67.3873 87.3219 68.2815 86.4253 68.2801 85.3207C68.2786 84.2161 67.382 83.3219 66.2775 83.3233L66.2827 87.3233ZM74.6594 83.6473C73.5581 83.5626 72.5966 84.3867 72.5118 85.488C72.4271 86.5893 73.2512 87.5508 74.3526 87.6355L74.6594 83.6473ZM82.4341 88.5416C83.5271 88.701 84.5424 87.9443 84.7019 86.8513C84.8614 85.7583 84.1046 84.743 83.0116 84.5835L82.4341 88.5416ZM91.2242 86.0358C90.1425 85.8122 89.0843 86.5078 88.8607 87.5895C88.6371 88.6712 89.3327 89.7293 90.4144 89.953L91.2242 86.0358ZM98.1935 91.9374C99.2402 92.2903 100.375 91.728 100.728 90.6813C101.081 89.6346 100.518 88.5 99.4716 88.1471L98.1935 91.9374ZM107.348 91.4552C106.36 90.9596 105.158 91.3582 104.663 92.3454C104.167 93.3326 104.566 94.5346 105.553 95.0301L107.348 91.4552ZM112.475 99.0528C113.395 99.6635 114.636 99.4125 115.247 98.4921C115.858 97.5717 115.607 96.3305 114.686 95.7198L112.475 99.0528ZM121.472 100.802C120.627 100.091 119.365 100.2 118.655 101.046C117.944 101.891 118.053 103.153 118.899 103.864L121.472 100.802ZM124.759 109.367C125.521 110.166 126.787 110.195 127.586 109.432C128.385 108.67 128.415 107.404 127.652 106.605L124.759 109.367ZM133.169 113.042C132.496 112.167 131.24 112.002 130.365 112.676C129.489 113.349 129.325 114.604 129.998 115.48L133.169 113.042ZM134.562 122.104C135.141 123.044 136.373 123.337 137.314 122.758C138.254 122.179 138.547 120.947 137.968 120.007L134.562 122.104ZM142.035 127.419C141.552 126.426 140.356 126.012 139.362 126.495C138.369 126.978 137.955 128.175 138.438 129.168L142.035 127.419ZM141.619 136.587C142.007 137.621 143.16 138.145 144.194 137.758C145.228 137.37 145.753 136.217 145.365 135.183L141.619 136.587ZM147.967 143.189C147.671 142.125 146.569 141.502 145.505 141.797C144.44 142.093 143.817 143.195 144.113 144.26L147.967 143.189ZM145.957 152.137C146.165 153.221 147.214 153.931 148.298 153.723C149.383 153.514 150.093 152.466 149.885 151.381L145.957 152.137ZM151.162 159.708C151.035 158.611 150.042 157.825 148.945 157.953C147.848 158.08 147.062 159.073 147.189 160.17L151.162 159.708ZM147.848 168.243C147.902 169.346 148.839 170.197 149.942 170.144C151.046 170.09 151.897 169.152 151.843 168.049L147.848 168.243ZM151.988 176.439C152.002 175.335 151.119 174.428 150.014 174.414C148.91 174.4 148.003 175.283 147.988 176.388L151.988 176.439ZM147.654 184.529C147.579 185.631 148.411 186.586 149.513 186.661C150.615 186.736 151.57 185.904 151.645 184.802L147.654 184.529ZM150.865 193.107C150.995 192.01 150.212 191.015 149.115 190.885C148.018 190.754 147.023 191.538 146.893 192.635L150.865 193.107ZM60.6485 1.56167C60.3854 2.73334 60.1208 4.05173 59.8633 5.5007L63.8015 6.20075C64.0499 4.80361 64.3028 3.54459 64.5513 2.43833L60.6485 1.56167ZM58.7112 13.4208C58.4234 15.8794 58.1715 18.5348 57.9762 21.3501L61.9666 21.6269C62.1575 18.8749 62.4036 16.2822 62.6841 13.8858L58.7112 13.4208ZM57.6018 29.3112C57.5378 31.8838 57.5265 34.5462 57.5804 37.2768L61.5796 37.198C61.527 34.5294 61.538 31.9265 61.6006 29.4107L57.6018 29.3112ZM57.9214 45.237C58.0951 47.849 58.3337 50.502 58.6471 53.1791L62.62 52.714C62.3148 50.107 62.0821 47.5206 61.9126 44.9716L57.9214 45.237ZM59.7893 61.083C60.2409 63.6925 60.7709 66.3099 61.3881 68.9198L65.2807 67.9993C64.6833 65.4729 64.1693 62.9352 63.7307 60.4008L59.7893 61.083ZM63.4905 76.6493C63.8856 77.9255 64.3042 79.1963 64.7474 80.4599L68.522 79.1359C68.0956 77.9204 67.6925 76.6967 67.3116 75.4663L63.4905 76.6493ZM64.7224 80.3837C65.0996 81.615 65.4729 82.9016 65.8385 84.2372L69.6965 83.181C69.3206 81.8078 68.9362 80.4827 68.547 79.2122L64.7224 80.3837ZM67.759 92.0841C68.3127 94.6344 68.823 97.29 69.2711 100.018L73.2182 99.3701C72.7587 96.5725 72.2356 93.8501 71.6679 91.2354L67.759 92.0841ZM70.3697 108.013C70.6616 110.666 70.8835 113.353 71.0204 116.048L75.0152 115.845C74.8741 113.066 74.6456 110.301 74.3456 107.576L70.3697 108.013ZM71.162 124.089C71.1149 126.785 70.9674 129.46 70.7049 132.088L74.6851 132.486C74.9594 129.739 75.1126 126.954 75.1614 124.159L71.162 124.089ZM69.5248 139.969C68.9839 142.613 68.2996 145.169 67.4565 147.609L71.2372 148.916C72.1434 146.293 72.8717 143.566 73.4437 140.77L69.5248 139.969ZM64.3116 154.78C63.0501 157.083 61.5932 159.218 59.9228 161.155L62.9521 163.767C64.8214 161.6 66.4351 159.229 67.8196 156.702L64.3116 154.78ZM54.2596 166.338C52.2406 167.781 49.9984 169.026 47.5102 170.039L49.0188 173.743C51.7921 172.614 54.3092 171.219 56.5856 169.592L54.2596 166.338ZM40.0484 172.213C38.8028 172.45 37.5086 172.641 36.164 172.783L36.5834 176.761C38.0341 176.608 39.4379 176.401 40.796 176.143L40.0484 172.213ZM36.2626 172.775C35.164 172.836 33.9485 172.824 32.6508 172.719L32.3277 176.706C33.7995 176.826 35.1973 176.841 36.4848 176.769L36.2626 172.775ZM25.4998 171.275C23.2915 170.554 21.052 169.551 18.8962 168.207L16.7797 171.601C19.2325 173.13 21.7697 174.265 24.2583 175.077L25.4998 171.275ZM13.2813 163.62C11.7071 161.955 10.2527 160.013 8.98465 157.756L5.49702 159.714C6.92674 162.26 8.57679 164.466 10.375 166.368L13.2813 163.62ZM6.10267 150.992C5.41822 148.792 4.8782 146.376 4.51686 143.724L0.553497 144.264C0.942985 147.122 1.52911 149.756 2.2832 152.18L6.10267 150.992ZM4.00188 136.225C3.99275 134.999 4.01674 133.734 4.07603 132.427L0.0801399 132.246C0.0177705 133.621 -0.00767779 134.956 0.00199234 136.255L4.00188 136.225ZM4.04743 132.686C4.26309 131.468 4.55151 130.184 4.91838 128.848L1.06129 127.789C0.662904 129.239 0.346806 130.644 0.108739 131.988L4.04743 132.686ZM7.61955 121.403C8.6597 119.098 9.91568 116.746 11.4065 114.407L8.03371 112.257C6.4368 114.762 5.09023 117.284 3.97365 119.758L7.61955 121.403ZM16.1503 108.019C17.8272 106.068 19.6923 104.171 21.7578 102.369L19.1281 99.3552C16.9137 101.287 14.9142 103.32 13.1168 105.412L16.1503 108.019ZM28.105 97.5835C30.2617 96.1851 32.5843 94.8875 35.0817 93.7181L33.3856 90.0955C30.7209 91.3432 28.2381 92.73 25.9288 94.2273L28.105 97.5835ZM42.5134 90.8099C44.9584 90.0267 47.5422 89.3577 50.2707 88.8215L49.4993 84.8966C46.6217 85.4621 43.888 86.1694 41.2931 87.0005L42.5134 90.8099ZM58.2354 87.6871C60.8056 87.4522 63.4867 87.327 66.2827 87.3233L66.2775 83.3233C63.3654 83.3271 60.5644 83.4576 57.8713 83.7037L58.2354 87.6871ZM74.3526 87.6355C76.9571 87.8359 79.6501 88.1354 82.4341 88.5416L83.0116 84.5835C80.1409 84.1646 77.3575 83.8549 74.6594 83.6473L74.3526 87.6355ZM90.4144 89.953C91.7313 90.2252 93.0667 90.52 94.4207 90.8382L95.3356 86.9442C93.9472 86.618 92.5768 86.3154 91.2242 86.0358L90.4144 89.953ZM94.4062 90.8347C95.6065 91.1262 96.8733 91.4922 98.1935 91.9374L99.4716 88.1471C98.047 87.6667 96.6687 87.2679 95.3501 86.9477L94.4062 90.8347ZM105.553 95.0301C107.81 96.1632 110.134 97.4994 112.475 99.0528L114.686 95.7198C112.21 94.0769 109.748 92.66 107.348 91.4552L105.553 95.0301ZM118.899 103.864C120.881 105.53 122.844 107.362 124.759 109.367L127.652 106.605C125.634 104.492 123.564 102.56 121.472 100.802L118.899 103.864ZM129.998 115.48C131.585 117.544 133.113 119.75 134.562 122.104L137.968 120.007C136.446 117.534 134.839 115.214 133.169 113.042L129.998 115.48ZM138.438 129.168C139.58 131.517 140.646 133.989 141.619 136.587L145.365 135.183C144.347 132.467 143.233 129.881 142.035 127.419L138.438 129.168ZM144.113 144.26C144.813 146.781 145.431 149.405 145.957 152.137L149.885 151.381C149.339 148.545 148.697 145.815 147.967 143.189L144.113 144.26ZM147.189 160.17C147.492 162.774 147.714 165.464 147.848 168.243L151.843 168.049C151.705 165.182 151.475 162.403 151.162 159.708L147.189 160.17ZM147.988 176.388C147.954 179.028 147.845 181.742 147.654 184.529L151.645 184.802C151.84 181.942 151.953 179.155 151.988 176.439L147.988 176.388ZM146.893 192.635C146.733 193.98 146.555 195.341 146.359 196.718L150.319 197.282C150.52 195.875 150.702 194.483 150.865 193.107L146.893 192.635Z" fill="#352727"/>
</svg>
