<svg width="64" height="64" viewBox="0 0 64 64" fill="none" xmlns="http://www.w3.org/2000/svg">
<path d="M22.8574 34.286C30.4315 34.286 36.5716 28.1459 36.5716 20.5717C36.5716 12.9975 30.4315 6.85742 22.8574 6.85742C15.2832 6.85742 9.14307 12.9975 9.14307 20.5717C9.14307 28.1459 15.2832 34.286 22.8574 34.286Z" fill="#F9AFB1"/>
<path d="M0 61.7146C0 49.091 10.2335 38.8574 22.8571 38.8574C35.4808 38.8574 45.7143 49.091 45.7143 61.7146C45.7143 62.9767 44.6909 64.0003 43.4286 64.0003H2.28571C1.02335 64.0003 0 62.9767 0 61.7146Z" fill="#F9AFB1"/>
<path fill-rule="evenodd" clip-rule="evenodd" d="M51.0969 64.0001H61.7141C62.9762 64.0001 63.9998 62.9766 63.9998 61.7144C63.9998 49.0909 53.7662 38.8573 41.1426 38.8573C40.7721 38.8573 40.4037 38.8661 40.0374 38.8835C46.9557 44.0978 51.4284 52.3837 51.4284 61.7144C51.4284 62.5085 51.3127 63.276 51.0969 64.0001ZM37.1758 33.7035C38.4316 34.0823 39.7633 34.286 41.1426 34.286C48.717 34.286 54.8569 28.1459 54.8569 20.5717C54.8569 12.9975 48.717 6.85742 41.1426 6.85742C39.7633 6.85742 38.4316 7.06103 37.1758 7.43987C40.3488 10.8979 42.2855 15.5086 42.2855 20.5717C42.2855 25.6348 40.3488 30.2455 37.1758 33.7035Z" fill="#EE232A"/>
</svg>
