<svg width="64" height="64" viewBox="0 0 64 64" fill="none" xmlns="http://www.w3.org/2000/svg">
<g clip-path="url(#clip0_190_748)">
<path d="M38.8569 2.28588C38.8569 1.28468 38.2053 0.400002 37.2491 0.103032C36.293 -0.193938 35.2548 0.165925 34.6876 0.990962L9.54476 37.5624C9.06389 38.2619 9.01023 39.1702 9.40538 39.9214C9.80053 40.6726 10.5795 41.143 11.4283 41.143H25.1426V61.7146C25.1426 62.7157 25.7942 63.6003 26.7503 63.8974C27.7065 64.1941 28.7446 63.8343 29.3118 63.0092L54.4546 26.4379C54.9355 25.7385 54.9894 24.8301 54.594 24.0789C54.199 23.3277 53.4201 22.8573 52.5711 22.8573H38.8569V2.28588Z" fill="#F9AFB1"/>
</g>
<defs>
<clipPath id="clip0_190_748">
<rect width="64" height="64" fill="white"/>
</clipPath>
</defs>
</svg>
