<svg width="32" height="32" viewBox="0 0 32 32" fill="none" xmlns="http://www.w3.org/2000/svg">
<path d="M30.8453 14C31.5598 15.2376 31.5598 16.7624 30.8453 18L25.1547 27.8564C24.4402 29.094 23.1197 29.8564 21.6906 29.8564L10.3094 29.8564C8.88034 29.8564 7.55983 29.094 6.8453 27.8564L1.1547 18C0.440168 16.7624 0.44017 15.2376 1.1547 14L6.8453 4.14359C7.55983 2.90599 8.88034 2.14359 10.3094 2.14359L21.6906 2.14359C23.1197 2.14359 24.4402 2.90599 25.1547 4.14359L30.8453 14Z" fill="#EE232A"/>
<mask id="mask0_748_2507" style="mask-type:alpha" maskUnits="userSpaceOnUse" x="5" y="5" width="22" height="22">
<rect x="9.55469" y="5.0249" width="18" height="18" transform="rotate(14.5732 9.55469 5.0249)" fill="#D9D9D9"/>
</mask>
<g mask="url(#mask0_748_2507)">
<path d="M20.3085 14.3303L10.3395 20.1853C10.1718 20.2838 9.98517 20.3063 9.77951 20.2528C9.57384 20.1993 9.42177 20.0888 9.32329 19.9211C9.22482 19.7534 9.20231 19.5668 9.25578 19.3611C9.30925 19.1554 9.41982 19.0034 9.58749 18.9049L19.5564 13.0499L15.4916 11.9931C15.2859 11.9396 15.1316 11.8252 15.0286 11.6499C14.9257 11.4746 14.9009 11.2842 14.9544 11.0785C15.0079 10.8728 15.1223 10.7185 15.2976 10.6156C15.4729 10.5126 15.6633 10.4879 15.869 10.5413L21.676 12.051C21.8816 12.1045 22.0359 12.2189 22.1389 12.3942C22.2418 12.5695 22.2666 12.7599 22.2131 12.9656L20.7034 18.7726C20.6499 18.9782 20.5356 19.1325 20.3603 19.2355C20.185 19.3385 19.9945 19.3632 19.7888 19.3097C19.5832 19.2563 19.4289 19.1419 19.3259 18.9666C19.2229 18.7913 19.1982 18.6008 19.2517 18.3951L20.3085 14.3303Z" fill="white"/>
</g>
</svg>
