<svg width="36" height="36" viewBox="0 0 36 36" fill="none" xmlns="http://www.w3.org/2000/svg">
<rect x="0.5" y="0.5" width="35" height="35" rx="7.5" fill="white" stroke="#EAE1E1"/>
<path fill-rule="evenodd" clip-rule="evenodd" d="M9.42857 13C8.63959 13 8 13.6396 8 14.4286C8 15.2175 8.63959 15.8571 9.42857 15.8571H26.5714C27.3604 15.8571 28 15.2175 28 14.4286C28 13.6396 27.3604 13 26.5714 13H9.42857ZM9.42857 20.1429C8.63959 20.1429 8 20.7825 8 21.5714C8 22.3604 8.63959 23 9.42857 23H26.5714C27.3604 23 28 22.3604 28 21.5714C28 20.7825 27.3604 20.1429 26.5714 20.1429H9.42857Z" fill="#181010"/>
</svg>
