<svg width="56" height="56" viewBox="0 0 56 56" fill="none" xmlns="http://www.w3.org/2000/svg">
<circle cx="28" cy="28" r="27.5" fill="#FBF9F9" stroke="#EE232A"/>
<path d="M21.4977 29.0188C21.3146 28.8939 21.1774 28.7443 21.0861 28.5701C20.9945 28.3957 20.9487 28.2059 20.9487 28.0008C20.9487 27.7957 20.9945 27.6059 21.0861 27.4315C21.1774 27.2572 21.3146 27.1077 21.4977 26.9828L30.8257 21.0444C30.9264 20.9862 31.0322 20.9427 31.1431 20.9138C31.2537 20.8847 31.3594 20.8701 31.4601 20.8701C31.7825 20.8701 32.0642 20.9829 32.3051 21.2084C32.5462 21.4342 32.6667 21.7231 32.6667 22.0751V33.9265C32.6667 34.2785 32.546 34.5673 32.3044 34.7931C32.0628 35.0187 31.781 35.1315 31.4587 35.1315C31.3581 35.1315 31.2525 35.1169 31.1421 35.0878C31.0316 35.0589 30.9262 35.0153 30.8257 34.9571L21.4977 29.0188Z" fill="#EE232A"/>
</svg>
