<svg width="64" height="64" viewBox="0 0 64 64" fill="none" xmlns="http://www.w3.org/2000/svg">
<g clip-path="url(#clip0_2222_335)">
<path d="M29.7143 0C13.3035 0 0 13.3035 0 29.7143C0 46.1253 13.3035 59.4286 29.7143 59.4286C46.1253 59.4286 59.4286 46.1253 59.4286 29.7143C59.4286 13.3035 46.1253 0 29.7143 0Z" fill="#F0F8FF"/>
<path fill-rule="evenodd" clip-rule="evenodd" d="M6.85714 29.7143C6.85714 17.0907 17.0907 6.85714 29.7143 6.85714C42.3379 6.85714 52.5714 17.0907 52.5714 29.7143C52.5714 42.3379 42.3379 52.5714 29.7143 52.5714C17.0907 52.5714 6.85714 42.3379 6.85714 29.7143ZM29.7143 0C13.3035 0 0 13.3035 0 29.7143C0 46.1253 13.3035 59.4286 29.7143 59.4286C36.2702 59.4286 42.3302 57.3056 47.2443 53.7093L56.197 62.6619C57.9826 64.4471 60.8768 64.4471 62.6619 62.6619C64.4475 60.8768 64.4475 57.9822 62.6619 56.197L53.7093 47.2443C57.3056 42.3302 59.4286 36.2702 59.4286 29.7143C59.4286 13.3035 46.1253 0 29.7143 0Z" fill="#099CEE"/>
<path fill-rule="evenodd" clip-rule="evenodd" d="M33.2062 17.8313C32.3495 14.0752 26.9909 14.0987 26.167 17.8621L26.1354 18.0072L26.0735 18.2889C25.1621 22.3702 21.88 25.502 17.7572 26.2193C13.8374 26.9012 13.8374 32.5282 17.7572 33.2101C21.8944 33.9299 25.185 37.0811 26.083 41.1833L26.167 41.5673C26.9909 45.3307 32.3495 45.3542 33.2062 41.5981L33.3083 41.1506C34.2405 37.0632 37.5357 33.935 41.6661 33.2165C45.5929 32.5333 45.5929 26.8961 41.6661 26.2129C37.5576 25.4982 34.2755 22.3993 33.3233 18.3438C33.2968 18.2307 33.2722 18.1224 33.2456 18.0048L33.2062 17.8313Z" fill="#099CEE"/>
</g>
<defs>
<clipPath id="clip0_2222_335">
<rect width="64" height="64" fill="white"/>
</clipPath>
</defs>
</svg>
