<svg width="20" height="20" viewBox="0 0 20 20" fill="none" xmlns="http://www.w3.org/2000/svg">
<g clip-path="url(#clip0_758_5788)">
<path d="M15.8333 1H4.16667C1.86917 1 0 2.86917 0 5.16667V15.1667C0 17.4642 1.86917 19.3333 4.16667 19.3333H15.8333C18.1308 19.3333 20 17.4642 20 15.1667V5.16667C20 2.86917 18.1308 1 15.8333 1Z" fill="#EE232A"/>
<path d="M15.8333 1H4.16667C1.86917 1 0 2.86917 0 5.16667V15.1667C0 17.4642 1.86917 19.3333 4.16667 19.3333H15.8333C18.1308 19.3333 20 17.4642 20 15.1667V5.16667C20 2.86917 18.1308 1 15.8333 1ZM5.41667 15.5833C5.25246 15.5833 5.08987 15.5509 4.93818 15.488C4.7865 15.4251 4.64868 15.333 4.53261 15.2168C4.41654 15.1006 4.32448 14.9628 4.26169 14.811C4.1989 14.6593 4.16661 14.4967 4.16667 14.3325C4.16672 14.1683 4.19912 14.0057 4.26201 13.854C4.3249 13.7023 4.41705 13.5645 4.5332 13.4484C4.64935 13.3324 4.78723 13.2403 4.93895 13.1775C5.09068 13.1147 5.25329 13.0824 5.4175 13.0825C5.74913 13.0826 6.06714 13.2145 6.30156 13.449C6.53598 13.6836 6.66761 14.0017 6.6675 14.3333C6.66739 14.665 6.53554 14.983 6.30097 15.2174C6.06639 15.4518 5.7483 15.5834 5.41667 15.5833ZM5.41667 11.4167C5.08504 11.4166 4.76703 11.2847 4.53261 11.0501C4.29819 10.8156 4.16656 10.4975 4.16667 10.1658C4.16678 9.8342 4.29862 9.5162 4.5332 9.28178C4.76778 9.04736 5.08587 8.91572 5.4175 8.91583C5.74913 8.91594 6.06714 9.04779 6.30156 9.28237C6.53598 9.51694 6.66761 9.83504 6.6675 10.1667C6.66739 10.4983 6.53554 10.8163 6.30097 11.0507C6.06639 11.2851 5.7483 11.4168 5.41667 11.4167ZM5.41667 7.25C5.08504 7.24989 4.76703 7.11804 4.53261 6.88347C4.29819 6.64889 4.16656 6.3308 4.16667 5.99917C4.16678 5.66754 4.29862 5.34953 4.5332 5.11511C4.76778 4.88069 5.08587 4.74906 5.4175 4.74917C5.74913 4.74928 6.06714 4.88112 6.30156 5.1157C6.53598 5.35028 6.66761 5.66837 6.6675 6C6.66739 6.33163 6.53554 6.64964 6.30097 6.88406C6.06639 7.11848 5.7483 7.25011 5.41667 7.25ZM15 15.1667H9.16667C8.94565 15.1667 8.73369 15.0789 8.57741 14.9226C8.42113 14.7663 8.33333 14.5543 8.33333 14.3333C8.33333 14.1123 8.42113 13.9004 8.57741 13.7441C8.73369 13.5878 8.94565 13.5 9.16667 13.5H15C15.221 13.5 15.433 13.5878 15.5893 13.7441C15.7455 13.9004 15.8333 14.1123 15.8333 14.3333C15.8333 14.5543 15.7455 14.7663 15.5893 14.9226C15.433 15.0789 15.221 15.1667 15 15.1667ZM15 11H9.16667C8.94565 11 8.73369 10.9122 8.57741 10.7559C8.42113 10.5996 8.33333 10.3877 8.33333 10.1667C8.33333 9.94565 8.42113 9.73369 8.57741 9.57741C8.73369 9.42113 8.94565 9.33333 9.16667 9.33333H15C15.221 9.33333 15.433 9.42113 15.5893 9.57741C15.7455 9.73369 15.8333 9.94565 15.8333 10.1667C15.8333 10.3877 15.7455 10.5996 15.5893 10.7559C15.433 10.9122 15.221 11 15 11ZM15 6.83333H9.16667C8.94565 6.83333 8.73369 6.74554 8.57741 6.58926C8.42113 6.43298 8.33333 6.22101 8.33333 6C8.33333 5.77899 8.42113 5.56703 8.57741 5.41074C8.73369 5.25446 8.94565 5.16667 9.16667 5.16667H15C15.221 5.16667 15.433 5.25446 15.5893 5.41074C15.7455 5.56703 15.8333 5.77899 15.8333 6C15.8333 6.22101 15.7455 6.43298 15.5893 6.58926C15.433 6.74554 15.221 6.83333 15 6.83333Z" fill="#FFDFE0"/>
</g>
<defs>
<clipPath id="clip0_758_5788">
<rect width="20" height="20" fill="white"/>
</clipPath>
</defs>
</svg>
