<svg width="20" height="20" viewBox="0 0 20 20" fill="none" xmlns="http://www.w3.org/2000/svg">
<g clip-path="url(#clip0_758_5780)">
<path fill-rule="evenodd" clip-rule="evenodd" d="M0.121094 1.55655C0.121094 0.780758 0.749995 0.151855 1.52578 0.151855H7.49572C8.27152 0.151855 8.90042 0.780758 8.90042 1.55655V7.52649C8.90042 8.30228 8.27152 8.93118 7.49572 8.93118H1.52578C0.749995 8.93118 0.121094 8.30228 0.121094 7.52649V1.55655ZM1.52579 11.0684C0.749997 11.0684 0.121094 11.6973 0.121094 12.4731V18.4431C0.121094 19.2188 0.749997 19.8478 1.52579 19.8478H7.49572C8.27152 19.8478 8.90042 19.2188 8.90042 18.4431V12.4731C8.90042 11.6973 8.27152 11.0684 7.49572 11.0684H1.52579ZM12.4423 11.0684C11.6665 11.0684 11.0376 11.6973 11.0376 12.4731V18.4431C11.0376 19.2188 11.6665 19.8478 12.4423 19.8478H18.4122C19.1881 19.8478 19.817 19.2188 19.817 18.4431V12.4731C19.817 11.6973 19.1881 11.0684 18.4122 11.0684H12.4423Z" fill="#FFDFE0"/>
<path fill-rule="evenodd" clip-rule="evenodd" d="M16.3854 1.04144C16.1194 -0.12515 14.455 -0.117875 14.1992 1.051L14.1895 1.0956L14.1705 1.1821C13.8915 2.43146 12.8867 3.39018 11.6247 3.60975C10.407 3.82159 10.407 5.56956 11.6247 5.78141C12.8911 6.00173 13.8985 6.96639 14.1734 8.22216L14.1992 8.34015C14.455 9.50902 16.1194 9.51631 16.3854 8.34971L16.4169 8.21221C16.7022 6.96093 17.711 6.00332 18.9754 5.78335C20.1952 5.57113 20.1952 3.82002 18.9754 3.60781C17.7177 3.38899 16.7129 2.44035 16.4214 1.19885C16.4133 1.16415 16.4057 1.13098 16.3976 1.09486L16.3854 1.04144Z" fill="#EE232A"/>
</g>
<defs>
<clipPath id="clip0_758_5780">
<rect width="20" height="20" fill="white"/>
</clipPath>
</defs>
</svg>
