<svg width="20" height="20" viewBox="0 0 20 20" fill="none" xmlns="http://www.w3.org/2000/svg">
<g clip-path="url(#clip0_758_5821)">
<path d="M0 10.0168C0 9.60013 0.1 9.18346 0.308333 8.80013L3.86667 2.15846C4.3 1.35013 5.15 0.841797 6.06667 0.841797H13.95C14.875 0.841797 15.7167 1.35013 16.1583 2.1668L19.7 8.80013C20.1 9.55846 20.1 10.4585 19.7 11.2168L16.1583 17.8501C15.725 18.6668 14.875 19.1751 13.95 19.1751H6.06667C5.14167 19.1751 4.3 18.6668 3.86667 17.8585L0.308333 11.2251C0.1 10.8501 0 10.4335 0 10.0168Z" fill="#FFDFE0"/>
<path fill-rule="evenodd" clip-rule="evenodd" d="M6.54396 7.92714C5.73805 7.92434 5.08559 7.27016 5.08559 6.46357C5.08559 5.65527 5.74085 5 6.54916 5L6.55522 5.00001C7.36075 5.00329 8.01275 5.65729 8.01275 6.46359C8.01275 7.27189 7.35748 7.92716 6.54916 7.92716L6.54396 7.92714ZM5.13302 10.7794C4.93578 10.7794 4.77588 10.9393 4.77588 11.1366C4.77588 11.9259 5.16089 13.047 5.99206 13.9704C6.83514 14.9073 8.14116 15.6457 9.97704 15.6457C11.8129 15.6457 13.1189 14.9073 13.962 13.9704C14.7932 13.047 15.1782 11.9259 15.1782 11.1366C15.1782 10.9393 15.0183 10.7794 14.821 10.7794H5.13302ZM13.4475 7.92714C12.6407 7.92529 11.9874 7.27073 11.9874 6.46357C11.9874 5.65527 12.6426 5 13.4509 5L13.4544 5.00001C14.2611 5.00187 14.9145 5.65643 14.9145 6.46359C14.9145 7.27189 14.2592 7.92716 13.4509 7.92716L13.4475 7.92714Z" fill="#EE232A"/>
</g>
<defs>
<clipPath id="clip0_758_5821">
<rect width="20" height="20" fill="white"/>
</clipPath>
</defs>
</svg>
