<svg width="20" height="20" viewBox="0 0 20 20" fill="none" xmlns="http://www.w3.org/2000/svg">
<path d="M2.85742 18.5712V9.99979L10.0003 2.85693L17.1431 9.99979V18.5712C17.1431 19.3602 16.5036 19.9998 15.7146 19.9998H4.28599C3.49702 19.9998 2.85742 19.3602 2.85742 18.5712Z" fill="#FFC5C7"/>
<path fill-rule="evenodd" clip-rule="evenodd" d="M8.98984 1.84688C9.54774 1.28899 10.4523 1.28899 11.0102 1.84688L19.5816 10.4183C20.1394 10.9762 20.1394 11.8807 19.5816 12.4386C19.0237 12.9965 18.1191 12.9965 17.5613 12.4386L10 4.87734L2.43873 12.4386C1.88083 12.9965 0.97631 12.9965 0.418419 12.4386C-0.139473 11.8807 -0.139473 10.9762 0.418419 10.4183L8.98984 1.84688Z" fill="#EE232A"/>
</svg>
