<svg width="64" height="64" viewBox="0 0 64 64" fill="none" xmlns="http://www.w3.org/2000/svg">
<g clip-path="url(#clip0_190_774)">
<path fill-rule="evenodd" clip-rule="evenodd" d="M60.6526 60.6526C58.5094 62.7959 55.6025 64 52.5714 64L9.14285 64C8.85028 64 8.57097 63.9451 8.31359 63.845C11.4011 63.1771 13.7143 60.4301 13.7143 57.1429L13.7143 54.8571L13.7143 36.5714L13.7143 2.28571C13.7143 1.4624 14.1573 0.702629 14.8741 0.296688C15.5904 -0.109257 16.4699 -0.0978283 17.1758 0.325939L27.4286 6.47726L37.6811 0.325941C38.405 -0.108797 39.3093 -0.108797 40.0331 0.325941L50.2857 6.47726L60.5383 0.325943C61.2444 -0.0978243 62.1239 -0.109253 62.8405 0.296692C63.5571 0.702633 64 1.4624 64 2.28572L64 52.5714C64 55.6025 62.7959 58.5094 60.6526 60.6526Z" fill="#F9AFB1"/>
<path fill-rule="evenodd" clip-rule="evenodd" d="M44.5143 44.7907C45.8533 46.1297 48.0241 46.1297 49.3631 44.7907C50.702 43.4518 50.702 41.2809 49.3631 39.942L43.7062 34.2852L49.3631 28.6283C50.702 27.2894 50.702 25.1185 49.3631 23.7796C48.0241 22.4406 45.8533 22.4406 44.5143 23.7796L38.8575 29.4364L33.2006 23.7796C31.8617 22.4406 29.6908 22.4406 28.3519 23.7796C27.013 25.1185 27.013 27.2894 28.3519 28.6283L34.0087 34.2852L28.3519 39.942C27.013 41.2809 27.013 43.4518 28.3519 44.7907C29.6908 46.1297 31.8617 46.1297 33.2006 44.7907L38.8575 39.1339L44.5143 44.7907Z" fill="#EE232A"/>
<path d="M13.7144 57.1429L13.7144 36.5714L4.5715 36.5714C2.0467 36.5714 7.08835e-05 38.6181 7.06628e-05 41.1429L6.9264e-05 57.1429C6.89329e-05 60.93 3.07024 64 6.85721 64C10.6442 64 13.7144 60.93 13.7144 57.1429Z" fill="#EE232A"/>
</g>
<defs>
<clipPath id="clip0_190_774">
<rect width="64" height="64" fill="white" transform="translate(64 64) rotate(-180)"/>
</clipPath>
</defs>
</svg>
