<svg width="64" height="64" viewBox="0 0 64 64" fill="none" xmlns="http://www.w3.org/2000/svg">
<g clip-path="url(#clip0_190_783)">
<path d="M16.0002 29.4346C12.3363 29.4346 9.14307 32.2726 9.14307 36.0409V57.3932C9.14307 61.1619 12.3363 63.9999 16.0002 63.9999H48.0002C51.6642 63.9999 54.8574 61.1619 54.8574 57.3932V36.0409C54.8574 32.2726 51.6642 29.4346 48.0002 29.4346H16.0002Z" fill="#F9AFB1"/>
<path d="M11.4284 17.0029C7.76457 17.0029 4.57129 19.8409 4.57129 23.6093V44.9617C4.57129 48.7301 7.76457 51.568 11.4284 51.568H52.5713C56.2353 51.568 59.4284 48.7301 59.4284 44.9617V23.6093C59.4284 19.8409 56.2353 17.0029 52.5713 17.0029H11.4284Z" fill="#EE232A"/>
<path d="M6.85714 0C3.19327 0 0 2.83797 0 6.60635V32.5302C0 36.2986 3.19327 39.1365 6.85714 39.1365H57.1429C60.8069 39.1365 64 36.2986 64 32.5302V6.60635C64 2.83797 60.8069 0 57.1429 0H6.85714Z" fill="#F9AFB1"/>
<path fill-rule="evenodd" clip-rule="evenodd" d="M32.0003 11.3252C27.4476 11.3252 23.7569 15.0159 23.7569 19.5687C23.7569 24.1214 27.4476 27.8121 32.0003 27.8121C36.5531 27.8121 40.2438 24.1214 40.2438 19.5687C40.2438 15.0159 36.5531 11.3252 32.0003 11.3252ZM16.1308 20.5803C16.1308 22.4785 14.592 24.0173 12.6938 24.0173C10.7956 24.0173 9.25684 22.4785 9.25684 20.5803C9.25684 18.6821 10.7956 17.1433 12.6938 17.1433C14.592 17.1433 16.1308 18.6821 16.1308 20.5803ZM51.3067 24.0173C53.2047 24.0173 54.7435 22.4785 54.7435 20.5803C54.7435 18.6821 53.2047 17.1433 51.3067 17.1433C49.4082 17.1433 47.8694 18.6821 47.8694 20.5803C47.8694 22.4785 49.4082 24.0173 51.3067 24.0173Z" fill="#EE232A"/>
</g>
<defs>
<clipPath id="clip0_190_783">
<rect width="64" height="64" fill="white"/>
</clipPath>
</defs>
</svg>
