<svg width="32" height="32" viewBox="0 0 32 32" fill="none" xmlns="http://www.w3.org/2000/svg">
<path d="M15.0003 17.0003H7.66699C7.38366 17.0003 7.14616 16.9039 6.95449 16.7112C6.76283 16.5184 6.66699 16.2795 6.66699 15.9945C6.66699 15.7095 6.76283 15.4725 6.95449 15.2837C7.14616 15.0948 7.38366 15.0003 7.66699 15.0003H15.0003V7.66699C15.0003 7.38366 15.0967 7.14616 15.2895 6.95449C15.4823 6.76283 15.7212 6.66699 16.0062 6.66699C16.2912 6.66699 16.5281 6.76283 16.717 6.95449C16.9059 7.14616 17.0003 7.38366 17.0003 7.66699V15.0003H24.3337C24.617 15.0003 24.8545 15.0967 25.0462 15.2895C25.2378 15.4823 25.3337 15.7212 25.3337 16.0062C25.3337 16.2912 25.2378 16.5281 25.0462 16.717C24.8545 16.9059 24.617 17.0003 24.3337 17.0003H17.0003V24.3337C17.0003 24.617 16.9039 24.8545 16.7112 25.0462C16.5184 25.2378 16.2795 25.3337 15.9945 25.3337C15.7095 25.3337 15.4725 25.2378 15.2837 25.0462C15.0948 24.8545 15.0003 24.617 15.0003 24.3337V17.0003Z" fill="#A38F8F"/>
</svg>
