<svg width="56" height="56" viewBox="0 0 56 56" fill="none" xmlns="http://www.w3.org/2000/svg">
<circle cx="28" cy="28" r="27.5" fill="#FBF9F9" stroke="#EE232A"/>
<path d="M34.5023 29.0188C34.6854 28.8939 34.8226 28.7443 34.9139 28.5701C35.0055 28.3957 35.0513 28.2059 35.0513 28.0008C35.0513 27.7957 35.0055 27.6059 34.9139 27.4315C34.8226 27.2572 34.6854 27.1077 34.5023 26.9828L25.1743 21.0444C25.0736 20.9862 24.9678 20.9427 24.8569 20.9138C24.7463 20.8847 24.6406 20.8701 24.5399 20.8701C24.2175 20.8701 23.9358 20.9829 23.6949 21.2084C23.4538 21.4342 23.3333 21.7231 23.3333 22.0751V33.9265C23.3333 34.2785 23.454 34.5673 23.6956 34.7931C23.9372 35.0187 24.219 35.1315 24.5413 35.1315C24.6419 35.1315 24.7475 35.1169 24.8579 35.0878C24.9684 35.0589 25.0738 35.0153 25.1743 34.9571L34.5023 29.0188Z" fill="#EE232A"/>
</svg>
