<svg width="80" height="80" viewBox="0 0 80 80" fill="none" xmlns="http://www.w3.org/2000/svg">
<path opacity="0.2" d="M25 32.5V65H10C9.33696 65 8.70107 64.7366 8.23223 64.2678C7.76339 63.7989 7.5 63.163 7.5 62.5V35C7.5 34.337 7.76339 33.7011 8.23223 33.2322C8.70107 32.7634 9.33696 32.5 10 32.5H25Z" fill="#FAFDFF"/>
<path d="M73.125 25.0375C72.421 24.2398 71.5554 23.6009 70.5856 23.1634C69.6157 22.7259 68.5639 22.4998 67.5 22.5H50V17.5C50 14.1848 48.683 11.0054 46.3388 8.66117C43.9946 6.31696 40.8152 5 37.5 5C37.0356 4.99967 36.5802 5.12872 36.185 5.37269C35.7898 5.61666 35.4703 5.9659 35.2625 6.38125L23.4562 30H10C8.67392 30 7.40215 30.5268 6.46447 31.4645C5.52678 32.4021 5 33.6739 5 35V62.5C5 63.8261 5.52678 65.0979 6.46447 66.0355C7.40215 66.9732 8.67392 67.5 10 67.5H63.75C65.5772 67.5006 67.3418 66.8342 68.7124 65.6259C70.083 64.4175 70.9654 62.7504 71.1938 60.9375L74.9438 30.9375C75.0767 29.8813 74.9832 28.8089 74.6696 27.7917C74.356 26.7744 73.8295 25.8355 73.125 25.0375ZM10 35H22.5V62.5H10V35ZM69.9812 30.3125L66.2313 60.3125C66.1551 60.9168 65.861 61.4725 65.4041 61.8753C64.9473 62.2781 64.3591 62.5002 63.75 62.5H27.5V33.0906L38.9719 10.1438C40.6722 10.484 42.202 11.403 43.3011 12.7442C44.4001 14.0854 45.0005 15.766 45 17.5V25C45 25.663 45.2634 26.2989 45.7322 26.7678C46.2011 27.2366 46.837 27.5 47.5 27.5H67.5C67.8548 27.4999 68.2055 27.5753 68.5289 27.7211C68.8522 27.867 69.1409 28.0801 69.3756 28.3461C69.6103 28.6121 69.7857 28.925 69.8901 29.2641C69.9945 29.6031 70.0256 29.9605 69.9812 30.3125Z" fill="#FAFDFF"/>
</svg>
