<svg width="64" height="64" viewBox="0 0 64 64" fill="none" xmlns="http://www.w3.org/2000/svg">
<g clip-path="url(#clip0_190_740)">
<path fill-rule="evenodd" clip-rule="evenodd" d="M25.4946 7.72152C33.072 5.69116 40.7727 7.34812 46.6865 11.6001L43.902 14.3846C42.4621 15.8245 43.4819 18.2865 45.5183 18.2865H56.0003C57.2625 18.2865 58.286 17.2632 58.286 16.0008V5.51905C58.286 3.48269 55.8238 2.46288 54.3838 3.9028L51.5852 6.70154C43.9574 0.805642 33.7586 -1.59185 23.7199 1.09801C7.45108 5.45724 -2.51086 21.5984 0.551465 37.8834C0.901403 39.7444 2.69367 40.9693 4.5546 40.6194C6.41551 40.2694 7.64042 38.4771 7.29048 36.6162C4.88568 23.8277 12.7155 11.1457 25.4946 7.72152ZM63.4503 26.1181C63.1002 24.2572 61.3082 23.0323 59.4471 23.3822C57.5861 23.7322 56.3614 25.5244 56.7111 27.3854C59.1162 40.1739 51.2862 52.8561 38.5071 56.2801C30.9294 58.3107 23.2283 56.6531 17.3144 52.4008L20.0983 49.6172C21.5383 48.1772 20.5185 45.7151 18.4821 45.7151H8.00029C6.73793 45.7151 5.71457 46.7386 5.71457 48.0008V58.4826C5.71457 60.5187 8.17661 61.5386 9.61652 60.0986L12.4159 57.2995C20.0437 63.1958 30.2428 65.5935 40.2818 62.9036C56.5507 58.5443 66.5127 42.4032 63.4503 26.1181Z" fill="#F9AFB1"/>
<path fill-rule="evenodd" clip-rule="evenodd" d="M35.6827 18.4062C34.7788 14.4432 29.125 14.468 28.2558 18.4387L28.2197 18.604L28.1479 18.9311C27.069 23.7619 23.1842 27.469 18.3042 28.318C14.1746 29.0364 14.1747 34.9645 18.3042 35.6829C23.2012 36.5349 27.0961 40.2648 28.1591 45.1205L28.2558 45.5622C29.125 49.533 34.7788 49.5576 35.6827 45.5947L35.8001 45.0799C36.9034 40.2426 40.8031 36.5406 45.6912 35.6902C49.829 34.9704 49.829 29.0305 45.6912 28.3107C40.829 27.4648 36.9448 23.7975 35.8179 18.9979C35.7871 18.8665 35.7584 18.74 35.7275 18.6039L35.6827 18.4062Z" fill="#EE232A"/>
</g>
<defs>
<clipPath id="clip0_190_740">
<rect width="64" height="64" fill="white"/>
</clipPath>
</defs>
</svg>
