<svg width="64" height="64" viewBox="0 0 64 64" fill="none" xmlns="http://www.w3.org/2000/svg">
<g clip-path="url(#clip0_415_52)">
<path fill-rule="evenodd" clip-rule="evenodd" d="M11.6311 60.5714C11.6311 58.6779 13.1662 57.1428 15.0597 57.1428H31.0597C32.9532 57.1428 34.4883 58.6779 34.4883 60.5714C34.4883 62.4649 32.9532 64 31.0597 64H15.0597C13.1662 64 11.6311 62.4649 11.6311 60.5714Z" fill="#099CEE"/>
<path fill-rule="evenodd" clip-rule="evenodd" d="M41.2179 36.7418C39.3904 39.1282 37.1031 41.1439 34.4883 42.6564V48C34.4883 50.5248 32.4416 52.5714 29.9169 52.5714H16.2026C13.6779 52.5714 11.6311 50.5248 11.6311 48V42.6564C4.79914 38.7043 0.202576 31.3175 0.202576 22.8571C0.202576 10.2335 10.4361 0 23.0597 0C29.6633 0 35.6128 2.80033 39.7855 7.27826C39.2439 9.58117 37.3791 11.3435 35.0423 11.7501C25.571 13.3979 25.5712 26.9942 35.0423 28.6419C37.4094 29.0537 39.2922 30.8567 39.806 33.2038L39.8936 33.6044C40.1577 34.8108 40.6165 35.8567 41.2179 36.7418Z" fill="#F0F8FF"/>
<path fill-rule="evenodd" clip-rule="evenodd" d="M51.8999 7.81903C51.0295 4.00323 45.5858 4.02703 44.7488 7.85025L44.7159 8.00125L44.6512 8.29601C43.6914 12.5935 40.2355 15.8913 35.8943 16.6465C31.914 17.339 31.914 23.0528 35.8943 23.7453C40.2507 24.5032 43.7156 27.8214 44.6611 32.1409L44.7488 32.5415C45.5858 36.3648 51.0295 36.3886 51.8999 32.5728L52.0064 32.1059C52.9879 27.8022 56.4576 24.5085 60.8064 23.7519C64.7941 23.0582 64.7941 17.3336 60.8064 16.6399C56.4805 15.8873 53.0249 12.6245 52.0224 8.35434C51.9945 8.23599 51.9685 8.12244 51.941 7.99946L51.8999 7.81903Z" fill="#099CEE"/>
</g>
<defs>
<clipPath id="clip0_415_52">
<rect width="64" height="64" fill="white"/>
</clipPath>
</defs>
</svg>
