<svg width="64" height="64" viewBox="0 0 64 64" fill="none" xmlns="http://www.w3.org/2000/svg">
<g clip-path="url(#clip0_415_67)">
<path fill-rule="evenodd" clip-rule="evenodd" d="M27.5863 11.4597C24.6054 16.365 26.6547 23.9424 33.7338 25.1739C36.2239 25.6071 38.2044 27.5038 38.7449 29.9728L38.8371 30.3942C40.9118 39.8717 54.4069 39.9309 56.5641 30.4717L56.6761 29.9805C56.7255 29.7638 56.7863 29.5515 56.8567 29.3442V55.8175C56.8567 60.1206 53.3682 63.609 49.0652 63.609H7.92787C3.62463 63.609 0.136169 60.1206 0.136169 55.8175V19.2514C0.136169 14.9482 3.62464 11.4597 7.92787 11.4597H27.5863Z" fill="#9658FA"/>
<path fill-rule="evenodd" clip-rule="evenodd" d="M14.0828 35.6447C12.967 34.5289 11.158 34.5289 10.0422 35.6447C8.9264 36.7605 8.9264 38.5695 10.0422 39.6853L14.879 44.5221L10.0422 49.3589C8.9264 50.4748 8.9264 52.2837 10.0422 53.3996C11.158 54.5155 12.967 54.5155 14.0828 53.3996L20.9399 46.5424C22.0557 45.4267 22.0557 43.6176 20.9399 42.5019L14.0828 35.6447ZM25.7768 48.5223C24.1988 48.5223 22.9196 49.8014 22.9196 51.3795C22.9196 52.9571 24.1988 54.2366 25.7768 54.2366H32.6339C34.2119 54.2366 35.4911 52.9571 35.4911 51.3795C35.4911 49.8014 34.2119 48.5223 32.6339 48.5223H25.7768Z" fill="#F6F3FF"/>
<path fill-rule="evenodd" clip-rule="evenodd" d="M27.5863 11.4597C24.6054 16.365 26.6547 23.9424 33.7338 25.174C35.1861 25.4266 36.465 26.177 37.3861 27.2485H0.136169V19.2514C0.136169 14.9482 3.62464 11.4597 7.92787 11.4597H27.5863Z" fill="#F6F3FF"/>
<path fill-rule="evenodd" clip-rule="evenodd" d="M51.3518 3.29581C50.4645 -0.59451 44.9141 -0.57025 44.0608 3.32768L44.0263 3.48604L43.958 3.79707C42.9379 8.36464 39.2648 11.8697 34.6507 12.6724C30.5948 13.378 30.5949 19.2003 34.6507 19.9059C39.2809 20.7115 42.9636 24.2382 43.9686 28.8292L44.0608 29.2507C44.9141 33.1486 50.4645 33.1729 51.3518 29.2825L51.4638 28.7914C52.507 24.2174 56.1943 20.717 60.816 19.9129C64.88 19.206 64.88 13.3724 60.816 12.6654C56.2185 11.8656 52.5458 8.39792 51.4802 3.85971C51.451 3.73471 51.424 3.61459 51.3943 3.48498L51.3518 3.29581Z" fill="#F6F3FF"/>
</g>
<defs>
<clipPath id="clip0_415_67">
<rect width="64" height="64" fill="white"/>
</clipPath>
</defs>
</svg>
