<svg width="260" height="32" viewBox="0 0 260 32" fill="none" xmlns="http://www.w3.org/2000/svg">
<path d="M132.918 31.9997C130.036 31.9997 127.446 31.3201 125.147 29.9608C122.875 28.5738 121.088 26.6737 119.786 24.2603C118.511 21.8192 117.874 19.073 117.874 16.0216C117.874 12.9703 118.511 10.224 119.786 7.78293C121.088 5.34184 122.875 3.44167 125.147 2.08243C127.446 0.695445 130.036 0.00195312 132.918 0.00195312C134.912 0.00195312 136.755 0.37644 138.445 1.12541C140.135 1.84664 141.562 2.80366 142.725 3.99647C143.916 5.16153 144.775 6.40982 145.302 7.74132L142.185 9.11444C141.381 7.25588 140.176 5.79955 138.569 4.74544C136.963 3.66359 135.079 3.12267 132.918 3.12267C130.646 3.12267 128.623 3.66359 126.85 4.74544C125.077 5.82729 123.692 7.35297 122.695 9.32248C121.697 11.2643 121.199 13.4973 121.199 16.0216C121.199 18.5459 121.697 20.7928 122.695 22.7624C123.692 24.7041 125.077 26.216 126.85 27.2978C128.623 28.3519 130.646 28.879 132.918 28.879C135.079 28.879 136.963 28.3519 138.569 27.2978C140.176 26.2437 141.381 24.7874 142.185 22.9288L145.302 24.3019C144.775 25.6334 143.916 26.8956 142.725 28.0884C141.562 29.2534 140.135 30.1966 138.445 30.9178C136.755 31.6391 134.912 31.9997 132.918 31.9997Z" fill="#FBF9F9"/>
<path d="M202.441 0H212.933C216.073 0 218.814 0.658566 221.155 1.9757C223.524 3.2642 225.351 5.12536 226.636 7.5592C227.921 9.96439 228.563 12.7705 228.563 15.9774C228.563 19.1843 227.921 22.0047 226.636 24.4385C225.351 26.8437 223.524 28.7049 221.155 30.022C218.785 31.3392 216.045 31.9977 212.933 31.9977H202.441V0ZM212.933 28.7765C215.359 28.7765 217.472 28.2611 219.271 27.2303C221.098 26.1708 222.496 24.6819 223.467 22.7635C224.466 20.8451 224.966 18.583 224.966 15.9774C224.966 13.4004 224.466 11.1527 223.467 9.23424C222.496 7.31581 221.098 5.8412 219.271 4.8104C217.443 3.75096 215.331 3.22125 212.933 3.22125H205.867V28.7765H212.933Z" fill="#FBF9F9"/>
<path d="M173.871 31.9997C171.016 31.9997 168.397 31.3201 166.013 29.9608C163.656 28.5738 161.785 26.6598 160.399 24.2187C159.041 21.7776 158.362 19.0314 158.362 15.98C158.362 12.9286 159.041 10.1963 160.399 7.78293C161.785 5.34184 163.656 3.44167 166.013 2.08243C168.397 0.695445 171.016 0.00195312 173.871 0.00195312C176.727 0.00195312 179.332 0.695445 181.689 2.08243C184.045 3.44167 185.916 5.34184 187.302 7.78293C188.688 10.224 189.381 12.9564 189.381 15.98C189.381 19.0314 188.688 21.7776 187.302 24.2187C185.944 26.6598 184.073 28.5738 181.689 29.9608C179.332 31.3201 176.727 31.9997 173.871 31.9997ZM161.688 15.98C161.688 18.3379 162.201 20.5016 163.227 22.4711C164.28 24.4406 165.735 26.0079 167.593 27.173C169.45 28.3103 171.543 28.879 173.871 28.879C176.2 28.879 178.293 28.3103 180.15 27.173C182.007 26.0079 183.449 24.4406 184.475 22.4711C185.528 20.5016 186.055 18.3379 186.055 15.98C186.055 13.6499 185.528 11.5001 184.475 9.53053C183.449 7.56102 182.007 6.00759 180.15 4.87027C178.293 3.7052 176.2 3.12267 173.871 3.12267C171.543 3.12267 169.45 3.7052 167.593 4.87027C165.735 6.00759 164.28 7.56102 163.227 9.53053C162.201 11.5001 161.688 13.6499 161.688 15.98Z" fill="#FBF9F9"/>
<path fill-rule="evenodd" clip-rule="evenodd" d="M91.262 13.552L79.9971 0.00195312H75.4258L88.9763 16.1641L75.4258 31.9997H79.9971L91.262 18.7761L102.853 31.9997H107.425L93.5476 16.1641L107.425 0.00195312H102.853L91.262 13.552Z" fill="#FBF9F9"/>
<path fill-rule="evenodd" clip-rule="evenodd" d="M259.909 0.00195312H241.624V3.26703H259.909V0.00195312ZM259.909 28.7346H241.624V31.9997H259.909V28.7346Z" fill="#FBF9F9"/>
<path d="M241.624 17.6328H255.991V14.3677H241.624V17.6328Z" fill="#FBF9F9"/>
<path d="M41.7949 0.00195312H62.3657V3.23438H45.243V14.397H61.5036V17.6294H45.243V28.7673H62.3657V31.9997H41.7949V0.00195312Z" fill="#FBF9F9"/>
<path d="M0 0.00195312H3.3958V14.5479H22.7258V0.00195312H26.1216V31.9997H22.7258V17.7313H3.3958V31.9997H0V0.00195312Z" fill="#FBF9F9"/>
</svg>
