<svg width="158" height="34" viewBox="0 0 158 34" fill="none" xmlns="http://www.w3.org/2000/svg">
<path fill-rule="evenodd" clip-rule="evenodd" d="M14.429 8.71427L10.0005 16.9999L14.429 25.2856H24.1432L28.5718 16.9999L24.1432 8.71427H14.429ZM25.1432 7H13.429L8.00049 16.9999L13.429 26.9999H25.1432L30.5718 16.9999L25.1432 7Z" fill="white"/>
<path d="M28.5716 16.9999H30.5716L25.1431 26.9999L24.1431 25.2855L28.5716 16.9999Z" fill="white"/>
<path d="M10.0007 16.9999H8.00067L13.4292 7.00009L14.4292 8.71436L10.0007 16.9999Z" fill="white"/>
<path fill-rule="evenodd" clip-rule="evenodd" d="M21.1432 15.5713V18.4286H17.429V15.5715H16.0004L16.0004 18.4286L16.0004 19.8572L16.0004 22.2857H17.429V19.8572L24.5718 19.8572V18.4286L22.5718 18.4286V15.5713H22.5719V14.1428H22.5718V11.7144H21.1432V14.1428H14.0005V15.5713H21.1432Z" fill="white"/>
<rect x="16.0005" y="11.7144" width="1.42856" height="1.42856" fill="white"/>
<rect x="21.1431" y="20.8572" width="1.42856" height="1.42856" fill="white"/>
<path d="M94.4392 24.0001C93.1786 24.0001 92.0453 23.7028 91.0392 23.1081C90.0453 22.5012 89.2635 21.6699 88.6938 20.614C88.1362 19.5459 87.8574 18.3444 87.8574 17.0093C87.8574 15.6742 88.1362 14.4727 88.6938 13.4046C89.2635 12.3366 90.0453 11.5052 91.0392 10.9105C92.0453 10.3037 93.1786 10.0002 94.4392 10.0002C95.3119 10.0002 96.118 10.1641 96.8574 10.4918C97.5967 10.8073 98.221 11.2261 98.7301 11.748C99.2513 12.2577 99.627 12.8039 99.8573 13.3864L98.4937 13.9872C98.1422 13.174 97.6149 12.5369 96.9119 12.0757C96.2089 11.6023 95.3846 11.3656 94.4392 11.3656C93.4453 11.3656 92.5604 11.6023 91.7847 12.0757C91.0089 12.549 90.4029 13.2165 89.9665 14.0782C89.5301 14.9278 89.312 15.9048 89.312 17.0093C89.312 18.1138 89.5301 19.0968 89.9665 19.9586C90.4029 20.8081 91.0089 21.4696 91.7847 21.9429C92.5604 22.4041 93.4453 22.6347 94.4392 22.6347C95.3846 22.6347 96.2089 22.4041 96.9119 21.9429C97.6149 21.4817 98.1422 20.8446 98.4937 20.0314L99.8573 20.6322C99.627 21.2147 99.2513 21.767 98.7301 22.2888C98.221 22.7986 97.5967 23.2112 96.8574 23.5268C96.118 23.8424 95.3119 24.0001 94.4392 24.0001Z" fill="white"/>
<path d="M124.857 9.99976H129.447C130.821 9.99976 132.02 10.2879 133.044 10.8642C134.081 11.4279 134.88 12.2422 135.442 13.3071C136.004 14.3595 136.285 15.5872 136.285 16.9903C136.285 18.3934 136.004 19.6274 135.442 20.6923C134.88 21.7446 134.081 22.559 133.044 23.1352C132.008 23.7115 130.808 23.9997 129.447 23.9997H124.857V9.99976ZM129.447 22.5903C130.509 22.5903 131.433 22.3648 132.22 21.9138C133.019 21.4502 133.631 20.7988 134.056 19.9594C134.493 19.1201 134.712 18.1303 134.712 16.9903C134.712 15.8628 134.493 14.8794 134.056 14.04C133.631 13.2006 133.019 12.5554 132.22 12.1044C131.421 11.6409 130.496 11.4091 129.447 11.4091H126.356V22.5903H129.447Z" fill="white"/>
<path d="M112.357 24.0001C111.108 24.0001 109.962 23.7028 108.919 23.1081C107.888 22.5012 107.069 21.6638 106.463 20.5958C105.868 19.5277 105.571 18.3262 105.571 16.9911C105.571 15.656 105.868 14.4606 106.463 13.4046C107.069 12.3366 107.888 11.5052 108.919 10.9105C109.962 10.3037 111.108 10.0002 112.357 10.0002C113.606 10.0002 114.746 10.3037 115.777 10.9105C116.808 11.5052 117.627 12.3366 118.233 13.4046C118.839 14.4727 119.143 15.6682 119.143 16.9911C119.143 18.3262 118.839 19.5277 118.233 20.5958C117.639 21.6638 116.82 22.5012 115.777 23.1081C114.746 23.7028 113.606 24.0001 112.357 24.0001ZM107.027 16.9911C107.027 18.0227 107.251 18.9694 107.7 19.8311C108.161 20.6928 108.797 21.3786 109.61 21.8883C110.423 22.3859 111.338 22.6347 112.357 22.6347C113.376 22.6347 114.291 22.3859 115.104 21.8883C115.917 21.3786 116.547 20.6928 116.996 19.8311C117.457 18.9694 117.687 18.0227 117.687 16.9911C117.687 15.9716 117.457 15.031 116.996 14.1693C116.547 13.3075 115.917 12.6279 115.104 12.1303C114.291 11.6205 113.376 11.3656 112.357 11.3656C111.338 11.3656 110.423 11.6205 109.61 12.1303C108.797 12.6279 108.161 13.3075 107.7 14.1693C107.251 15.031 107.027 15.9716 107.027 16.9911Z" fill="white"/>
<path fill-rule="evenodd" clip-rule="evenodd" d="M76.2142 15.9288L71.2856 10.0002H69.2856L75.2142 17.0716L69.2856 24.0001H71.2856L76.2142 18.2145L81.2856 24.0001H83.2855L77.2142 17.0716L83.2855 10.0002H81.2856L76.2142 15.9288Z" fill="white"/>
<path fill-rule="evenodd" clip-rule="evenodd" d="M149.999 10.0002H142V11.4288H149.999V10.0002ZM149.999 22.5716H142V24.0001H149.999V22.5716Z" fill="white"/>
<path d="M142 17.7144H148.285V16.2858H142V17.7144Z" fill="white"/>
<path d="M54.5718 10.0002H63.5717V11.4145H56.0803V16.2985H63.1946V17.7128H56.0803V22.5859H63.5717V24.0001H54.5718V10.0002Z" fill="white"/>
<path d="M36.2861 10.0002H37.7718V16.3645H46.2289V10.0002H47.7146V24.0001H46.2289V17.7573H37.7718V24.0001H36.2861V10.0002Z" fill="white"/>
</svg>
