<svg width="142" height="20" viewBox="0 0 142 20" fill="none" xmlns="http://www.w3.org/2000/svg">
<path fill-rule="evenodd" clip-rule="evenodd" d="M6.42853 1.71427L1.99999 9.99993L6.42853 18.2856H16.1427L20.5713 9.99993L16.1427 1.71427H6.42853ZM17.1427 0H5.42853L0 9.99993L5.42853 19.9999H17.1427L22.5713 9.99993L17.1427 0Z" fill="#0D160B"/>
<path d="M20.5714 10H22.5713L17.1428 20.0001L16.1428 18.2857L20.5714 10Z" fill="#EE2329"/>
<path d="M1.99993 10H-6.00815e-05L5.42847 0.000207901L6.42847 1.71448L1.99993 10Z" fill="#EE2329"/>
<path fill-rule="evenodd" clip-rule="evenodd" d="M13.1428 8.57135V11.4286H9.42855V8.57147H7.99999L7.99999 11.4286L7.99999 12.8572L7.99999 15.2857H9.42855V12.8572L16.5714 12.8572V11.4286L14.5714 11.4286V8.57135H14.5714V7.14279H14.5714V4.71436H13.1428V7.14279H6.00005V8.57135H13.1428Z" fill="#0D160B"/>
<rect x="8" y="4.71436" width="1.42856" height="1.42856" fill="#EE2329"/>
<rect x="13.1428" y="13.8574" width="1.42856" height="1.42856" fill="#EE2329"/>
<path d="M86.4385 17.0004C85.1779 17.0004 84.0445 16.703 83.0385 16.1083C82.0446 15.5015 81.2627 14.6701 80.693 13.6142C80.1355 12.5462 79.8567 11.3446 79.8567 10.0095C79.8567 8.67448 80.1355 7.47293 80.693 6.40489C81.2627 5.33684 82.0446 4.50546 83.0385 3.91076C84.0445 3.30391 85.1779 3.00049 86.4385 3.00049C87.3112 3.00049 88.1172 3.16434 88.8566 3.49203C89.596 3.80759 90.2203 4.22631 90.7293 4.7482C91.2506 5.25795 91.6263 5.80411 91.8566 6.38668L90.493 6.98746C90.1415 6.17429 89.6142 5.5371 88.9112 5.0759C88.2081 4.60256 87.3839 4.36589 86.4385 4.36589C85.4445 4.36589 84.5597 4.60256 83.7839 5.0759C83.0082 5.54924 82.4021 6.21676 81.9658 7.07848C81.5294 7.92807 81.3112 8.90509 81.3112 10.0095C81.3112 11.114 81.5294 12.0971 81.9658 12.9588C82.4021 13.8084 83.0082 14.4699 83.7839 14.9432C84.5597 15.4044 85.4445 15.635 86.4385 15.635C87.3839 15.635 88.2081 15.4044 88.9112 14.9432C89.6142 14.482 90.1415 13.8448 90.493 13.0316L91.8566 13.6324C91.6263 14.215 91.2506 14.7672 90.7293 15.2891C90.2203 15.7988 89.596 16.2115 88.8566 16.5271C88.1172 16.8426 87.3112 17.0004 86.4385 17.0004Z" fill="#0D160B"/>
<path d="M116.856 3H121.447C122.82 3 124.02 3.28814 125.044 3.86442C126.08 4.42818 126.88 5.24249 127.442 6.30736C128.004 7.3597 128.285 8.58743 128.285 9.99056C128.285 11.3937 128.004 12.6277 127.442 13.6925C126.88 14.7449 126.08 15.5592 125.044 16.1355C124.007 16.7118 122.808 16.9999 121.447 16.9999H116.856V3ZM121.447 15.5905C122.508 15.5905 123.433 15.365 124.219 14.914C125.019 14.4505 125.631 13.799 126.055 12.9597C126.493 12.1203 126.711 11.1306 126.711 9.99056C126.711 8.86305 126.493 7.87961 126.055 7.04024C125.631 6.20087 125.019 5.55569 124.219 5.10468C123.42 4.64115 122.496 4.40939 121.447 4.40939H118.355V15.5905H121.447Z" fill="#0D160B"/>
<path d="M104.356 17.0004C103.107 17.0004 101.961 16.703 100.918 16.1083C99.8873 15.5015 99.0686 14.664 98.4622 13.596C97.8679 12.5279 97.5708 11.3264 97.5708 9.99134C97.5708 8.65628 97.8679 7.4608 98.4622 6.40489C99.0686 5.33684 99.8873 4.50546 100.918 3.91076C101.961 3.30391 103.107 3.00049 104.356 3.00049C105.606 3.00049 106.746 3.30391 107.777 3.91076C108.807 4.50546 109.626 5.33684 110.233 6.40489C110.839 7.47293 111.142 8.66842 111.142 9.99134C111.142 11.3264 110.839 12.5279 110.233 13.596C109.638 14.664 108.82 15.5015 107.777 16.1083C106.746 16.703 105.606 17.0004 104.356 17.0004ZM99.0262 9.99134C99.0262 11.023 99.2505 11.9697 99.6993 12.8314C100.16 13.6931 100.797 14.3788 101.609 14.8886C102.422 15.3862 103.338 15.635 104.356 15.635C105.375 15.635 106.291 15.3862 107.103 14.8886C107.916 14.3788 108.547 13.6931 108.995 12.8314C109.456 11.9697 109.687 11.023 109.687 9.99134C109.687 8.97184 109.456 8.03123 108.995 7.16951C108.547 6.30779 107.916 5.62812 107.103 5.13051C106.291 4.62076 105.375 4.36589 104.356 4.36589C103.338 4.36589 102.422 4.62076 101.609 5.13051C100.797 5.62812 100.16 6.30779 99.6993 7.16951C99.2505 8.03123 99.0262 8.97184 99.0262 9.99134Z" fill="#0D160B"/>
<path fill-rule="evenodd" clip-rule="evenodd" d="M68.2139 8.92902L63.2854 3.00049H61.2854L67.2139 10.0719L61.2854 17.0004H63.2854L68.2139 11.2147L73.2853 17.0004H75.2853L69.2139 10.0719L75.2853 3.00049H73.2853L68.2139 8.92902Z" fill="#0D160B"/>
<path fill-rule="evenodd" clip-rule="evenodd" d="M141.999 3.00049H133.999V4.42905H141.999V3.00049ZM141.999 15.5718H133.999V17.0004H141.999V15.5718Z" fill="#0D160B"/>
<path d="M133.999 10.7144H140.285V9.28579H133.999V10.7144Z" fill="#EE2329"/>
<path d="M46.5713 3.00049H55.5712V4.41477H48.0799V9.29873H55.1941V10.713H48.0799V15.5861H55.5712V17.0004H46.5713V3.00049Z" fill="#0D160B"/>
<path d="M28.2856 3.00049H29.7713V9.36473H38.2284V3.00049H39.7141V17.0004H38.2284V10.7576H29.7713V17.0004H28.2856V3.00049Z" fill="#0D160B"/>
</svg>
