<svg width="58" height="58" viewBox="0 0 58 58" fill="none" xmlns="http://www.w3.org/2000/svg">
<g clip-path="url(#clip0_2232_15182)">
<path fill-rule="evenodd" clip-rule="evenodd" d="M29 0C45.0163 0 58 12.9838 58 29C58 45.0163 45.0163 58 29 58C12.9838 58 0 45.0163 0 29C0 12.9838 12.9838 0 29 0Z" fill="#FFF2CC"/>
<path fill-rule="evenodd" clip-rule="evenodd" d="M36.2529 57.0855C33.9346 57.6825 31.5041 57.9999 28.9995 57.9999C18.5905 57.9999 9.46236 52.516 4.34668 44.2795C7.83534 39.405 12.703 35.9909 18.936 35.9909C29.6525 35.9909 35.2995 44.8223 36.1089 54.5157C36.1783 55.3468 36.234 56.2209 36.2529 57.0855ZM54.1641 43.4232C51.0495 48.8458 46.2322 53.166 40.4422 55.655C40.5629 55.138 40.6053 54.5969 40.5594 54.0472C40.1146 48.7199 38.3226 43.2989 34.8205 39.1008C34.6327 38.8757 34.4405 38.6548 34.2439 38.4382C36.4117 37.3414 38.8099 36.7677 41.2456 36.7677C43.906 36.7677 46.5214 37.4521 48.841 38.755C49.8444 39.3186 50.7773 39.9897 51.6254 40.7536L54.1641 43.4232ZM28.8931 22.7365C28.8931 17.5995 24.7287 13.4351 19.5917 13.4351C14.4546 13.4351 10.2902 17.5995 10.2902 22.7365C10.2902 27.8736 14.4546 32.038 19.5917 32.038C24.7287 32.038 28.8931 27.8736 28.8931 22.7365ZM41.1712 17.7307C45.4273 17.7307 48.877 21.1808 48.877 25.4367C48.877 29.6926 45.4273 33.1427 41.1712 33.1427C36.9153 33.1427 33.4652 29.6926 33.4652 25.4367C33.4652 21.1808 36.9153 17.7307 41.1712 17.7307Z" fill="#FED35B"/>
</g>
<defs>
<clipPath id="clip0_2232_15182">
<rect width="58" height="58" fill="white"/>
</clipPath>
</defs>
</svg>
