<svg width="58" height="58" viewBox="0 0 58 58" fill="none" xmlns="http://www.w3.org/2000/svg">
<path d="M0 29.0484C0 27.8401 0.29 26.6318 0.894167 25.5201L11.2133 6.25925C12.47 3.91508 14.935 2.44092 17.5933 2.44092L40.455 2.44092C43.1375 2.44092 45.5783 3.91508 46.8592 6.28342L57.13 25.5201C58.29 27.7193 58.29 30.3293 57.13 32.5284L46.8592 51.7651C45.6025 54.1334 43.1375 55.6076 40.455 55.6076H17.5933C14.9108 55.6076 12.47 54.1334 11.2133 51.7893L0.894167 32.5526C0.29 31.4651 0 30.2568 0 29.0484Z" fill="#C3ABFF"/>
<path fill-rule="evenodd" clip-rule="evenodd" d="M18.9761 22.9887C16.6389 22.9806 14.7468 21.0835 14.7468 18.7444C14.7468 16.4003 16.6471 14.5 18.9912 14.5L19.0087 14.5C21.3448 14.5095 23.2356 16.4061 23.2356 18.7444C23.2356 21.0885 21.3353 22.9888 18.9912 22.9888L18.9761 22.9887ZM14.8843 31.2603C14.3123 31.2603 13.8486 31.724 13.8486 32.2961C13.8486 34.585 14.9652 37.8362 17.3756 40.5142C19.8205 43.2311 23.608 45.3726 28.932 45.3726C34.256 45.3726 38.0435 43.2311 40.4884 40.5142C42.8988 37.8362 44.0153 34.585 44.0153 32.2961C44.0153 31.724 43.5518 31.2603 42.9796 31.2603H14.8843ZM38.9962 22.9887C36.6568 22.9833 34.7619 21.0851 34.7619 18.7444C34.7619 16.4003 36.6622 14.5 39.0063 14.5L39.0164 14.5C41.3558 14.5054 43.2506 16.4036 43.2506 18.7444C43.2506 21.0885 41.3504 22.9888 39.0063 22.9888L38.9962 22.9887Z" fill="white"/>
</svg>
