<svg width="64" height="64" viewBox="0 0 64 64" fill="none" xmlns="http://www.w3.org/2000/svg">
<g clip-path="url(#clip0_2222_10)">
<path fill-rule="evenodd" clip-rule="evenodd" d="M11.6313 60.5716C11.6313 58.6782 13.1664 57.1431 15.0599 57.1431H31.0599C32.9535 57.1431 34.4885 58.6782 34.4885 60.5716C34.4885 62.4651 32.9535 64.0002 31.0599 64.0002H15.0599C13.1664 64.0002 11.6313 62.4651 11.6313 60.5716Z" fill="#CB9601"/>
<path fill-rule="evenodd" clip-rule="evenodd" d="M41.2179 36.7418C39.3904 39.1282 37.1031 41.1439 34.4883 42.6564V48C34.4883 50.5248 32.4417 52.5714 29.9169 52.5714H16.2026C13.6779 52.5714 11.6312 50.5248 11.6312 48V42.6564C4.7992 38.7043 0.202637 31.3175 0.202637 22.8571C0.202637 10.2335 10.4361 0 23.0598 0C29.6633 0 35.6128 2.80033 39.7856 7.27826C39.244 9.58117 37.3792 11.3435 35.0424 11.7501C25.571 13.3979 25.5713 26.9942 35.0424 28.6419C37.4095 29.0537 39.2922 30.8567 39.806 33.2038L39.8937 33.6044C40.1578 34.8108 40.6165 35.8567 41.2179 36.7418Z" fill="#FFF8E6"/>
<path fill-rule="evenodd" clip-rule="evenodd" d="M51.9 7.81879C51.0296 4.00299 45.5859 4.02679 44.7489 7.85001L44.716 8.001L44.6513 8.29577C43.6916 12.5933 40.2356 15.891 35.8944 16.6463C31.9141 17.3387 31.9141 23.0526 35.8944 23.7451C40.2508 24.5029 43.7157 27.8211 44.6613 32.1407L44.7489 32.5413C45.5859 36.3645 51.0296 36.3883 51.9 32.5726L52.0065 32.1056C52.988 27.8019 56.4577 24.5083 60.8065 23.7517C64.7942 23.0579 64.7942 17.3334 60.8065 16.6396C56.4806 15.8871 53.0251 12.6242 52.0225 8.3541C51.9947 8.23575 51.9686 8.12219 51.9412 7.99922L51.9 7.81879Z" fill="#CB9601"/>
</g>
<defs>
<clipPath id="clip0_2222_10">
<rect width="64" height="64" fill="white"/>
</clipPath>
</defs>
</svg>
